<?xml version="1.0" encoding="UTF-8"?>
<svg xmlns="http://www.w3.org/2000/svg" viewBox="0 0 54 54" width="54" height="54">
  <defs/>
  <path d="M25.657,18.573s3.206,-4.082 3.498,-4.373c0,-0.584 0.292,-1.166 -0.584,-1.458 -0.874,-0.584 -3.498,-2.04 -4.082,-2.624 -0.584,-0.292 -0.584,-2.04 1.166,-2.332 1.57,-0.261 12.972,-1.223 19.305,-0.997a26.7,26.7 0,0 0,-4.431 -3.233C36.045,1.196 31.428,0 26.809,0c-4.838,0 -9.38,1.191 -13.478,3.524C4.983,8.682 0,17.459 0,27c0,6.71 2.518,13.103 6.861,18.007 2.748,-4.06 17.464,-25.103 18.796,-26.434m25.655,-3.306c5.138,-5.439 1.488,-8.475 -4.313,-8.348 5.47,0.587 4.895,2.038 4.895,3.2 0,1.165 -2.332,3.206 -5.248,5.83 0,0 -4.956,4.664 -8.746,7.87S22.74,36.938 20.409,38.688c-2.332,1.75 -11.079,8.162 -11.661,8.746 -0.584,0.292 -2.04,1.75 -2.916,0.874 1.156,1.154 2.999,0.967 4.81,0.233a27,27 0,0 0,2.866 1.929C17.334,52.746 22.125,54 27,54c4.838,0 9.38,-1.191 13.5,-3.535C48.828,45.618 54,36.627 54,27c0,-4.12 -0.953,-8.122 -2.688,-11.733" fill="#df493a"/>
  <path d="M8.322,47.845c0.59,-0.587 9.44,-7.025 11.8,-8.782s13.865,-11.708 17.7,-14.93c3.833,-3.22 8.85,-7.902 8.85,-7.902 2.95,-2.635 5.31,-4.683 5.31,-5.854 0,-1.166 0.581,-2.623 -4.953,-3.213l-0.062,-0.006a30,30 0,0 0,-2 -0.124c-6.408,-0.225 -17.948,0.739 -19.535,1.001 -1.77,0.293 -1.77,2.049 -1.18,2.342 0.591,0.586 3.245,2.048 4.13,2.635 0.885,0.293 0.592,0.877 0.592,1.463 -0.296,0.294 -3.54,4.39 -3.54,4.39 -1.348,1.338 -16.24,22.466 -19.02,26.545q-0.233,0.333 -0.449,0.678c-0.59,0.877 -1.475,1.757 -0.59,2.634 0.882,0.88 2.357,-0.584 2.947,-0.877" fill="#fff"/>
</svg>
