<svg xmlns="http://www.w3.org/2000/svg" viewBox="0 0 32 32">
  <style>
    path {
      fill: black;
    }

    @media (prefers-color-scheme: dark) {
      path {
        fill: white;
      }
    }
  </style>
  <path fill-rule="evenodd" fill="black"
    d="M23.579 6.547l2.957-4.6L24.411.58l-2.344 3.647C20.57 2.532 18.547 1.684 16 1.684c-3.066 0-5.386 1.23-6.96 3.688-1.548 2.43-2.321 5.967-2.321 10.607 0 3.96.563 7.125 1.689 9.495l-2.944 4.58 2.125 1.366 2.333-3.628c1.515 1.682 3.542 2.524 6.078 2.524 3.067 0 5.373-1.23 6.92-3.688 1.575-2.458 2.362-6.008 2.362-10.649 0-3.94-.568-7.084-1.703-9.432zm-3.58.897a4.893 4.893 0 00-.02-.042C19.093 5.607 17.768 4.71 16 4.71c-1.795 0-3.135.884-4.019 2.652-.856 1.768-1.284 4.64-1.284 8.618 0 2.097.119 3.89.357 5.38l8.945-13.915zM11.967 24.61l8.97-13.955c.245 1.474.367 3.248.367 5.324 0 3.978-.442 6.865-1.326 8.66-.884 1.768-2.21 2.652-3.978 2.652-1.795 0-3.135-.884-4.019-2.652a8.47 8.47 0 01-.014-.03z"
    clip-rule="evenodd" />
</svg>