<?xml version="1.0" standalone="no"?>
<!DOCTYPE svg PUBLIC "-//W3C//DTD SVG 20010904//EN"
 "http://www.w3.org/TR/2001/REC-SVG-20010904/DTD/svg10.dtd">
<svg version="1.0" xmlns="http://www.w3.org/2000/svg"
 width="700.000000pt" height="700.000000pt" viewBox="0 0 700.000000 700.000000"
 preserveAspectRatio="xMidYMid meet">
<metadata>
Created by potrace 1.11, written by Peter Selinger 2001-2013
</metadata>
<g transform="translate(0.000000,700.000000) scale(0.100000,-0.100000)"
fill="#000000" stroke="none">
<path d="M2555 6994 c-271 -40 -362 -61 -535 -121 -209 -74 -481 -226 -656
-367 -152 -122 -352 -341 -450 -491 -184 -283 -282 -569 -589 -1715 -273
-1021 -319 -1249 -319 -1580 0 -258 31 -435 120 -691 179 -514 580 -986 1034
-1214 268 -135 532 -218 1555 -491 983 -263 1246 -317 1555 -318 197 -1 304
13 505 64 407 104 737 292 1036 590 309 308 447 573 638 1225 140 480 425
1569 480 1835 61 300 82 538 62 725 -64 600 -345 1128 -806 1513 -314 263
-579 366 -1770 687 -1053 283 -1336 343 -1655 350 -96 2 -188 1 -205 -1z
m1808 -1575 c45 -23 84 -43 87 -46 2 -2 -54 -120 -124 -262 l-129 -258 45 -79
c175 -311 251 -690 251 -1249 0 -406 -40 -709 -127 -970 -135 -402 -346 -635
-663 -732 -81 -24 -102 -27 -268 -27 -146 -1 -193 2 -249 18 -143 38 -268 102
-355 181 l-40 37 -106 -211 -105 -211 -90 45 c-50 25 -90 47 -90 50 0 3 56
117 124 253 l124 247 -43 72 c-117 200 -202 518 -235 873 -15 172 -13 615 5
788 71 700 327 1139 742 1272 176 57 398 62 577 15 88 -23 212 -85 290 -144
37 -29 70 -51 71 -49 2 2 51 99 109 216 58 116 108 212 111 212 3 0 42 -19 88
-41z"/>
<path d="M3283 4975 c-258 -70 -437 -330 -523 -756 -67 -334 -73 -946 -14
-1334 18 -116 52 -266 64 -279 5 -5 252 478 550 1074 l541 1082 -26 34 c-61
79 -172 148 -290 179 -74 19 -231 19 -302 0z"/>
<path d="M3483 3407 c-461 -930 -540 -1094 -531 -1112 18 -34 122 -129 172
-159 81 -47 153 -67 266 -73 78 -4 121 -1 167 10 295 76 483 370 557 872 54
366 46 962 -19 1310 -19 98 -55 234 -64 239 -4 3 -250 -487 -548 -1087z"/>
</g>
</svg>
