<?xml version="1.0" encoding="UTF-8"?>
<!DOCTYPE svg
PUBLIC "-//W3C//DTD SVG 1.1//EN"
       "http://www.w3.org/Graphics/SVG/1.1/DTD/svg11.dtd">
<svg version="1.1" xmlns="http://www.w3.org/2000/svg" xmlns:xlink="http://www.w3.org/1999/xlink" viewBox="0 0 24 24">
 <path d="M11.25 16.0001V12.0001H12.75V16.0001H11.25Z" fill="#151516"/>
 <path d="M7.25 12.0001V16.0001H8.75V12.0001H7.25Z" fill="#151516"/>
 <path d="M15.25 16.0001V12.0001H16.75V16.0001H15.25Z" fill="#151516"/>
 <path clip-rule="evenodd" d="M8.2116 4.2373L6.95733 8.00012H17.0427L15.7884 4.2373H17.3695L18.6238 8.00012H23V9.50012H21.6557L19.4084 19.388C19.2273 20.1848 18.519 20.7502 17.7019 20.7502H6.29839C5.48132 20.7502 4.77299 20.1848 4.59191 19.388L2.34466 9.50012H1L1 8.00012H5.37619L6.63046 4.2373H8.2116ZM3.88292 9.50012L6.05461 19.0556C6.08048 19.1694 6.18167 19.2502 6.29839 19.2502H17.7019C17.8187 19.2502 17.9198 19.1694 17.9457 19.0556L20.1174 9.50012H3.88292Z" fill="#151516" fill-rule="evenodd"/>
</svg>
