<?xml version="1.0" encoding="UTF-8"?>
<!DOCTYPE svg
PUBLIC "-//W3C//DTD SVG 1.1//EN"
       "http://www.w3.org/Graphics/SVG/1.1/DTD/svg11.dtd">
<svg version="1.1" xmlns="http://www.w3.org/2000/svg" xmlns:xlink="http://www.w3.org/1999/xlink" viewBox="0 0 24 24">
 <path clip-rule="evenodd" d="M16.3068 3.5C15.8491 3.5 15.4781 3.87105 15.4781 4.32876V21.7327H17.1356V17.0364H20.1744C20.9373 17.0364 21.5557 16.418 21.5557 15.6552V7.64381C21.5557 4.57319 18.8956 3.5 16.3068 3.5ZM19.8981 15.3789H17.1356V5.15752C18.5816 5.15752 19.8981 6.07689 19.8981 7.64381V15.3789Z" fill="#151516" fill-rule="evenodd"/>
 <path d="M2.58678 9.14782L3.33142 4.05251H4.97229L4.22764 9.38223C4.10877 10.2144 4.75445 10.9588 5.59503 10.9588H6.36171V4.05251H8.01923V10.9588H8.78627C9.62684 10.9588 10.2725 10.2143 10.1537 9.38223L9.40901 4.05251H11.0499L11.7945 9.14782C12.056 10.9785 10.6355 12.6164 8.78627 12.6164H8.01923V21.7327H6.36171V12.6164H5.59503C3.74577 12.6164 2.32525 10.9785 2.58678 9.14782Z" fill="#151516"/>
</svg>
