<?xml version="1.0" encoding="UTF-8"?>
<!DOCTYPE svg
PUBLIC "-//W3C//DTD SVG 1.1//EN"
       "http://www.w3.org/Graphics/SVG/1.1/DTD/svg11.dtd">
<svg version="1.1" xmlns="http://www.w3.org/2000/svg" xmlns:xlink="http://www.w3.org/1999/xlink" viewBox="0 0 24 24">
 <path clip-rule="evenodd" d="M11.0025 2.9792V2.36426H12.6749V2.9792H11.0025ZM10.7525 0.864258C10.0621 0.864258 9.50246 1.4239 9.50246 2.11426V3.2292C9.50246 3.91955 10.0621 4.4792 10.7525 4.4792H12.9249C13.6152 4.4792 14.1749 3.91955 14.1749 3.2292V2.11426C14.1749 1.4239 13.6152 0.864258 12.9249 0.864258H10.7525ZM13.5973 6.28666L10.0801 6.28666C9.2517 6.28666 8.58012 6.95823 8.58012 7.78666V8.31203H15.0973V7.78666C15.0973 6.95824 14.4258 6.28666 13.5973 6.28666ZM10.0801 4.78666C8.42327 4.78666 7.08012 6.12981 7.08012 7.78666V8.31203V9.81203H8.58012H15.0973H16.5973V8.31203V7.78666C16.5973 6.12981 15.2542 4.78666 13.5973 4.78666H10.0801ZM7.08012 12.9389H16.5973V11.4389H7.08012V12.9389ZM8.58008 16.129H15.0973V21.0001C15.0973 21.2763 14.8734 21.5001 14.5973 21.5001H9.08008C8.80394 21.5001 8.58008 21.2763 8.58008 21.0001V16.129ZM7.08008 14.629H8.58008H15.0973H16.5973V16.129V21.0001C16.5973 22.1047 15.7019 23.0001 14.5973 23.0001H9.08008C7.97551 23.0001 7.08008 22.1047 7.08008 21.0001V16.129V14.629Z" fill="#151516" fill-rule="evenodd"/>
</svg>
