<?xml version="1.0" encoding="UTF-8"?>
<!DOCTYPE svg
PUBLIC "-//W3C//DTD SVG 1.1//EN"
       "http://www.w3.org/Graphics/SVG/1.1/DTD/svg11.dtd">
<svg version="1.1" xmlns="http://www.w3.org/2000/svg" xmlns:xlink="http://www.w3.org/1999/xlink" viewBox="0 0 24 24">
 <defs/>
 <g clip-path="url(#clip0_405_13660)">
  <path clip-rule="evenodd" d="M11 0.25C10.3096 0.25 9.75 0.809645 9.75 1.5V6.78679C8.28422 7.37899 7.25 8.81542 7.25 10.4934V22.2538C7.25 23.3796 8.2815 24.1847 9.34594 24.0097C10.1311 23.8805 11.1427 23.75 12 23.75C12.8573 23.75 13.8689 23.8805 14.6541 24.0097C15.7185 24.1847 16.75 23.3796 16.75 22.2538V10.4895C16.75 8.81222 15.7156 7.37654 14.25 6.78553V1.5C14.25 0.809644 13.6904 0.25 13 0.25H11ZM12.8747 8H12.75V4.25H11.25V8H11.1291C9.80487 8.06109 8.75 9.15406 8.75 10.4934V22.2538C8.75 22.4072 8.90466 22.5621 9.10249 22.5295C9.91241 22.3963 11.0194 22.25 12 22.25C12.9806 22.25 14.0876 22.3963 14.8975 22.5295C15.0953 22.5621 15.25 22.4072 15.25 22.2538V10.4895C15.25 9.15228 14.1968 8.06104 12.8747 8ZM12.75 1.75V2.75H11.25V1.75H12.75ZM10 15.75H14V14.25H10V15.75Z" fill="#151516" fill-rule="evenodd"/>
 </g>
</svg>
