<?xml version="1.0" encoding="UTF-8"?>
<!DOCTYPE svg
PUBLIC "-//W3C//DTD SVG 1.1//EN"
       "http://www.w3.org/Graphics/SVG/1.1/DTD/svg11.dtd">
<svg version="1.1" xmlns="http://www.w3.org/2000/svg" xmlns:xlink="http://www.w3.org/1999/xlink" viewBox="0 0 24 24">
 <path clip-rule="evenodd" d="M19.4841 17.852C17.7452 20.0728 15.0393 21.5 12 21.5C8.9828 21.5 6.29412 20.0934 4.55391 17.9002C4.71949 17.8401 4.90274 17.7754 5.0947 17.7109C5.45594 17.5894 5.83973 17.4712 6.19032 17.3841C6.55409 17.2938 6.83177 17.25 7 17.25C7.55871 17.25 8.02791 17.4211 8.68947 17.6623L8.8062 17.7048C9.51306 17.9618 10.3643 18.25 11.5 18.25C12.2602 18.25 12.8712 17.9211 13.3107 17.6846L13.3549 17.6608C13.8433 17.3984 14.1475 17.2501 14.5 17.2501C15.0229 17.2501 15.245 17.3981 15.5808 17.622L15.584 17.6241C15.9964 17.899 16.5246 18.25 17.5 18.25C17.7764 18.25 18.1997 18.1644 18.59 18.0747C18.8682 18.0108 19.1754 17.9334 19.4841 17.852ZM19.1177 16.3974C18.8145 16.4774 18.5178 16.5522 18.2541 16.6128C18.0571 16.658 17.885 16.6939 17.7457 16.7181C17.6763 16.7301 17.6192 16.7386 17.5741 16.7438C17.5518 16.7464 17.5341 16.748 17.5208 16.749L17.5055 16.7499L17.5014 16.75C17.5004 16.75 17.5 16.75 17.5 16.75C16.9771 16.75 16.755 16.602 16.4192 16.3781L16.416 16.376C16.0036 16.1011 15.4754 15.7501 14.5 15.7501C13.7398 15.7501 13.1288 16.0789 12.6894 16.3155L12.6451 16.3393C12.1567 16.6017 11.8525 16.75 11.5 16.75C10.6357 16.75 9.98694 16.5381 9.3188 16.2951C9.26617 16.276 9.21282 16.2564 9.15875 16.2365C8.77497 16.0954 8.35409 15.9407 7.88876 15.8445L8.19636 15.7215L7.19636 13.2215L5.80364 13.7785L6.60313 15.7773C6.34929 15.8091 6.08235 15.8654 5.82871 15.9284C5.42447 16.0288 4.99898 16.1606 4.61666 16.2891C4.26454 16.4075 3.94199 16.5255 3.69625 16.6185C2.93419 15.2513 2.5 13.6764 2.5 12C2.5 11.6877 2.51507 11.3788 2.54453 11.0742L2.88587 11.6431L5.38587 10.1431L4.61413 8.85688L2.71119 9.99864C3.25214 7.47589 4.79476 5.32482 6.90248 3.98202L7.82918 5.83541L9.17082 5.16459L8.22773 3.27842C9.38409 2.77759 10.6596 2.5 12 2.5C13.1023 2.5 14.1607 2.68772 15.145 3.03294L14.8292 3.66459L16.1708 4.33541L16.518 3.64104C18.2715 4.59079 19.6925 6.0762 20.5615 7.87784L18.9697 9.46967L20.0303 10.5303L21.1444 9.41624C21.3761 10.2377 21.5 11.1044 21.5 12C21.5 13.261 21.2543 14.4646 20.8082 15.5656L19.3354 14.8292L18.6646 16.1708L19.1177 16.3974ZM21.7063 17.1803C22.5319 15.6366 23 13.873 23 12C23 5.92487 18.0751 1 12 1C5.92487 1 1 5.92487 1 12C1 18.0751 5.92487 23 12 23C16.1824 23 19.8196 20.6658 21.68 17.2291L21.7076 17.2208L21.715 17.2185L21.717 17.2179L21.7063 17.1803ZM12.2628 7.21151L15.2628 8.21151L15.7372 6.78849L12.7372 5.78849L12.2628 7.21151ZM12 14.5C13.3807 14.5 14.5 13.3807 14.5 12C14.5 10.6193 13.3807 9.5 12 9.5C10.6193 9.5 9.5 10.6193 9.5 12C9.5 13.3807 10.6193 14.5 12 14.5ZM12 16C14.2091 16 16 14.2091 16 12C16 9.79086 14.2091 8 12 8C9.79086 8 8 9.79086 8 12C8 14.2091 9.79086 16 12 16Z" fill="#151516" fill-rule="evenodd"/>
</svg>
