<?xml version="1.0" encoding="UTF-8"?>
<!DOCTYPE svg
PUBLIC "-//W3C//DTD SVG 1.1//EN"
       "http://www.w3.org/Graphics/SVG/1.1/DTD/svg11.dtd">
<svg version="1.1" xmlns="http://www.w3.org/2000/svg" xmlns:xlink="http://www.w3.org/1999/xlink" viewBox="0 0 24 24">
 <defs/>
 <g clip-path="url(#clip0_405_13664)">
  <path clip-rule="evenodd" d="M7.22096 7.84486L5.52496 8.33351C5.73324 9.4009 6.3341 11.6467 7.9262 13.7869C8.06129 13.6646 8.21239 13.5569 8.36956 13.4489C9.77343 12.4845 11.7647 12.5756 12.7406 13.9921C13.5113 15.1108 13.2825 16.5246 12.4607 17.5447C13.7479 18.1853 14.8818 18.4929 15.5405 18.6319L17.2355 13.694C16.8587 13.5174 16.5051 13.2682 16.1971 12.9515C15.0207 11.742 14.8052 9.78551 16.0274 8.59689C16.8873 7.76057 18.1074 7.64627 19.1649 8.07332L20.5628 4.00078L12.9498 6.19427C13.486 7.33009 13.4092 8.68883 12.4732 9.59911C11.2399 10.7986 9.2696 10.4852 8.08236 9.26449C7.67694 8.84764 7.38612 8.35808 7.22096 7.84486ZM18.6786 9.48987C18.0722 9.21453 17.4359 9.31939 17.0732 9.67219C16.5815 10.1504 16.5312 11.1436 17.2724 11.9057C17.4136 12.0509 17.5676 12.1688 17.7275 12.2606L18.6786 9.48987ZM8.95965 15.0015C8.93831 14.9796 8.9171 14.9576 8.89601 14.9356C8.9149 14.913 8.97933 14.8499 9.22056 14.6842C10.1304 14.0591 11.1186 14.2816 11.5043 14.8415C11.8433 15.3336 11.7722 16.1665 11.1322 16.7854C10.4045 16.3115 9.66363 15.7254 8.95965 15.0015ZM8.66358 7.42921C8.75898 7.70331 8.92214 7.97652 9.15766 8.21868C9.93515 9.0181 10.9469 8.99111 11.4274 8.5238C11.8359 8.12655 11.9369 7.33663 11.4804 6.61762L8.66358 7.42921ZM20.6052 2.426C21.578 2.14572 22.4669 3.07984 22.1383 4.0371L16.8821 19.3494C16.6957 19.8926 16.1397 20.2691 15.5196 20.1554C14.3248 19.9362 10.8269 19.0686 7.88622 16.045C5.0232 13.1012 4.20656 9.54557 4.00009 8.32718C3.8921 7.68988 4.29691 7.12476 4.86811 6.96019L20.6052 2.426ZM0.866861 7.81058C0.866837 7.81032 0.866815 7.81008 1.61393 7.74667C2.36103 7.68327 2.36102 7.68307 2.361 7.68289L2.36109 7.68389L2.36194 7.69271L2.36628 7.73425C2.37042 7.77234 2.37718 7.83088 2.38724 7.90806C2.40737 8.06246 2.44069 8.29111 2.49262 8.57948C2.59658 9.1568 2.77457 9.9701 3.06933 10.904C3.6614 12.7797 4.71077 15.0979 6.53685 16.9788C7.99419 18.48 10.2961 19.7888 12.2953 20.7359C13.2841 21.2043 14.1784 21.5748 14.825 21.8281C15.148 21.9546 15.4086 22.0515 15.5874 22.1166C15.6768 22.149 15.7457 22.1735 15.7918 22.1897L15.8434 22.2077L15.8557 22.212L15.8584 22.2129C15.8583 22.2129 15.8588 22.213 15.6193 22.9228C15.3799 23.6326 15.3798 23.6325 15.3797 23.6325L15.3779 23.6319L15.3735 23.6304L15.3578 23.6249L15.2992 23.6045C15.2484 23.5866 15.1745 23.5603 15.0798 23.5259C14.8906 23.4572 14.6184 23.3558 14.2827 23.2244C13.6119 22.9617 12.6846 22.5775 11.6574 22.0909C9.62473 21.1279 7.11683 19.7254 5.46248 18.0213C3.4148 15.9121 2.2713 13.3536 1.63894 11.3502C1.32149 10.3445 1.12937 9.46757 1.01628 8.83958C0.959687 8.5253 0.922737 8.27252 0.899739 8.09615C0.888236 8.00795 0.880214 7.93877 0.874966 7.89049C0.87234 7.86635 0.870408 7.84742 0.869079 7.83395L0.867527 7.81784L0.867071 7.8129L0.866861 7.81058Z" fill="#151516" fill-rule="evenodd"/>
 </g>
</svg>
