<?xml version="1.0" encoding="UTF-8"?>
<!DOCTYPE svg
PUBLIC "-//W3C//DTD SVG 1.1//EN"
       "http://www.w3.org/Graphics/SVG/1.1/DTD/svg11.dtd">
<svg version="1.1" xmlns="http://www.w3.org/2000/svg" xmlns:xlink="http://www.w3.org/1999/xlink" viewBox="0 0 24 24">
 <path clip-rule="evenodd" d="M11.2857 1H12.7143C17.8402 1.0059 21.9941 5.15982 22 10.2857C22 10.6802 21.6803 11 21.2857 11H2.7143C2.3198 11 2 10.6802 2 10.2857C2.0059 5.15982 6.15983 1.0059 11.2857 1ZM11.2857 2.42856C7.2249 2.43341 3.83491 5.52792 3.4607 9.57143H20.5393C20.1651 5.52788 16.7751 2.43341 12.7143 2.42856H11.2857ZM8.58337 7.66667V5.49999H7.08337V7.66667H8.58337ZM12.7501 7.66667V5.49999H11.2501V7.66667H12.7501ZM16.9167 7.66667V5.49999H15.4167V7.66667H16.9167ZM21.2857 15.2857H18.4286C18.274 15.2857 18.1236 15.3358 18 15.4285L15.5714 17.2499L13.1428 15.4285C13.0192 15.3358 12.8688 15.2857 12.7143 15.2857H2.7143C2.3198 15.2857 2 15.6055 2 16V17.4285C2.00234 19.4 3.59995 20.9976 5.57142 20.9999H18.4286C20.4001 20.9976 21.9977 19.4 22 17.4285V16C22 15.6055 21.6803 15.2857 21.2857 15.2857ZM20.5714 17.4285C20.5714 18.612 19.6121 19.5714 18.4286 19.5714H5.57142C4.38795 19.5714 3.42856 18.612 3.42856 17.4285V16.7142H12.4764L15.1429 18.7142C15.3968 18.9047 15.746 18.9047 16 18.7142L18.6664 16.7142H20.5714V17.4285ZM2 12.4286H22V13.8571H2V12.4286Z" fill="#151516" fill-rule="evenodd"/>
</svg>
