<?xml version="1.0" encoding="UTF-8"?>
<!DOCTYPE svg
PUBLIC "-//W3C//DTD SVG 1.1//EN"
       "http://www.w3.org/Graphics/SVG/1.1/DTD/svg11.dtd">
<svg version="1.1" xmlns="http://www.w3.org/2000/svg" xmlns:xlink="http://www.w3.org/1999/xlink" viewBox="0 0 24 24">
 <path d="M9.68209 3.61436C9.67604 3.4369 9.65287 3.23422 9.60518 3H11.2391C11.2679 3.19482 11.2848 3.38085 11.2909 3.55945C11.3218 4.4648 11.0706 5.10562 10.8032 5.64044C10.7355 5.77588 10.6722 5.89619 10.6137 6.00757C10.4338 6.34986 10.2981 6.60806 10.2124 6.96214C10.1441 7.24478 10.1098 7.60292 10.1755 8.09756H8.55545C8.49991 7.52329 8.5398 7.03009 8.64782 6.58361C8.7853 6.01533 9.04059 5.53371 9.23582 5.1654C9.28259 5.07716 9.32592 4.99542 9.36335 4.92056C9.56545 4.51635 9.70041 4.15107 9.68209 3.61436Z" fill="#151516"/>
 <path clip-rule="evenodd" d="M0.75 10.2439C0.75 9.79938 1.11036 9.43902 1.55488 9.43902H21.9451C22.3896 9.43902 22.75 9.79938 22.75 10.2439C22.75 16.0631 17.7836 20.7073 11.75 20.7073C5.71643 20.7073 0.75 16.0631 0.75 10.2439ZM2.39825 11.0488C2.82854 15.5284 6.81463 19.0976 11.75 19.0976C16.6854 19.0976 20.6715 15.5284 21.1018 11.0488H2.39825Z" fill="#151516" fill-rule="evenodd"/>
 <path d="M13.8979 3C13.9456 3.23422 13.9687 3.4369 13.9748 3.61436C13.9931 4.15107 13.8581 4.51635 13.656 4.92056C13.6186 4.99542 13.5753 5.07716 13.5285 5.1654C13.3333 5.53371 13.078 6.01533 12.9405 6.58361C12.8325 7.03009 12.7926 7.52329 12.8481 8.09756H14.4682C14.4025 7.60292 14.4367 7.24478 14.5051 6.96214C14.5908 6.60806 14.7264 6.34997 14.9063 6.00769C14.9649 5.89628 15.0281 5.77592 15.0959 5.64044C15.3633 5.10562 15.6145 4.4648 15.5836 3.55945C15.5775 3.38085 15.5605 3.19482 15.5318 3H13.8979Z" fill="#151516"/>
</svg>
