<?xml version="1.0" encoding="UTF-8"?>
<!DOCTYPE svg
PUBLIC "-//W3C//DTD SVG 1.1//EN"
       "http://www.w3.org/Graphics/SVG/1.1/DTD/svg11.dtd">
<svg version="1.1" xmlns="http://www.w3.org/2000/svg" xmlns:xlink="http://www.w3.org/1999/xlink" viewBox="0 0 24 24">
 <path clip-rule="evenodd" d="M7.98809 1.43057C7.68007 1.16655 7.21794 1.19532 6.94505 1.4955L1.94505 6.9955C1.80869 7.1455 1.73885 7.3443 1.75145 7.54661C1.76405 7.74893 1.858 7.93753 2.01191 8.06945L5.51191 11.0695C5.81993 11.3335 6.28206 11.3047 6.55496 11.0045L11.555 5.50451C11.6913 5.35452 11.7611 5.15572 11.7486 4.95341C11.736 4.75109 11.642 4.56249 11.4881 4.43057L7.98809 1.43057ZM3.57441 7.43312L7.56497 3.0435L9.9256 5.0669L5.93504 9.45652L3.57441 7.43312ZM13.25 6.50001C13.25 6.18862 13.0576 5.90963 12.7665 5.79897C12.4755 5.68831 12.1463 5.769 11.9394 6.00174L7.93944 10.5017C7.79528 10.6639 7.72843 10.8806 7.75614 11.0958C7.78386 11.311 7.90343 11.5037 8.08398 11.624L11.2447 13.7312L10.948 13.7518C10.7036 13.7688 10.4829 13.9041 10.3569 14.1141L9.10041 16.2083C8.7597 16.0738 8.38847 16 8 16C6.34315 16 5 17.3432 5 19C5 20.6569 6.34315 22 8 22C9.65686 22 11 20.6569 11 19C11 18.2767 10.744 17.6131 10.3176 17.095L11.442 15.2211L11.9301 15.1872L11.2724 17.8181C11.2164 18.0422 11.2667 18.2795 11.4088 18.4616C11.551 18.6436 11.769 18.75 12 18.75H13.5H14.25V17.25H13.5H12.9606L13.5036 15.078L17.7067 14.7861L18.3036 16.2786L18.3816 16.4735C17.5506 17.007 17 17.9392 17 19C17 20.6569 18.3431 22 20 22C21.6569 22 23 20.6569 23 19C23 17.3432 21.6569 16 20 16C19.9362 16 19.8729 16.002 19.8101 16.0059L19.6964 15.7215L18.8964 13.7215L17.6964 10.7215C17.5825 10.4367 17.3067 10.25 17 10.25H15.75H15H14.25H13.25V6.50001ZM13.5191 13.4585C13.5541 13.492 13.5852 13.5282 13.6125 13.5668L17.1215 13.3231L16.4922 11.75H15.75H15H14.25H12.5C12.0858 11.75 11.75 11.4142 11.75 11V8.47266L9.63318 10.8541L13.4015 13.3663C13.444 13.3932 13.4834 13.4242 13.5191 13.4585ZM15.5075 6.8188C15.0429 6.81819 14.5891 6.67984 14.2032 6.42125C13.8173 6.16266 13.5168 5.79545 13.3396 5.36605C13.1625 4.93666 13.1166 4.46437 13.2079 4.00892C13.2992 3.55347 13.5235 3.13531 13.8524 2.80734C14.1813 2.47937 14.6002 2.25632 15.0559 2.16639C15.5116 2.07646 15.9838 2.1237 16.4126 2.30212C16.8415 2.48055 17.2078 2.78216 17.4653 3.16879C17.7227 3.55543 17.8597 4.00973 17.859 4.47423C17.8571 5.09651 17.6086 5.69334 17.168 6.13271C16.7273 6.57208 16.1297 6.8188 15.5075 6.8188ZM15.5082 3.72849C15.362 3.72894 15.2191 3.77263 15.0976 3.85407C14.9759 3.93567 14.8811 4.0515 14.8251 4.18695C14.7692 4.3224 14.7546 4.47139 14.7833 4.6151C14.8119 4.75882 14.8825 4.89083 14.9862 4.99445C15.0898 5.09808 15.2218 5.16868 15.3655 5.19734C15.5092 5.226 15.6582 5.21144 15.7937 5.15549C15.9291 5.09954 16.0449 5.00471 16.1265 4.88298C16.208 4.76149 16.2517 4.61863 16.2521 4.47239C16.2516 4.27526 16.1731 4.08634 16.0337 3.94694C15.8943 3.80754 15.7054 3.72901 15.5082 3.72849ZM9.5 19C9.5 19.8284 8.82843 20.5 8 20.5C7.17157 20.5 6.5 19.8284 6.5 19C6.5 18.1716 7.17157 17.5 8 17.5C8.82843 17.5 9.5 18.1716 9.5 19ZM20 20.5C20.8284 20.5 21.5 19.8284 21.5 19C21.5 18.1716 20.8284 17.5 20 17.5C19.1716 17.5 18.5 18.1716 18.5 19C18.5 19.8284 19.1716 20.5 20 20.5Z" fill="#151516" fill-rule="evenodd"/>
</svg>
