<?xml version="1.0" encoding="UTF-8"?>
<!DOCTYPE svg
PUBLIC "-//W3C//DTD SVG 1.1//EN"
       "http://www.w3.org/Graphics/SVG/1.1/DTD/svg11.dtd">
<svg version="1.1" xmlns="http://www.w3.org/2000/svg" xmlns:xlink="http://www.w3.org/1999/xlink" viewBox="0 0 24 24">
 <path clip-rule="evenodd" d="M20.6964 2.2215L20.4178 1.52515L19.0251 2.08223L19.3037 2.77859L20.131 4.84705C20.1152 4.85603 20.0995 4.86565 20.0841 4.87592L20.0822 4.87719L20.0739 4.88266L20.0382 4.90611C20.0059 4.92718 19.9568 4.95897 19.8917 5.00049C19.7614 5.08355 19.5671 5.20552 19.3144 5.35865C18.809 5.66496 18.071 6.09553 17.1471 6.58828C15.2974 7.57475 12.712 8.80548 9.76284 9.78853C8.03267 10.3653 5.96206 10.7328 4.30264 10.9559C3.47734 11.0668 2.76255 11.1409 2.25476 11.1872C2.00099 11.2103 1.79927 11.2265 1.6617 11.2368C1.59292 11.242 1.5402 11.2457 1.50505 11.2481L1.46572 11.2507L1.4563 11.2513L1.45421 11.2514C1.16985 11.269 0.91958 11.4462 0.808909 11.7087C0.698225 11.9713 0.745885 12.2739 0.931915 12.4897L1.50001 12C0.931915 12.4897 0.931879 12.4897 0.931915 12.4897L0.933235 12.4912L0.936314 12.4948L0.947597 12.5078L0.989614 12.556C1.02586 12.5974 1.0781 12.6567 1.14309 12.7295C1.27288 12.875 1.4544 13.0753 1.66141 13.2949C2.0638 13.7217 2.60265 14.2645 3.05001 14.6C4.16592 15.437 5.40422 15.8448 6.34286 16.0459C6.81552 16.1472 7.22155 16.1981 7.51222 16.2237C7.6578 16.2366 7.77516 16.2431 7.8583 16.2465C7.8999 16.2482 7.93299 16.2491 7.95684 16.2495L7.98561 16.25L7.99464 16.25L7.99779 16.25L7.99902 16.25C7.99926 16.25 8.00001 16.25 8.00001 15.5L7.99902 16.25L8.32254 16.25H8.75001V15.8825V14.75L8.00132 14.75L8.00001 14.75L7.98605 14.7498C7.97231 14.7496 7.94974 14.749 7.91906 14.7477C7.85767 14.7452 7.7641 14.7401 7.64406 14.7295C7.40347 14.7083 7.05951 14.6654 6.65716 14.5792C5.8458 14.4053 4.83411 14.0631 3.95001 13.4C3.70613 13.2171 3.39416 12.9237 3.08681 12.6124C3.50053 12.5686 3.97999 12.5127 4.50249 12.4425C6.19477 12.215 8.37417 11.8326 10.2372 11.2116C13.288 10.1946 15.9526 8.92534 17.853 7.91181C18.0079 7.8292 18.1577 7.74825 18.3024 7.66924C18.3716 7.63146 18.4395 7.59414 18.5063 7.55728L18.4531 7.63789C17.3181 9.35511 15.8427 11.4426 14.4425 12.9983C12.2682 15.4143 9.84818 16.9884 7.96853 17.9586C7.02978 18.4431 6.22938 18.7751 5.66738 18.9849C5.38651 19.0898 5.16559 19.164 5.01718 19.2113C4.94299 19.235 4.88697 19.2519 4.85068 19.2626L4.81126 19.2741L4.80304 19.2764L4.80199 19.2767C4.49344 19.3611 4.27239 19.632 4.2516 19.9513C4.23079 20.2708 4.41513 20.5683 4.7105 20.6919L5.00001 20C4.7105 20.6919 4.7104 20.6919 4.7105 20.6919L4.71181 20.6925L4.71442 20.6936L4.72352 20.6973L4.75679 20.711C4.78553 20.7228 4.82722 20.7397 4.88068 20.761C4.98758 20.8037 5.14173 20.8641 5.33379 20.9364C5.71745 21.0807 6.2547 21.2731 6.87026 21.4658C8.08018 21.8445 9.67177 22.25 11 22.25C12.3265 22.25 13.7345 22.0557 15.1899 21.4121C16.6447 20.7688 18.107 19.6943 19.5695 17.9881C21.1059 16.1956 21.875 14.8662 22.2706 13.7507C22.5902 12.8492 22.655 12.0977 22.7081 11.4821C22.7203 11.3416 22.7318 11.2078 22.7456 11.0813C22.8963 9.69879 22.6206 8.09578 22.3316 6.88806C22.1847 6.27393 22.0292 5.74135 21.9103 5.36175C21.8507 5.17169 21.8002 5.01931 21.7641 4.91348C21.7461 4.86054 21.7317 4.8192 21.7216 4.79056L21.7097 4.75724L21.7069 4.74927C21.7044 4.74226 21.7018 4.73526 21.699 4.72827C21.6979 4.72542 21.6968 4.72258 21.6957 4.71975L20.6964 2.2215ZM7.18138 19.991C7.22655 20.0054 7.2722 20.0199 7.31832 20.0343C8.50458 20.4056 9.913 20.75 11 20.75C12.1735 20.75 13.3642 20.5793 14.5832 20.0402C15.8028 19.501 17.0904 18.5755 18.4306 17.012C19.8941 15.3045 20.5432 14.1338 20.8568 13.2494C21.1069 12.544 21.1543 12.0095 21.2072 11.4121C21.2213 11.2536 21.2357 11.0906 21.2544 10.9188C21.3763 9.8013 21.152 8.40432 20.8728 7.23704C20.8379 7.09127 20.8025 6.95033 20.7673 6.81535C20.4705 7.28789 20.11 7.85135 19.7045 8.46497C18.5586 10.1987 17.034 12.3612 15.5575 14.0018C13.2319 16.5858 10.6518 18.2617 8.65649 19.2915C8.11783 19.5695 7.62074 19.801 7.18138 19.991Z" fill="#151516" fill-rule="evenodd"/>
</svg>
