<?xml version="1.0" encoding="UTF-8"?>
<!DOCTYPE svg
PUBLIC "-//W3C//DTD SVG 1.1//EN"
       "http://www.w3.org/Graphics/SVG/1.1/DTD/svg11.dtd">
<svg version="1.1" xmlns="http://www.w3.org/2000/svg" xmlns:xlink="http://www.w3.org/1999/xlink" viewBox="0 0 24 24">
 <path clip-rule="evenodd" d="M11.592 5.00691L10.1708 2.16455L8.82918 2.83537L9.99677 5.17055C5.4339 5.95917 2 9.3887 2 13.5C2 18.1944 6.47715 22 12 22C17.5228 22 22 18.1944 22 13.5C22 8.80554 17.5228 4.99996 12 4.99996C11.8633 4.99996 11.7273 5.00229 11.592 5.00691ZM10.7012 6.57944L11.3292 7.83537L12.6708 7.16455L12.3412 6.50534C13.6621 6.54714 14.8787 6.8306 15.947 7.29461L16.408 8.90794L14.206 8.27882L13.7817 8.15758L13.4697 8.46963L12 9.9393L10.5303 8.46963L10.2183 8.15758L9.79396 8.27882L7.59202 8.90794L8.05297 7.29461C8.85785 6.94504 9.74687 6.69794 10.7012 6.57944ZM12 20.5C16.9323 20.5 20.5 17.1466 20.5 13.5C20.5 11.5686 19.4992 9.71945 17.8249 8.40724L18.2211 9.79392L18.592 11.092L17.294 10.7211L14.2183 9.84234L12.5303 11.5303L12 12.0606L11.4697 11.5303L9.78172 9.84234L6.70604 10.7211L5.40798 11.092L5.77886 9.79392L6.17505 8.40724C4.50079 9.71945 3.5 11.5686 3.5 13.5C3.5 17.1466 7.06775 20.5 12 20.5Z" fill="#151516" fill-rule="evenodd"/>
</svg>
