<?xml version="1.0" encoding="UTF-8"?>
<!DOCTYPE svg
PUBLIC "-//W3C//DTD SVG 1.1//EN"
       "http://www.w3.org/Graphics/SVG/1.1/DTD/svg11.dtd">
<svg version="1.1" xmlns="http://www.w3.org/2000/svg" xmlns:xlink="http://www.w3.org/1999/xlink" viewBox="0 0 24 24">
 <path clip-rule="evenodd" d="M16.0141 2.35005L19.5397 5.09217L20.4606 3.90814L16.6102 0.913393C15.8701 0.337789 14.7833 0.751575 14.6135 1.67363L13.402 8.25016H7.57664C6.81595 8.25016 6.23162 8.92389 6.3392 9.67693L8.19634 22.6769C8.28431 23.2927 8.81171 23.7502 9.43378 23.7502H14.5665C15.1885 23.7502 15.7159 23.2927 15.8039 22.6769L17.6611 9.67694C17.7686 8.92389 17.1843 8.25016 16.4236 8.25016H14.9272L16.0141 2.35005ZM7.86489 9.75016H13.1257L11.2625 19.8643L12.7377 20.136L14.6509 9.75016H16.1354L14.3497 22.2502H9.6506L7.86489 9.75016ZM4.27155 10.614C3.30691 8.82431 4.20939 6.47901 6.16342 5.58347C8.28799 4.60977 10.3712 5.67998 10.7647 7.64724L12.2356 7.35307C11.629 4.32033 8.43208 2.8937 5.53847 4.21986C2.90945 5.42476 1.51876 8.66822 2.95114 11.3257C3.65031 12.6229 4.64712 13.1622 5.66472 13.671L6.33554 12.3293C5.35318 11.8381 4.73416 11.4723 4.27155 10.614Z" fill="#151516" fill-rule="evenodd"/>
</svg>
