<?xml version="1.0" encoding="UTF-8"?>
<!DOCTYPE svg
PUBLIC "-//W3C//DTD SVG 1.1//EN"
       "http://www.w3.org/Graphics/SVG/1.1/DTD/svg11.dtd">
<svg version="1.1" xmlns="http://www.w3.org/2000/svg" xmlns:xlink="http://www.w3.org/1999/xlink" viewBox="0 0 24 24">
 <path clip-rule="evenodd" d="M14.8326 11.9599L7.36609 15.4216L9.99992 6.52173C10.0108 9.32359 12.1167 11.6314 14.8326 11.9599ZM20.0983 9.51845C20.6683 8.65192 20.9999 7.61465 20.9999 6.49993C20.9999 3.46236 18.5374 0.999926 15.4999 0.999926C13.5749 0.999926 11.8809 1.98885 10.8982 3.48638L11.719 0.712771L10.2807 0.287109L5.55301 16.2622L0.28418 18.705L0.915124 20.0659L4.9859 18.1785L3.75721 22.3303L5.19555 22.756L6.79898 17.3379L23.3154 9.68027L22.6844 8.31942L20.0983 9.51845ZM15.4999 10.4999C17.709 10.4999 19.4999 8.70907 19.4999 6.49993C19.4999 4.29079 17.709 2.49993 15.4999 2.49993C13.2907 2.49993 11.4999 4.29079 11.4999 6.49993C11.4999 8.70907 13.2907 10.4999 15.4999 10.4999ZM15.4999 5.41659C14.9016 5.41659 14.4165 5.90162 14.4165 6.49993C14.4165 7.09823 14.9016 7.58326 15.4999 7.58326C16.0982 7.58326 16.5832 7.09823 16.5832 6.49993H18.0832C18.0832 7.92666 16.9266 9.08326 15.4999 9.08326C14.0731 9.08326 12.9165 7.92666 12.9165 6.49993C12.9165 5.07319 14.0731 3.91659 15.4999 3.91659V5.41659Z" fill="#151516" fill-rule="evenodd"/>
</svg>
