<?xml version="1.0" encoding="UTF-8"?>
<!DOCTYPE svg
PUBLIC "-//W3C//DTD SVG 1.1//EN"
       "http://www.w3.org/Graphics/SVG/1.1/DTD/svg11.dtd">
<svg version="1.1" xmlns="http://www.w3.org/2000/svg" xmlns:xlink="http://www.w3.org/1999/xlink" viewBox="0 0 24 24">
 <defs/>
 <g clip-path="url(#clip0_405_13690)">
  <path clip-rule="evenodd" d="M1.11703 10.0701C0.732074 10.2497 0.460804 10.6289 0.44005 11.0751C0.414976 11.6142 0.379667 13.0018 0.645922 14.0855C0.829465 14.8326 1.2252 15.6704 1.54997 16.2882C1.71628 16.6045 1.87185 16.8778 1.98602 17.0723C2.0432 17.1698 2.09024 17.2478 2.12335 17.3022C2.13992 17.3293 2.15302 17.3506 2.16219 17.3654L2.17293 17.3827L2.17598 17.3875L2.17691 17.389C2.17691 17.389 2.17743 17.3898 2.81233 16.9906C3.44723 16.5914 3.4473 16.5915 3.4473 16.5915L3.44531 16.5883L3.43724 16.5753L3.40409 16.5213C3.37489 16.4734 3.33218 16.4026 3.27965 16.3131C3.17441 16.1337 3.03073 15.8813 2.8777 15.5902C2.56379 14.9931 2.24049 14.2889 2.1026 13.7276C1.95504 13.127 1.92151 12.3572 1.92332 11.7667C2.31011 12.023 2.72976 12.2107 3.20836 12.3849L3.21277 12.3865L3.21716 12.3881L3.22153 12.3897L3.22589 12.3913L3.23023 12.3929L3.23455 12.3945L3.23885 12.396L3.24314 12.3976L3.24741 12.3991L3.25167 12.4007L3.2559 12.4022L3.26012 12.4038L3.26433 12.4053L3.26851 12.4068L3.27268 12.4083L3.27684 12.4099L3.28097 12.4114L3.28509 12.4129L3.28919 12.4144L3.29328 12.4158L3.29735 12.4173L3.3014 12.4188L3.30544 12.4203L3.30946 12.4217L3.31346 12.4232L3.31745 12.4246L3.32142 12.4261L3.32537 12.4275L3.32931 12.429L3.33324 12.4304L3.33714 12.4318L3.34103 12.4332L3.3449 12.4346L3.34876 12.436L3.3526 12.4374L3.35643 12.4388L3.36024 12.4402L3.36403 12.4416L3.36781 12.443L3.37157 12.4443L3.37531 12.4457L3.37904 12.4471L3.38275 12.4484L3.38645 12.4498L3.39013 12.4511L3.3938 12.4524L3.39745 12.4538L3.40108 12.4551L3.4047 12.4564L3.40831 12.4577L3.4119 12.459L3.41547 12.4603L3.41902 12.4616L3.42257 12.4629L3.42609 12.4642L3.4296 12.4655L3.4331 12.4667L3.43658 12.468L3.44004 12.4693L3.44349 12.4705L3.44693 12.4718L3.45035 12.473L3.45375 12.4742L3.45714 12.4755L3.46051 12.4767L3.46387 12.4779L3.46721 12.4791L3.47054 12.4804L3.47385 12.4816L3.47715 12.4828L3.48044 12.484L3.48371 12.4851L3.48696 12.4863L3.4902 12.4875L3.49342 12.4887L3.49663 12.4899L3.49983 12.491L3.50301 12.4922L3.50617 12.4933L3.50933 12.4945L3.51246 12.4956L3.51558 12.4968L3.51869 12.4979L3.52179 12.499L3.52486 12.5001L3.52793 12.5012L3.53098 12.5024L3.53401 12.5035L3.53704 12.5046L3.54004 12.5057L3.54304 12.5067L3.54601 12.5078L3.54898 12.5089L3.55193 12.51L3.55487 12.511L3.55779 12.5121L3.5607 12.5132L3.56359 12.5142L3.56647 12.5153L3.56934 12.5163L3.57219 12.5174L3.57503 12.5184L3.57785 12.5194L3.58067 12.5204L3.58346 12.5215L3.58625 12.5225L3.58902 12.5235L3.59177 12.5245L3.59452 12.5255L3.59724 12.5265L3.59996 12.5275L3.60266 12.5284L3.60535 12.5294L3.60803 12.5304L3.61069 12.5314L3.61334 12.5323L3.61597 12.5333L3.61859 12.5342L3.6212 12.5352L3.6238 12.5361L3.62638 12.5371L3.62895 12.538L3.6315 12.5389L3.63405 12.5399L3.63658 12.5408L3.63909 12.5417L3.6416 12.5426L3.64409 12.5435L3.64656 12.5444L3.64903 12.5453L3.65148 12.5462L3.65392 12.5471L3.65635 12.548L3.65876 12.5489L3.66116 12.5497L3.66355 12.5506L3.66592 12.5515L3.66829 12.5523L3.67064 12.5532L3.67297 12.554L3.6753 12.5549L3.67761 12.5557L3.67991 12.5566L3.6822 12.5574L3.68447 12.5582L3.68674 12.559L3.68899 12.5599L3.69123 12.5607L3.69345 12.5615L3.69567 12.5623L3.69787 12.5631L3.70006 12.5639L3.70223 12.5647L3.7044 12.5655L3.70655 12.5663L3.70869 12.567L3.71082 12.5678L3.71294 12.5686L3.71504 12.5693L3.71714 12.5701L3.71922 12.5709L3.72129 12.5716L3.72335 12.5724L3.72539 12.5731L3.72743 12.5739L3.72945 12.5746L3.73146 12.5753L3.73346 12.5761L3.73545 12.5768L3.73742 12.5775L3.73939 12.5782L3.74134 12.5789L3.74328 12.5796L3.74521 12.5803L3.74713 12.581L3.74904 12.5817L3.75094 12.5824L3.75282 12.5831L3.75469 12.5838L3.75656 12.5845L3.75841 12.5851L3.76025 12.5858L3.76208 12.5865L3.76389 12.5871L3.7657 12.5878L3.7675 12.5884L3.76928 12.5891L3.77106 12.5897L3.77282 12.5904L3.77457 12.591L3.77631 12.5916L3.77804 12.5923L3.77976 12.5929L3.78147 12.5935L3.78317 12.5941L3.78486 12.5948L3.78653 12.5954L3.7882 12.596L3.78986 12.5966L3.7915 12.5972L3.79314 12.5978L3.79476 12.5984L3.79637 12.599L3.79798 12.5995L3.79957 12.6001L3.80115 12.6007L3.80272 12.6013L3.80429 12.6018L3.80584 12.6024L3.80738 12.603L3.80891 12.6035L3.81043 12.6041L3.81194 12.6046L3.81344 12.6052L3.81494 12.6057L3.81642 12.6062L3.81789 12.6068L3.81935 12.6073L3.8208 12.6078L3.82224 12.6084L3.82367 12.6089L3.82509 12.6094L3.82651 12.6099L3.82791 12.6104L3.8293 12.6109L3.83068 12.6114L3.83206 12.6119L3.83342 12.6124L3.83477 12.6129L3.83612 12.6134L3.83745 12.6139L3.83878 12.6144L3.84009 12.6149L3.8414 12.6153L3.8427 12.6158L3.84399 12.6163L3.84527 12.6167L3.84653 12.6172L3.84779 12.6177L3.84905 12.6181L3.85029 12.6186L3.85152 12.619L3.85274 12.6195L3.85396 12.6199L3.85516 12.6203L3.85636 12.6208L3.85755 12.6212L3.85873 12.6216L3.8599 12.6221L3.86106 12.6225L3.86221 12.6229L3.86335 12.6233L3.86449 12.6237L3.86561 12.6242L3.86673 12.6246L3.86784 12.625L3.86894 12.6254L3.87003 12.6258L3.87111 12.6262L3.87218 12.6265L3.87325 12.6269L3.87431 12.6273L3.87536 12.6277L3.8764 12.6281L3.87743 12.6285L3.87845 12.6288L3.87947 12.6292L3.88047 12.6296L3.88147 12.6299L3.88246 12.6303L3.88345 12.6306L3.88442 12.631L3.88539 12.6313L3.88635 12.6317L3.8873 12.632L3.88824 12.6324L3.8901 12.6331L3.89193 12.6337L3.89373 12.6344L3.89549 12.635L3.89723 12.6357L3.89893 12.6363L3.90061 12.6369L3.90226 12.6375L3.90387 12.6381L3.90546 12.6387L3.90702 12.6392L3.90854 12.6398L3.91004 12.6403L3.91152 12.6409L3.91296 12.6414L3.91438 12.6419L3.91576 12.6424L3.91712 12.6429L3.91846 12.6434L3.91977 12.6439L3.92105 12.6443L3.9223 12.6448L3.92353 12.6452L3.92474 12.6457L3.92591 12.6461L3.92707 12.6465L3.9282 12.6469L3.9293 12.6473L3.93038 12.6477L3.93143 12.6481L3.93247 12.6485L3.93347 12.6489L3.93446 12.6492L3.93542 12.6496L3.93636 12.6499L3.93773 12.6504L3.93905 12.6509L3.94032 12.6513L3.94154 12.6518L3.94271 12.6522L3.94384 12.6526L3.94493 12.653L3.94597 12.6534L3.94697 12.6538L3.94792 12.6541L3.94913 12.6546L3.95027 12.655L3.95134 12.6554L3.95234 12.6557L3.95351 12.6561L3.95457 12.6565L3.95555 12.6569L3.9566 12.6573L3.95768 12.6577L3.95872 12.658L3.95968 12.6584L3.96064 12.6587L3.9616 12.6591L4.21856 11.9545L4.47508 11.2497L4.47409 11.2494L4.47315 11.249L4.4722 11.2487L4.47125 11.2483L4.47026 11.248L4.46929 11.2476L4.4682 11.2472L4.46719 11.2468L4.46608 11.2464L4.46513 11.2461L4.46411 11.2457L4.46302 11.2453L4.46187 11.2449L4.46064 11.2445L4.45967 11.2441L4.45866 11.2437L4.4576 11.2434L4.4565 11.243L4.45536 11.2425L4.45417 11.2421L4.45293 11.2417L4.45164 11.2412L4.45031 11.2407L4.44892 11.2402L4.44797 11.2398L4.447 11.2395L4.446 11.2391L4.44498 11.2388L4.44394 11.2384L4.44287 11.238L4.44178 11.2376L4.44066 11.2372L4.43952 11.2368L4.43836 11.2363L4.43717 11.2359L4.43595 11.2355L4.43471 11.235L4.43344 11.2346L4.43215 11.2341L4.43083 11.2336L4.42948 11.2331L4.4281 11.2326L4.4267 11.2321L4.42527 11.2316L4.42381 11.2311L4.42233 11.2305L4.42081 11.23L4.41927 11.2294L4.4177 11.2288L4.4161 11.2282L4.41447 11.2277L4.41281 11.227L4.41112 11.2264L4.40939 11.2258L4.40764 11.2252L4.40586 11.2245L4.40405 11.2239L4.4022 11.2232L4.40033 11.2225L4.39938 11.2222L4.39842 11.2218L4.39745 11.2215L4.39648 11.2211L4.39549 11.2207L4.3945 11.2204L4.3935 11.22L4.3925 11.2197L4.39148 11.2193L4.39046 11.2189L4.38943 11.2185L4.38839 11.2182L4.38734 11.2178L4.38628 11.2174L4.38521 11.217L4.38414 11.2166L4.38306 11.2162L4.38197 11.2158L4.38087 11.2154L4.37976 11.215L4.37864 11.2146L4.37752 11.2142L4.37638 11.2138L4.37524 11.2134L4.37409 11.213L4.37293 11.2125L4.37176 11.2121L4.37058 11.2117L4.36939 11.2112L4.36819 11.2108L4.36699 11.2104L4.36577 11.2099L4.36455 11.2095L4.36332 11.209L4.36208 11.2086L4.36082 11.2081L4.35956 11.2077L4.3583 11.2072L4.35702 11.2067L4.35573 11.2063L4.35443 11.2058L4.35313 11.2053L4.35181 11.2048L4.35048 11.2044L4.34915 11.2039L4.3478 11.2034L4.34645 11.2029L4.34509 11.2024L4.34371 11.2019L4.34233 11.2014L4.34094 11.2009L4.33954 11.2004L4.33812 11.1999L4.3367 11.1993L4.33527 11.1988L4.33383 11.1983L4.33238 11.1978L4.33092 11.1972L4.32945 11.1967L4.32797 11.1962L4.32647 11.1956L4.32497 11.1951L4.32346 11.1945L4.32194 11.194L4.32041 11.1934L4.31887 11.1929L4.31732 11.1923L4.31575 11.1917L4.31418 11.1912L4.3126 11.1906L4.31101 11.19L4.3094 11.1894L4.30779 11.1888L4.30617 11.1882L4.30453 11.1876L4.30289 11.187L4.30123 11.1864L4.29956 11.1858L4.29789 11.1852L4.2962 11.1846L4.2945 11.184L4.29279 11.1834L4.29107 11.1827L4.28934 11.1821L4.2876 11.1815L4.28585 11.1808L4.28409 11.1802L4.28231 11.1796L4.28053 11.1789L4.27873 11.1782L4.27692 11.1776L4.27511 11.1769L4.27328 11.1763L4.27144 11.1756L4.26959 11.1749L4.26772 11.1742L4.26585 11.1736L4.26397 11.1729L4.26207 11.1722L4.26016 11.1715L4.25824 11.1708L4.25631 11.1701L4.25437 11.1694L4.25242 11.1687L4.25045 11.168L4.24848 11.1672L4.24649 11.1665L4.24449 11.1658L4.24248 11.1651L4.24046 11.1643L4.23842 11.1636L4.23638 11.1628L4.23432 11.1621L4.23225 11.1613L4.23017 11.1606L4.22807 11.1598L4.22597 11.159L4.22385 11.1583L4.22172 11.1575L4.21958 11.1567L4.21743 11.1559L4.21526 11.1551L4.21309 11.1544L4.2109 11.1536L4.2087 11.1528L4.20648 11.152L4.20426 11.1511L4.20202 11.1503L4.19977 11.1495L4.1975 11.1487L4.19523 11.1479L4.19294 11.147L4.19064 11.1462L4.18833 11.1453L4.186 11.1445L4.18367 11.1436L4.18132 11.1428L4.17895 11.1419L4.17658 11.1411L4.17419 11.1402L4.17179 11.1393L4.16938 11.1384L4.16695 11.1376L4.16451 11.1367L4.16206 11.1358L4.15959 11.1349L4.15712 11.134L4.15463 11.1331L4.15212 11.1322L4.14961 11.1313L4.14708 11.1303L4.14453 11.1294L4.14198 11.1285L4.13941 11.1275L4.13683 11.1266L4.13423 11.1257L4.13162 11.1247L4.129 11.1238L4.12637 11.1228L4.12372 11.1218L4.12106 11.1209L4.11838 11.1199L4.11569 11.1189L4.11299 11.1179L4.11027 11.1169L4.10755 11.1159L4.1048 11.1149L4.10205 11.1139L4.09928 11.1129L4.09649 11.1119L4.0937 11.1109L4.09088 11.1099L4.08806 11.1088L4.08522 11.1078L4.08237 11.1068L4.0795 11.1057L4.07662 11.1047L4.07373 11.1036L4.07082 11.1026L4.0679 11.1015L4.06496 11.1004L4.06201 11.0994L4.05904 11.0983L4.05607 11.0972L4.05307 11.0961L4.05007 11.095L4.04704 11.0939L4.04401 11.0928L4.04096 11.0917L4.03789 11.0906L4.03482 11.0895L4.03172 11.0883L4.02861 11.0872L4.02549 11.0861L4.02236 11.0849L4.0192 11.0838L4.01604 11.0826L4.01286 11.0815L4.00966 11.0803L4.00645 11.0791L4.00323 11.078L3.99999 11.0768L3.99674 11.0756L3.99347 11.0744L3.99018 11.0732L3.98689 11.072L3.98357 11.0708L3.98024 11.0696L3.9769 11.0684L3.97354 11.0672L3.97017 11.0659L3.96678 11.0647L3.96337 11.0635L3.95996 11.0622L3.95652 11.061L3.95307 11.0597L3.94961 11.0585L3.94613 11.0572L3.94263 11.0559L3.93912 11.0546L3.9356 11.0534L3.93205 11.0521L3.9285 11.0508L3.92493 11.0495L3.92134 11.0482L3.91773 11.0469L3.91412 11.0455L3.91048 11.0442L3.90683 11.0429L3.90316 11.0416L3.89948 11.0402L3.89578 11.0389L3.89207 11.0375L3.88834 11.0362L3.8846 11.0348L3.88084 11.0334L3.87706 11.0321L3.87327 11.0307L3.86946 11.0293L3.86563 11.0279L3.86179 11.0265L3.85793 11.0251L3.85406 11.0237L3.85017 11.0223L3.84626 11.0208L3.84234 11.0194L3.8384 11.018L3.83445 11.0165L3.83048 11.0151L3.82649 11.0136L3.82249 11.0122L3.81847 11.0107L3.81443 11.0093L3.81038 11.0078L3.80631 11.0063L3.80222 11.0048L3.79812 11.0033L3.794 11.0018L3.78987 11.0003L3.78571 10.9988L3.78154 10.9973L3.77736 10.9958L3.77315 10.9942L3.76893 10.9927L3.7647 10.9912L3.76044 10.9896L3.75617 10.9881L3.75188 10.9865L3.74758 10.9849L3.74326 10.9834L3.73892 10.9818L3.73456 10.9802L3.73019 10.9786L3.7258 10.977L3.72139 10.9754C3.12879 10.7597 2.76268 10.5639 2.44225 10.2771C2.10687 9.97699 1.59066 9.84929 1.11703 10.0701ZM6.22269 11.6428C5.54239 11.7746 5.00392 12.2954 4.84952 12.9709L3.91263 17.0698C3.62458 18.33 4.25313 19.6207 5.42284 20.171L7.97379 21.3711L8.61232 20.0138L6.06137 18.8137C5.52969 18.5636 5.24399 17.9769 5.37491 17.4041L6.3118 13.3052C6.33386 13.2087 6.41079 13.1343 6.50797 13.1154L8.16415 12.7946L7.87886 11.322L6.22269 11.6428ZM13.62 11.1028L10.373 12.6169C10.1907 12.7019 10.0771 12.8879 10.0847 13.0889L10.3261 19.4715C10.3645 20.486 11.3351 21.1004 12.2012 20.7759C13.4408 20.3115 14.7462 19.7897 15.7719 19.3046C16.6538 18.8874 17.7035 18.3202 18.7042 17.7526C19.5067 17.2974 19.6594 16.1597 18.9072 15.4785L14.1669 11.1853C14.0178 11.0503 13.8023 11.0178 13.62 11.1028ZM9.73907 11.2574C9.00978 11.5975 8.55532 12.3415 8.58574 13.1456L8.82718 19.5282C8.90252 21.5198 10.8612 22.8798 12.7275 22.1806C13.9801 21.7113 15.3312 21.1723 16.4132 20.6606C17.3446 20.2201 18.4315 19.6318 19.4443 19.0573C21.1757 18.0753 21.3895 15.7029 19.9141 14.3667L15.1738 10.0735C14.5774 9.53336 13.7153 9.40325 12.986 9.74332L9.73907 11.2574ZM19.1308 2.6722C18.7757 2.40129 18.3107 2.3653 17.9258 2.5448C17.4522 2.76566 17.2182 3.24319 17.2325 3.69303C17.2462 4.12283 17.1609 4.52914 16.9452 5.12174L16.9436 5.12615L16.942 5.13054L16.9404 5.13492L16.9388 5.13927L16.9372 5.14361L16.9357 5.14793L16.9341 5.15224L16.9325 5.15653L16.931 5.1608L16.9294 5.16505L16.9279 5.16929L16.9264 5.17351L16.9248 5.17771L16.9233 5.1819L16.9218 5.18607L16.9203 5.19022L16.9188 5.19435L16.9173 5.19847L16.9158 5.20258L16.9143 5.20666L16.9128 5.21073L16.9113 5.21478L16.9099 5.21882L16.9084 5.22284L16.907 5.22684L16.9055 5.23083L16.9041 5.2348L16.9026 5.23876L16.9012 5.2427L16.8998 5.24662L16.8983 5.25052L16.8969 5.25441L16.8955 5.25829L16.8941 5.26214L16.8927 5.26598L16.8913 5.26981L16.8899 5.27362L16.8885 5.27741L16.8872 5.28119L16.8858 5.28495L16.8844 5.28869L16.8831 5.29242L16.8817 5.29614L16.8804 5.29983L16.879 5.30352L16.8777 5.30718L16.8764 5.31083L16.8751 5.31447L16.8737 5.31809L16.8724 5.32169L16.8711 5.32528L16.8698 5.32885L16.8685 5.33241L16.8672 5.33595L16.866 5.33947L16.8647 5.34299L16.8634 5.34648L16.8621 5.34996L16.8609 5.35343L16.8596 5.35688L16.8584 5.36031L16.8571 5.36373L16.8559 5.36713L16.8547 5.37052L16.8534 5.37389L16.8522 5.37725L16.851 5.3806L16.8498 5.38392L16.8486 5.38724L16.8474 5.39054L16.8462 5.39382L16.845 5.39709L16.8438 5.40034L16.8426 5.40358L16.8414 5.40681L16.8403 5.41002L16.8391 5.41321L16.838 5.41639L16.8368 5.41956L16.8357 5.42271L16.8345 5.42585L16.8334 5.42897L16.8323 5.43208L16.8311 5.43517L16.83 5.43825L16.8289 5.44131L16.8278 5.44436L16.8267 5.4474L16.8256 5.45042L16.8245 5.45343L16.8234 5.45642L16.8223 5.4594L16.8212 5.46236L16.8202 5.46531L16.8191 5.46825L16.818 5.47117L16.817 5.47408L16.8159 5.47697L16.8149 5.47985L16.8138 5.48272L16.8128 5.48557L16.8117 5.48841L16.8107 5.49124L16.8097 5.49405L16.8087 5.49685L16.8077 5.49963L16.8067 5.5024L16.8057 5.50516L16.8047 5.5079L16.8037 5.51063L16.8027 5.51334L16.8017 5.51605L16.8007 5.51873L16.7997 5.52141L16.7988 5.52407L16.7978 5.52672L16.7968 5.52935L16.7959 5.53198L16.7949 5.53459L16.794 5.53718L16.7931 5.53976L16.7921 5.54233L16.7912 5.54489L16.7903 5.54743L16.7893 5.54996L16.7884 5.55248L16.7875 5.55498L16.7866 5.55747L16.7857 5.55995L16.7848 5.56241L16.7839 5.56486L16.783 5.5673L16.7822 5.56973L16.7813 5.57214L16.7804 5.57454L16.7795 5.57693L16.7787 5.57931L16.7778 5.58167L16.7769 5.58402L16.7761 5.58636L16.7753 5.58868L16.7744 5.59099L16.7736 5.59329L16.7727 5.59558L16.7719 5.59786L16.7711 5.60012L16.7703 5.60237L16.7695 5.60461L16.7686 5.60683L16.7678 5.60905L16.767 5.61125L16.7662 5.61344L16.7654 5.61562L16.7647 5.61778L16.7639 5.61993L16.7631 5.62207L16.7623 5.6242L16.7616 5.62632L16.7608 5.62843L16.76 5.63052L16.7593 5.6326L16.7585 5.63467L16.7578 5.63673L16.757 5.63877L16.7563 5.64081L16.7555 5.64283L16.7548 5.64484L16.7541 5.64684L16.7534 5.64883L16.7526 5.65081L16.7519 5.65277L16.7512 5.65472L16.7505 5.65667L16.7498 5.65859L16.7491 5.66051L16.7484 5.66242L16.7477 5.66432L16.747 5.6662L16.7464 5.66808L16.7457 5.66994L16.745 5.67179L16.7443 5.67363L16.7437 5.67546L16.743 5.67728L16.7423 5.67908L16.7417 5.68088L16.741 5.68266L16.7404 5.68444L16.7398 5.6862L16.7391 5.68795L16.7385 5.6897L16.7379 5.69143L16.7372 5.69315L16.7366 5.69485L16.736 5.69655L16.7354 5.69824L16.7348 5.69992L16.7342 5.70158L16.7336 5.70324L16.733 5.70488L16.7324 5.70652L16.7318 5.70814L16.7312 5.70976L16.7306 5.71136L16.73 5.71295L16.7294 5.71454L16.7289 5.71611L16.7283 5.71767L16.7277 5.71922L16.7272 5.72076L16.7266 5.72229L16.7261 5.72382L16.7255 5.72533L16.725 5.72683L16.7244 5.72832L16.7239 5.7298L16.7234 5.73127L16.7228 5.73273L16.7223 5.73418L16.7218 5.73562L16.7212 5.73705L16.7207 5.73848L16.7202 5.73989L16.7197 5.74129L16.7192 5.74268L16.7187 5.74407L16.7182 5.74544L16.7177 5.7468L16.7172 5.74816L16.7167 5.7495L16.7162 5.75084L16.7158 5.75216L16.7153 5.75348L16.7148 5.75478L16.7143 5.75608L16.7139 5.75737L16.7134 5.75865L16.7129 5.75992L16.7125 5.76118L16.712 5.76243L16.7116 5.76367L16.7111 5.7649L16.7107 5.76613L16.7102 5.76734L16.7098 5.76855L16.7094 5.76974L16.7089 5.77093L16.7085 5.77211L16.7081 5.77328L16.7076 5.77444L16.7072 5.77559L16.7068 5.77673L16.7064 5.77787L16.706 5.77899L16.7056 5.78011L16.7052 5.78122L16.7048 5.78232L16.7044 5.78341L16.704 5.78449L16.7036 5.78557L16.7032 5.78663L16.7028 5.78769L16.7024 5.78874L16.7021 5.78978L16.7017 5.79081L16.7013 5.79183L16.7009 5.79285L16.7006 5.79386L16.7002 5.79486L16.6999 5.79585L16.6995 5.79683L16.6991 5.7978L16.6988 5.79877L16.6984 5.79973L16.6981 5.80068L16.6977 5.80162L16.6971 5.80348L16.6964 5.80531L16.6958 5.80711L16.6951 5.80888L16.6945 5.81061L16.6939 5.81232L16.6932 5.81399L16.6926 5.81564L16.6921 5.81725L16.6915 5.81884L16.6909 5.8204L16.6904 5.82193L16.6898 5.82343L16.6893 5.8249L16.6888 5.82634L16.6882 5.82776L16.6877 5.82915L16.6872 5.83051L16.6867 5.83184L16.6863 5.83315L16.6858 5.83443L16.6854 5.83569L16.6849 5.83691L16.6845 5.83812L16.684 5.8393L16.6836 5.84045L16.6832 5.84158L16.6828 5.84268L16.6824 5.84376L16.682 5.84482L16.6817 5.84585L16.6813 5.84686L16.6809 5.84784L16.6806 5.8488L16.6802 5.84974L16.6797 5.85111L16.6793 5.85243L16.6788 5.8537L16.6783 5.85492L16.6779 5.8561L16.6775 5.85723L16.6771 5.85831L16.6767 5.85935L16.6764 5.86035L16.676 5.86131L16.6756 5.86252L16.6752 5.86365L16.6748 5.86472L16.6744 5.86573L16.674 5.86689L16.6736 5.86796L16.6732 5.86893L16.6729 5.86998L16.6725 5.87106L16.6721 5.8721L16.6717 5.87306L16.6714 5.87403L16.671 5.87498L17.3757 6.13195L18.0804 6.38846L18.0808 6.38747L18.0811 6.38653L18.0815 6.38559L18.0818 6.38463L18.0822 6.38365L18.0825 6.38268L18.0829 6.38158L18.0833 6.38057L18.0837 6.37947L18.084 6.37851L18.0844 6.37749L18.0848 6.37641L18.0852 6.37525L18.0857 6.37402L18.086 6.37305L18.0864 6.37204L18.0868 6.37098L18.0872 6.36989L18.0876 6.36874L18.088 6.36755L18.0885 6.36631L18.089 6.36503L18.0894 6.36369L18.0899 6.36231L18.0903 6.36136L18.0906 6.36038L18.091 6.35939L18.0914 6.35837L18.0918 6.35732L18.0921 6.35625L18.0925 6.35516L18.0929 6.35405L18.0934 6.35291L18.0938 6.35174L18.0942 6.35055L18.0947 6.34933L18.0951 6.34809L18.0956 6.34682L18.096 6.34553L18.0965 6.34421L18.097 6.34286L18.0975 6.34149L18.098 6.34008L18.0986 6.33865L18.0991 6.3372L18.0996 6.33571L18.1002 6.3342L18.1007 6.33265L18.1013 6.33108L18.1019 6.32948L18.1025 6.32785L18.1031 6.32619L18.1037 6.3245L18.1043 6.32278L18.105 6.32103L18.1056 6.31924L18.1063 6.31743L18.1069 6.31559L18.1076 6.31371L18.108 6.31276L18.1083 6.3118L18.1087 6.31083L18.109 6.30986L18.1094 6.30888L18.1097 6.30789L18.1101 6.30689L18.1105 6.30588L18.1108 6.30487L18.1112 6.30384L18.1116 6.30281L18.112 6.30177L18.1124 6.30072L18.1127 6.29966L18.1131 6.2986L18.1135 6.29752L18.1139 6.29644L18.1143 6.29535L18.1147 6.29425L18.1151 6.29314L18.1155 6.29203L18.1159 6.2909L18.1163 6.28976L18.1168 6.28862L18.1172 6.28747L18.1176 6.28631L18.118 6.28514L18.1185 6.28396L18.1189 6.28277L18.1193 6.28158L18.1198 6.28037L18.1202 6.27916L18.1207 6.27793L18.1211 6.2767L18.1216 6.27546L18.122 6.27421L18.1225 6.27295L18.1229 6.27168L18.1234 6.2704L18.1239 6.26911L18.1243 6.26782L18.1248 6.26651L18.1253 6.26519L18.1258 6.26387L18.1263 6.26253L18.1267 6.26119L18.1272 6.25983L18.1277 6.25847L18.1282 6.2571L18.1287 6.25571L18.1292 6.25432L18.1298 6.25292L18.1303 6.25151L18.1308 6.25009L18.1313 6.24865L18.1318 6.24721L18.1324 6.24576L18.1329 6.2443L18.1334 6.24283L18.134 6.24135L18.1345 6.23986L18.1351 6.23836L18.1356 6.23685L18.1362 6.23532L18.1367 6.23379L18.1373 6.23225L18.1378 6.2307L18.1384 6.22914L18.139 6.22756L18.1396 6.22598L18.1401 6.22439L18.1407 6.22279L18.1413 6.22117L18.1419 6.21955L18.1425 6.21791L18.1431 6.21627L18.1437 6.21461L18.1443 6.21295L18.1449 6.21127L18.1455 6.20958L18.1461 6.20788L18.1468 6.20618L18.1474 6.20446L18.148 6.20273L18.1487 6.20098L18.1493 6.19923L18.1499 6.19747L18.1506 6.19569L18.1512 6.19391L18.1519 6.19211L18.1525 6.19031L18.1532 6.18849L18.1539 6.18666L18.1545 6.18482L18.1552 6.18297L18.1559 6.18111L18.1566 6.17923L18.1573 6.17735L18.158 6.17545L18.1586 6.17354L18.1593 6.17163L18.16 6.1697L18.1608 6.16775L18.1615 6.1658L18.1622 6.16384L18.1629 6.16186L18.1636 6.15987L18.1644 6.15787L18.1651 6.15586L18.1658 6.15384L18.1666 6.1518L18.1673 6.14976L18.1681 6.1477L18.1688 6.14563L18.1696 6.14355L18.1703 6.14146L18.1711 6.13935L18.1719 6.13723L18.1726 6.13511L18.1734 6.13296L18.1742 6.13081L18.175 6.12865L18.1758 6.12647L18.1766 6.12428L18.1774 6.12208L18.1782 6.11986L18.179 6.11764L18.1798 6.1154L18.1806 6.11315L18.1815 6.11089L18.1823 6.10861L18.1831 6.10632L18.1839 6.10402L18.1848 6.10171L18.1856 6.09939L18.1865 6.09705L18.1873 6.0947L18.1882 6.09234L18.1891 6.08996L18.1899 6.08757L18.1908 6.08517L18.1917 6.08276L18.1926 6.08033L18.1935 6.07789L18.1944 6.07544L18.1953 6.07298L18.1962 6.0705L18.1971 6.06801L18.198 6.06551L18.1989 6.06299L18.1998 6.06046L18.2007 6.05792L18.2017 6.05536L18.2026 6.05279L18.2035 6.05021L18.2045 6.04761L18.2054 6.04501L18.2064 6.04239L18.2073 6.03975L18.2083 6.0371L18.2093 6.03444L18.2102 6.03176L18.2112 6.02908L18.2122 6.02637L18.2132 6.02366L18.2142 6.02093L18.2152 6.01819L18.2162 6.01543L18.2172 6.01266L18.2182 6.00988L18.2192 6.00708L18.2203 6.00427L18.2213 6.00144L18.2223 5.9986L18.2234 5.99575L18.2244 5.99288L18.2254 5.99L18.2265 5.98711L18.2276 5.9842L18.2286 5.98128L18.2297 5.97834L18.2308 5.97539L18.2318 5.97243L18.2329 5.96945L18.234 5.96646L18.2351 5.96345L18.2362 5.96043L18.2373 5.95739L18.2384 5.95434L18.2395 5.95128L18.2407 5.9482L18.2418 5.94511L18.2429 5.942L18.2441 5.93888L18.2452 5.93574L18.2463 5.93259L18.2475 5.92942L18.2487 5.92624L18.2498 5.92305L18.251 5.91984L18.2522 5.91661L18.2533 5.91337L18.2545 5.91012L18.2557 5.90685L18.2569 5.90357L18.2581 5.90027L18.2593 5.89695L18.2605 5.89363L18.2617 5.89028L18.263 5.88692L18.2642 5.88355L18.2654 5.88016L18.2667 5.87676L18.2679 5.87334L18.2692 5.8699L18.2704 5.86646L18.2717 5.86299L18.2729 5.85951L18.2742 5.85602L18.2755 5.85251L18.2768 5.84898L18.2781 5.84544L18.2794 5.84188L18.2807 5.83831L18.282 5.83472L18.2833 5.83112L18.2846 5.8275L18.2859 5.82386L18.2872 5.82021L18.2886 5.81655L18.2899 5.81286L18.2913 5.80917L18.2926 5.80545L18.294 5.80172L18.2953 5.79798L18.2967 5.79422L18.2981 5.79044L18.2995 5.78665L18.3009 5.78284L18.3022 5.77901L18.3036 5.77517L18.305 5.77132L18.3065 5.76744L18.3079 5.76355L18.3093 5.75965L18.3107 5.75573L18.3122 5.75179L18.3136 5.74783L18.315 5.74386L18.3165 5.73988L18.3179 5.73587L18.3194 5.73185L18.3209 5.72782L18.3224 5.72376L18.3238 5.71969L18.3253 5.71561L18.3268 5.7115L18.3283 5.70738L18.3298 5.70325L18.3313 5.69909L18.3328 5.69493L18.3344 5.69074L18.3359 5.68654L18.3374 5.68232L18.339 5.67808L18.3405 5.67383L18.3421 5.66955L18.3436 5.66527L18.3452 5.66096L18.3468 5.65664L18.3484 5.6523L18.3499 5.64795L18.3515 5.64357L18.3531 5.63918L18.3547 5.63478C18.5289 5.15618 18.6549 4.71402 18.7071 4.25297C19.1607 4.63114 19.7288 5.15169 20.0941 5.65078C20.4354 6.11718 20.767 6.81749 21.0227 7.44179C21.1473 7.74615 21.2483 8.01846 21.318 8.21434C21.3528 8.31211 21.3797 8.39037 21.3976 8.44353L21.4176 8.50362L21.4224 8.51814L21.4234 8.52128C21.4234 8.52128 21.4235 8.52159 22.1375 8.29186C22.8514 8.06213 22.8513 8.06197 22.8513 8.06197L22.8506 8.05954L22.8488 8.05407L22.8425 8.03473C22.837 8.0182 22.8292 7.9945 22.819 7.96435C22.7987 7.90406 22.7691 7.81783 22.7312 7.71141C22.6556 7.49892 22.5462 7.20408 22.4108 6.87334C22.1463 6.22743 21.7589 5.38575 21.3046 4.76494C20.6455 3.86438 19.5599 2.99952 19.1308 2.6722ZM17.7486 7.26875C17.1319 6.95281 16.3868 7.03054 15.8485 7.46697L14.5382 8.52944L15.4829 9.69456L16.7933 8.63209C16.8702 8.56974 16.9766 8.55864 17.0647 8.60377L20.8069 10.5208C21.3298 10.7887 21.5956 11.3847 21.4454 11.9527L20.725 14.6783L22.1752 15.0616L22.8956 12.336C23.226 11.0863 22.6413 9.77515 21.4908 9.18577L17.7486 7.26875Z" fill="#151516" fill-rule="evenodd"/>
 </g>
</svg>
