<?xml version="1.0" encoding="UTF-8"?>
<!DOCTYPE svg
PUBLIC "-//W3C//DTD SVG 1.1//EN"
       "http://www.w3.org/Graphics/SVG/1.1/DTD/svg11.dtd">
<svg version="1.1" xmlns="http://www.w3.org/2000/svg" xmlns:xlink="http://www.w3.org/1999/xlink" viewBox="0 0 24 24">
 <path clip-rule="evenodd" d="M3.25 6.22048C3.25 4.70169 4.48129 3.25 6.00007 3.25H18.0001C19.5189 3.25 20.7501 4.48122 20.7501 6V6.20648C20.7501 7.01706 20.1913 7.73262 19.3815 7.90376C18.1097 8.17252 15.4636 8.68748 13.5241 8.74962C13.2116 8.75963 12.8282 8.76078 12.5001 8.75907V13.3232C12.687 13.3561 12.8976 13.4044 13.1122 13.476C13.7727 13.6961 14.7501 14.2518 14.7501 15.5C14.7501 15.8199 14.6675 16.121 14.4889 16.3804C14.3152 16.6326 14.0848 16.7962 13.8667 16.9052C13.4822 17.0974 13.0095 17.1758 12.6718 17.2318C12.6553 17.2345 12.6392 17.2372 12.6234 17.2398C12.2132 17.3082 11.9635 17.3568 11.8042 17.4364C11.7769 17.4501 11.7606 17.4609 11.7518 17.4676C11.7509 17.4747 11.7501 17.4852 11.7501 17.5C11.7501 17.5148 11.7509 17.5253 11.7518 17.5324C11.7606 17.5391 11.7769 17.5499 11.8042 17.5636C11.9635 17.6432 12.2132 17.6918 12.6234 17.7602C12.6392 17.7628 12.6553 17.7655 12.6718 17.7682C13.0095 17.8242 13.4822 17.9026 13.8667 18.0948C14.0848 18.2038 14.3152 18.3674 14.4889 18.6196C14.6675 18.879 14.7501 19.1801 14.7501 19.5C14.7501 20.1523 14.4168 20.651 14.0381 20.9982C13.666 21.3392 13.2018 21.5826 12.7885 21.7548C12.3678 21.9301 11.9543 22.0501 11.6507 22.126C11.4976 22.1643 11.3692 22.1922 11.2777 22.2107C11.2319 22.22 11.1952 22.2269 11.169 22.2317L11.1378 22.2373L11.1284 22.2389L11.1242 22.2397C11.1242 22.2397 11.1234 22.2398 11.0001 21.5C10.8768 20.7602 10.8765 20.7603 10.8765 20.7603L10.8796 20.7597L10.8985 20.7563C10.9163 20.7531 10.944 20.7478 10.9802 20.7405C11.0528 20.7258 11.1588 20.7029 11.2869 20.6708C11.5458 20.6061 11.8823 20.5074 12.2116 20.3702C12.5484 20.2299 12.8341 20.067 13.0245 19.8924C13.2083 19.724 13.2501 19.5977 13.2501 19.5C13.2501 19.4852 13.2493 19.4747 13.2484 19.4676C13.2395 19.4609 13.2233 19.4501 13.1959 19.4364C13.0367 19.3568 12.7869 19.3082 12.3768 19.2398C12.361 19.2372 12.3448 19.2345 12.3283 19.2318C11.9906 19.1758 11.5179 19.0974 11.1334 18.9052C10.9153 18.7962 10.6849 18.6326 10.5112 18.3804C10.3326 18.121 10.2501 17.8199 10.2501 17.5C10.2501 17.1801 10.3326 16.879 10.5112 16.6196C10.6849 16.3674 10.9153 16.2038 11.1334 16.0948C11.5179 15.9026 11.9906 15.8242 12.3283 15.7682C12.3448 15.7655 12.361 15.7628 12.3768 15.7602C12.7869 15.6918 13.0367 15.6432 13.1959 15.5636C13.2233 15.5499 13.2395 15.5391 13.2484 15.5324C13.2493 15.5253 13.2501 15.5148 13.2501 15.5C13.2501 15.2482 13.1024 15.0539 12.6379 14.899C12.4231 14.8274 12.1977 14.7887 12.0188 14.7689C11.9313 14.7591 11.8593 14.7544 11.8111 14.7521C11.7871 14.7509 11.7693 14.7504 11.7587 14.7502L11.7485 14.75L11.0001 14.75V8.76044M11.1245 7.25947L11.939 7.25317C12.0483 7.25485 12.201 7.25688 12.3747 7.25823C12.725 7.26095 13.1502 7.26082 13.4761 7.25038C15.2669 7.19301 17.7935 6.70623 19.0713 6.43618C19.1709 6.41514 19.2501 6.32539 19.2501 6.20648V6C19.2501 5.30964 18.6904 4.75 18.0001 4.75H6.00007C5.30971 4.75 4.75007 5.30964 4.75007 6V6.22048C4.75007 6.33687 4.82718 6.42586 4.92452 6.44797C6.1181 6.71906 8.40304 7.19065 10.0277 7.25051C10.2829 7.25991 10.6001 7.262 10.8946 7.26093C10.9734 7.26064 11.0506 7.26013 11.1245 7.25947C11.2272 7.25855 11.3225 7.25655 11.4058 7.25533C11.4632 7.25449 11.5149 7.25445 11.5594 7.25366L11.6872 7.2512L11.4058 7.25533L11.1245 7.25947ZM11.0001 8.76044C10.8417 8.76138 10.6703 8.76156 10.5 8.7602C10.317 8.75874 10.1353 8.75549 9.97246 8.74949C8.19076 8.68385 5.78011 8.1805 4.59229 7.91071C3.79582 7.72981 3.25 7.02066 3.25 6.22048" fill="#151516" fill-rule="evenodd"/>
</svg>
