<?xml version="1.0" encoding="UTF-8"?>
<!DOCTYPE svg
PUBLIC "-//W3C//DTD SVG 1.1//EN"
       "http://www.w3.org/Graphics/SVG/1.1/DTD/svg11.dtd">
<svg version="1.1" xmlns="http://www.w3.org/2000/svg" xmlns:xlink="http://www.w3.org/1999/xlink" viewBox="0 0 24 24">
 <path clip-rule="evenodd" d="M9.21726 1.5C9.26352 1.72722 9.28599 1.92384 9.29187 2.09599C9.30964 2.61667 9.17871 2.97103 8.98265 3.36315C8.94634 3.43578 8.90431 3.51508 8.85893 3.60068C8.66954 3.95798 8.42188 4.42521 8.2885 4.97651C8.18372 5.40963 8.14502 5.88809 8.1989 6.44521H9.77054C9.70677 5.96535 9.74002 5.61792 9.80636 5.34372C9.88946 5.00022 10.021 4.74985 10.1956 4.4178C10.2523 4.30977 10.3138 4.19287 10.3794 4.06153C10.6388 3.54269 10.8826 2.92102 10.8526 2.04273C10.8467 1.86946 10.8302 1.689 10.8023 1.5H9.21726ZM3.94408 8.27247C4.09233 8.10362 4.30613 8.00683 4.53083 8.00683H18.0651C18.2898 8.00683 18.5036 8.10362 18.6518 8.27247C18.8001 8.44131 18.8684 8.66583 18.8393 8.88864L18.6828 10.089H20.6678C22.249 10.089 23.5308 11.3708 23.5308 12.952C23.5308 14.4657 22.4329 15.4546 21.0624 15.8073L20.2634 14.4501C20.3482 14.4191 20.4343 14.3892 20.5203 14.3592C21.2447 14.1072 21.9692 13.8552 21.9692 12.952C21.9692 12.2333 21.3865 11.6507 20.6678 11.6507H18.5856C18.5498 11.6507 18.5145 11.6483 18.48 11.6436L17.951 15.6995C17.5151 19.0412 14.668 20.5 11.2979 20.5C7.92792 20.5 5.08081 19.0412 4.64493 15.6995L3.75656 8.88864C3.7275 8.66583 3.79583 8.44131 3.94408 8.27247ZM5.42011 9.56847L6.19346 15.4975C6.52789 18.0614 8.71232 18.9383 11.2979 18.9383C13.8836 18.9383 16.068 18.0614 16.4024 15.4975L17.1758 9.56847H5.42011ZM13.4562 2.09599C13.4503 1.92384 13.4279 1.72722 13.3816 1.5H14.9667C14.9946 1.689 15.011 1.86946 15.0169 2.04273C15.0469 2.92102 14.8032 3.54269 14.5438 4.06153C14.4781 4.19291 14.4167 4.30964 14.3599 4.4177C14.1854 4.74975 14.0538 5.00022 13.9707 5.34372C13.9044 5.61792 13.8711 5.96535 13.9349 6.44521H12.3632C12.3094 5.88809 12.3481 5.40963 12.4528 4.97651C12.5862 4.42521 12.8339 3.95798 13.0233 3.60068C13.0687 3.51508 13.1107 3.43578 13.147 3.36315C13.3431 2.97103 13.474 2.61667 13.4562 2.09599Z" fill="#151516" fill-rule="evenodd"/>
</svg>
