<?xml version="1.0" encoding="UTF-8"?>
<!DOCTYPE svg
PUBLIC "-//W3C//DTD SVG 1.1//EN"
       "http://www.w3.org/Graphics/SVG/1.1/DTD/svg11.dtd">
<svg version="1.1" xmlns="http://www.w3.org/2000/svg" xmlns:xlink="http://www.w3.org/1999/xlink" viewBox="0 0 24 24">
 <path clip-rule="evenodd" d="M15 14C15 15.6569 13.6569 17 12 17C10.3431 17 9 15.6569 9 14C9 12.3431 10.3431 11 12 11C13.6569 11 15 12.3431 15 14ZM13.5 14C13.5 14.8284 12.8284 15.5 12 15.5C11.1716 15.5 10.5 14.8284 10.5 14C10.5 13.1716 11.1716 12.5 12 12.5C12.8284 12.5 13.5 13.1716 13.5 14Z" fill="#151516" fill-rule="evenodd"/>
 <path clip-rule="evenodd" d="M18.7001 7L18.1609 4.30388C18.0674 3.83646 17.657 3.5 17.1803 3.5H6.81994C6.34325 3.5 5.93284 3.83646 5.83935 4.30388L5.30013 7H3.5L3.50026 8.5H5.16071L6.40427 20.1065C6.45871 20.6147 6.88753 21 7.39858 21H16.6014C17.1125 21 17.5413 20.6147 17.5957 20.1065L18.8393 8.5H20.5V7H18.7001ZM7.22984 5L6.82984 7H17.1704L16.7704 5H7.22984ZM17.3307 8.5H6.6693L7.84787 19.5H16.1521L17.3307 8.5Z" fill="#151516" fill-rule="evenodd"/>
</svg>
