<?xml version="1.0" encoding="UTF-8"?>
<!DOCTYPE svg
PUBLIC "-//W3C//DTD SVG 1.1//EN"
       "http://www.w3.org/Graphics/SVG/1.1/DTD/svg11.dtd">
<svg version="1.1" xmlns="http://www.w3.org/2000/svg" xmlns:xlink="http://www.w3.org/1999/xlink" viewBox="0 0 24 24">
 <defs/>
 <g clip-path="url(#clip0_405_13802)">
  <path clip-rule="evenodd" d="M17.4802 2.15615C17.8234 1.977 18.2466 2.12371 18.4052 2.47684L19.0829 3.98485L19.1966 4.23793L19.4477 4.35606L20.7137 4.9518C21.0966 5.13198 21.2609 5.58844 21.0808 5.97133C20.9107 6.33271 20.4916 6.50285 20.1178 6.36227L19.0166 5.94817L18.6443 5.80816L18.3196 6.03783L15.9389 7.72145L15.3349 7.09977L17.371 4.99797L17.6794 4.67963L17.5493 4.25593L17.1483 2.95017C17.0531 2.64011 17.1926 2.30624 17.4802 2.15615ZM14.0941 6.22482L15.9853 4.2726L15.7144 3.39053C15.4069 2.38925 15.8575 1.31109 16.786 0.826403C17.8943 0.247889 19.261 0.721659 19.7735 1.86202L20.3374 3.11695L21.3524 3.59456C22.4849 4.12746 22.9709 5.47752 22.438 6.61C21.9351 7.67884 20.6954 8.18207 19.5898 7.76627L18.8609 7.49218L16.845 8.9179C17.0475 9.55463 16.8762 10.277 16.3848 10.7618C15.66 11.477 14.6915 12.5361 14.2418 13.4348C13.9702 13.9776 13.8561 14.4379 13.7499 14.9572C13.7354 15.0286 13.7208 15.1018 13.7059 15.1769C13.6125 15.6475 13.5043 16.1926 13.2777 16.8189C12.7201 18.3596 11.3769 19.8835 10.3132 20.9305C9.03469 22.189 7.12496 22.2969 5.63472 21.4732L3.91937 20.5249C1.76245 19.3326 0.699903 16.8205 1.34665 14.4423C1.99126 12.072 4.14195 10.5652 6.43865 10.225C7.12225 10.1238 7.77127 9.98287 8.2902 9.79261C9.3975 9.38665 9.95914 9.17779 10.7933 8.52273C11.2547 8.16037 11.7633 7.53751 12.1803 6.95525C12.6174 6.34498 13.39 6.06417 14.0941 6.22482ZM13.3998 7.82869C13.46 7.7446 13.5541 7.69288 13.6538 7.68284C13.7504 7.67309 13.83 7.70345 13.8858 7.7609L15.3538 9.27177C15.45 9.37077 15.4633 9.56382 15.3313 9.69403C14.6047 10.4109 13.4719 11.6214 12.9004 12.7635C12.5419 13.4799 12.3962 14.0898 12.2803 14.6569C12.2637 14.7383 12.2478 14.8179 12.2321 14.8964C12.1383 15.3663 12.0526 15.7962 11.8672 16.3084C11.4329 17.5084 10.3077 18.8311 9.26096 19.8615C8.5192 20.5917 7.35123 20.7081 6.3604 20.1604L4.64504 19.2122C3.09323 18.3543 2.32877 16.547 2.79408 14.836C3.24851 13.165 4.81222 11.9823 6.65842 11.7089C7.39041 11.6004 8.15189 11.441 8.80653 11.2009L8.8258 11.1939C9.93821 10.7861 10.6916 10.5099 11.7197 9.70244C12.358 9.20121 12.9686 8.43065 13.3998 7.82869Z" fill="#151516" fill-rule="evenodd"/>
 </g>
</svg>
