<?xml version="1.0" encoding="UTF-8"?>
<!DOCTYPE svg
PUBLIC "-//W3C//DTD SVG 1.1//EN"
       "http://www.w3.org/Graphics/SVG/1.1/DTD/svg11.dtd">
<svg version="1.1" xmlns="http://www.w3.org/2000/svg" xmlns:xlink="http://www.w3.org/1999/xlink" viewBox="0 0 24 24">
 <path clip-rule="evenodd" d="M6.5 1.75H17.3859V0.25H6.5V1.75ZM7 2.25H6.49223L6.30364 2.72146L4.30364 7.72146L4.25 7.85556V8V21C4.25 21.9665 5.0335 22.75 6 22.75H15H15.1771L15.3354 22.6708L18.7826 20.9472C19.3755 20.6508 19.75 20.0448 19.75 19.382V6V5.77292L19.624 5.58397L17.624 2.58397L17.4014 2.25H17H7ZM6.10777 7.25L7.50777 3.75H15.8922L14.4922 7.25H6.10777ZM18.25 6.22708L17.1668 4.60234L15.75 8.14444V20.7865L18.1118 19.6056C18.1965 19.5632 18.25 19.4767 18.25 19.382V6.22708ZM5.75 8.75H14.25V21.25H6C5.86193 21.25 5.75 21.1381 5.75 21V8.75Z" fill="#151516" fill-rule="evenodd"/>
</svg>
