<?xml version="1.0" encoding="UTF-8"?>
<!DOCTYPE svg
PUBLIC "-//W3C//DTD SVG 1.1//EN"
       "http://www.w3.org/Graphics/SVG/1.1/DTD/svg11.dtd">
<svg version="1.1" xmlns="http://www.w3.org/2000/svg" xmlns:xlink="http://www.w3.org/1999/xlink" viewBox="0 0 24 24">
 <path clip-rule="evenodd" d="M13.2764 5.47178L14.1304 6.08358C14.4765 6.33153 14.9516 6.5 15.5 6.5C16.8298 6.5 17.5 5.61983 17.5 5C17.5 4.38017 16.8298 3.5 15.5 3.5C15.2845 3.5 15.0796 3.52607 14.8892 3.57307L13.7569 3.85248L13.207 2.82398C12.784 2.03285 11.9531 1.5 11 1.5C10.0655 1.5 9.24861 2.01207 8.81814 2.7781L8.29982 3.70044L7.25703 3.52169C7.17449 3.50754 7.08872 3.5 7 3.5C6.17157 3.5 5.5 4.17157 5.5 5C5.5 5.82843 6.17157 6.5 7 6.5C7.34869 6.5 7.6658 6.38287 7.92007 6.18486L8.75823 5.53214L9.65215 6.10612C10.0402 6.35532 10.5009 6.5 11 6.5C11.5254 6.5 12.0087 6.33961 12.4095 6.06524L13.2764 5.47178ZM8.84169 7.36833C9.46434 7.76813 10.2051 8 11 8C11.8373 8 12.6145 7.74275 13.2569 7.30297C13.8643 7.73811 14.6465 8 15.5 8C16.1375 8 16.7352 7.85391 17.25 7.59865V8.75V19C17.25 19.6903 16.6904 20.25 16 20.25H7C6.30964 20.25 5.75 19.6903 5.75 19V7.72798C6.13053 7.90263 6.55389 8 7 8C7.69421 8 8.33335 7.7642 8.84169 7.36833ZM18.75 8.75V19C18.75 20.5188 17.5188 21.75 16 21.75H7C5.48122 21.75 4.25 20.5188 4.25 19V6.20086C4.08921 5.83315 4 5.42699 4 5C4 3.34315 5.34315 2 7 2C7.17401 2 7.34457 2.01482 7.51047 2.04325C8.19572 0.823838 9.50165 0 11 0C12.5283 0 13.8563 0.857059 14.5298 2.11675C14.8379 2.04073 15.1634 2 15.5 2C17.433 2 19 3.34315 19 5C19 5.39426 18.9113 5.77075 18.75 6.11561V7.25H19.5C21.0188 7.25 22.25 8.48122 22.25 10V15V15.75H20.75V15V10C20.75 9.30964 20.1904 8.75 19.5 8.75H18.75Z" fill="#151516" fill-rule="evenodd"/>
</svg>
