<?xml version="1.0" encoding="UTF-8"?>
<!DOCTYPE svg
PUBLIC "-//W3C//DTD SVG 1.1//EN"
       "http://www.w3.org/Graphics/SVG/1.1/DTD/svg11.dtd">
<svg version="1.1" xmlns="http://www.w3.org/2000/svg" xmlns:xlink="http://www.w3.org/1999/xlink" viewBox="0 0 24 24">
 <path clip-rule="evenodd" d="M4.70227 1.76336L4.96561 1.06111L3.56112 0.534424L3.29777 1.23667L1.79777 5.23667C1.69451 5.51205 1.76173 5.82238 1.96969 6.03034L3.85482 7.91547L5.21253 11.536L4.68219 13.4717C4.65672 13.5647 4.64941 13.6618 4.66068 13.7575L5.59622 21.7096C5.64065 22.0873 5.96076 22.372 6.34108 22.372H7.74439C8.14881 22.372 8.48041 22.0513 8.49397 21.6471L8.67132 16.359L9.2541 17.2332L9.33336 21.6355C9.34072 22.0444 9.67428 22.372 10.0832 22.372H11.4865C11.849 22.372 12.1596 22.1128 12.2244 21.7562L13.16 16.6107C13.1885 16.4537 13.1663 16.2918 13.0965 16.1483L10.75 11.3272V8.0856L14.1819 7.22762C14.4026 7.17245 14.5863 7.02008 14.6814 6.81341C14.7765 6.60673 14.7726 6.36808 14.6708 6.1646L13.1708 3.1646L12.8354 2.49378L11.4938 3.1646L11.8292 3.83542L12.9111 5.99917L9.81812 6.77241C9.48425 6.85588 9.25003 7.15586 9.25003 7.50001V11.4844C9.24866 11.5478 9.25535 11.6119 9.27061 11.6752C9.28456 11.7335 9.30529 11.7891 9.33193 11.8411L11.6403 16.584L10.8606 20.872H10.8199L10.7499 16.9865C10.7473 16.8431 10.7036 16.7034 10.6241 16.584L8.62406 13.584C8.44331 13.3129 8.10816 13.1895 7.79475 13.2787C7.48133 13.3678 7.26137 13.6492 7.25044 13.9749L7.01912 20.872H7.00802L6.16746 13.7273L6.7213 11.7057C6.74481 11.6235 6.75444 11.537 6.74853 11.4496C6.74343 11.3738 6.72678 11.2999 6.69989 11.2303L5.20227 7.23667C5.16468 7.13642 5.10606 7.04539 5.03035 6.96968L3.37184 5.31117L4.70227 1.76336ZM7.50835 6.81879C8.13063 6.8188 8.72753 6.57207 9.1682 6.1327C9.60888 5.69333 9.85736 5.09716 9.8592 4.47488C9.85996 4.01037 9.72296 3.55542 9.46551 3.16878C9.20806 2.78215 8.84174 2.48054 8.41287 2.30212C7.98399 2.12369 7.51184 2.07645 7.05612 2.16638C6.6004 2.25631 6.18159 2.47936 5.85265 2.80733C5.52371 3.1353 5.29942 3.55346 5.20814 4.00891C5.11686 4.46436 5.1627 4.93665 5.33987 5.36604C5.51703 5.79544 5.81755 6.16265 6.20342 6.42124C6.58929 6.67983 7.04384 6.81818 7.50835 6.81879ZM7.09787 3.85406C7.21937 3.77262 7.36223 3.72893 7.50849 3.72848C7.70561 3.729 7.89452 3.80753 8.03392 3.94693C8.17332 4.08633 8.25185 4.27525 8.25237 4.47238C8.25191 4.61863 8.20822 4.76148 8.12678 4.88297C8.04519 5.0047 7.92935 5.09953 7.7939 5.15548C7.65846 5.21143 7.50947 5.22599 7.36575 5.19733C7.22203 5.16867 7.09002 5.09807 6.9864 4.99444C6.88277 4.89082 6.81217 4.75881 6.78351 4.6151C6.75485 4.47138 6.76942 4.32239 6.82536 4.18694C6.88131 4.05149 6.97614 3.93566 7.09787 3.85406ZM20.3311 8.98184C19.9577 8.49416 19.3665 8.39589 18.9102 8.53454C18.4484 8.67486 18 9.10025 18 9.74251L18 11.7997C17.625 11.608 17.2001 11.4999 16.75 11.4999C15.2312 11.4999 14 12.7311 14 14.2499C14 15.7687 15.2312 16.9999 16.75 16.9999C18.1847 16.9999 19.3628 15.9012 19.4888 14.4993L19.5 14.4993L19.5 10.3439C20.2864 11.284 21.0878 11.9597 22.084 12.6239L22.5 12.9012V11.0884C21.6725 10.4945 21.0131 9.8728 20.3311 8.98184ZM16.75 12.9999C17.4404 12.9999 18 13.5595 18 14.2499C18 14.9402 17.4404 15.4999 16.75 15.4999C16.0596 15.4999 15.5 14.9402 15.5 14.2499C15.5 13.5595 16.0596 12.9999 16.75 12.9999Z" fill="#151516" fill-rule="evenodd"/>
</svg>
