<?xml version="1.0" encoding="UTF-8"?>
<!DOCTYPE svg
PUBLIC "-//W3C//DTD SVG 1.1//EN"
       "http://www.w3.org/Graphics/SVG/1.1/DTD/svg11.dtd">
<svg version="1.1" xmlns="http://www.w3.org/2000/svg" xmlns:xlink="http://www.w3.org/1999/xlink" viewBox="0 0 24 24">
 <path clip-rule="evenodd" d="M22.0049 11.5085C22.0049 5.70961 17.3038 1.00854 11.5048 1.00854C5.70595 1.00854 1.00488 5.70961 1.00488 11.5085C1.00488 17.3076 5.70595 22.0085 11.5048 22.0085H22.0049V20.2585H17.3017C20.2375 18.315 22.0036 15.0293 22.0049 11.5085ZM2.75498 11.5085C2.75498 6.67611 6.67245 2.75864 11.5048 2.75864C16.3373 2.75864 20.2549 6.67611 20.2549 11.5085C20.2549 16.341 16.3373 20.2585 11.5048 20.2585C6.67469 20.2532 2.76043 16.3387 2.75498 11.5085ZM12.38 11.5084C12.38 11.9917 11.988 12.3833 11.5048 12.3833C11.0217 12.3833 10.6299 11.9917 10.6299 11.5084C10.6299 11.0252 11.0217 10.6335 11.5048 10.6335C11.988 10.6335 12.38 11.0252 12.38 11.5084ZM14.1298 6.25844C14.1298 7.70828 12.9546 8.8835 11.5048 8.8835C10.0557 8.8819 8.88149 7.70764 8.87988 6.25844C8.87988 4.80877 10.0551 3.63354 11.5048 3.63354C12.9546 3.63354 14.1298 4.80877 14.1298 6.25844ZM12.3799 6.25844C12.3799 5.77527 11.988 5.38348 11.5048 5.38348C11.0218 5.38396 10.6303 5.77543 10.6298 6.25844C10.6298 6.74178 11.0216 7.13341 11.5048 7.13341C11.988 7.13341 12.3799 6.74178 12.3799 6.25844ZM9.00835 10.6973C9.35927 9.61634 8.97421 8.43246 8.05484 7.76429C7.1353 7.09628 5.89034 7.09612 4.97081 7.76397C4.05096 8.43166 3.66574 9.61554 4.01633 10.6965C4.36677 11.7778 5.37335 12.5104 6.50994 12.5114C7.64765 12.5114 8.656 11.7792 9.00835 10.6973ZM6.24126 10.7183C5.78166 10.5691 5.53029 10.0755 5.67954 9.6157C5.82895 9.15625 6.32238 8.90473 6.78198 9.05398C7.24159 9.20338 7.49327 9.69681 7.34387 10.1564C7.19414 10.6157 6.70087 10.8669 6.24142 10.7183H6.24126ZM6.63743 13.8291C7.5568 12.9788 8.94877 12.8965 9.96208 13.6325C10.5268 14.0403 10.9049 14.6572 11.0121 15.3456C11.208 16.5824 10.5031 17.7855 9.32822 18.219C8.15331 18.6528 6.83589 18.1959 6.18135 17.1282C5.52713 16.0606 5.7179 14.6792 6.63743 13.8291ZM8.0528 16.5505C8.43177 16.7254 8.88176 16.608 9.12703 16.2702V16.2704C9.26329 16.0827 9.31956 15.8485 9.28349 15.6192C9.21809 15.2069 8.87086 14.898 8.45373 14.8816C8.03661 14.8651 7.66597 15.1457 7.56835 15.5516C7.47088 15.9576 7.67367 16.3757 8.0528 16.5505ZM16.7143 14.2132C15.8622 13.0415 14.2216 12.7821 13.0498 13.6338C11.8778 14.4855 11.6179 16.126 12.4693 17.2981C13.3207 18.4703 14.9611 18.7308 16.1336 17.8797C16.7007 17.4734 17.0812 16.8568 17.1904 16.1678C17.2994 15.4788 17.128 14.7749 16.7143 14.2132ZM15.1049 16.4634C14.7141 16.7475 14.1668 16.6608 13.8827 16.2698C13.5987 15.8788 13.6852 15.3316 14.0764 15.0476C14.4674 14.7635 15.0145 14.8501 15.2986 15.2412C15.5822 15.6324 15.4955 16.1792 15.1049 16.4634ZM18.4941 8.18154C19.1836 8.98902 19.3189 10.132 18.837 11.078C18.2975 12.1367 17.1143 12.701 15.9522 12.4539C14.79 12.2071 13.9387 11.2103 13.8767 10.0238C13.8145 8.8372 14.5569 7.75704 15.6869 7.38977C16.6967 7.06178 17.8046 7.37422 18.4941 8.18154ZM16.1006 10.6667C16.5317 10.8811 17.0551 10.7107 17.2776 10.2837L17.2775 10.2842C17.4383 9.96883 17.3931 9.58777 17.1632 9.31861C16.9335 9.04945 16.5641 8.94541 16.2275 9.05474C15.891 9.16407 15.6534 9.46546 15.6257 9.8183C15.5981 10.171 15.7855 10.5059 16.1006 10.6667Z" fill="#151516" fill-rule="evenodd"/>
</svg>
