<?xml version="1.0" encoding="UTF-8"?>
<!DOCTYPE svg
PUBLIC "-//W3C//DTD SVG 1.1//EN"
       "http://www.w3.org/Graphics/SVG/1.1/DTD/svg11.dtd">
<svg version="1.1" xmlns="http://www.w3.org/2000/svg" xmlns:xlink="http://www.w3.org/1999/xlink" viewBox="0 0 24 24">
 <path clip-rule="evenodd" d="M5.86457 9.48628L6.24368 8.07143L10.9947 6.21672L9.83364 10.5498C9.53996 11.6458 8.41338 12.2963 7.31735 12.0026C6.22132 11.7089 5.57089 10.5823 5.86457 9.48628ZM10.3255 5.06256L6.66724 6.49069L7.26933 4.24365L10.3255 5.06256ZM6.10952 3.47788C6.23516 3.00897 6.71715 2.7307 7.18606 2.85634L12.0042 4.14735C12.4731 4.27299 12.7514 4.75498 12.6257 5.22389L12.1368 7.04864L12.2411 7.02069L16.6347 5.84343C17.1036 5.71778 17.5856 5.99606 17.7112 6.46497L19.2297 12.1321C19.6535 13.7135 18.88 15.3337 17.4649 16.0303L18.475 19.8L20.0103 19.3886L20.3515 20.6622L18.1795 21.2442L16.0074 21.8262L15.6662 20.5526L17.2014 20.1412L16.1914 16.3716C14.6174 16.4761 13.1373 15.4597 12.7135 13.8781L11.5102 9.3871L11.1072 10.891C10.6835 12.4724 9.20363 13.4888 7.62987 13.3846L6.61982 17.1541L8.1551 17.5655L7.81385 18.8391L5.64179 18.2571L3.46973 17.6751L3.81098 16.4015L5.34626 16.8129L6.35628 13.0435C4.9409 12.347 4.16723 10.7266 4.59101 9.14503L6.10952 3.47788ZM12.5823 8.29425L16.5514 7.23074L17.0505 9.09328L12.9485 9.66066L12.5823 8.29425ZM13.2924 10.9441L17.3944 10.3768L17.9562 12.4734C18.2499 13.5694 17.5994 14.696 16.5034 14.9897C15.4074 15.2833 14.2808 14.6329 13.9871 13.5369L13.2924 10.9441Z" fill="#151516" fill-rule="evenodd"/>
</svg>
