<?xml version="1.0" encoding="UTF-8"?>
<!DOCTYPE svg
PUBLIC "-//W3C//DTD SVG 1.1//EN"
       "http://www.w3.org/Graphics/SVG/1.1/DTD/svg11.dtd">
<svg version="1.1" xmlns="http://www.w3.org/2000/svg" xmlns:xlink="http://www.w3.org/1999/xlink" viewBox="0 0 24 24">
 <path clip-rule="evenodd" d="M12.9859 1.44506C12.6299 0.555099 11.3701 0.555099 11.0141 1.44506L10.0464 3.86432C9.49359 5.2464 10.5114 6.74981 12 6.74981C13.4886 6.74981 14.5064 5.2464 13.9536 3.86432L12.9859 1.44506ZM11.4391 4.4214L12 3.01925L12.5609 4.4214C12.7196 4.81819 12.4274 5.24981 12 5.24981C11.5726 5.24981 11.2804 4.81819 11.4391 4.4214ZM16.0141 2.445C16.3701 1.55504 17.6299 1.55504 17.9859 2.445L18.9536 4.86426C19.5064 6.24634 18.4886 7.74976 17 7.74976C15.5114 7.74976 14.4936 6.24635 15.0464 4.86426L16.0141 2.445ZM17 4.01919L16.4391 5.42135C16.2804 5.81814 16.5726 6.24976 17 6.24976C17.4274 6.24976 17.7196 5.81813 17.5609 5.42134L17 4.01919ZM6.01419 2.44517C6.37017 1.55521 7.62995 1.55521 7.98593 2.44517L8.95364 4.86443C9.50647 6.24652 8.48861 7.74993 7.00006 7.74993C5.51151 7.74993 4.49365 6.24652 5.04648 4.86443L6.01419 2.44517ZM7.00006 4.01937L6.4392 5.42152C6.28048 5.81831 6.57271 6.24993 7.00006 6.24993C7.42742 6.24993 7.71964 5.81831 7.56092 5.42152L7.00006 4.01937ZM12.75 10.1274V7.49995H11.25V10.1274H7.74997V8.49995H6.24997V10.1274H5.22036C3.98467 10.1274 2.86254 10.8825 2.53998 12.0754C2.06623 13.8273 1.72054 16.1274 3.17128 16.1274C3.1978 16.1274 3.22404 16.127 3.25 16.1262V19.7499H1.5V21.2499L3.25 21.2499H4H20H20.75L22.5 21.2499V19.7499H20.75V16.0488C20.8459 16.0967 20.9781 16.1274 21.1713 16.1274C22.3478 16.1274 22.1098 13.959 21.7327 12.2293C21.4562 10.9607 20.2927 10.1274 18.9943 10.1274H17.75V8.49995H16.25V10.1274H12.75ZM18.9943 11.6274H5.22036C4.57122 11.6274 4.11095 12.0122 3.98798 12.4669C3.77954 13.2377 3.63671 13.9868 3.63003 14.529C3.76116 14.4762 3.92042 14.3988 4.13753 14.2887L4.17365 14.2703C4.66772 14.0194 5.44338 13.6254 6.50285 13.6274C8.00237 13.6302 8.60966 13.7116 9.8849 14.0502C10.5405 14.2242 11.0718 14.5425 11.3848 14.73C11.4309 14.7577 11.4723 14.7824 11.5086 14.8035C11.824 14.9864 11.9092 14.9999 12 14.9999C12.3664 14.9999 12.5609 14.962 12.6475 14.9378L12.6619 14.9112L12.6963 14.8475L12.6981 14.8441C12.7437 14.7599 12.8439 14.5749 12.9933 14.3922C13.1627 14.185 13.4011 13.9707 13.7319 13.8205C14.053 13.6748 14.3775 13.6274 14.6713 13.6274C15.2991 13.6274 15.7917 13.8775 16.1188 14.0978C16.4142 14.2968 16.6747 14.5429 16.8385 14.6975L16.8648 14.7224C17.0141 14.8632 17.1028 14.944 17.1672 14.9958C17.6089 14.9726 17.8001 14.8563 17.9892 14.7356C18.0137 14.72 18.0445 14.6986 18.0815 14.6731C18.3755 14.4699 19.0553 13.9999 20 13.9999C20.167 13.9999 20.3407 14.0166 20.5149 14.0572C20.473 13.6066 20.3838 13.0838 20.2671 12.5488C20.1586 12.0508 19.6742 11.6274 18.9943 11.6274ZM21.7745 15.0063C21.7794 15.0135 21.7801 15.0151 21.7764 15.0094L21.7745 15.0063ZM17.2443 15.0513C17.2443 15.0514 17.2436 15.051 17.2421 15.0501L17.2443 15.0513ZM4.75 17.2499V15.6599L4.8005 15.6343C5.29908 15.3814 5.80232 15.126 6.5 15.1274C7.8808 15.13 8.35895 15.197 9.5 15.4999C9.9352 15.6155 10.2727 15.8154 10.595 16.0063C11.0252 16.2612 11.4282 16.4999 12 16.4999C13.5115 16.4999 13.7809 15.9982 13.9939 15.6014C14.1333 15.342 14.2485 15.1274 14.6713 15.1274C15.1079 15.1274 15.4718 15.4705 15.8356 15.8137C16.1995 16.1568 16.5634 16.4999 17 16.4999C18.0428 16.4999 18.5342 16.1747 18.9565 15.8952C19.056 15.8293 19.1518 15.766 19.25 15.71V19.7499H4.75V18.7499H9.5V17.2499H4.75Z" fill="#151516" fill-rule="evenodd"/>
</svg>
