<?xml version="1.0" encoding="UTF-8"?>
<!DOCTYPE svg
PUBLIC "-//W3C//DTD SVG 1.1//EN"
       "http://www.w3.org/Graphics/SVG/1.1/DTD/svg11.dtd">
<svg version="1.1" xmlns="http://www.w3.org/2000/svg" xmlns:xlink="http://www.w3.org/1999/xlink" viewBox="0 0 24 24">
 <path clip-rule="evenodd" d="M15.3177 12.175C15.421 12.0817 15.5452 11.9626 15.6756 11.8221C16.0287 11.4418 16.3798 10.9562 16.533 10.4438C16.6475 10.0611 16.6684 9.53705 16.6433 9.03044C16.0906 9.34052 15.2682 9.73406 14.5156 9.74984C13.9358 9.76199 13.2618 9.62702 12.7563 9.50096C13.1867 10.7178 14.1256 11.6943 15.3177 12.175ZM12.5017 7.87364C12.6467 7.91815 12.8418 7.97496 13.0619 8.03107C13.5514 8.15587 14.0938 8.25835 14.4842 8.25016C14.8158 8.24321 15.3165 8.0461 15.8281 7.76721C15.7993 7.74907 15.7704 7.7306 15.7415 7.71181C15.2854 7.41589 14.7672 7.01075 14.3734 6.41229C14.1294 6.04143 14.0403 5.59962 14.0087 5.22349C13.9926 5.03237 13.9899 4.83842 13.996 4.64935C13.1068 5.44706 12.5369 6.59357 12.5017 7.87364ZM15.6089 3.7191C16.047 3.57687 16.5145 3.5 16.9999 3.5C18.0802 3.5 19.0717 3.88069 19.8473 4.51525C19.4673 4.54357 19.0583 4.63226 18.6645 4.82918C17.9613 5.18076 17.5035 5.83523 17.2129 6.32387C17.1325 6.45922 17.0581 6.59405 16.9923 6.71644C16.8458 6.63174 16.702 6.54695 16.5579 6.4535C16.1855 6.2118 15.8591 5.94127 15.6264 5.58771C15.5815 5.51938 15.526 5.3666 15.5034 5.09788C15.4819 4.84195 15.4954 4.5474 15.5284 4.25472C15.5502 4.06165 15.5795 3.87819 15.6089 3.7191ZM21.1069 6.15804C21.0909 6.15309 21.0735 6.14785 21.0548 6.14239C20.9328 6.10684 20.7594 6.0639 20.5588 6.03547C20.1405 5.97616 19.6924 5.99229 19.3353 6.17082C19.0385 6.31924 18.7647 6.64913 18.5023 7.09046C18.4433 7.18968 18.3894 7.28634 18.3379 7.38137L18.3953 7.39825C18.5003 7.42911 18.6154 7.46297 18.7589 7.50793C19.2893 7.67412 19.9901 7.92955 20.5302 8.46967C20.8465 8.78596 21.0792 9.13686 21.2506 9.48066C21.4121 9.01697 21.4999 8.51873 21.4999 8C21.4999 7.34372 21.3594 6.72026 21.1069 6.15804ZM20.2157 11.1479C20.2004 11.0477 20.1786 10.932 20.1473 10.8069C20.0411 10.3821 19.8392 9.89993 19.4696 9.53033C19.2054 9.26615 18.8128 9.0967 18.3105 8.93931C18.2591 8.92323 18.2004 8.90545 18.1378 8.88675C18.1713 9.47362 18.1627 10.2299 17.9701 10.8737C17.7783 11.515 17.4207 12.0702 17.073 12.4994C18.3038 12.4798 19.4146 11.9661 20.2157 11.1479ZM22.9999 8C22.9999 11.3137 20.3136 14 16.9999 14C15.7418 14 14.5741 13.6128 13.6096 12.951L10.0302 16.5303L8.96959 15.4697L12.4862 11.9531C11.5608 10.8974 10.9999 9.51418 10.9999 8C10.9999 4.68629 13.6862 2 16.9999 2C20.3136 2 22.9999 4.68629 22.9999 8ZM3.46959 20.9697L5.96959 18.4697L7.03025 19.5303L4.53025 22.0303L3.46959 20.9697ZM9.03025 17.4697L8.01138 16.4508L4.66222 10.1481L3.33762 10.8519L5.84201 15.5649L0.746415 13.7917L0.253418 15.2083L6.99292 17.5537L7.96959 18.5303L9.03025 17.4697Z" fill="#151516" fill-rule="evenodd"/>
</svg>
