<?xml version="1.0" encoding="UTF-8"?>
<!DOCTYPE svg
PUBLIC "-//W3C//DTD SVG 1.1//EN"
       "http://www.w3.org/Graphics/SVG/1.1/DTD/svg11.dtd">
<svg version="1.1" xmlns="http://www.w3.org/2000/svg" xmlns:xlink="http://www.w3.org/1999/xlink" viewBox="0 0 24 24">
 <path clip-rule="evenodd" d="M15.3329 4.4455C18.6677 3.93019 22.053 6.0674 22.5459 9.51776L23.74 17.8765C23.7892 18.1715 23.658 18.48 23.3859 18.6432L20.3708 20.4523C18.9322 21.3155 17.0627 20.7005 16.4175 19.1519L15.0001 15.7501H12.0001H9.50011L8.0827 19.1519C7.43745 20.7005 5.56794 21.3155 4.12938 20.4523L1.11424 18.6432C0.850472 18.485 0.719067 18.1902 0.756179 17.9034L1.6273 9.77298C2.0075 6.22445 5.45426 3.96761 8.86657 4.47572C9.97001 4.64003 11.0629 4.75012 12.0001 4.75012C12.9945 4.75012 14.1634 4.6262 15.3329 4.4455ZM15.6139 14.2587C15.5709 14.252 15.527 14.2491 15.4829 14.2501H12.0001H9.00011C8.68199 14.2501 8.41013 14.4482 8.30111 14.7277L6.69809 18.575C6.40479 19.2789 5.55502 19.5584 4.90112 19.1661L2.2969 17.6035L3.11876 9.93278C3.39572 7.34788 5.95671 5.55897 8.64565 5.95937C9.78513 6.12904 10.9591 6.25012 12.0001 6.25012C13.1035 6.25012 14.3571 6.11407 15.5619 5.9279C18.1832 5.52286 20.7016 7.21398 21.061 9.72988L22.1872 17.6132L19.5991 19.1661C18.9452 19.5584 18.0954 19.2789 17.8021 18.575L16.1989 14.7275C16.183 14.6866 16.1636 14.6475 16.141 14.6105C16.0239 14.4173 15.8283 14.2918 15.6139 14.2587ZM7.00006 8.60012C6.77915 8.60012 6.60006 8.77921 6.60006 9.00012V9.60012H6.00006C5.77915 9.60012 5.60006 9.77921 5.60006 10.0001C5.60006 10.221 5.77915 10.4001 6.00006 10.4001H6.60006V11.0001C6.60006 11.221 6.77915 11.4001 7.00006 11.4001C7.22097 11.4001 7.40006 11.221 7.40006 11.0001V10.4001H8.00006C8.22097 10.4001 8.40006 10.221 8.40006 10.0001C8.40006 9.77921 8.22097 9.60012 8.00006 9.60012H7.40006V9.00012C7.40006 8.77921 7.22097 8.60012 7.00006 8.60012ZM5.48483 8.48489C5.69928 7.85402 6.29667 7.40012 7.00006 7.40012C7.70346 7.40012 8.30084 7.85402 8.51529 8.48489C9.14617 8.69934 9.60006 9.29673 9.60006 10.0001C9.60006 10.7035 9.14617 11.3009 8.51529 11.5154C8.30084 12.1462 7.70346 12.6001 7.00006 12.6001C6.29667 12.6001 5.69928 12.1462 5.48483 11.5154C4.85396 11.3009 4.40006 10.7035 4.40006 10.0001C4.40006 9.29673 4.85396 8.69934 5.48483 8.48489ZM17.8501 9.50012V8.00012H16.1501V9.50012H14.6501V11.0001H16.1501V11.5001V12.5001H17.8501V11.5001V11.0001H19.3501V9.50012H17.8501ZM16.3501 9.50012H17.6501V11.0001H16.3501V9.50012Z" fill="#151516" fill-rule="evenodd"/>
</svg>
