<?xml version="1.0" encoding="UTF-8"?>
<!DOCTYPE svg
PUBLIC "-//W3C//DTD SVG 1.1//EN"
       "http://www.w3.org/Graphics/SVG/1.1/DTD/svg11.dtd">
<svg version="1.1" xmlns="http://www.w3.org/2000/svg" xmlns:xlink="http://www.w3.org/1999/xlink" viewBox="0 0 24 24">
 <path clip-rule="evenodd" d="M7 3.75C7 2.7835 7.7835 2 8.75 2H11.25C12.2165 2 13 2.7835 13 3.75V4H17.5C18.3284 4 19 4.67157 19 5.5V16.5C19 17.3284 18.3284 18 17.5 18H5.5V19C5.5 19.6904 6.05964 20.25 6.75 20.25H18V21.75H6.75C5.23122 21.75 4 20.5188 4 19V5.5C4 4.67157 4.67157 4 5.5 4H7V3.75ZM7 5.5H5.5V16.5H17.5V5.5H13V10H11.6479L10 8.90142L8.35209 10H7V5.5ZM8.75 3.5C8.61193 3.5 8.5 3.61193 8.5 3.75V8.09864L10 7.09866L11.5 8.09864V3.75C11.5 3.61193 11.3881 3.5 11.25 3.5H8.75Z" fill="#151516" fill-rule="evenodd"/>
</svg>
