<?xml version="1.0" encoding="UTF-8"?>
<!DOCTYPE svg
PUBLIC "-//W3C//DTD SVG 1.1//EN"
       "http://www.w3.org/Graphics/SVG/1.1/DTD/svg11.dtd">
<svg version="1.1" xmlns="http://www.w3.org/2000/svg" xmlns:xlink="http://www.w3.org/1999/xlink" viewBox="0 0 24 24">
 <path clip-rule="evenodd" d="M15.9393 1.69674L10.9895 6.64649C10.7943 6.84175 10.7943 7.15833 10.9895 7.35359L15.9393 12.3033C16.1345 12.4986 16.4511 12.4986 16.6464 12.3033L21.5961 7.35359C21.7914 7.15833 21.7914 6.84175 21.5961 6.64649L16.6464 1.69674C16.4511 1.50148 16.1345 1.50148 15.9393 1.69674ZM9.92886 5.58583C9.14781 6.36688 9.14781 7.6332 9.92886 8.41425L14.8786 13.364C15.6597 14.145 16.926 14.145 17.707 13.364L22.6568 8.41425C23.4378 7.6332 23.4378 6.36688 22.6568 5.58583L17.707 0.636079C16.926-0.144969 15.6597-0.144969 14.8786 0.636079L9.92886 5.58583ZM16.941 9.24102C17.299 9.599 17.299 10.1794 16.941 10.5374C16.583 10.8954 16.0026 10.8954 15.6446 10.5374C15.2867 10.1794 15.2867 9.599 15.6446 9.24102C16.0026 8.88304 16.583 8.88304 16.941 9.24102ZM16.941 7.64822C17.299 7.29024 17.299 6.70984 16.941 6.35186C16.583 5.99388 16.0026 5.99388 15.6446 6.35186C15.2866 6.70984 15.2866 7.29024 15.6446 7.64822C16.0026 8.0062 16.583 8.0062 16.941 7.64822ZM16.941 3.4627C17.299 3.82068 17.299 4.40108 16.941 4.75906C16.583 5.11704 16.0026 5.11704 15.6446 4.75906C15.2867 4.40108 15.2867 3.82068 15.6446 3.4627C16.0026 3.10472 16.583 3.10472 16.941 3.4627ZM19.8302 7.64822C20.1881 7.29024 20.1881 6.70984 19.8302 6.35186C19.4722 5.99388 18.8918 5.99388 18.5338 6.35186C18.1758 6.70984 18.1758 7.29024 18.5338 7.64822C18.8918 8.0062 19.4722 8.0062 19.8302 7.64822ZM14.0518 6.35186C14.4098 6.70984 14.4098 7.29024 14.0518 7.64822C13.6939 8.0062 13.1135 8.0062 12.7555 7.64822C12.3975 7.29024 12.3975 6.70984 12.7555 6.35186C13.1135 5.99388 13.6939 5.99388 14.0518 6.35186ZM10.793 13H3.79297C3.51683 13 3.29297 13.2239 3.29297 13.5V20.5C3.29297 20.7762 3.51683 21 3.79297 21H10.793C11.0691 21 11.293 20.7762 11.293 20.5V13.5C11.293 13.2239 11.0691 13 10.793 13ZM3.79297 11.5C2.6884 11.5 1.79297 12.3955 1.79297 13.5V20.5C1.79297 21.6046 2.6884 22.5 3.79297 22.5H10.793C11.8975 22.5 12.793 21.6046 12.793 20.5V13.5C12.793 12.3955 11.8975 11.5 10.793 11.5H3.79297ZM6.16669 19.043C6.16669 19.5492 5.75628 19.9597 5.25002 19.9597C4.74376 19.9597 4.33336 19.5492 4.33336 19.043C4.33336 18.5367 4.74376 18.1263 5.25002 18.1263C5.75628 18.1263 6.16669 18.5367 6.16669 19.043ZM7.29295 17.9167C7.79922 17.9167 8.20962 17.5063 8.20962 17C8.20962 16.4938 7.79922 16.0834 7.29295 16.0834C6.78669 16.0834 6.37629 16.4938 6.37629 17C6.37629 17.5063 6.78669 17.9167 7.29295 17.9167ZM10.2526 14.9571C10.2526 15.4634 9.84217 15.8738 9.33591 15.8738C8.82965 15.8738 8.41925 15.4634 8.41925 14.9571C8.41925 14.4508 8.82965 14.0404 9.33591 14.0404C9.84217 14.0404 10.2526 14.4508 10.2526 14.9571Z" fill="#151516" fill-rule="evenodd"/>
</svg>
