<?xml version="1.0" encoding="UTF-8"?>
<!DOCTYPE svg
PUBLIC "-//W3C//DTD SVG 1.1//EN"
       "http://www.w3.org/Graphics/SVG/1.1/DTD/svg11.dtd">
<svg version="1.1" xmlns="http://www.w3.org/2000/svg" xmlns:xlink="http://www.w3.org/1999/xlink" viewBox="0 0 24 24">
 <path clip-rule="evenodd" d="M18.6466 2.74616C16.4995 1.73003 12.7955 1.0835 12.7955 1.0835C12.7955 1.0835 10.6832 3.96922 9.57857 7.1505C8.83897 7.05996 7.97946 7 7.00005 7C3.0001 7 1.00005 8 1.00005 8C1.00005 8-0.433664 15.4601 2.00001 19C2.84901 20.2349 4.21034 21.2882 5.29831 22.0035C6.33766 22.6869 7.66244 22.6869 8.70178 22.0035C9.78972 21.2882 11.151 20.2349 12 19C13.32 17.08 13.5023 14.0067 13.3927 11.5961C13.5138 11.5771 13.6327 11.5639 13.7475 11.5578C14.0651 11.541 14.2901 11.5818 14.4332 11.6495C14.5762 11.7172 14.7505 11.8653 14.9387 12.1216C15.1228 12.372 15.2859 12.6788 15.4233 12.9931C15.5594 13.3043 15.6613 13.6023 15.7294 13.8236C15.7631 13.9335 15.788 14.0227 15.804 14.0829C15.812 14.1129 15.8178 14.1356 15.8213 14.1499L15.825 14.1648L15.8254 14.1666C15.8254 14.1666 15.8253 14.1662 16.6529 13.9722C17.4805 13.7782 17.4804 13.7779 17.4804 13.7779L17.48 13.7764L17.4794 13.7736L17.4774 13.7654L17.4708 13.7384C17.4652 13.7159 17.4572 13.6845 17.4467 13.6454C17.4259 13.5671 17.3952 13.4571 17.3544 13.3243C17.2732 13.0602 17.1498 12.6983 16.9809 12.3121C16.8134 11.9289 16.592 11.5006 16.3087 11.115C16.0296 10.7351 15.6536 10.3463 15.1603 10.1129C14.6671 9.87942 14.128 9.83522 13.6573 9.86023C13.5255 9.86723 13.3941 9.87995 13.2645 9.89708C13.145 8.75433 13 8 13 8C13 8 12.3606 7.68028 11.0817 7.40241C11.3321 6.71879 11.6394 6.02597 11.9781 5.35182C12.4669 4.37868 12.9785 3.52593 13.3688 2.91578C13.4064 2.85692 13.4429 2.8004 13.478 2.74635C13.7902 2.81225 14.1612 2.89458 14.5635 2.99181C15.7404 3.27622 17.0778 3.66322 18.005 4.102C18.9322 4.54079 20.0795 5.32966 21.0455 6.05937C21.3758 6.30882 21.6747 6.54356 21.9236 6.74316C21.9041 6.8046 21.8835 6.86863 21.8619 6.93506C21.6375 7.6237 21.3024 8.55999 20.8598 9.55501C19.9316 11.6418 18.6891 13.6153 17.2792 14.4348C16.3056 15.0006 14.9693 15.3351 13.7772 15.5181C13.5808 15.5482 13.3924 15.5736 13.215 15.5951C13.1306 16.1268 13.0161 16.6473 12.8643 17.1412C14.1676 17.0191 16.4046 16.6781 18.0329 15.7317C21.7469 13.573 23.6422 6.21662 23.6422 6.21662C23.6422 6.21662 20.7938 3.76229 18.6466 2.74616ZM18.7589 8.10687C18.4165 7.78576 17.8785 7.80306 17.5574 8.1455C17.2363 8.48795 17.2536 9.02586 17.5961 9.34696L18.6622 10.2867C19.0047 10.6078 19.5426 10.5905 19.8637 10.2481C20.1848 9.90563 20.1675 9.36772 19.8251 9.04661L18.7589 8.10687ZM14.1557 7.81061C14.6154 7.90575 15.0652 7.61021 15.1603 7.1505C15.2555 6.6908 14.9599 6.24102 14.5002 6.14589L13.0887 5.83997C12.629 5.74484 12.1792 6.04038 12.084 6.50008C11.9889 6.95979 12.2845 7.40957 12.7442 7.5047L14.1557 7.81061ZM2.34364 9.09911C2.33013 9.1959 2.31614 9.30007 2.30197 9.41098C2.21022 10.1294 2.11257 11.1191 2.08699 12.2078C2.03334 14.4911 2.31219 16.8064 3.23607 18.1502C3.91754 19.1414 5.08166 20.0659 6.12236 20.7502C6.66154 21.1046 7.33854 21.1046 7.87772 20.7501C8.91839 20.0659 10.0825 19.1414 10.7639 18.1502C11.6878 16.8064 11.9667 14.4911 11.9131 12.2078C11.8875 11.119 11.7899 10.1294 11.6981 9.41096C11.6839 9.30006 11.67 9.19589 11.6565 9.09911C11.5074 9.05353 11.334 9.00466 11.1362 8.95521C10.2515 8.73404 8.87365 8.5 7.00005 8.5C5.12645 8.5 3.74857 8.73404 2.86387 8.95521C2.66609 9.00466 2.49269 9.05353 2.34364 9.09911ZM3 13C3 12.5306 3.38056 12.15 3.85 12.15H5.15C5.61944 12.15 6 12.5306 6 13C6 13.4694 5.61944 13.85 5.15 13.85H3.85C3.38056 13.85 3 13.4694 3 13ZM8 13C8 12.5306 8.38056 12.15 8.85 12.15H10.15C10.6194 12.15 11 12.5306 11 13C11 13.4694 10.6194 13.85 10.15 13.85H8.85C8.38056 13.85 8 13.4694 8 13ZM3.3352 16.5297C3.3352 16.5297 3.33496 16.5294 4 16C4.66504 15.4706 4.66484 15.4704 4.66484 15.4704L4.66598 15.4718L4.67568 15.4837C4.685 15.4951 4.69992 15.5131 4.72 15.5368C4.76022 15.5844 4.82082 15.6544 4.89837 15.7393C5.05452 15.9103 5.27416 16.136 5.53029 16.3591C5.78896 16.5844 6.06762 16.7919 6.34108 16.9396C6.62086 17.0906 6.8417 17.15 7 17.15C7.1583 17.15 7.37914 17.0906 7.65892 16.9396C7.93238 16.7919 8.21104 16.5844 8.46971 16.3591C8.72584 16.136 8.94548 15.9103 9.10163 15.7393C9.17918 15.6544 9.23978 15.5844 9.28 15.5368C9.30008 15.5131 9.315 15.4951 9.32432 15.4837L9.33402 15.4718L9.33516 15.4704C9.33516 15.4704 9.33496 15.4706 10 16C10.665 16.5294 10.6648 16.5297 10.6648 16.5297L10.6639 16.5308L10.6621 16.5331L10.6568 16.5397L10.6392 16.5612C10.6245 16.5791 10.6039 16.6041 10.5777 16.635C10.5254 16.6969 10.4506 16.7831 10.3569 16.8857C10.1705 17.0897 9.9042 17.364 9.58633 17.6409C9.27101 17.9156 8.88767 18.2081 8.46662 18.4354C8.0519 18.6594 7.54573 18.85 7 18.85C6.45427 18.85 5.9481 18.6594 5.53338 18.4354C5.11233 18.2081 4.72899 17.9156 4.41367 17.6409C4.0958 17.364 3.82945 17.0897 3.64311 16.8857C3.54942 16.7831 3.47465 16.6969 3.42231 16.635C3.39611 16.6041 3.37545 16.5791 3.36076 16.5612L3.34324 16.5397L3.33793 16.5331L3.33615 16.5308L3.3352 16.5297Z" fill="#151516" fill-rule="evenodd"/>
</svg>
