<?xml version="1.0" encoding="UTF-8"?>
<!DOCTYPE svg
PUBLIC "-//W3C//DTD SVG 1.1//EN"
       "http://www.w3.org/Graphics/SVG/1.1/DTD/svg11.dtd">
<svg version="1.1" xmlns="http://www.w3.org/2000/svg" xmlns:xlink="http://www.w3.org/1999/xlink" viewBox="0 0 24 24">
 <path clip-rule="evenodd" d="M18 7C18 6.16066 17.483 5.44207 16.75 5.14538V0H15.25V5.14538C14.517 5.44207 14 6.16066 14 7C14 7.83934 14.517 8.55793 15.25 8.85462V16.5C15.25 19.1234 13.1234 21.25 10.5 21.25C7.87665 21.25 5.75 19.1234 5.75 16.5V14.8943L6.84438 16.8642L8.15562 16.1358L5.65562 11.6358L4.25 9.10566V12V16.5C4.25 19.9518 7.04822 22.75 10.5 22.75C13.9518 22.75 16.75 19.9518 16.75 16.5V8.85462C17.483 8.55793 18 7.83934 18 7ZM16 7.5C16.2761 7.5 16.5 7.27614 16.5 7C16.5 6.72386 16.2761 6.5 16 6.5C15.7239 6.5 15.5 6.72386 15.5 7C15.5 7.27614 15.7239 7.5 16 7.5Z" fill="#151516" fill-rule="evenodd"/>
</svg>
