<?xml version="1.0" encoding="UTF-8"?>
<!DOCTYPE svg
PUBLIC "-//W3C//DTD SVG 1.1//EN"
       "http://www.w3.org/Graphics/SVG/1.1/DTD/svg11.dtd">
<svg version="1.1" xmlns="http://www.w3.org/2000/svg" xmlns:xlink="http://www.w3.org/1999/xlink" viewBox="0 0 24 24">
 <path clip-rule="evenodd" d="M5.25 2.25H6H18H18.75V3.75H18H6H5.25V2.25ZM20 6.5H4C3.72386 6.5 3.5 6.72386 3.5 7V17C3.5 17.2761 3.72386 17.5 4 17.5H20C20.2761 17.5 20.5 17.2761 20.5 17V7C20.5 6.72386 20.2761 6.5 20 6.5ZM4 5C2.89543 5 2 5.89543 2 7V17C2 18.1046 2.89543 19 4 19H20C21.1046 19 22 18.1046 22 17V7C22 5.89543 21.1046 5 20 5H4ZM14.05 10.4C14.3167 10.2 14.6833 10.2 14.95 10.4L18.95 13.4L19.55 13.85L18.65 15.05L18.05 14.6L14.5 11.9375L8.95 16.1L8.35 16.55L7.45 15.35L8.05 14.9L14.05 10.4ZM7.5 10C7.5 10.2761 7.27614 10.5 7 10.5C6.72386 10.5 6.5 10.2761 6.5 10C6.5 9.72386 6.72386 9.5 7 9.5C7.27614 9.5 7.5 9.72386 7.5 10ZM9 10C9 11.1046 8.10457 12 7 12C5.89543 12 5 11.1046 5 10C5 8.89543 5.89543 8 7 8C8.10457 8 9 8.89543 9 10ZM6 20.25H5.25V21.75H6H18H18.75V20.25H18H6Z" fill="#151516" fill-rule="evenodd"/>
</svg>
