<?xml version="1.0" encoding="UTF-8"?>
<!DOCTYPE svg
PUBLIC "-//W3C//DTD SVG 1.1//EN"
       "http://www.w3.org/Graphics/SVG/1.1/DTD/svg11.dtd">
<svg version="1.1" xmlns="http://www.w3.org/2000/svg" xmlns:xlink="http://www.w3.org/1999/xlink" viewBox="0 0 24 24">
 <path clip-rule="evenodd" d="M13.4948 2.10303H12.6698V3.75303H13.4948H15.6898L17.6746 12.1135C15.9163 12.6618 14.5789 14.1642 14.2685 16.0149H6.23373C5.72574 15.2357 4.84655 14.7207 3.84706 14.7207C2.27467 14.7207 1 15.9954 1 17.5678C1 19.1401 2.27467 20.4148 3.84706 20.4148C5.38696 20.4148 6.64131 19.1923 6.6925 17.6649H14.8721C14.9009 17.6649 14.9293 17.6634 14.9572 17.6605H15.9529C15.8857 17.3981 15.85 17.1232 15.85 16.8399C15.85 15.0173 17.3275 13.5399 19.15 13.5399C19.3374 13.5399 19.5212 13.5555 19.7001 13.5855L19.3346 11.8932C19.34 11.8934 19.3291 11.893 19.3346 11.8932L17.1445 2.73746C17.0562 2.36557 16.7241 2.10303 16.3418 2.10303H13.4948ZM11.4501 5.01484H10.6251V6.66484H11.4501H13.6501H14.4751V5.01484H13.6501H11.4501ZM5.04413 17.5678C5.04413 18.2289 4.50818 18.7648 3.84706 18.7648C3.18595 18.7648 2.65 18.2289 2.65 17.5678C2.65 16.9066 3.18595 16.3707 3.84706 16.3707C4.50818 16.3707 5.04413 16.9066 5.04413 17.5678ZM20.1529 18.7648C20.8141 18.7648 21.35 18.2288 21.35 17.5677C21.35 16.9066 20.8141 16.3707 20.1529 16.3707C19.4918 16.3707 18.9559 16.9066 18.9559 17.5677C18.9559 18.2288 19.4918 18.7648 20.1529 18.7648ZM20.1529 20.4148C21.7253 20.4148 23 19.1401 23 17.5677C23 15.9953 21.7253 14.7207 20.1529 14.7207C18.5805 14.7207 17.3059 15.9953 17.3059 17.5677C17.3059 19.1401 18.5805 20.4148 20.1529 20.4148ZM19.15 21.7899L19.1709 21.7898H19.1292L19.15 21.7899Z" fill="#151516" fill-rule="evenodd"/>
</svg>
