<?xml version="1.0" encoding="UTF-8"?>
<!DOCTYPE svg
PUBLIC "-//W3C//DTD SVG 1.1//EN"
       "http://www.w3.org/Graphics/SVG/1.1/DTD/svg11.dtd">
<svg version="1.1" xmlns="http://www.w3.org/2000/svg" xmlns:xlink="http://www.w3.org/1999/xlink" viewBox="0 0 24 24">
 <path clip-rule="evenodd" d="M16.2642 2.68966L13.8693 3.80639L14.6326 5.44332L14.9496 6.12305L13.5901 6.75698L13.2732 6.07725L12.5099 4.44032L4.0268 8.39604C3.77653 8.51274 3.66825 8.81023 3.78495 9.0605L7.33418 16.6718C7.45088 16.9221 7.74837 17.0304 7.99864 16.9137L20.236 11.2073C20.4863 11.0906 20.5946 10.7931 20.4779 10.5428L16.9286 2.9315C16.8119 2.68123 16.5144 2.57295 16.2642 2.68966ZM3.39287 7.03657C2.39179 7.50339 1.95868 8.69334 2.42549 9.69442L5.97472 17.3058C6.44153 18.3068 7.63149 18.74 8.63257 18.2731L20.8699 12.5668C21.871 12.0999 22.3041 10.91 21.8373 9.90891L18.2881 2.29757C17.8213 1.29649 16.6313 0.863385 15.6302 1.3302L3.39287 7.03657ZM15.6116 7.54266L15.9285 8.22239L17.0593 10.6473L17.3763 11.3271L16.0168 11.961L15.6998 11.2813L14.5691 8.85632L14.2521 8.17659L15.6116 7.54266ZM3.1707 14.6646L2.83529 13.9938L1.49365 14.6646L1.82906 15.3354L4.00889 19.6951C4.92455 21.5264 7.13987 22.2847 8.98573 21.3987L18.8244 16.6762L19.5006 16.3516L18.8515 14.9993L18.1753 15.3239L8.33663 20.0464C7.22912 20.5781 5.89993 20.123 5.35053 19.0243L3.1707 14.6646Z" fill="#151516" fill-rule="evenodd"/>
</svg>
