<?xml version="1.0" encoding="UTF-8"?>
<!DOCTYPE svg
PUBLIC "-//W3C//DTD SVG 1.1//EN"
       "http://www.w3.org/Graphics/SVG/1.1/DTD/svg11.dtd">
<svg version="1.1" xmlns="http://www.w3.org/2000/svg" xmlns:xlink="http://www.w3.org/1999/xlink" viewBox="0 0 24 24">
 <path clip-rule="evenodd" d="M10.151 8.55601L8.33631 13.032C8.1319 13.5362 8.27708 14.1147 8.69534 14.4627L9.11258 14.8097L10.151 8.55601ZM8.94439 16.621L7.73608 15.6158C6.81591 14.8504 6.4965 13.5777 6.94621 12.4685L11.2371 1.88465C11.5825 1.03281 12.8609 1.39323 12.7103 2.30008L10.3986 16.2222L10.6828 17.9243C11.9975 18.0241 13.0331 19.1205 13.0331 20.4584C13.0331 21.8621 11.8932 23 10.487 23C9.08084 23 7.94092 21.8621 7.94092 20.4584C7.94092 19.5163 8.45439 18.694 9.21721 18.255L8.94439 16.621ZM13.0544 14.0534L14.721 13.1246L13.2915 13.5477C13.2026 13.574 13.1356 13.6474 13.1175 13.7382L13.0544 14.0534ZM20.6132 9.81613C21.4947 9.55522 22.0109 10.7792 21.2081 11.2266L12.7446 15.9437C12.0366 16.3383 11.1905 15.722 11.3493 14.9273L11.6461 13.4432C11.7733 12.8072 12.2421 12.2941 12.8643 12.1099L20.6132 9.81613ZM4.54609 18.1113C5.12636 18.1113 5.59218 17.6424 5.59218 17.0697C5.59218 16.497 5.12636 16.0282 4.54609 16.0282C3.96582 16.0282 3.5 16.497 3.5 17.0697C3.5 17.6424 3.96582 18.1113 4.54609 18.1113ZM4.54609 19.6113C5.95226 19.6113 7.09218 18.4734 7.09218 17.0697C7.09218 15.6661 5.95226 14.5282 4.54609 14.5282C3.13992 14.5282 2 15.6661 2 17.0697C2 18.4734 3.13992 19.6113 4.54609 19.6113ZM10.487 21.5C11.0673 21.5 11.5331 21.0311 11.5331 20.4584C11.5331 19.8857 11.0673 19.4169 10.487 19.4169C9.90674 19.4169 9.44092 19.8857 9.44092 20.4584C9.44092 21.0311 9.90674 21.5 10.487 21.5ZM15.0756 15.8229C14.3907 16.1285 14.3908 16.1287 14.3909 16.129L14.3917 16.1307L14.3931 16.1337L14.3971 16.1425L14.4099 16.17C14.4206 16.1927 14.4356 16.2239 14.4549 16.2622C14.4933 16.3389 14.5491 16.4451 14.6215 16.5706C14.7653 16.8196 14.9804 17.1548 15.2638 17.4889C15.8057 18.1279 16.7397 18.925 18.009 18.8126C19.7702 18.6566 21.0081 17.4962 21.7658 16.4958C22.1518 15.986 22.4362 15.4884 22.6241 15.1193C22.7185 14.9339 22.7896 14.7788 22.8379 14.668C22.8621 14.6125 22.8806 14.568 22.8936 14.5361L22.9088 14.498L22.9134 14.4864L22.9148 14.4825L22.9154 14.4811C22.9155 14.4808 22.9158 14.48 22.2148 14.2133C21.5139 13.9466 21.514 13.9464 21.514 13.9461L21.5128 13.9492L21.504 13.9713C21.4955 13.9922 21.4818 14.0252 21.4629 14.0685C21.4251 14.1553 21.3666 14.2831 21.2873 14.4388C21.128 14.7517 20.8889 15.169 20.57 15.5902C19.9176 16.4516 19.0196 17.2172 17.8767 17.3184C17.3502 17.365 16.8506 17.0409 16.4078 16.5187C16.1989 16.2724 16.034 16.0171 15.9207 15.8208C15.8646 15.7237 15.8226 15.6434 15.7955 15.5894C15.782 15.5624 15.7722 15.5421 15.7663 15.5297L15.7605 15.5171C15.76 15.5161 15.7598 15.5156 15.7598 15.5156L15.7605 15.5171C15.7606 15.5173 15.7606 15.5174 15.0756 15.8229ZM6.63871 4.55405C5.49037 4.38179 4.33648 4.52976 3.5856 5.46838C2.77168 6.4858 2.62668 7.98724 2.74715 9.37243C2.80568 10.0455 2.92321 10.6489 3.02659 11.0846C3.07811 11.3017 3.12565 11.4752 3.15974 11.5927C3.17677 11.6514 3.19041 11.696 3.19944 11.7249L3.20938 11.7562L3.21147 11.7627C3.21142 11.7625 3.2115 11.7627 2.49999 11.9999C1.78848 12.2371 1.7884 12.2369 1.78833 12.2366L1.78768 12.2347L1.78634 12.2306L1.78211 12.2176L1.76782 12.1726C1.75585 12.1344 1.73921 12.0798 1.71913 12.0106C1.679 11.8723 1.62498 11.6747 1.56712 11.4309C1.45175 10.9447 1.31926 10.2668 1.25279 9.50239C1.12323 8.01257 1.22821 6.01398 2.41429 4.53135C3.66341 2.96991 5.50955 2.86789 6.86123 3.07065C7.5505 3.17404 8.16355 3.36209 8.60114 3.52198C8.82123 3.6024 9.00021 3.67691 9.12608 3.73225C9.18909 3.75995 9.239 3.78295 9.27434 3.7996C9.29202 3.80794 9.30607 3.81469 9.3163 3.81966L9.32878 3.82577L9.33284 3.82778L9.33431 3.82851C9.33457 3.82864 9.33541 3.82906 9 4.49988C8.66458 5.1707 8.6648 5.1708 8.665 5.1709L8.66062 5.16877L8.63483 5.15645C8.6106 5.14503 8.57263 5.12749 8.52235 5.10539C8.42166 5.06112 8.27251 4.9989 8.08634 4.93088C7.71142 4.79388 7.19946 4.63817 6.63871 4.55405ZM13.5 6C13.2464 6.70584 13.2461 6.70572 13.2458 6.70561L13.244 6.70496L13.2419 6.7042L13.2387 6.70299L13.2357 6.70187L13.244 6.70496C13.255 6.7097 13.2765 6.71978 13.3073 6.7357C13.369 6.76764 13.4647 6.82307 13.5775 6.90854C13.8018 7.07837 14.0953 7.36766 14.3292 7.83541C14.4784 8.13377 14.5002 8.57652 14.4433 9.03197C14.4166 9.24515 14.3764 9.4335 14.3427 9.5681C14.326 9.6349 14.3113 9.68715 14.3012 9.72108C14.2962 9.73802 14.2924 9.7503 14.2902 9.75743L14.2884 9.76316C14.2884 9.763 14.2885 9.76283 15 10C15.7115 10.2372 15.7116 10.237 15.7116 10.2368L15.7121 10.2355L15.7128 10.2333L15.7148 10.2271L15.7208 10.2084C15.7256 10.1931 15.7321 10.1721 15.7398 10.1461C15.7551 10.0941 15.7756 10.0214 15.7979 9.9319C15.8424 9.754 15.8959 9.50485 15.9317 9.21803C15.9998 8.67348 16.0216 7.86623 15.6708 7.16459C15.3189 6.46076 14.8624 6.00005 14.4831 5.71278C14.2942 5.5697 14.1247 5.4698 13.9967 5.40355C13.9326 5.37037 13.8786 5.34546 13.8373 5.32766C13.8166 5.31875 13.7991 5.31161 13.7851 5.30608L13.7666 5.29897L13.7594 5.29629L13.7563 5.29516L13.7549 5.29464C13.7546 5.29452 13.7536 5.29416 13.5 6Z" fill="#151516" fill-rule="evenodd"/>
</svg>
