<?xml version="1.0" encoding="UTF-8"?>
<!DOCTYPE svg
PUBLIC "-//W3C//DTD SVG 1.1//EN"
       "http://www.w3.org/Graphics/SVG/1.1/DTD/svg11.dtd">
<svg version="1.1" xmlns="http://www.w3.org/2000/svg" xmlns:xlink="http://www.w3.org/1999/xlink" viewBox="0 0 24 24">
 <path clip-rule="evenodd" d="M12.75 3.03081V1H11.25V3.03081C6.87765 3.39152 3.39152 6.87765 3.03081 11.25H0.5V12.75H3.03081C3.39152 17.1223 6.87765 20.6085 11.25 20.9692V23H12.75V20.9692C17.1223 20.6085 20.6085 17.1223 20.9692 12.75H23V11.25H20.9692C20.6085 6.87765 17.1223 3.39152 12.75 3.03081ZM11.25 4.53703C7.70669 4.88883 4.88883 7.70669 4.53703 11.25H8.0702C8.37517 9.64229 9.64229 8.37517 11.25 8.0702V4.53703ZM12.75 8.0702V4.53703C16.2933 4.88883 19.1112 7.70669 19.463 11.25H15.9298C15.6248 9.64229 14.3577 8.37517 12.75 8.0702ZM11.25 9.61445V11H12.75V9.61445C13.5275 9.85865 14.1413 10.4725 14.3855 11.25H13V12.75H14.3855C14.1413 13.5275 13.5275 14.1413 12.75 14.3855V13H11.25V14.3855C10.4725 14.1413 9.85865 13.5275 9.61445 12.75H11V11.25H9.61445C9.85865 10.4725 10.4725 9.85865 11.25 9.61445ZM8.0702 12.75H4.53703C4.88883 16.2933 7.70669 19.1112 11.25 19.463V15.9298C9.64229 15.6248 8.37517 14.3577 8.0702 12.75ZM12.75 15.9298V19.463C16.2933 19.1112 19.1112 16.2933 19.463 12.75H15.9298C15.6248 14.3577 14.3577 15.6248 12.75 15.9298Z" fill="#151516" fill-rule="evenodd"/>
</svg>
