<?xml version="1.0" encoding="UTF-8"?>
<!DOCTYPE svg
PUBLIC "-//W3C//DTD SVG 1.1//EN"
       "http://www.w3.org/Graphics/SVG/1.1/DTD/svg11.dtd">
<svg version="1.1" xmlns="http://www.w3.org/2000/svg" xmlns:xlink="http://www.w3.org/1999/xlink" viewBox="0 0 24 24">
 <path clip-rule="evenodd" d="M15.75 1.53703V0H14.25V1.53703C10.46 1.91332 7.5 5.11099 7.5 9C7.5 13.1421 10.8579 16.5 15 16.5C19.1421 16.5 22.5 13.1421 22.5 9C22.5 5.11099 19.54 1.91332 15.75 1.53703ZM21 9C21 12.3137 18.3137 15 15 15C11.6863 15 9 12.3137 9 9C9 5.68629 11.6863 3 15 3C18.3137 3 21 5.68629 21 9ZM5.91022 14.5345C6.36653 14.3959 6.95774 14.4942 7.33106 14.9818C8.01309 15.8728 8.67252 16.4945 9.5 17.0884V18.9012L9.08397 18.6239C8.08776 17.9597 7.28643 17.284 6.50002 16.3439L6.5 20.4993L6.48884 20.4993C6.36278 21.9012 5.18469 22.9999 3.75 22.9999C2.23122 22.9999 1 21.7687 1 20.2499C1 18.7311 2.23122 17.4999 3.75 17.4999C4.20012 17.4999 4.62498 17.608 5.00002 17.7997L5.00003 15.7425C5.00002 15.1002 5.4484 14.6749 5.91022 14.5345ZM5 20.2499C5 19.5595 4.44036 18.9999 3.75 18.9999C3.05964 18.9999 2.5 19.5595 2.5 20.2499C2.5 20.9402 3.05964 21.4999 3.75 21.4999C4.44036 21.4999 5 20.9402 5 20.2499ZM15 7.5V6H16.5V7.5H15ZM15 9H13.5V7.5H15V9ZM16.5 9V10.5H15V9H16.5ZM16.5 9H18V7.5H16.5V9Z" fill="#151516" fill-rule="evenodd"/>
</svg>
