<?xml version="1.0" encoding="UTF-8"?>
<!DOCTYPE svg
PUBLIC "-//W3C//DTD SVG 1.1//EN"
       "http://www.w3.org/Graphics/SVG/1.1/DTD/svg11.dtd">
<svg version="1.1" xmlns="http://www.w3.org/2000/svg" xmlns:xlink="http://www.w3.org/1999/xlink" viewBox="0 0 24 24">
 <path d="M9.05076 6.3192C9.3474 5.38478 10.2149 4.75 11.1953 4.75H14.8985L15.6242 8.01553C14.4814 8.33534 13.2491 8.17476 12.2199 7.55721L11.886 7.35688C11.6718 7.22834 11.4076 7.21492 11.1814 7.32107C10.9553 7.42723 10.7968 7.63903 10.7588 7.88596L9.75885 14.386C9.71365 14.6797 9.84622 14.9725 10.0968 15.1323C10.3475 15.2922 10.6688 15.2889 10.9162 15.124C12.3243 14.1853 13.4631 13.875 14.3595 13.875C15.2517 13.875 15.9756 14.1822 16.559 14.6066C16.7283 14.7297 16.8854 14.8625 17.0304 15H18.9976C18.6395 14.4914 18.1265 13.8918 17.4413 13.3934C16.6497 12.8178 15.6236 12.375 14.3595 12.375C13.4792 12.375 12.519 12.5897 11.4773 13.081L12.0787 9.17144C13.5107 9.80879 15.1503 9.84769 16.6241 9.25819C17.0545 9.08603 17.2967 8.62731 17.1961 8.17478L16.2323 3.8373C16.156 3.49415 15.8516 3.25 15.5001 3.25H11.1953C9.56134 3.25 8.11547 4.30797 7.62107 5.86533L4.11232 16.9179C3.54938 18.6912 4.87295 20.5 6.73341 20.5H19.0001V19H6.73341C5.88775 19 5.28612 18.1778 5.542 17.3718L9.05076 6.3192Z" fill="#151516"/>
</svg>
