<?xml version="1.0" encoding="UTF-8"?>
<!DOCTYPE svg
PUBLIC "-//W3C//DTD SVG 1.1//EN"
       "http://www.w3.org/Graphics/SVG/1.1/DTD/svg11.dtd">
<svg version="1.1" xmlns="http://www.w3.org/2000/svg" xmlns:xlink="http://www.w3.org/1999/xlink" viewBox="0 0 24 24">
 <path clip-rule="evenodd" d="M22.4001 11.9996C22.3937 6.2589 17.7413 1.60653 12.0005 1.6001C6.25685 1.6001 1.6001 6.2564 1.6001 12.0001C1.6001 17.7438 6.2564 22.4001 12.0001 22.4001C17.7438 22.4001 22.4001 17.7434 22.4001 11.9996ZM20.8302 10.6501L20.1311 9.81196L20.3579 8.84745C20.5782 9.43012 20.7365 10.0343 20.8302 10.6501ZM19.5609 16.748L16.6687 17.2047L15.1289 15.1706L15.9462 11.9028L19.0896 10.8552L20.8754 12.9981C20.7264 14.3314 20.2769 15.6135 19.5609 16.748ZM18.1723 18.4518C17.5532 19.0442 16.8524 19.5448 16.0914 19.9384L16.8189 18.6653L18.1723 18.4518ZM8.09343 20.0311C7.26195 19.625 6.49807 19.0924 5.82927 18.4524L7.22647 18.6731L8.09343 20.0311ZM10.3081 20.773L8.55834 18.0337L10.0334 16.0668H13.9679L15.4752 18.0578L13.9589 20.7151C12.7591 20.9864 11.516 21.0061 10.3081 20.773ZM3.86905 9.81326L3.17005 10.6513C3.26376 10.0357 3.42204 9.43143 3.64231 8.84876L3.86905 9.81326ZM11.9994 3.87753L10.3444 3.22216C11.4343 3.01574 12.5535 3.01496 13.6438 3.21983L11.9994 3.87753ZM15.8216 3.92798C17.2207 4.59379 18.4238 5.60983 19.3145 6.87763L18.7131 9.43388L15.4801 10.5115L12.7334 8.3145V5.16317L15.8216 3.92798ZM8.87024 15.1727L7.34492 17.2068L4.43928 16.748C3.72328 15.6132 3.27393 14.3307 3.12508 12.9971L4.90942 10.8543L8.05266 11.9018L8.87024 15.1727ZM13.7609 14.6001H10.2394L9.493 11.6115L12.0001 9.60594L14.5078 11.6124L13.7609 14.6001ZM4.68573 6.87766C5.57328 5.61468 6.77099 4.60144 8.16371 3.93548L11.2668 5.16523V8.3145L8.5201 10.5115L5.28708 9.43388L4.68573 6.87766Z" fill="#151516" fill-rule="evenodd"/>
</svg>
