<?xml version="1.0" encoding="UTF-8"?>
<!DOCTYPE svg
PUBLIC "-//W3C//DTD SVG 1.1//EN"
       "http://www.w3.org/Graphics/SVG/1.1/DTD/svg11.dtd">
<svg version="1.1" xmlns="http://www.w3.org/2000/svg" xmlns:xlink="http://www.w3.org/1999/xlink" viewBox="0 0 24 24">
 <path clip-rule="evenodd" d="M7.01001 5.09734C7.01001 4.19276 7.94107 3.58769 8.76768 3.95507L10.1816 4.58346L10.7908 3.21274L9.37689 2.58435C7.55835 1.77611 5.51001 3.10728 5.51001 5.09734V14.25H2V15.75H23V14.25H14.0536V5.41699C14.0536 4.32042 15.1611 3.57059 16.1792 3.97785L17.7208 4.59446L18.2779 3.20174L16.7363 2.58513C14.7329 1.78376 12.5536 3.25922 12.5536 5.41699V9.2526H7.01001V5.09734ZM12.5536 14.25H7.01001V10.7526H12.5536V14.25ZM4.5 18.75H20.5V17.25H4.5V18.75ZM8 21.75H16.5V20.25H8V21.75Z" fill="#151516" fill-rule="evenodd"/>
</svg>
