<?xml version="1.0" encoding="UTF-8"?>
<!DOCTYPE svg
PUBLIC "-//W3C//DTD SVG 1.1//EN"
       "http://www.w3.org/Graphics/SVG/1.1/DTD/svg11.dtd">
<svg version="1.1" xmlns="http://www.w3.org/2000/svg" xmlns:xlink="http://www.w3.org/1999/xlink" viewBox="0 0 24 24">
 <defs/>
 <g clip-path="url(#clip0_405_13682)">
  <path clip-rule="evenodd" d="M18.6832 12.9189C18.334 13.1907 17.9456 13.4143 17.5278 13.5799C17.6622 14.0631 17.7553 14.5635 17.8033 15.077C20.2446 14.2425 22 11.9285 22 9.20455C22 5.77787 19.2222 3 15.7955 3C13.0264 3 10.681 4.81398 9.88281 7.31844C10.3975 7.35591 10.8997 7.43874 11.3853 7.56293C11.5053 7.24074 11.6595 6.93524 11.8437 6.65087C11.9028 6.75867 11.9635 6.87322 12.0241 6.99291C12.1743 7.28933 12.314 7.59842 12.4281 7.90249C13.0599 8.15418 13.6547 8.47868 14.2023 8.86562C14.1167 7.95749 13.713 7.00751 13.3622 6.31512C13.2023 5.99941 13.0429 5.71726 12.9077 5.49028C13.7049 4.86966 14.707 4.5 15.7955 4.5C16.8839 4.5 17.8861 4.86964 18.6832 5.49025C18.548 5.71723 18.3886 5.9994 18.2287 6.31512C17.834 7.0943 17.3722 8.19971 17.3722 9.20458C17.3722 10.2094 17.834 11.3149 18.2287 12.094C18.3886 12.4097 18.548 12.6919 18.6832 12.9189ZM20.5 9.20455C20.5 10.146 20.2235 11.0228 19.7472 11.7583C19.6881 11.6505 19.6274 11.5359 19.5668 11.4162C19.1859 10.6643 18.8722 9.83076 18.8722 9.20458C18.8722 8.5784 19.1859 7.74489 19.5668 6.99291C19.6274 6.8732 19.6882 6.75863 19.7473 6.65082C20.2235 7.38629 20.5 8.26312 20.5 9.20455ZM7.88639 17.1139V22.4549C6.71085 22.3116 5.63792 21.836 4.76445 21.1247L4.80056 21.0664C4.98747 20.7629 5.23699 20.336 5.48726 19.8419C5.8717 19.0829 6.29848 18.0886 6.45798 17.1139H6.46441H6.49882H6.53326H6.56773H6.60222H6.63675H6.67129H6.70587H6.74046H6.77508H6.80972H6.84439H6.87907H6.91378H6.9485H6.98325H7.01801H7.05279H7.08759H7.12241H7.15724H7.19208H7.22694H7.26182H7.2967H7.3316H7.36651H7.40143H7.43636H7.4713H7.50625H7.54121H7.57617H7.61115H7.64612H7.68111H7.71609H7.75108H7.78608H7.82108H7.85607H7.88639ZM6.46441 15.6139H6.45801C6.29853 14.6392 5.87172 13.6448 5.48726 12.8858C5.23699 12.3917 4.98747 11.9647 4.80056 11.6612L4.76452 11.603C5.63798 10.8918 6.71088 10.4162 7.88639 10.2729V15.6139H7.85607H7.82108H7.78608H7.75108H7.71609H7.68111H7.64612H7.61115H7.57617H7.54121H7.50625H7.4713H7.43636H7.40143H7.36651H7.3316H7.2967H7.26182H7.22694H7.19208H7.15724H7.12241H7.08759H7.05279H7.01801H6.98325H6.9485H6.91378H6.87907H6.84439H6.80972H6.77508H6.74046H6.70587H6.67129H6.63675H6.60222H6.56773H6.53326H6.49882H6.46441ZM4.92392 15.6139H4.9316C4.78652 14.955 4.48494 14.2265 4.14913 13.5636C3.99068 13.2507 3.83186 12.9663 3.69222 12.7286C3.08267 13.5562 2.67594 14.5424 2.54538 15.6139H2.56614H2.59132H2.61662H2.64204H2.66757H2.69321H2.71897H2.74484H2.77082H2.79691H2.82312H2.84943H2.87586H2.90239H2.92903H2.95578H2.98264H3.0096H3.03667H3.06384H3.09111H3.11849H3.14597H3.17356H3.20124H3.22903H3.25691H3.28489H3.31298H3.34116H3.36943H3.39781H3.42628H3.45484H3.4835H3.51225H3.5411H3.57003H3.59906H3.62818H3.65739H3.68669H3.71607H3.74555H3.77511H3.80476H3.83449H3.86431H3.89422H3.92421H3.95428H3.98443H4.01467H4.04498H4.07538H4.10586H4.13641H4.16705H4.19776H4.22855H4.25941H4.29035H4.32136H4.35245H4.38361H4.41485H4.44616H4.47753H4.50898H4.5405H4.57209H4.60374H4.63547H4.66726H4.69912H4.73104H4.76303H4.79508H4.8272H4.85938H4.89162H4.92392ZM2.56614 17.1139H2.54537C2.67594 18.1853 3.08264 19.1715 3.69216 19.9991C3.83182 19.7614 3.99066 19.4769 4.14913 19.1641C4.48491 18.5012 4.78647 17.7727 4.93156 17.1139H4.92392H4.89162H4.85938H4.8272H4.79508H4.76303H4.73104H4.69912H4.66726H4.63547H4.60374H4.57209H4.5405H4.50898H4.47753H4.44616H4.41485H4.38361H4.35245H4.32136H4.29035H4.25941H4.22855H4.19776H4.16705H4.13641H4.10586H4.07538H4.04498H4.01467H3.98443H3.95428H3.92421H3.89422H3.86431H3.83449H3.80476H3.77511H3.74555H3.71607H3.68669H3.65739H3.62818H3.59906H3.57003H3.5411H3.51225H3.4835H3.45484H3.42628H3.39781H3.36943H3.34116H3.31298H3.28489H3.25691H3.22903H3.20124H3.17356H3.14597H3.11849H3.09111H3.06384H3.03667H3.0096H2.98264H2.95578H2.92903H2.90239H2.87586H2.84943H2.82312H2.79691H2.77082H2.74484H2.71897H2.69321H2.66757H2.64204H2.61662H2.59132H2.56614ZM9.38639 22.4549C10.5619 22.3116 11.6348 21.836 12.5083 21.1247L12.4722 21.0664C12.2853 20.7629 12.0358 20.336 11.7855 19.8419C11.401 19.0829 10.9743 18.0886 10.8148 17.1139H10.7965H10.7639H10.7313H10.6986H10.6659H10.6331H10.6003H10.5674H10.5345H10.5015H10.4684H10.4353H10.4022H10.369H10.3357H10.3024H10.269H10.2356H10.2022H10.1687H10.1352H10.1016H10.068H10.0343H10.0006H9.96683H9.93303H9.89919H9.86532H9.8314H9.79745H9.76346H9.72943H9.69537H9.66127H9.62713H9.59296H9.55876H9.52452H9.49025H9.45595H9.42162H9.38726L9.38639 22.4549ZM13.1236 19.1641C12.7878 18.5012 12.4863 17.7727 12.3412 17.1139H12.3637H12.3923H12.4207H12.4491H12.4774H12.5056H12.5337H12.5617H12.5897H12.6175H12.6452H12.6728H12.7003H12.7277H12.755H12.7822H12.8093H12.8362H12.8631H12.8899H12.9166H12.9431H12.9696H12.9959H13.0221H13.0482H13.0743H13.1001H13.1259H13.1516H13.1771H13.2026H13.2279H13.2531H13.2782H13.3032H13.328H13.3528H13.3774H13.4019H13.4262H13.4505H13.4746H13.4986H13.5225H13.5463H13.5699H13.5934H13.6168H13.64H13.6632H13.6862H13.709H13.7318H13.7544H13.7768H13.7992H13.8214H13.8434H13.8654H13.8872H13.9089H13.9304H13.9518H13.973H13.9942H14.0151H14.036H14.0567H14.0772H14.0976H14.1179H14.138H14.158H14.1779H14.1976H14.2171H14.2365H14.2558H14.2749H14.2938H14.3126H14.3313H14.3498H14.3681H14.3863H14.4044H14.4223H14.44H14.4576H14.475H14.4923H14.5094H14.5264H14.5432H14.5598H14.5763H14.5926H14.6088H14.6248H14.6406H14.6562H14.6718H14.6871H14.7023H14.7173H14.7274C14.5968 18.1853 14.1901 19.1715 13.5806 19.9991C13.4409 19.7614 13.2821 19.4769 13.1236 19.1641ZM14.7173 15.6139H14.7274C14.5968 14.5424 14.1901 13.5562 13.5805 12.7286C13.4409 12.9663 13.2821 13.2508 13.1236 13.5636C12.7878 14.2265 12.4862 14.955 12.3411 15.6139H12.3637H12.3923H12.4207H12.4491H12.4774H12.5056H12.5337H12.5617H12.5897H12.6175H12.6452H12.6728H12.7003H12.7277H12.755H12.7822H12.8093H12.8362H12.8631H12.8899H12.9166H12.9431H12.9696H12.9959H13.0221H13.0482H13.0743H13.1001H13.1259H13.1516H13.1771H13.2026H13.2279H13.2531H13.2782H13.3032H13.328H13.3528H13.3774H13.4019H13.4262H13.4505H13.4746H13.4986H13.5225H13.5463H13.5699H13.5934H13.6168H13.64H13.6632H13.6862H13.709H13.7318H13.7544H13.7768H13.7992H13.8214H13.8434H13.8654H13.8872H13.9089H13.9304H13.9518H13.973H13.9942H14.0151H14.036H14.0567H14.0772H14.0976H14.1179H14.138H14.158H14.1779H14.1976H14.2171H14.2365H14.2558H14.2749H14.2938H14.3126H14.3313H14.3498H14.3681H14.3863H14.4044H14.4223H14.44H14.4576H14.475H14.4923H14.5094H14.5264H14.5432H14.5598H14.5763H14.5926H14.6088H14.6248H14.6406H14.6562H14.6718H14.6871H14.7023H14.7173ZM11.7855 12.8858C11.401 13.6448 10.9742 14.6392 10.8147 15.6139H10.7965H10.7639H10.7313H10.6986H10.6659H10.6331H10.6003H10.5674H10.5345H10.5015H10.4684H10.4353H10.4022H10.369H10.3357H10.3024H10.269H10.2356H10.2022H10.1687H10.1352H10.1016H10.068H10.0343H10.0006H9.96683H9.93303H9.89919H9.86532H9.8314H9.79745H9.76346H9.72943H9.69537H9.66127H9.62713H9.59296H9.55876H9.52452H9.49025H9.45595H9.42162H9.38726L9.38639 10.2729C10.5619 10.4162 11.6348 10.8918 12.5082 11.603L12.4722 11.6612C12.2853 11.9647 12.0358 12.3917 11.7855 12.8858ZM8.63636 24.0003C12.8538 24.0003 16.2727 20.5814 16.2727 16.3639C16.2727 12.1465 12.8538 8.72754 8.63636 8.72754C4.41892 8.72754 1 12.1465 1 16.3639C1 20.5814 4.41892 24.0003 8.63636 24.0003Z" fill="#151516" fill-rule="evenodd"/>
 </g>
</svg>
