<?xml version="1.0" encoding="UTF-8"?>
<!DOCTYPE svg
PUBLIC "-//W3C//DTD SVG 1.1//EN"
       "http://www.w3.org/Graphics/SVG/1.1/DTD/svg11.dtd">
<svg version="1.1" xmlns="http://www.w3.org/2000/svg" xmlns:xlink="http://www.w3.org/1999/xlink" viewBox="0 0 24 24">
 <path clip-rule="evenodd" d="M15.761 2.61748C12.2659 1.30565 8.04124 1.39115 5.50278 3.49296C3.43963 5.20122 1.51644 7.68287 1.77322 11.8695C1.97645 15.1829 3.61108 17.5428 5.97457 19.3154C7.00949 20.0916 8.75634 20.799 10.4787 21.0066C12.2336 21.2181 13.6872 20.8864 14.4388 19.9469C14.5594 19.7962 14.6056 19.6069 14.4615 19.213C14.3064 18.7887 13.9935 18.3132 13.6111 17.7444L13.572 17.6864C13.2297 17.1776 12.8252 16.5765 12.6159 15.9953C12.5031 15.682 12.426 15.322 12.4704 14.9448C12.517 14.5497 12.6911 14.188 12.9942 13.885C13.7685 13.1107 14.7144 12.9895 15.5901 13.117C16.3842 13.2326 17.2108 13.5658 17.9198 13.8516L18.0311 13.8964C18.8217 14.2145 19.4485 14.4519 19.961 14.4888C20.1984 14.5059 20.3663 14.4748 20.4921 14.416C20.6112 14.3604 20.7461 14.2553 20.8812 14.0298C21.7389 12.5987 21.7291 10.9057 21.2952 9.08974C21.0037 7.87004 20.3117 6.50235 19.3288 5.30455C18.3462 4.10716 17.1092 3.12346 15.761 2.61748ZM4.54615 2.3376C7.6622-0.242455 12.526-0.198912 16.2881 1.21313C17.94 1.83314 19.3816 3.00438 20.4883 4.353C21.5947 5.70119 22.4027 7.27057 22.7541 8.7411C23.2278 10.7234 23.3177 12.8822 22.1679 14.8009C21.9008 15.2467 21.5531 15.5759 21.1271 15.775C20.7078 15.9709 20.2681 16.0149 19.8531 15.9849C19.0619 15.9279 18.2058 15.5835 17.4751 15.2896L17.4713 15.2881L17.4393 15.2752C16.6634 14.963 15.9857 14.6904 15.374 14.6013C14.7935 14.5168 14.3872 14.6133 14.0548 14.9457C13.9828 15.0177 13.966 15.0705 13.9601 15.1203C13.9521 15.188 13.9611 15.3034 14.0272 15.4871C14.1678 15.8777 14.4697 16.3331 14.8559 16.9075L14.8753 16.9363C15.2254 17.457 15.6443 18.0799 15.8703 18.6978C16.1115 19.3575 16.185 20.1654 15.6101 20.8839C14.3618 22.4443 12.218 22.7271 10.2992 22.4958C8.34793 22.2606 6.34482 21.4681 5.07457 20.5154C2.43805 18.538 0.511699 15.8035 0.276037 11.9613C-0.0191911 7.14792 2.24597 4.24212 4.54615 2.3376ZM16.0613 10.4017C16.9581 11.3907 17.9966 11.2624 18.3777 10.9168C18.7587 10.5712 18.9877 9.55021 18.0909 8.56122C17.1941 7.57224 16.1556 7.70054 15.7745 8.0461C15.3934 8.39166 15.1645 9.4127 16.0613 10.4017ZM14.9501 11.4093C16.2254 12.8157 18.2111 13.0927 19.3853 12.028C20.5594 10.9633 20.4774 8.96002 19.2021 7.55361C17.9267 6.1472 15.941 5.8702 14.7669 6.93492C13.5927 7.99964 13.6748 10.0029 14.9501 11.4093ZM10.5001 5.5C10.5001 6.05228 10.0523 6.5 9.50005 6.5C8.94777 6.5 8.50005 6.05228 8.50005 5.5C8.50005 4.94771 8.94777 4.5 9.50005 4.5C10.0523 4.5 10.5001 4.94771 10.5001 5.5ZM12.0001 5.5C12.0001 6.88071 10.8808 8 9.50005 8C8.11934 8 7.00005 6.88071 7.00005 5.5C7.00005 4.11928 8.11934 3 9.50005 3C10.8808 3 12.0001 4.11928 12.0001 5.5ZM5.50005 11.5C6.05234 11.5 6.50005 11.0523 6.50005 10.5C6.50005 9.94771 6.05234 9.5 5.50005 9.5C4.94777 9.5 4.50005 9.94771 4.50005 10.5C4.50005 11.0523 4.94777 11.5 5.50005 11.5ZM5.50005 13C6.88077 13 8.00005 11.8807 8.00005 10.5C8.00005 9.11928 6.88077 8 5.50005 8C4.11934 8 3.00005 9.11928 3.00005 10.5C3.00005 11.8807 4.11934 13 5.50005 13ZM9.50005 16.5C9.50005 17.0523 9.05234 17.5 8.50005 17.5C7.94777 17.5 7.50005 17.0523 7.50005 16.5C7.50005 15.9477 7.94777 15.5 8.50005 15.5C9.05234 15.5 9.50005 15.9477 9.50005 16.5ZM11.0001 16.5C11.0001 17.8807 9.88077 19 8.50005 19C7.11934 19 6.00005 17.8807 6.00005 16.5C6.00005 15.1193 7.11934 14 8.50005 14C9.88077 14 11.0001 15.1193 11.0001 16.5Z" fill="#151516" fill-rule="evenodd"/>
</svg>
