<?xml version="1.0" encoding="UTF-8"?>
<!DOCTYPE svg
PUBLIC "-//W3C//DTD SVG 1.1//EN"
       "http://www.w3.org/Graphics/SVG/1.1/DTD/svg11.dtd">
<svg version="1.1" xmlns="http://www.w3.org/2000/svg" xmlns:xlink="http://www.w3.org/1999/xlink" viewBox="0 0 24 24">
 <path clip-rule="evenodd" d="M8.2886 5.72403C7.84637 5.45072 7.29416 5.42587 6.82918 5.65836L4.82918 6.65836C4.321 6.91245 4 7.43184 4 8V16C4 16.5682 4.321 17.0876 4.82918 17.3416L6.82918 18.3416C7.29416 18.5741 7.84637 18.5493 8.2886 18.276C8.73082 18.0027 9 17.5199 9 17V12.5H15V17C15 17.5199 15.2692 18.0027 15.7114 18.276C16.1536 18.5493 16.7058 18.5741 17.1708 18.3416L19.1708 17.3416C19.679 17.0876 20 16.5682 20 16V8C20 7.43184 19.679 6.91245 19.1708 6.65836L17.1708 5.65836C16.7058 5.42587 16.1536 5.45072 15.7114 5.72403C15.2692 5.99734 15 6.48014 15 7V11H9V7C9 6.48014 8.73082 5.99734 8.2886 5.72403ZM7.5 7V17L5.5 16V8L7.5 7ZM16.5 7V17L18.5 16V8L16.5 7ZM22.75 14.5V9H21.25V14.5H22.75ZM1.25 15V9.5H2.75V15H1.25Z" fill="#151516" fill-rule="evenodd"/>
</svg>
