<?xml version="1.0" encoding="UTF-8"?>
<!DOCTYPE svg
PUBLIC "-//W3C//DTD SVG 1.1//EN"
       "http://www.w3.org/Graphics/SVG/1.1/DTD/svg11.dtd">
<svg version="1.1" xmlns="http://www.w3.org/2000/svg" xmlns:xlink="http://www.w3.org/1999/xlink" viewBox="0 0 24 24">
 <defs/>
 <g clip-path="url(#clip0_405_13684)">
  <path clip-rule="evenodd" d="M22.1301 0.654654C21.6334 0.175093 20.8421 0.188905 20.3626 0.685506L18.3625 2.75657C17.9315 3.2029 17.8991 3.88732 18.2574 4.36949L13.3074 9.4954C11.1939 7.89616 8.51585 7.77027 7.03234 9.3065C6.60986 9.74399 6.32548 10.2736 6.17342 10.8549C4.69369 10.751 3.30723 11.1864 2.33295 12.1953C0.283313 14.3177 0.83396 18.1746 3.56285 20.8099C6.29174 23.4451 10.1655 23.8608 12.2151 21.7384C13.1894 20.7295 13.5762 19.3286 13.4207 17.8534C13.9963 17.6812 14.5156 17.3785 14.9381 16.941C16.4216 15.4048 16.2023 12.7327 14.5303 10.6763L19.4803 5.55041C19.9747 5.89175 20.6576 5.83541 21.0886 5.38908L23.0886 3.31801C23.5682 2.82141 23.5543 2.03008 23.0577 1.55052L22.1301 0.654654ZM19.6152 3.61872L21.2679 1.90733L21.8359 2.45586L20.1832 4.16726L19.6152 3.61872ZM11.7638 17.8836C11.6868 17.1535 12.1406 16.472 12.844 16.2615C13.1812 16.1606 13.4703 15.9889 13.7028 15.7481C14.5462 14.8748 14.5621 12.8645 12.8408 11.2022C11.1195 9.53994 9.11098 9.62605 8.26761 10.4994C8.03504 10.7402 7.8736 11.0351 7.78453 11.3756C7.59872 12.0859 6.93348 12.5633 6.20107 12.5118L6.17087 12.5097C5.09179 12.434 4.18182 12.7527 3.56822 13.3881C2.74413 14.2415 2.50262 15.7364 3.07839 17.2827L3.98512 16.7169C4.47174 16.4132 5.10257 16.4797 5.51517 16.8782L7.42407 18.7216C7.83668 19.12 7.92516 19.7482 7.63868 20.2451L7.10489 21.171C8.67024 21.6924 10.1558 21.3989 10.9799 20.5455C11.5935 19.9101 11.8803 18.9895 11.7669 17.9137L11.7638 17.8836ZM5.75167 20.515L6.24167 19.665L4.61359 18.0928L3.78125 18.6122C4.03016 18.9694 4.32748 19.3202 4.67621 19.657C5.02497 19.9937 5.38594 20.2787 5.75167 20.515ZM9.37636 14.7898C9.69007 15.0927 10.19 15.084 10.4929 14.7703C10.7959 14.4566 10.7871 13.9567 10.4734 13.6537C10.1597 13.3508 9.65982 13.3595 9.35687 13.6732C9.05392 13.9869 9.06265 14.4868 9.37636 14.7898ZM8.33437 15.8688C9.244 16.7472 10.6935 16.7219 11.5719 15.8123C12.4503 14.9027 12.425 13.4532 11.5154 12.5747C10.6058 11.6963 9.15628 11.7216 8.27786 12.6312C7.39944 13.5409 7.42474 14.9904 8.33437 15.8688Z" fill="#151516" fill-rule="evenodd"/>
 </g>
</svg>
