<?xml version="1.0" encoding="UTF-8"?>
<!DOCTYPE svg
PUBLIC "-//W3C//DTD SVG 1.1//EN"
       "http://www.w3.org/Graphics/SVG/1.1/DTD/svg11.dtd">
<svg version="1.1" xmlns="http://www.w3.org/2000/svg" xmlns:xlink="http://www.w3.org/1999/xlink" viewBox="0 0 24 24">
 <path clip-rule="evenodd" d="M19.4687 10.8953C19.4687 12.0254 19.356 13.0275 19.1606 13.9162C18.7312 13.8481 18.2912 14.0678 18.0983 14.4816L15.398 20.2723C15.1646 20.7729 15.3811 21.3678 15.8817 21.6012L16.9644 22.1061C17.9655 22.573 19.1555 22.1398 19.6223 21.1388L21.4773 17.1606C21.9365 16.176 21.525 15.0087 20.5589 14.5264C20.8207 13.4514 20.9687 12.246 20.9687 10.8953C20.9687 8.26787 20.0628 6.09306 18.4197 4.58C16.784 3.07376 14.4907 2.2898 11.8293 2.28979C9.16802 2.28979 6.87471 3.07374 5.23898 4.57998C3.59586 6.09304 2.68994 8.26786 2.68995 10.8953C2.68996 12.2471 2.83819 13.4535 3.10051 14.5293C2.13851 15.0134 1.72965 16.178 2.18786 17.1606L4.0429 21.1388C4.50971 22.1398 5.69967 22.573 6.70075 22.1061L7.78351 21.6012C8.28405 21.3678 8.50061 20.7729 8.2672 20.2723L5.56693 14.4816C5.37306 14.0658 4.92975 13.846 4.49829 13.9172C4.30277 13.0284 4.18995 12.0259 4.18995 10.8953C4.18994 8.62715 4.9619 6.87422 6.25507 5.68342C6.36043 5.5864 6.46974 5.49266 6.58292 5.40233L6.78277 6.00187C6.9831 6.60286 7.59583 6.95259 8.207 6.83914C9.00945 6.69018 10.6753 6.41159 11.8294 6.41159C12.9834 6.41159 14.6493 6.69018 15.4518 6.83914C16.0629 6.95259 16.6757 6.60286 16.876 6.00187L17.0758 5.4024C17.189 5.49272 17.2983 5.58644 17.4036 5.68344C18.6968 6.87424 19.4687 8.62716 19.4687 10.8953ZM8.13887 5.32676L7.89364 4.59106C8.99083 4.07377 10.314 3.78979 11.8293 3.78979C13.3447 3.7898 14.6679 4.0738 15.7651 4.59111L15.5199 5.32676C14.6518 5.17067 13.0359 4.91159 11.8294 4.91159C10.6229 4.91159 9.00695 5.17067 8.13887 5.32676ZM3.78917 15.8622L4.41878 15.5686L6.69643 20.4531L6.06682 20.7467C5.81655 20.8634 5.51906 20.7551 5.40236 20.5048L3.54732 16.5267C3.43062 16.2764 3.5389 15.9789 3.78917 15.8622ZM19.2464 15.5686L19.876 15.8622C20.1263 15.9789 20.2346 16.2764 20.1179 16.5267L18.2628 20.5048C18.1461 20.7551 17.8486 20.8634 17.5984 20.7467L16.9688 20.4531L19.2464 15.5686ZM10.3217 17.8805L11.2543 12.9066L12.2854 19.4365L13.4601 19.4885L14.3952 15.7483H16.5484V14.5483H13.9267H13.4582L13.3446 15.0027L13.0109 16.3375L11.8977 9.28699L10.7153 9.26999L9.62731 15.0726H9.20767H7.11033V16.2726H8.73921L9.14993 17.9155L10.3217 17.8805Z" fill="#151516" fill-rule="evenodd"/>
</svg>
