<?xml version="1.0" encoding="UTF-8"?>
<!DOCTYPE svg
PUBLIC "-//W3C//DTD SVG 1.1//EN"
       "http://www.w3.org/Graphics/SVG/1.1/DTD/svg11.dtd">
<svg version="1.1" xmlns="http://www.w3.org/2000/svg" xmlns:xlink="http://www.w3.org/1999/xlink" viewBox="0 0 24 24">
 <path clip-rule="evenodd" d="M17.0205 2.14731L17.0547 0.647705L15.8345 1.52008L13.6449 3.08548C12.3775 3.99157 12.5067 5.91468 13.884 6.64307C15.2612 7.37145 16.9235 6.39583 16.9591 4.83824L17.0205 2.14731ZM14.5173 4.30571L15.4866 3.61268L15.4594 4.804C15.4493 5.2468 14.9768 5.52416 14.5852 5.31709C14.1937 5.11002 14.157 4.5633 14.5173 4.30571ZM13.8795 8.25566L14.3886 7.29319L13.0626 6.59191L12.5536 7.55439L13.8795 8.25566ZM8.7843 14.6813L4.91817 21.9915L6.24415 22.6927L10.3678 14.8957L16.1852 21.9777C16.7986 22.7245 17.9014 22.8327 18.6483 22.2192L18.7855 22.1064C19.5323 21.493 19.6404 20.3902 19.0269 19.6434L14.0206 13.5488L15.4681 13.2357L15.151 11.7696L12.9502 12.2456L12.2318 11.3711L13.3705 9.21813L12.0445 8.51686L11.1996 10.1145L7.14055 5.17304L7.07199 5.08958L6.98267 5.02886L4.21122 3.14472L2.37644 1.89737L3.07804 4.00214L4.16685 7.2685L4.21074 7.40015L4.29882 7.50738L8.90893 13.1197L0.252441 14.992L0.569535 16.4581L8.7843 14.6813ZM23.0384 8.64066L22.8733 7.64362L21.9669 8.09045L18.2905 9.90269C17.776 10.1563 17.5001 10.7275 17.6214 11.2881L17.9164 12.6522C18.038 13.2142 18.5272 13.6207 19.102 13.6374L22.9782 13.7497L23.8886 13.776L23.7398 12.8775L23.0384 8.64066ZM19.1287 11.1618L21.7236 9.8827L22.1112 12.2239L19.3411 12.1437L19.1287 11.1618ZM16.5323 13.0056L17.5964 12.7754L17.2793 11.3093L16.2152 11.5395L16.5323 13.0056ZM17.3442 21.0256L5.54599 6.66251L5.20267 5.63256L6.05002 6.20862L17.8678 20.5955C17.9555 20.7022 17.94 20.8597 17.8333 20.9474L17.6961 21.0601C17.5894 21.1477 17.4319 21.1323 17.3442 21.0256Z" fill="#151516" fill-rule="evenodd"/>
</svg>
