<?xml version="1.0" encoding="UTF-8"?>
<!DOCTYPE svg
PUBLIC "-//W3C//DTD SVG 1.1//EN"
       "http://www.w3.org/Graphics/SVG/1.1/DTD/svg11.dtd">
<svg version="1.1" xmlns="http://www.w3.org/2000/svg" xmlns:xlink="http://www.w3.org/1999/xlink" viewBox="0 0 24 24">
 <path clip-rule="evenodd" d="M13.9075 5.11585C14.8329 6.00903 15.8829 6.94815 16.5648 7.35657C17.377 7.84297 18.1379 8.11405 18.9266 8.39503C19.2996 8.5279 19.6787 8.66298 20.0725 8.82409C21.2616 9.31065 22.3946 9.99228 23.1583 11.5088C23.405 11.9986 23.5475 12.6276 23.6288 13.0813C23.6713 13.3185 23.7006 13.5289 23.7193 13.6804C23.7287 13.7563 23.7355 13.818 23.7401 13.8616L23.7452 13.9129L23.7466 13.9275L23.747 13.9318L23.7471 13.9333L23.8191 14.75H23.0001H13.7675H13.5526L13.3702 14.6361L6.90141 10.5962H2.95207L3.59096 13.25H7.11637V14.75H3.00009H2.40922L2.27092 14.1755L1.27092 10.0217L1.25717 9.96457L1.25248 9.90601L1.25232 9.90392L1.25194 9.89911L1.25059 9.88157L1.24579 9.81657C1.24178 9.76066 1.23628 9.68038 1.23018 9.58133C1.218 9.38352 1.20337 9.10934 1.19359 8.80386C1.17467 8.21262 1.17108 7.4361 1.25942 6.88194C1.372 6.17565 1.81702 5.3161 2.1666 4.71026C2.35152 4.38979 2.52995 4.10671 2.662 3.90392C2.72819 3.80227 2.78312 3.72017 2.82192 3.6629C2.84132 3.63425 2.85672 3.61178 2.86749 3.59613L2.88012 3.57786L2.8837 3.57272L2.88478 3.57117C2.88478 3.57117 2.88538 3.57031 3.50008 4C4.11479 4.42969 4.11487 4.42959 4.11487 4.42959L4.11244 4.43307L4.10286 4.44694C4.09416 4.45958 4.08094 4.47886 4.06381 4.50415C4.02953 4.55476 3.97968 4.62924 3.91902 4.7224C3.79736 4.90923 3.63387 5.16871 3.46583 5.45993C3.10949 6.07749 2.8045 6.71794 2.74072 7.11806C2.67739 7.51536 2.67381 8.16191 2.69282 8.75588C2.69664 8.87522 2.70126 8.98968 2.70618 9.09615H7.11637H7.33133L7.51365 9.21002L13.9825 13.25H22.1346C22.0584 12.8508 21.9514 12.4473 21.8186 12.1835C21.2805 11.115 20.5159 10.6263 19.5044 10.2124C19.2274 10.099 18.9145 9.9871 18.5783 9.86681C17.7464 9.56922 16.7715 9.22047 15.8432 8.67262L14.4161 9.62404L13.5841 8.37596L14.5546 7.72893C14.2257 7.45432 13.8899 7.15546 13.5665 6.85713L12.4161 7.62404L11.5841 6.37596L12.4557 5.79486C12.1575 5.50066 11.8931 5.233 11.6848 5.01967C11.5349 4.86607 11.4139 4.74031 11.33 4.65267C11.2881 4.60885 11.2554 4.57454 11.2331 4.55103L11.2075 4.52401L11.2008 4.51687L11.199 4.51494C11.199 4.51494 11.1982 4.51413 11.7443 4C12.2903 3.48587 12.2903 3.48584 12.2903 3.48584L12.292 3.48761L12.2977 3.49373L12.3213 3.51863C12.3423 3.5407 12.3735 3.57349 12.4139 3.61571C12.4947 3.70018 12.6122 3.82232 12.7583 3.97195C13.0506 4.27146 13.4557 4.67981 13.9075 5.11585ZM23.75 16C23.75 18.0711 22.0711 19.75 20 19.75H0.5V18.25H3.25V16H4.75V18.25H17.25V16H18.75V18.25H20C21.2426 18.25 22.25 17.2426 22.25 16H23.75Z" fill="#151516" fill-rule="evenodd"/>
</svg>
