<?xml version="1.0" encoding="UTF-8"?>
<!DOCTYPE svg
PUBLIC "-//W3C//DTD SVG 1.1//EN"
       "http://www.w3.org/Graphics/SVG/1.1/DTD/svg11.dtd">
<svg version="1.1" xmlns="http://www.w3.org/2000/svg" xmlns:xlink="http://www.w3.org/1999/xlink" viewBox="0 0 24 24">
 <path clip-rule="evenodd" d="M19.2501 2V0.5H17.7501V2H19.2501ZM23.6472 3.73544L13.6472 5.73544L13.3531 4.26456L23.3531 2.26456L23.6472 3.73544ZM19.2501 19.655V6H17.7501V20V20.345L18.0121 20.5694L21.5121 23.5694L22.4882 22.4306L19.2501 19.655ZM15.5001 16C15.5001 19.0376 13.0377 21.5 10.0001 21.5C6.96252 21.5 4.50009 19.0376 4.50009 16C4.50009 12.9624 6.96252 10.5 10.0001 10.5C13.0377 10.5 15.5001 12.9624 15.5001 16ZM17.0001 16C17.0001 17.5347 16.5062 18.9541 15.6687 20.1078L18.0305 22.4697L16.9698 23.5303L14.6616 21.2222C13.4238 22.3279 11.7904 23 10.0001 23C8.33726 23 6.80985 22.4202 5.60899 21.4518L3.53042 23.5303L2.46976 22.4697L4.54833 20.3911C3.57988 19.1902 3.00009 17.6628 3.00009 16C3.00009 14.5157 3.46206 13.1393 4.25006 12.0068L4.25003 12V7.5H5.75003V10.4374C6.92841 9.53573 8.40169 9 10.0001 9C13.8661 9 17.0001 12.134 17.0001 16ZM4.25003 2.5V4H5.75003V2.5H4.25003ZM0.861816 5.73715L8.86182 7.23715L9.13825 5.76285L1.13825 4.26285L0.861816 5.73715ZM12.5 16C12.5 17.3807 11.3807 18.5 10 18.5C8.61932 18.5 7.50003 17.3807 7.50003 16C7.50003 14.6193 8.61932 13.5 10 13.5C11.3807 13.5 12.5 14.6193 12.5 16ZM14 16C14 18.2091 12.2092 20 10 20C7.79089 20 6.00003 18.2091 6.00003 16C6.00003 13.7909 7.79089 12 10 12C12.2092 12 14 13.7909 14 16Z" fill="#151516" fill-rule="evenodd"/>
</svg>
