<?xml version="1.0" encoding="UTF-8"?>
<!DOCTYPE svg
PUBLIC "-//W3C//DTD SVG 1.1//EN"
       "http://www.w3.org/Graphics/SVG/1.1/DTD/svg11.dtd">
<svg version="1.1" xmlns="http://www.w3.org/2000/svg" xmlns:xlink="http://www.w3.org/1999/xlink" viewBox="0 0 24 24">
 <path clip-rule="evenodd" d="M17.4838 2.30706L20.4946 7.82684C21.9867 6.94814 22.4884 5.02744 21.6146 3.53073C20.7718 2.08711 18.9564 1.564 17.4838 2.30706ZM16.3224 3.31019L19.0224 8.26022C17.8987 8.30361 16.7885 7.74144 16.1819 6.70253C15.5425 5.60731 15.6396 4.28506 16.3224 3.31019ZM15.8702 8.64121C15.4887 8.31342 15.1544 7.91759 14.8865 7.45882C14.6187 7.00006 14.4384 6.51434 14.3404 6.02099L5.92881 11.3589L7.08677 13.3423L15.8702 8.64121ZM17.4113 9.51772C18.6394 9.93205 20.0333 9.83315 21.2405 9.12837C23.4561 7.83481 24.2036 4.99006 22.91 2.77444C21.6165 0.55882 18.7717-0.188664 16.5561 1.10489C15.3489 1.80969 14.5775 2.97497 14.3347 4.2481L2.38482 11.8314C1.59005 12.3358 1.33662 13.3784 1.81121 14.1913L2.59612 15.5357C3.07071 16.3486 4.1033 16.6405 4.9332 16.1963L17.4113 9.51772ZM3.18854 13.0979L4.66144 12.1632L5.76338 14.0506L4.22538 14.8738C4.10682 14.9373 3.95931 14.8956 3.89151 14.7794L3.1066 13.435C3.0388 13.3189 3.075 13.17 3.18854 13.0979ZM17.3357 13.1708L10.7502 16.4635V23H9.25024V16V15.5365L9.66483 15.3292L16.6648 11.8292L17.3357 13.1708Z" fill="#151516" fill-rule="evenodd"/>
</svg>
