<?xml version="1.0" encoding="UTF-8"?>
<!DOCTYPE svg
PUBLIC "-//W3C//DTD SVG 1.1//EN"
       "http://www.w3.org/Graphics/SVG/1.1/DTD/svg11.dtd">
<svg version="1.1" xmlns="http://www.w3.org/2000/svg" xmlns:xlink="http://www.w3.org/1999/xlink" viewBox="0 0 24 24">
 <path clip-rule="evenodd" d="M10.9762 6.88095H5.5V8.2619H10.9762V22.5H12.3571V8.2619H17.8333V6.88095H12.3571V2.5H10.9762V6.88095ZM9.47619 1.5C9.47619 1.22386 9.70005 1 9.97619 1H13.3571C13.6333 1 13.8571 1.22386 13.8571 1.5V5.38095H18.8333C19.1095 5.38095 19.3333 5.60481 19.3333 5.88095V9.2619C19.3333 9.53805 19.1095 9.7619 18.8333 9.7619H13.8571V23.5C13.8571 23.7761 13.6333 24 13.3571 24H9.97619C9.70005 24 9.47619 23.7761 9.47619 23.5V9.7619H4.5C4.22386 9.7619 4 9.53805 4 9.2619V5.88095C4 5.60481 4.22386 5.38095 4.5 5.38095H9.47619V1.5Z" fill="#151516" fill-rule="evenodd"/>
</svg>
