<?xml version="1.0" encoding="UTF-8"?>
<!DOCTYPE svg
PUBLIC "-//W3C//DTD SVG 1.1//EN"
       "http://www.w3.org/Graphics/SVG/1.1/DTD/svg11.dtd">
<svg version="1.1" xmlns="http://www.w3.org/2000/svg" xmlns:xlink="http://www.w3.org/1999/xlink" viewBox="0 0 24 24">
 <path clip-rule="evenodd" d="M9.5 2.88101V4.26196H10.9762V7.88101H5.5V9.26196H10.9762V14.8776L7.5 14.201V15.5257L10.9762 16.2022V21.5H12.3571V16.471L16 17.1799V15.8553L12.3571 15.1463V9.26196H17.8333V7.88101H12.3571V4.26196H13.8333V2.88101H12.3571V1.5H10.9762V2.88101H9.5ZM13.8571 5.76196V6.38101H18.8333C19.1095 6.38101 19.3333 6.60487 19.3333 6.88101V10.262C19.3333 10.5381 19.1095 10.762 18.8333 10.762H13.8571V13.9101L17.0955 14.5403C17.3304 14.586 17.5 14.7918 17.5 15.0311V18.3933C17.5 18.7078 17.2132 18.9442 16.9045 18.8841L13.8571 18.291V22.5C13.8571 22.7761 13.6333 23 13.3571 23H9.97619C9.70005 23 9.47619 22.7761 9.47619 22.5V17.4384L6.40448 16.8406C6.16958 16.7949 6 16.5892 6 16.3499V12.9877C6 12.6732 6.28684 12.4368 6.59552 12.4969L9.47619 13.0575V10.762H4.5C4.22386 10.762 4 10.5381 4 10.262V6.88101C4 6.60487 4.22386 6.38101 4.5 6.38101H9.47619V5.76196H8.5C8.22386 5.76196 8 5.53811 8 5.26196V1.88101C8 1.60487 8.22386 1.38101 8.5 1.38101H9.47619V0.5C9.47619 0.223858 9.70005 0 9.97619 0H13.3571C13.6333 0 13.8571 0.223858 13.8571 0.5V1.38101H14.8333C15.1095 1.38101 15.3333 1.60487 15.3333 1.88101V5.26196C15.3333 5.53811 15.1095 5.76196 14.8333 5.76196H13.8571Z" fill="#151516" fill-rule="evenodd"/>
</svg>
