<?xml version="1.0" encoding="UTF-8"?>
<!DOCTYPE svg
PUBLIC "-//W3C//DTD SVG 1.1//EN"
       "http://www.w3.org/Graphics/SVG/1.1/DTD/svg11.dtd">
<svg version="1.1" xmlns="http://www.w3.org/2000/svg" xmlns:xlink="http://www.w3.org/1999/xlink" viewBox="0 0 24 24">
 <path clip-rule="evenodd" d="M14.7539 1.78466C14.7499 1.42312 14.4868 1.11667 14.13 1.0581C13.482 0.951797 12.8937 0.899902 12.3319 0.899902C6.23463 0.899902 1.2749 5.87962 1.2749 11.9999C1.2749 18.1202 6.23463 23.0999 12.3319 23.0999C17.0373 23.0999 21.2228 20.0564 22.7484 15.5288C22.8638 15.1865 22.7167 14.8107 22.3996 14.6375C22.0825 14.4645 21.6869 14.544 21.4614 14.8261C20.0003 16.6536 17.8474 17.7007 15.5546 17.7007C11.3451 17.7007 7.92021 14.2758 7.92021 10.0663C7.92021 6.3693 10.5391 3.19797 14.146 2.52472C14.5015 2.45836 14.7579 2.14626 14.7539 1.78466ZM19.3194 9.33323C19.5201 9.13533 19.592 8.84091 19.5048 8.57274C19.4176 8.30457 19.1864 8.10864 18.9075 8.06665L16.6135 7.72135L15.576 5.64575C15.4499 5.39343 15.192 5.23411 14.91 5.23411C14.628 5.23411 14.3701 5.39343 14.2441 5.64573L13.2065 7.72135L10.9125 8.06665C10.6336 8.10864 10.4024 8.3045 10.3152 8.57273C10.2281 8.8409 10.2998 9.1353 10.5007 9.33324L12.1533 10.9616L11.7724 13.2503C11.7261 13.5285 11.841 13.8089 12.0691 13.9748C12.2972 14.1405 12.5995 14.1633 12.8498 14.0334L14.9101 12.9644L16.9703 14.0334C17.2206 14.1632 17.5228 14.1406 17.751 13.9748C17.9791 13.8089 18.094 13.5285 18.0477 13.2503L17.6668 10.9616L19.3194 9.33323ZM16.1343 10.8248L16.3343 12.0258L15.2529 11.4648C15.1454 11.409 15.0277 11.3811 14.91 11.3811C14.7923 11.3811 14.6746 11.409 14.5671 11.4648L13.4858 12.0258L13.6857 10.8247C13.7254 10.5857 13.6464 10.3422 13.4737 10.1722L12.6064 9.31756L13.8104 9.13635C14.0501 9.10026 14.2572 8.94981 14.3656 8.73301L14.91 7.64386L15.4544 8.73302C15.5628 8.94981 15.7699 9.10026 16.0096 9.13635L17.2136 9.31756L16.3463 10.1722C16.1736 10.3423 16.0946 10.5858 16.1343 10.8248ZM6.43115 10.0663C6.43115 15.0971 10.5238 19.1897 15.5546 19.1897C16.951 19.1897 18.3031 18.8667 19.5244 18.2625C17.7516 20.3454 15.1485 21.6108 12.3319 21.6108C7.05666 21.6108 2.76396 17.2997 2.76396 11.9999C2.76396 7.4197 5.97058 3.57754 10.2465 2.6189C7.80407 4.37737 6.43115 7.18283 6.43115 10.0663Z" fill="#151516" fill-rule="evenodd"/>
</svg>
