<?xml version="1.0" encoding="UTF-8"?>
<!DOCTYPE svg
PUBLIC "-//W3C//DTD SVG 1.1//EN"
       "http://www.w3.org/Graphics/SVG/1.1/DTD/svg11.dtd">
<svg version="1.1" xmlns="http://www.w3.org/2000/svg" xmlns:xlink="http://www.w3.org/1999/xlink" viewBox="0 0 24 24">
 <defs/>
 <g clip-path="url(#clip0_405_13770)">
  <path d="M19.3806 12L22.4038 6.76364C22.7052 6.24155 22.3271 5.58839 21.7252 5.58839H15.6788L12.6782 0.391219C12.3768-0.130828 11.622-0.129984 11.3212 0.391219L8.32063 5.58839H2.27418C1.67132 5.58839 1.29477 6.24244 1.59566 6.76364L4.61887 12L1.59566 17.2364C1.29421 17.7584 1.67235 18.4116 2.27418 18.4116H8.32063L11.3212 23.6088C11.6226 24.1308 12.3774 24.1299 12.6782 23.6088L15.6788 18.4116H21.7252C22.3281 18.4116 22.7046 17.7576 22.4038 17.2364L19.3806 12ZM20.3683 7.15537L18.4759 10.433L16.5836 7.15537H20.3683ZM11.9997 2.34994L13.8695 5.58839H10.13L11.9997 2.34994ZM3.63121 7.15537H7.4159L5.52355 10.433L3.63121 7.15537ZM3.63121 16.8446L5.52355 13.5669L7.4159 16.8446H3.63121ZM11.9997 21.65L10.13 18.4116H13.8694L11.9997 21.65ZM14.7741 16.8446H9.22532L6.42829 12L9.22532 7.15537H14.7742L17.5712 12L14.7741 16.8446ZM16.5835 16.8446L18.4759 13.5669L20.3682 16.8446H16.5835Z" fill="#151516"/>
 </g>
</svg>
