<?xml version="1.0" encoding="UTF-8"?>
<!DOCTYPE svg
PUBLIC "-//W3C//DTD SVG 1.1//EN"
       "http://www.w3.org/Graphics/SVG/1.1/DTD/svg11.dtd">
<svg version="1.1" xmlns="http://www.w3.org/2000/svg" xmlns:xlink="http://www.w3.org/1999/xlink" viewBox="0 0 24 24">
 <path clip-rule="evenodd" d="M12 0.75C8.99549 0.75 6.16958 1.92051 4.04507 4.04506C1.92051 6.16957 0.75 8.99549 0.75 12C0.75 15.0045 1.92051 17.8304 4.04507 19.9549C6.16957 22.0795 8.99549 23.25 12 23.25C15.0045 23.25 17.8304 22.0795 19.9549 19.9549C22.0795 17.8304 23.25 15.0045 23.25 12C23.25 8.99549 22.0794 6.16957 19.9549 4.04507C17.8304 1.92051 15.0045 0.75 12 0.75ZM5.31016 5.31016C7.09739 3.52292 9.47241 2.53911 12 2.53911C14.3615 2.53911 16.2832 4.46072 16.2832 6.82227C16.2832 9.18382 14.3615 11.1054 12 11.1054C8.65147 11.1054 5.92773 13.8292 5.92773 17.1777C5.92773 18.0673 6.12012 18.9132 6.46544 19.6754C6.05867 19.381 5.67232 19.052 5.31016 18.6898C3.52292 16.9026 2.53911 14.5276 2.53911 12C2.53911 9.47241 3.52292 7.09739 5.31016 5.31016ZM18.0723 6.82227C18.0723 5.93265 17.8799 5.08681 17.5346 4.32452C17.9413 4.61899 18.3277 4.94796 18.6898 5.31014C20.4771 7.09738 21.4608 9.47245 21.4608 12C21.4608 14.5275 20.4771 16.9026 18.6898 18.6898C16.9026 20.4771 14.5275 21.4608 12 21.4608C9.63845 21.4608 7.71684 19.5392 7.71684 17.1777C7.71684 14.8161 9.63845 12.8945 12 12.8945C15.3485 12.8945 18.0723 10.1707 18.0723 6.82227ZM12 4.23472C10.5583 4.23472 9.3856 5.40733 9.3856 6.84917C9.3856 8.29099 10.5582 9.46361 12 9.46361C13.4418 9.46361 14.6145 8.291 14.6145 6.84917C14.6145 5.40733 13.4418 4.23472 12 4.23472ZM11.1747 6.84917C11.1747 6.39433 11.5452 6.02383 12 6.02383C12.4549 6.02383 12.8253 6.3943 12.8253 6.84912C12.8253 7.30396 12.4549 7.67446 12 7.67446C11.5452 7.67446 11.1747 7.30399 11.1747 6.84917ZM12 14.5633C10.5583 14.5633 9.3856 15.7359 9.3856 17.1778C9.3856 18.6196 10.5582 19.7922 12 19.7922C13.4419 19.7922 14.6145 18.6196 14.6145 17.1778C14.6145 15.7359 13.4418 14.5633 12 14.5633ZM11.1747 17.1778C11.1747 16.7229 11.5452 16.3525 12 16.3525C12.4548 16.3525 12.8253 16.723 12.8253 17.1778C12.8253 17.6326 12.4549 18.0031 12 18.0031C11.5452 18.0031 11.1747 17.6326 11.1747 17.1778Z" fill="#151516" fill-rule="evenodd"/>
</svg>
