<?xml version="1.0" encoding="UTF-8"?>
<!DOCTYPE svg
PUBLIC "-//W3C//DTD SVG 1.1//EN"
       "http://www.w3.org/Graphics/SVG/1.1/DTD/svg11.dtd">
<svg version="1.1" xmlns="http://www.w3.org/2000/svg" xmlns:xlink="http://www.w3.org/1999/xlink" viewBox="0 0 24 24">
 <defs/>
 <g clip-path="url(#clip0_405_13774)">
  <path clip-rule="evenodd" d="M23.8364 11.5492C23.7494 11.4449 22.2687 9.6961 20.0609 8.66044C20.8897 6.36699 20.7001 4.08333 20.6879 3.9481C20.6573 3.6098 20.3893 3.34177 20.051 3.31116C19.9157 3.29893 17.6321 3.10936 15.3386 3.93821C14.303 1.73039 12.5542 0.24966 12.4499 0.162707C12.1891-0.0548867 11.81-0.0548867 11.5492 0.162707C11.4449 0.24966 9.6961 1.73039 8.66044 3.93821C6.36699 3.10936 4.08333 3.29893 3.9481 3.31116C3.6098 3.34177 3.34177 3.6098 3.31116 3.9481C3.29893 4.08333 3.10936 6.36694 3.93821 8.66044C1.73039 9.6961 0.24966 11.4449 0.162707 11.5492C-0.0548867 11.81-0.0548867 12.189 0.162707 12.4499C0.249707 12.5542 1.73039 14.303 3.93821 15.3386C3.10936 17.6321 3.29893 19.9157 3.31116 20.051C3.34177 20.3893 3.6098 20.6573 3.9481 20.6879C4.08333 20.7001 6.36694 20.8897 8.66044 20.0609C9.6961 22.2687 11.4449 23.7494 11.5492 23.8364C11.81 24.054 12.189 24.054 12.4499 23.8364C12.5542 23.7494 14.303 22.2687 15.3386 20.0609C17.6321 20.8897 19.9157 20.7001 20.051 20.6879C20.3893 20.6573 20.6573 20.3893 20.6879 20.051C20.7001 19.9157 20.8897 17.6321 20.0609 15.3386C22.2687 14.303 23.7494 12.5542 23.8364 12.4499C24.0539 12.189 24.0539 11.81 23.8364 11.5492ZM19.3058 4.69327C19.3036 5.45939 19.2198 6.82697 18.7405 8.16727C17.8866 7.93416 16.8842 7.80479 15.9909 8.00818C16.1943 7.11474 16.0649 6.11264 15.8318 5.25854C17.1721 4.77929 18.5397 4.69543 19.3058 4.69327ZM16.8948 9.3136C17.3162 9.3136 17.7279 9.36764 18.1252 9.46154C17.2963 10.8607 15.97 11.6345 14.4006 11.005C14.7968 10.015 15.7651 9.3136 16.8948 9.3136ZM14.6855 7.10424C14.6855 8.23397 13.984 9.20232 12.9941 9.5985C12.3644 8.02744 13.1391 6.70275 14.5375 5.87386C14.6314 6.27122 14.6855 6.68293 14.6855 7.10424ZM12.8026 11.9995C12.8026 12.4424 12.4424 12.8026 11.9995 12.8026C10.9341 12.7585 10.9344 11.2403 11.9995 11.1964C12.4424 11.1964 12.8026 11.5567 12.8026 11.9995ZM11.9995 1.66693C12.5398 2.21021 13.4476 3.23644 14.0564 4.52302C13.2873 4.96233 12.4862 5.57982 11.9995 6.35682C11.5128 5.57972 10.7119 4.96243 9.94266 4.52302C10.5515 3.23639 11.4593 2.21016 11.9995 1.66693ZM9.46154 5.87386C10.8607 6.70275 11.6345 8.02908 11.005 9.5985C9.44897 8.93307 9.06061 7.44872 9.46154 5.87386ZM9.5985 11.005C8.02749 11.6347 6.70275 10.86 5.87386 9.46154C7.44919 9.06014 8.9341 9.45024 9.5985 11.005ZM8.16727 5.25854C7.93416 6.1125 7.80479 7.11488 8.00818 8.00818C7.11474 7.80479 6.11264 7.93416 5.25854 8.16727C4.77929 6.82697 4.69543 5.45944 4.69327 4.69327C5.45939 4.69543 6.82697 4.77929 8.16727 5.25854ZM1.66693 11.9995C2.21021 11.4593 3.23644 10.5515 4.52302 9.94266C4.96233 10.7118 5.57982 11.5129 6.35682 11.9995C5.57972 12.4863 4.96243 13.2872 4.52302 14.0564C3.23639 13.4476 2.21016 12.5398 1.66693 11.9995ZM4.69327 19.3058C4.69543 18.5397 4.77929 17.1721 5.25854 15.8318C6.1125 16.0649 7.11488 16.1943 8.00818 15.9909C7.80479 16.8843 7.93416 17.8864 8.16727 18.7405C6.82697 19.2198 5.45939 19.3036 4.69327 19.3058ZM7.10424 14.6855C6.68288 14.6855 6.27118 14.6314 5.87386 14.5375C6.70275 13.1384 8.02908 12.3646 9.5985 12.9941C9.20232 13.984 8.23397 14.6855 7.10424 14.6855ZM9.3136 16.8948C9.3136 15.7651 10.015 14.7968 11.005 14.4006C11.6347 15.9716 10.86 17.2963 9.46154 18.1252C9.36764 17.7278 9.3136 17.3161 9.3136 16.8948ZM11.9995 22.3321C11.4593 21.7889 10.5515 20.7626 9.94266 19.476C10.7118 19.0367 11.5129 18.4193 11.9995 17.6423C12.4863 18.4193 13.2872 19.0366 14.0564 19.476C13.4476 20.7627 12.5398 21.7889 11.9995 22.3321ZM14.5375 18.1252C13.1384 17.2963 12.3646 15.97 12.9941 14.4006C14.5501 15.066 14.9385 16.5503 14.5375 18.1252ZM14.4006 12.9941C15.9716 12.3644 17.2963 13.1391 18.1252 14.5375C16.5499 14.9389 15.065 14.5488 14.4006 12.9941ZM15.8318 18.7405C16.0649 17.8866 16.1943 16.8841 15.9909 15.9909C16.8843 16.1943 17.8864 16.0649 18.7405 15.8318C19.2198 17.1721 19.3036 18.5396 19.3058 19.3058C18.5397 19.3036 17.1721 19.2198 15.8318 18.7405ZM19.476 14.0564C19.0367 13.2873 18.4193 12.4862 17.6423 11.9995C18.4193 11.5128 19.0366 10.7119 19.476 9.94266C20.7627 10.5515 21.7889 11.4593 22.3321 11.9995C21.7889 12.5398 20.7627 13.4476 19.476 14.0564Z" fill="#151516" fill-rule="evenodd"/>
 </g>
</svg>
