<?xml version="1.0" encoding="UTF-8"?>
<!DOCTYPE svg
PUBLIC "-//W3C//DTD SVG 1.1//EN"
       "http://www.w3.org/Graphics/SVG/1.1/DTD/svg11.dtd">
<svg version="1.1" xmlns="http://www.w3.org/2000/svg" xmlns:xlink="http://www.w3.org/1999/xlink" viewBox="0 0 24 24">
 <path clip-rule="evenodd" d="M18.5814 2L16.1921 5.58398H16.5C18.7091 5.58398 20.5 7.37485 20.5 9.58398V20.084C20.5 21.4647 19.3807 22.584 18 22.584C16.6193 22.584 15.5 21.4647 15.5 20.084V19.084H8.5V20.084C8.5 21.4647 7.38071 22.584 6 22.584C4.61929 22.584 3.5 21.4647 3.5 20.084V9.58398C3.5 7.37485 5.29086 5.58398 7.5 5.58398H7.78464L10.2836 2.01404H12.1146L9.61563 5.58398H14.3893L16.7786 2H18.5814ZM5 17.584H19V14.334H5V17.584ZM5 19.084V20.084C5 20.6363 5.44772 21.084 6 21.084C6.55228 21.084 7 20.6363 7 20.084V19.084H5ZM17 19.084V20.084C17 20.6363 17.4477 21.084 18 21.084C18.5523 21.084 19 20.6363 19 20.084V19.084H17ZM5 12.834H19V9.58398C19 8.20327 17.8807 7.08398 16.5 7.08398H7.5C6.11929 7.08398 5 8.20327 5 9.58398V12.834Z" fill="#151516" fill-rule="evenodd"/>
</svg>
