<?xml version="1.0" encoding="UTF-8"?>
<!DOCTYPE svg
PUBLIC "-//W3C//DTD SVG 1.1//EN"
       "http://www.w3.org/Graphics/SVG/1.1/DTD/svg11.dtd">
<svg version="1.1" xmlns="http://www.w3.org/2000/svg" xmlns:xlink="http://www.w3.org/1999/xlink" viewBox="0 0 24 24">
 <path clip-rule="evenodd" d="M8.93186 3.25C6.5874 3.25 4.59359 4.96053 4.2371 7.27773L3.78913 10.9225C2.74419 11.3122 2 12.3192 2 13.5V17.75V18.75C2 20.1307 3.11929 21.25 4.5 21.25C5.88071 21.25 7 20.1307 7 18.75V17.75H17V18.75C17 20.1307 18.1193 21.25 19.5 21.25C20.8807 21.25 22 20.1307 22 18.75V17.75V16.25V13.5C22 12.3194 21.256 11.3125 20.2113 10.9227L19.7633 7.27773C19.4068 4.96053 17.413 3.25 15.0685 3.25H8.93186ZM20.5 16.25V13.5C20.5 12.8096 19.9404 12.25 19.25 12.25H4.75C4.05964 12.25 3.5 12.8096 3.5 13.5V16.25H20.5ZM20.5 17.75H18.5V18.75C18.5 19.3023 18.9477 19.75 19.5 19.75C20.0523 19.75 20.5 19.3023 20.5 18.75V17.75ZM5.5 17.75H3.5V18.75C3.5 19.3023 3.94772 19.75 4.5 19.75C5.05228 19.75 5.5 19.3023 5.5 18.75V17.75ZM8.22286 10.75H5.37439L5.71965 7.50581C5.96357 5.92036 7.32775 4.75 8.93186 4.75H15.0685C16.6726 4.75 18.0368 5.92036 18.2807 7.50581L18.626 10.75H14.0538L15.9788 8H14.1479L12.2229 10.75H10.0538L11.9788 8H10.1479L8.22286 10.75Z" fill="#151516" fill-rule="evenodd"/>
</svg>
