<?xml version="1.0" encoding="UTF-8"?>
<!DOCTYPE svg
PUBLIC "-//W3C//DTD SVG 1.1//EN"
       "http://www.w3.org/Graphics/SVG/1.1/DTD/svg11.dtd">
<svg version="1.1" xmlns="http://www.w3.org/2000/svg" xmlns:xlink="http://www.w3.org/1999/xlink" viewBox="0 0 24 24">
 <path clip-rule="evenodd" d="M14.9844 6.24005C14.4429 5.07983 15.2899 3.75 16.5702 3.75H18.5V5.25H16.5702C16.3873 5.25 16.2663 5.43998 16.3437 5.60572L17.4296 7.93284L17.4359 7.94628L17.4416 7.95996L18.7431 11.0634C18.9892 11.0217 19.2421 11 19.5 11C21.9853 11 24 13.0147 24 15.5C24 17.9853 21.9853 20 19.5 20C17.0147 20 15 17.9853 15 15.5C15 13.8037 15.9386 12.3266 17.3247 11.5598L16.6598 9.97426L13.1647 16.3475C13.1226 16.4282 13.0656 16.5019 12.9948 16.5638C12.9427 16.6096 12.8848 16.6474 12.8232 16.6768C12.72 16.7262 12.6104 16.7499 12.5021 16.7501C12.3933 16.7505 12.283 16.7272 12.1791 16.6779C12.1178 16.649 12.0602 16.6117 12.0082 16.5665C11.9371 16.505 11.8797 16.4316 11.8371 16.3511L8.54713 10.4292L8.05007 11.299C7.66851 10.9762 7.24238 10.7045 6.78223 10.4944L7.69549 8.89622L7.0587 7.75H6.5H5.5V6.25H6.5H9.5V7.75H8.77464L9.02422 8.19925L15.6189 7.59973L14.9844 6.24005ZM15.4151 9.12445L12.4957 14.4479L9.82076 9.63302L15.4151 9.12445ZM17.91 12.9555C17.0632 13.4858 16.5 14.4271 16.5 15.5C16.5 17.1569 17.8431 18.5 19.5 18.5C21.1569 18.5 22.5 17.1569 22.5 15.5C22.5 13.8431 21.1569 12.5 19.5 12.5C19.4487 12.5 19.3978 12.5013 19.3471 12.5038L20.6916 15.71L19.3084 16.29L17.91 12.9555ZM6.7702 13.5388C7.22493 14.0646 7.5 14.7502 7.5 15.5C7.5 17.1569 6.15685 18.5 4.5 18.5C2.84315 18.5 1.5 17.1569 1.5 15.5C1.5 13.8431 2.84315 12.5 4.5 12.5C4.86263 12.5 5.21023 12.5643 5.53201 12.6822L3.84875 15.6279L5.1511 16.3721L6.7702 13.5388ZM9 15.5C9 17.9853 6.98528 20 4.5 20C2.01472 20 0 17.9853 0 15.5C0 13.0147 2.01472 11 4.5 11C6.98528 11 9 13.0147 9 15.5Z" fill="#151516" fill-rule="evenodd"/>
</svg>
