<?xml version="1.0" encoding="UTF-8"?>
<!DOCTYPE svg
PUBLIC "-//W3C//DTD SVG 1.1//EN"
       "http://www.w3.org/Graphics/SVG/1.1/DTD/svg11.dtd">
<svg version="1.1" xmlns="http://www.w3.org/2000/svg" xmlns:xlink="http://www.w3.org/1999/xlink" viewBox="0 0 24 24">
 <path clip-rule="evenodd" d="M7.23207 3.75C6.23846 3.75 5.36248 4.40175 5.07696 5.35347L2.43352 14.5H21.5665L18.923 5.35347C18.6375 4.40175 17.7615 3.75 16.7679 3.75H7.23207ZM3.64023 4.92245L0.815036 14.8887C0.320715 15.2528 0 15.8389 0 16.5V19.2799V20.7799H1.5H22.5H24V19.2799V16.5C24 15.8389 23.6793 15.2528 23.185 14.8887L20.3597 4.92245C19.8839 3.33626 18.4239 2.25 16.7679 2.25H7.23207C5.57604 2.25 4.11608 3.33626 3.64023 4.92245ZM2 16H22C22.2761 16 22.5 16.2239 22.5 16.5V19.2799H1.5V16.5C1.5 16.2239 1.72386 16 2 16ZM8.4 7H6V9.4H8.4V11.8H10.8V9.4H13.2V11.8H15.6V9.4H18V7H15.6V9.4H13.2L13.2 7H10.8V9.4H8.4V7Z" fill="#151516" fill-rule="evenodd"/>
</svg>
