<?xml version="1.0" encoding="UTF-8"?>
<!DOCTYPE svg
PUBLIC "-//W3C//DTD SVG 1.1//EN"
       "http://www.w3.org/Graphics/SVG/1.1/DTD/svg11.dtd">
<svg version="1.1" xmlns="http://www.w3.org/2000/svg" xmlns:xlink="http://www.w3.org/1999/xlink" viewBox="0 0 24 24">
 <path d="M19.9817 8.12489C19.1119 6.30703 17.9823 4.8684 16.6244 3.84868C15.2416 2.81033 13.6226 2.2054 11.802 2.04547L11.8035 2.0125L10.9955 2.00228C7.78535 1.96184 5.11197 2.37159 2.64904 2.79492L2 2.90632V4.06629L2.33894 4.28727C2.36458 4.30604 2.43218 4.35579 2.53443 4.43438C2.86452 4.70603 3.50837 5.34316 3.23322 5.99647C3.10412 6.30322 2.9773 6.56082 2.8546 6.80987C2.39602 7.74093 2 8.54517 2 10.812C2 14.4631 3.36858 16.5961 4.39807 17.8829L4.55953 18.0847L19.4354 21.9995L22.0026 18.3865V18.1372C22.0026 16.3965 21.8057 11.9366 19.9817 8.12489ZM10.7292 10.2846C11.1478 10.2846 11.4885 10.635 11.4885 11.0659C11.4885 11.4968 11.1479 11.8473 10.7292 11.8473C10.3104 11.8473 9.96978 11.4968 9.96978 11.0659C9.96978 10.635 10.3104 10.2846 10.7292 10.2846ZM13.0511 11.0659C13.0511 10.792 13.0039 10.5291 12.918 10.2846H19.1868C19.9994 12.5862 20.2897 14.9863 20.3898 16.6041C16.4347 15.919 13.5463 14.8025 11.6477 13.2183C12.4725 12.8582 13.0511 12.0292 13.0511 11.0659ZM18.7877 20.2131L5.46099 16.706C4.54488 15.5132 3.5627 13.7663 3.5627 10.812C3.5627 8.90914 3.83877 8.34861 4.25645 7.50027C4.38297 7.24328 4.52642 6.9521 4.67353 6.60278C4.69841 6.54357 4.72069 6.4839 4.74083 6.42393C5.28701 6.99437 5.8541 7.657 6.35832 8.38524L7.64312 7.49569C6.64354 6.05202 5.43993 4.85985 4.54259 4.06752C6.42089 3.77817 8.44874 3.54987 10.7475 3.56269L10.9727 3.5665C14.8891 3.63075 17.1893 5.93711 18.5387 8.72189H10.7018C9.43397 8.73685 8.40707 9.78267 8.40707 11.0659C8.40707 11.5592 8.55922 12.0171 8.81805 12.3952L8.81255 12.399C9.86677 13.9748 11.485 15.273 13.6221 16.258C15.4267 17.0897 17.5988 17.7155 20.2432 18.1646L18.7877 20.2131Z" fill="#151516"/>
</svg>
