<?xml version="1.0" encoding="UTF-8"?>
<!DOCTYPE svg
PUBLIC "-//W3C//DTD SVG 1.1//EN"
       "http://www.w3.org/Graphics/SVG/1.1/DTD/svg11.dtd">
<svg version="1.1" xmlns="http://www.w3.org/2000/svg" xmlns:xlink="http://www.w3.org/1999/xlink" viewBox="0 0 24 24">
 <path clip-rule="evenodd" d="M11.9881 0.251465L12.2392 0.342766L17.5091 2.25907C18.1825 2.50397 18.2191 3.44273 17.5667 3.73922L14.7904 5.00091L15.5246 5.00094L15.4633 5.00062H15.7647C18.1038 5.00062 20 6.73721 20 8.87941V19.0006C20 20.1052 19.1046 21.0006 18 21.0006H16.7059H7.29412H6C4.89543 21.0006 4 20.1052 4 19.0006V8.87941C4 6.73721 5.8962 5.00062 8.23529 5.00062H8.47014H8.56132L9.43582 5.00067L6.88615 3.72583C6.26872 3.41712 6.3059 2.52381 6.94687 2.26748L11.7401 0.350665L11.9881 0.251465ZM12.0119 1.74978L8.70743 3.07122L12.0144 4.7247L15.6497 3.07262L12.0119 1.74978ZM18.4118 18.5461C18.4118 19.0984 17.964 19.5461 17.4118 19.5461H6.58823C6.03595 19.5461 5.58823 19.0984 5.58823 18.5461V14.4552H5.58984V13.0006H5.58823V8.87941C5.58823 7.54054 6.77336 6.45517 8.23529 6.45517H15.7647C17.2266 6.45517 18.4118 7.54054 18.4118 8.87941V13.0006H18.4102V14.4552H18.4118V18.5461ZM6.99984 13.0006V14.4552H7.19118H8.79412H12H15.2059H16.8088H17V13.0006H16.8088H15.2059H12H8.79412H7.19118H6.99984ZM6.5 23.2507H10V21.7507H6.5V23.2507ZM17.5 21.7507H14V23.2507H17.5V21.7507Z" fill="#151516" fill-rule="evenodd"/>
</svg>
