<?xml version="1.0" encoding="UTF-8"?>
<!DOCTYPE svg
PUBLIC "-//W3C//DTD SVG 1.1//EN"
       "http://www.w3.org/Graphics/SVG/1.1/DTD/svg11.dtd">
<svg version="1.1" xmlns="http://www.w3.org/2000/svg" xmlns:xlink="http://www.w3.org/1999/xlink" viewBox="0 0 24 24">
 <path clip-rule="evenodd" d="M16.5 3.5C16.5 4.05228 16.0523 4.5 15.5 4.5C14.9477 4.5 14.5 4.05228 14.5 3.5C14.5 2.94772 14.9477 2.5 15.5 2.5C16.0523 2.5 16.5 2.94772 16.5 3.5ZM18 3.5C18 4.88071 16.8807 6 15.5 6C14.1193 6 13 4.88071 13 3.5C13 2.11929 14.1193 1 15.5 1C16.8807 1 18 2.11929 18 3.5ZM9 4.25C8.0335 4.25 7.25 5.0335 7.25 6V9.04642C4.29027 9.41549 2 11.9403 2 15C2 18.3137 4.68629 21 8 21C11.3137 21 14 18.3137 14 15C14 14.2043 13.8451 13.4448 13.5639 12.75H17.323C17.4252 12.75 17.5171 12.8122 17.5551 12.9072L19.3036 17.2785L20.6964 16.7215L18.9478 12.3501C18.682 11.6857 18.0385 11.25 17.323 11.25H13.75V7C13.75 5.48122 12.5188 4.25 11 4.25H9ZM12.25 10.7647V7C12.25 6.30964 11.6904 5.75 11 5.75H9C8.86193 5.75 8.75 5.86193 8.75 6V9.04642C10.1106 9.21609 11.3298 9.84135 12.25 10.7647ZM12.5 15C12.5 17.4853 10.4853 19.5 8 19.5C5.51472 19.5 3.5 17.4853 3.5 15C3.5 12.5147 5.51472 10.5 8 10.5C10.4853 10.5 12.5 12.5147 12.5 15ZM16.5 19.5C17.0523 19.5 17.5 19.0523 17.5 18.5C17.5 17.9477 17.0523 17.5 16.5 17.5C15.9477 17.5 15.5 17.9477 15.5 18.5C15.5 19.0523 15.9477 19.5 16.5 19.5ZM16.5 21C17.8807 21 19 19.8807 19 18.5C19 17.1193 17.8807 16 16.5 16C15.1193 16 14 17.1193 14 18.5C14 19.8807 15.1193 21 16.5 21ZM7.5 15C7.5 15.2761 7.72386 15.5 8 15.5C8.27614 15.5 8.5 15.2761 8.5 15C8.5 14.7239 8.27614 14.5 8 14.5C7.72386 14.5 7.5 14.7239 7.5 15ZM8 13C6.89543 13 6 13.8954 6 15C6 16.1046 6.89543 17 8 17C9.10457 17 10 16.1046 10 15C10 13.8954 9.10457 13 8 13Z" fill="#151516" fill-rule="evenodd"/>
</svg>
