<?xml version="1.0" encoding="UTF-8"?>
<!DOCTYPE svg
PUBLIC "-//W3C//DTD SVG 1.1//EN"
       "http://www.w3.org/Graphics/SVG/1.1/DTD/svg11.dtd">
<svg version="1.1" xmlns="http://www.w3.org/2000/svg" xmlns:xlink="http://www.w3.org/1999/xlink" viewBox="0 0 24 24">
 <path clip-rule="evenodd" d="M7.83566 6.43552L3.14301 17.25H6.49222L8.30364 12.7214L8.79928 11.4823L9.6 12.55L12 15.75L14.4 12.55L15.2007 11.4823L15.6964 12.7214L17.5078 17.25H20.8979L16.6467 6.47323L12.8401 11.1909L12.2564 11.9143L11.6727 11.1909L7.83566 6.43552ZM15.8922 17.25H14.5V18.75H24V17.25H22.5104L17.8845 5.52344C17.533 4.63217 16.3506 4.45155 15.7489 5.19719L12.2564 9.5256L8.74359 5.17205C8.15361 4.44086 6.99808 4.59753 6.62409 5.45942L1.50788 17.25H0V18.75H9.5V17.25H8.10777L9.20072 14.5176L11 16.9166C11.5 17.5833 12.5 17.5833 13 16.9166L14.7993 14.5176L15.8922 17.25Z" fill="#151516" fill-rule="evenodd"/>
</svg>
