<?xml version="1.0" encoding="UTF-8"?>
<!DOCTYPE svg
PUBLIC "-//W3C//DTD SVG 1.1//EN"
       "http://www.w3.org/Graphics/SVG/1.1/DTD/svg11.dtd">
<svg version="1.1" xmlns="http://www.w3.org/2000/svg" xmlns:xlink="http://www.w3.org/1999/xlink" viewBox="0 0 24 24">
 <path clip-rule="evenodd" d="M8.96918 2.75C7.35182 2.75 5.98058 3.93927 5.75185 5.54038L5.36476 8.25H7.88547L10 5.5H12L9.81923 8.25H12.3855L14.5 5.5H16.5L14.3843 8.25H18.6352L18.2482 5.54038C18.0194 3.93927 16.6482 2.75 15.0308 2.75H8.96918ZM20.1619 8.33019L19.7331 5.32825C19.3988 2.98817 17.3947 1.25 15.0308 1.25H8.96918C6.60534 1.25 4.60122 2.98816 4.26692 5.32825L3.83807 8.33019C2.63903 8.62648 1.75 9.70942 1.75 11V16.25C1.75 17.6307 2.86929 18.75 4.25 18.75C5.63071 18.75 6.75 17.6307 6.75 16.25V15.25H17.25V16.25C17.25 17.6307 18.3693 18.75 19.75 18.75C21.1307 18.75 22.25 17.6307 22.25 16.25V11C22.25 9.70942 21.361 8.62648 20.1619 8.33019ZM18.75 15.25V16.25C18.75 16.8023 19.1977 17.25 19.75 17.25C20.3023 17.25 20.75 16.8023 20.75 16.25V15.25H18.75ZM20.75 13.75V11C20.75 10.3096 20.1904 9.75 19.5 9.75H4.5C3.80964 9.75 3.25 10.3096 3.25 11V13.75H20.75ZM3.25 15.25V16.25C3.25 16.8023 3.69772 17.25 4.25 17.25C4.80228 17.25 5.25 16.8023 5.25 16.25V15.25H3.25ZM11.25 17.75H9V16.25H15V17.75H12.75V20.75H22V22.25H2V20.75H11.25V17.75Z" fill="#151516" fill-rule="evenodd"/>
</svg>
