<?xml version="1.0" encoding="UTF-8"?>
<!DOCTYPE svg
PUBLIC "-//W3C//DTD SVG 1.1//EN"
       "http://www.w3.org/Graphics/SVG/1.1/DTD/svg11.dtd">
<svg version="1.1" xmlns="http://www.w3.org/2000/svg" xmlns:xlink="http://www.w3.org/1999/xlink" viewBox="0 0 24 24">
 <path clip-rule="evenodd" d="M23.8411 11.9395L22.4309 10.1232L22.4324 10.1224L20.1635 5.60984C20.0349 5.35447 19.7735 5.19336 19.4876 5.19336H16.2605V4.43695C16.2605 4.0192 15.9219 3.68066 15.5042 3.68066H3.52539V5.19323H14.7479V10.4873C14.7479 10.9051 15.0864 11.2436 15.5041 11.2436H21.3859L22.4873 12.6624V16.5629H21.0619C20.7341 15.2469 19.5422 14.2689 18.126 14.2689C16.7099 14.2689 15.5179 15.247 15.1901 16.5631H10.7258C10.398 15.247 9.20603 14.2689 7.78987 14.2689C6.3737 14.2689 5.18172 15.247 4.85394 16.5631H3.0415V18.0757H4.86698C5.21236 19.3662 6.39188 20.3194 7.78987 20.3194C9.18784 20.3194 10.3674 19.3663 10.7127 18.0757H15.2032C15.5486 19.3663 16.7281 20.3194 18.126 20.3194C19.5243 20.3194 20.7037 19.3662 21.049 18.0755H23.2436C23.6614 18.0755 23.9999 17.7369 23.9999 17.3192V12.4034C23.9999 12.2354 23.944 12.0721 23.8411 11.9395ZM19.0212 6.70597L20.5421 9.73105H16.2605V6.70597H19.0212ZM7.78987 18.8067C6.95568 18.8067 6.27726 18.1283 6.27726 17.2941C6.27726 16.46 6.95568 15.7815 7.78987 15.7815C8.62382 15.7815 9.30248 16.46 9.30248 17.2941C9.30248 18.1284 8.62405 18.8067 7.78987 18.8067ZM18.126 18.8067C17.2919 18.8067 16.6134 18.1283 16.6134 17.2941C16.6134 16.46 17.2919 15.7815 18.126 15.7815C18.9602 15.7815 19.6387 16.46 19.6387 17.2941C19.6387 18.1284 18.9602 18.8067 18.126 18.8067ZM1 12.7311L6 12.7311V14.2437H1V12.7311ZM8.00586 9.75623H0V11.2688H8.00586V9.75623ZM1.5 6.78149H9V8.29406H1.5V6.78149Z" fill="#151516" fill-rule="evenodd"/>
</svg>
