<?xml version="1.0" encoding="UTF-8"?>
<!DOCTYPE svg
PUBLIC "-//W3C//DTD SVG 1.1//EN"
       "http://www.w3.org/Graphics/SVG/1.1/DTD/svg11.dtd">
<svg version="1.1" xmlns="http://www.w3.org/2000/svg" xmlns:xlink="http://www.w3.org/1999/xlink" viewBox="0 0 24 24">
 <path clip-rule="evenodd" d="M16.5 2.58398H16.1921H14.3893H9.61563H7.78464H7.5C5.29086 2.58398 3.5 4.37485 3.5 6.58398V20.084C3.5 21.4647 4.61929 22.584 6 22.584C7.38071 22.584 8.5 21.4647 8.5 20.084V19.084H15.5V20.084C15.5 21.4647 16.6193 22.584 18 22.584C19.3807 22.584 20.5 21.4647 20.5 20.084V6.58398C20.5 4.37485 18.7091 2.58398 16.5 2.58398ZM19 17.584H5V14.334H19V17.584ZM5 20.084V19.084H7V20.084C7 20.6363 6.55228 21.084 6 21.084C5.44772 21.084 5 20.6363 5 20.084ZM17 20.084V19.084H19V20.084C19 20.6363 18.5523 21.084 18 21.084C17.4477 21.084 17 20.6363 17 20.084ZM11.25 12.834H5V8.25H11.25V12.834ZM5 6.75V6.58398C5 5.20327 6.11929 4.08398 7.5 4.08398H16.5C17.8807 4.08398 19 5.20327 19 6.58398V6.75H5ZM19 8.25H12.75V12.834H19V8.25ZM7 6.25H17V4.75H7V6.25Z" fill="#151516" fill-rule="evenodd"/>
</svg>
