<?xml version="1.0" encoding="UTF-8"?>
<!DOCTYPE svg
PUBLIC "-//W3C//DTD SVG 1.1//EN"
       "http://www.w3.org/Graphics/SVG/1.1/DTD/svg11.dtd">
<svg version="1.1" xmlns="http://www.w3.org/2000/svg" xmlns:xlink="http://www.w3.org/1999/xlink" viewBox="0 0 24 24">
 <path clip-rule="evenodd" d="M6.76188 1.27904C6.42306 0.451586 5.25127 0.451581 4.91245 1.27904L4.12587 3.20004C3.6277 4.41667 4.52249 5.74996 5.83717 5.74996C7.15184 5.74996 8.04664 4.41667 7.54846 3.20004L6.76188 1.27904ZM5.51401 3.76843L5.83717 2.97921L6.16033 3.76843C6.2544 3.99818 6.08543 4.24996 5.83717 4.24996C5.5889 4.24996 5.41993 3.99818 5.51401 3.76843ZM12.9039 1.27904C12.565 0.451586 11.3933 0.451581 11.0544 1.27904L10.2679 3.20004C9.76968 4.41667 10.6645 5.74996 11.9791 5.74996C13.2938 5.74996 14.1886 4.41667 13.6904 3.20004L12.9039 1.27904ZM11.656 3.76843L11.9791 2.97921L12.3023 3.76843C12.3964 3.99818 12.2274 4.24996 11.9791 4.24996C11.7309 4.24996 11.5619 3.99818 11.656 3.76843ZM17.1964 1.27904C17.5352 0.451581 18.707 0.451586 19.0458 1.27904L19.8324 3.20004C20.3306 4.41667 19.4358 5.74996 18.1211 5.74996C16.8065 5.74996 15.9117 4.41667 16.4098 3.20004L17.1964 1.27904ZM18.1211 2.97921L17.798 3.76843C17.7039 3.99818 17.8729 4.24996 18.1211 4.24996C18.3694 4.24996 18.5384 3.99818 18.4443 3.76843L18.1211 2.97921ZM5.01455 10.8598C5.3429 8.72551 7.1793 7.15002 9.33867 7.15002H14.8617C17.021 7.15002 18.8574 8.72551 19.1858 10.8598L19.1862 10.8628L19.5821 14.0838C20.5301 14.4636 21.2 15.391 21.2 16.475V21.2C21.2 22.4979 20.1479 23.55 18.85 23.55C17.5521 23.55 16.5 22.4979 16.5 21.2V20.4H7.7V21.2C7.7 22.4979 6.64787 23.55 5.35 23.55C4.05213 23.55 3 22.4979 3 21.2V16.475C3 15.3908 3.67002 14.4634 4.61827 14.0836L5.01455 10.8598ZM6.54688 11.0932L6.24816 13.9H8.64851L10.381 11.425H12.273L10.5405 13.9H12.2485L13.981 11.425H15.873L14.1405 13.9H17.9522L17.6535 11.0932C17.4405 9.71621 16.2552 8.70002 14.8617 8.70002H9.33867C7.94511 8.70002 6.75985 9.71621 6.54688 11.0932ZM5.575 15.45C5.00891 15.45 4.55 15.9089 4.55 16.475V18.85H19.65V16.475C19.65 15.9089 19.1911 15.45 18.625 15.45H5.575ZM4.55 20.4V21.2C4.55 21.6419 4.90817 22 5.35 22C5.79183 22 6.15 21.6419 6.15 21.2V20.4H4.55ZM18.05 20.4V21.2C18.05 21.6419 18.4082 22 18.85 22C19.2918 22 19.65 21.6419 19.65 21.2V20.4H18.05Z" fill="#151516" fill-rule="evenodd"/>
</svg>
