<?xml version="1.0" encoding="UTF-8"?>
<!DOCTYPE svg
PUBLIC "-//W3C//DTD SVG 1.1//EN"
       "http://www.w3.org/Graphics/SVG/1.1/DTD/svg11.dtd">
<svg version="1.1" xmlns="http://www.w3.org/2000/svg" xmlns:xlink="http://www.w3.org/1999/xlink" viewBox="0 0 24 24">
 <path clip-rule="evenodd" d="M5 4.75C5 3.7835 5.7835 3 6.75 3H14.25C15.2165 3 16 3.7835 16 4.75V15.25H17C17.6904 15.25 18.25 14.6904 18.25 14V7C18.25 6.58579 18.5858 6.25 19 6.25H21.5V7.75H19.75V14C19.75 15.5188 18.5188 16.75 17 16.75H16V19.25C16 20.2165 15.2165 21 14.25 21H6.75C5.7835 21 5 20.2165 5 19.25V11V9.5V4.75ZM6.5 11V19.5H14.5V11H6.5ZM14.5 9.5H6.5V4.5C6.5 4.46183 14.5 4.5 14.5 4.5V9.5Z" fill="#151516" fill-rule="evenodd"/>
</svg>
