<?xml version="1.0" encoding="UTF-8"?>
<!DOCTYPE svg
PUBLIC "-//W3C//DTD SVG 1.1//EN"
       "http://www.w3.org/Graphics/SVG/1.1/DTD/svg11.dtd">
<svg version="1.1" xmlns="http://www.w3.org/2000/svg" xmlns:xlink="http://www.w3.org/1999/xlink" viewBox="0 0 24 24">
 <path clip-rule="evenodd" d="M6 4C6 3.58579 6.33579 3.25 6.75 3.25H15.5C15.6703 3.25 15.8355 3.30796 15.9685 3.41435L19.7185 6.41431C19.8964 6.55664 20 6.77212 20 6.99996V9.5C20 9.91421 19.6642 10.25 19.25 10.25H15.5V21C15.5 21.199 15.421 21.3897 15.2803 21.5304C15.1397 21.671 14.9489 21.75 14.75 21.75L11 21.75C10.5858 21.75 10.25 21.4142 10.25 21V10.25H6.75C6.33579 10.25 6 9.91421 6 9.5V4ZM11.75 10.25V20.25L14 20.25V10.25H11.75ZM7.5 4.75V8.75H18.5V7.36044L15.2369 4.75H7.5ZM4.5 9.25V4.25H3V9.25H4.5Z" fill="#151516" fill-rule="evenodd"/>
</svg>
