<?xml version="1.0" encoding="UTF-8"?>
<!DOCTYPE svg
PUBLIC "-//W3C//DTD SVG 1.1//EN"
       "http://www.w3.org/Graphics/SVG/1.1/DTD/svg11.dtd">
<svg version="1.1" xmlns="http://www.w3.org/2000/svg" xmlns:xlink="http://www.w3.org/1999/xlink" viewBox="0 0 24 24">
 <path clip-rule="evenodd" d="M18 3.5H6C4.61929 3.5 3.5 4.61929 3.5 6V18C3.5 19.3807 4.61929 20.5 6 20.5H18C19.3807 20.5 20.5 19.3807 20.5 18V6C20.5 4.61929 19.3807 3.5 18 3.5ZM6 2C3.79086 2 2 3.79086 2 6V18C2 20.2091 3.79086 22 6 22H18C20.2091 22 22 20.2091 22 18V6C22 3.79086 20.2091 2 18 2H6ZM6.74097 4.97768L7.9603 4.74542C8.4938 4.64381 9.06522 4.56973 9.67197 4.52078C10.2929 4.46033 10.9096 4.42993 11.522 4.42993C12.1931 4.42993 12.8629 4.48761 13.5304 4.60225C14.304 4.72105 15.0283 4.9753 15.6836 5.37881C16.3913 5.80282 16.9481 6.39503 17.3575 7.1135C17.84 7.92685 18.02 8.88336 18.02 9.87393C18.02 10.7764 17.8577 11.6405 17.4706 12.4148L17.4647 12.4266C17.1102 13.1202 16.629 13.7166 16.0214 14.1963L16.0118 14.2039L16.002 14.2114C15.4128 14.661 14.7485 14.9855 14.025 15.1922L14.0151 15.1951L14.0051 15.1978C13.3772 15.3678 12.7309 15.4573 12.07 15.4695V19.4999H6.74097V4.97768ZM10.57 13.9029C10.6266 13.9143 10.7173 13.9256 10.842 13.9369L11.25 13.9709H11.913C11.9655 13.9709 12.0178 13.9703 12.07 13.9692C12.6031 13.9572 13.1174 13.8841 13.613 13.7499C14.1683 13.5913 14.6613 13.3476 15.092 13.0189C15.5226 12.6789 15.8683 12.2539 16.129 11.7439C16.3896 11.2226 16.52 10.5993 16.52 9.87393C16.52 9.0466 16.367 8.37793 16.061 7.86793C15.7663 7.3466 15.381 6.94427 14.905 6.66093C14.429 6.36627 13.8906 6.1736 13.29 6.08293C12.7006 5.98093 12.1113 5.92993 11.522 5.92993C10.9553 5.92993 10.383 5.95826 9.80497 6.01493C9.2383 6.06027 8.71697 6.12827 8.24097 6.21893V17.9999H10.57V13.9029ZM11.2797 7.52872L11.2776 7.52875L10.5 7.5V12.08L11.2785 12.0512L11.2797 12.0512L11.2827 12.051L11.2915 12.0507L11.3197 12.0492C11.343 12.0479 11.3751 12.0459 11.415 12.0428C11.4946 12.0366 11.6056 12.0262 11.7378 12.0089C11.9989 11.9746 12.3585 11.9112 12.7275 11.7931C13.0884 11.6776 13.5111 11.4933 13.8554 11.1883C14.2187 10.8662 14.5 10.4003 14.5 9.79C14.5 9.17966 14.2187 8.71376 13.8554 8.39174C13.5111 8.08666 13.0884 7.9024 12.7275 7.78691C12.3585 7.66879 11.9989 7.60543 11.7378 7.57115C11.6056 7.55378 11.4946 7.54336 11.415 7.5372C11.3751 7.53411 11.343 7.53208 11.3197 7.53078L11.2915 7.52934L11.2827 7.52895L11.2797 7.52872ZM12.2725 10.3563C12.1818 10.3853 12.09 10.4101 12 10.4312V9.14878C12.09 9.1699 12.1818 9.19468 12.2725 9.22369C12.5366 9.30823 12.7389 9.41247 12.8634 9.5228C12.9688 9.6162 13 9.69263 13 9.79C13 9.88737 12.9688 9.9638 12.8634 10.0572C12.7389 10.1675 12.5366 10.2718 12.2725 10.3563Z" fill="#151516" fill-rule="evenodd"/>
</svg>
