<?xml version="1.0" encoding="UTF-8"?>
<!DOCTYPE svg
PUBLIC "-//W3C//DTD SVG 1.1//EN"
       "http://www.w3.org/Graphics/SVG/1.1/DTD/svg11.dtd">
<svg version="1.1" xmlns="http://www.w3.org/2000/svg" xmlns:xlink="http://www.w3.org/1999/xlink" viewBox="0 0 24 24">
 <path clip-rule="evenodd" d="M8.2528 1.05629C8.80765 0.784446 9.38496 0.554479 9.94169 0.428284C11.3032 0.119677 12.8992 0.353179 14.0845 0.625967C14.691 0.765543 15.2186 0.922405 15.5949 1.04445C15.7835 1.10558 15.935 1.15828 16.0406 1.19615C16.0934 1.21509 16.1347 1.23034 16.1635 1.24111L16.1973 1.25382L16.2068 1.25747L16.2097 1.25859L16.2107 1.25897L16.581 1.40247L16.6708 1.78856L17.7418 6.39058L17.9117 7.12106L17.1813 7.29105L15.9592 7.57543C15.7496 9.03017 14.7571 10.2318 13.4226 10.7396C13.5672 10.7432 13.7275 10.7433 13.9025 10.7394C14.4596 10.7273 15.093 10.6784 15.6968 10.6172C16.2987 10.5563 16.8613 10.484 17.2739 10.427C17.48 10.3985 17.648 10.3738 17.7642 10.3564C17.8222 10.3476 17.8672 10.3407 17.8975 10.336L17.9316 10.3307L17.94 10.3294L17.9419 10.3291L18.6326 10.2187L18.791 10.8996L20.7279 19.2227C20.947 20.164 20.3614 21.1047 19.4201 21.3238L9.68033 23.5903C8.73898 23.8093 7.79829 23.2238 7.57923 22.2825L5.1196 11.713C5.09348 11.7092 5.06745 11.7053 5.04153 11.7014C4.47357 11.615 3.86218 11.4743 3.30771 11.3286C2.75096 11.1823 2.23902 11.0277 1.86696 10.9099C1.68059 10.8509 1.52851 10.8009 1.42247 10.7655C1.36944 10.7477 1.32787 10.7336 1.29924 10.7238L1.26617 10.7125L1.25724 10.7094L1.25474 10.7085L1.25374 10.7082L0.930884 10.5957L0.803975 10.2784L0.526667 9.58515C-0.00837219 8.24755 1.19352 6.92002 2.5324 7.14697C3.14608 7.251 3.82862 7.34545 4.46913 7.38935C4.57584 4.79363 5.76044 2.27741 8.2528 1.05629ZM5.96744 7.35991C6.079 7.34118 6.17662 7.31774 6.25915 7.28972C6.87461 7.08069 7.3295 6.85217 7.62393 6.68135C7.77116 6.59593 7.87821 6.52497 7.94504 6.47816C7.97845 6.45475 8.00179 6.4374 8.01505 6.42732L9.54473 6.52835C9.51559 6.68106 9.50033 6.83869 9.50033 6.99988C9.50033 8.38059 10.6196 9.49988 12.0003 9.49988C13.381 9.49988 14.5003 8.38059 14.5003 6.99988C14.5003 6.96311 14.4995 6.92653 14.498 6.89014C14.4405 5.56036 13.3443 4.49988 12.0003 4.49988C10.7809 4.49988 9.76528 5.37313 9.54473 6.52835L8.01505 6.42732L8.02736 6.41781L8.04436 6.4044C8.33192 4.47768 9.99355 2.99988 12.0003 2.99988C13.8829 2.99988 15.4617 4.30042 15.8874 6.05207L16.1108 6.00007L15.3027 2.52768C15.2507 2.51013 15.1937 2.49124 15.1323 2.47131C14.7868 2.35929 14.3023 2.21531 13.7481 2.08776C12.6119 1.82628 11.2915 1.66038 10.2733 1.89117C9.8704 1.9825 9.40808 2.16063 8.91277 2.4033C7.0738 3.3043 6.07833 5.2268 5.96744 7.35991ZM6.66409 11.7319L9.04019 21.9425C9.07148 22.077 9.20587 22.1606 9.34035 22.1293L19.0801 19.8628C19.2146 19.8315 19.2982 19.6971 19.2669 19.5626L17.4865 11.9118L17.4794 11.9128C17.0548 11.9716 16.4733 12.0462 15.848 12.1096C15.2246 12.1728 14.5478 12.2257 13.9353 12.2391C13.3461 12.252 12.7364 12.2313 12.2908 12.1103C11.5861 11.9189 10.9878 11.693 10.4344 11.3529C10.2019 11.21 9.98333 11.0506 9.77205 10.8718C9.59208 10.9319 9.36886 11.0047 9.11488 11.0839C8.44518 11.2925 7.54932 11.549 6.66409 11.7319ZM17.0862 15.7066L9.29438 17.5198L8.9544 16.0588L16.7462 14.2456L17.0862 15.7066ZM17.7661 18.6285L9.97434 20.4417L9.63436 18.9807L17.4262 17.1675L17.7661 18.6285ZM6.74152 8.71004C7.32762 8.51099 7.79857 8.29347 8.15431 8.10278C8.3103 8.64773 8.57897 9.14509 8.93352 9.56803C8.85004 9.59481 8.76155 9.62284 8.66873 9.65175C8.01924 9.85409 7.1704 10.0962 6.34909 10.2653C6.1531 10.3056 5.78562 10.2973 5.26706 10.2184C4.77201 10.1431 4.21707 10.0166 3.68888 9.87786C3.16299 9.73968 2.67594 9.59264 2.31968 9.47986C2.22581 9.45015 2.14125 9.42288 2.0677 9.39887L1.91938 9.02807C1.88321 8.93764 1.89718 8.83711 1.97473 8.7449C2.0544 8.65019 2.16808 8.60661 2.28172 8.62588C2.98578 8.74522 3.80652 8.85791 4.58053 8.89886C5.32987 8.93852 6.13034 8.91761 6.74152 8.71004Z" fill="#151516" fill-rule="evenodd"/>
</svg>
