<?xml version="1.0" encoding="UTF-8"?>
<!DOCTYPE svg
PUBLIC "-//W3C//DTD SVG 1.1//EN"
       "http://www.w3.org/Graphics/SVG/1.1/DTD/svg11.dtd">
<svg version="1.1" xmlns="http://www.w3.org/2000/svg" xmlns:xlink="http://www.w3.org/1999/xlink" viewBox="0 0 24 24">
 <path clip-rule="evenodd" d="M6.75 2.81065V4.74999H8.25V4.4142C8.25 4.3479 8.22366 4.28431 8.17678 4.23743L6.75 2.81065ZM9.75 4.74999V4.4142C9.75 3.95007 9.56563 3.50495 9.23744 3.17677L7.38388 1.32321C6.59643 0.535756 5.25 1.09346 5.25 2.2071V4.7612C3.84838 4.88751 2.75 6.06548 2.75 7.49999V21C2.75 22.5188 3.98122 23.75 5.5 23.75H18.5C20.0188 23.75 21.25 22.5188 21.25 21V11.862C21.25 11.4527 21.1065 11.0562 20.8444 10.7417L16.376 5.37967C16.0435 4.98068 15.551 4.74999 15.0316 4.74999H9.75ZM5.5 6.24999C4.80964 6.24999 4.25 6.80963 4.25 7.49999V21C4.25 21.6903 4.80964 22.25 5.5 22.25H18.5C19.1904 22.25 19.75 21.6903 19.75 21V15.7878L11.166 6.24999H9H6H5.5ZM13.184 6.24999L19.75 13.5455V11.862C19.75 11.8036 19.7295 11.7469 19.6921 11.702L15.2237 6.33994C15.1762 6.28294 15.1058 6.24999 15.0316 6.24999H13.184ZM10.6982 11.7348C11.096 10.7403 12.5038 10.7403 12.9016 11.7348L14.2564 15.1217C14.9515 16.8596 13.6716 18.75 11.7999 18.75C9.92818 18.75 8.6483 16.8596 9.34345 15.1217L10.6982 11.7348ZM11.7999 13.0194L10.7362 15.6788C10.4351 16.4314 10.9894 17.25 11.7999 17.25C12.6104 17.25 13.1647 16.4314 12.8637 15.6788L11.7999 13.0194Z" fill="#151516" fill-rule="evenodd"/>
</svg>
