<?xml version="1.0" encoding="UTF-8"?>
<!DOCTYPE svg
PUBLIC "-//W3C//DTD SVG 1.1//EN"
       "http://www.w3.org/Graphics/SVG/1.1/DTD/svg11.dtd">
<svg version="1.1" xmlns="http://www.w3.org/2000/svg" xmlns:xlink="http://www.w3.org/1999/xlink" viewBox="0 0 24 24">
 <defs/>
 <g clip-path="url(#clip0_405_13792)">
  <path clip-rule="evenodd" d="M13.1575 2.6785L9.10613 8.3719L9.18194 8.51448L11.5293 12.9292L11.6051 13.0718L18.5906 12.8968L13.1575 2.6785ZM12.1698 1.47925L7.87993 7.50791L7.15331 7.89426L4.94594 9.06794C3.97067 9.58651 3.60043 10.7975 4.11899 11.7728L4.23636 11.9935L3.35341 12.463C2.50004 12.9167 2.17609 13.9764 2.62983 14.8297L3.0993 15.7127C3.55304 16.566 4.61267 16.89 5.46603 16.4363L6.47734 15.8985C6.8919 16.2459 7.43331 16.4114 7.97125 16.3553L10.3869 20.8984C10.8406 21.7517 11.9002 22.0757 12.7536 21.6219L13.8631 21.032C14.7165 20.5783 15.0404 19.5187 14.5867 18.6653L12.3998 14.5524L19.0326 14.3862C19.9615 14.3629 20.5412 13.3702 20.105 12.5498L19.0434 10.5533C19.0469 10.5505 19.0503 10.5477 19.0538 10.5449C20.5148 9.36462 20.9827 7.27781 20.068 5.55766C19.1534 3.8375 17.1618 3.05844 15.3662 3.60971C15.362 3.61101 15.3578 3.61232 15.3535 3.61363L14.292 1.61713C13.8557 0.79667 12.7086 0.722134 12.1698 1.47925ZM7.85752 9.21868L5.65015 10.3924C5.40633 10.522 5.31377 10.8248 5.44341 11.0686L7.3213 14.6004C7.45094 14.8442 7.75369 14.9367 7.99751 14.8071L10.2049 13.6334L7.85752 9.21868ZM10.9149 14.9548L10.9091 14.9578L9.36393 15.7794L11.7113 20.1942C11.7761 20.3161 11.9275 20.3623 12.0494 20.2975L13.1589 19.7076C13.2808 19.6428 13.3271 19.4914 13.2622 19.3695L10.9149 14.9548ZM4.05762 13.7874L4.94057 13.3179L5.64477 14.6424L4.76183 15.1118C4.63992 15.1767 4.48854 15.1304 4.42372 15.0085L3.95425 14.1255C3.88943 14.0036 3.93571 13.8522 4.05762 13.7874ZM18.7436 6.26186C18.2204 5.27773 17.133 4.78646 16.092 4.97465L18.328 9.17997C19.0662 8.42215 19.2669 7.246 18.7436 6.26186Z" fill="#151516" fill-rule="evenodd"/>
 </g>
</svg>
