<?xml version="1.0" encoding="UTF-8"?>
<!DOCTYPE svg
PUBLIC "-//W3C//DTD SVG 1.1//EN"
       "http://www.w3.org/Graphics/SVG/1.1/DTD/svg11.dtd">
<svg version="1.1" xmlns="http://www.w3.org/2000/svg" xmlns:xlink="http://www.w3.org/1999/xlink" viewBox="0 0 24 24">
 <path clip-rule="evenodd" d="M21.6832 5.15332C20.6968 4.85261 19.3349 4.56978 17.8921 5.40441C16.6479 6.12419 15.2297 6.94492 13.7622 7.79441L13.7033 7.77782L4.74649 5.25614C4.56683 5.20555 4.37477 5.22378 4.20783 5.30725L3.16459 5.82887C2.92546 5.94843 2.76806 6.18625 2.75145 6.45308C2.73484 6.71992 2.86152 6.97542 3.08397 7.12372L8.54132 10.762C8.37328 10.8521 8.20555 10.9417 8.03871 11.0308L7.91517 11.0967C7.19135 11.4831 6.48436 11.8604 5.85911 12.2157L3.1233 11.7598C2.96695 11.7337 2.80636 11.7578 2.66459 11.8287L0.66459 12.8287C0.410502 12.9558 0.25 13.2155 0.25 13.4996C0.25 13.7836 0.410502 14.0433 0.66459 14.1704L3.37133 15.5237L3.87043 17.2389C3.93273 17.4531 4.0871 17.6283 4.29162 17.7172C4.49614 17.8061 4.72961 17.7994 4.92867 17.6988L4.93036 17.698L4.93564 17.6953L4.95681 17.6847L5.04056 17.6425C5.11442 17.6053 5.22381 17.5503 5.36567 17.4792C5.64938 17.3369 6.06291 17.1301 6.58165 16.8721C7.50996 16.4106 8.77495 15.7855 10.2357 15.0739L9.71202 22.1756C9.68417 22.4402 9.79265 22.7008 10 22.8674C10.2074 23.0341 10.4852 23.084 10.7376 22.9998L12.3024 22.4782C12.5264 22.4035 12.7047 22.2317 12.7876 22.0107L16.4048 12.1274C18.2939 11.2459 20.2034 10.3776 21.9496 9.62271C22.5031 9.38343 22.9415 8.87991 23.2212 8.43375C23.3685 8.19867 23.4925 7.94711 23.578 7.70127C23.6589 7.46844 23.7257 7.18326 23.7015 6.90029C23.6434 6.22013 23.1726 5.8165 22.7923 5.59481C22.4205 5.37804 21.9851 5.24535 21.6981 5.15789L21.6832 5.15332ZM5.8767 13.7393C6.05898 13.7697 6.23686 13.7316 6.38402 13.6438C7.03923 13.2646 7.80966 12.8534 8.6316 12.4146L8.74514 12.354C9.6075 11.8936 10.5181 11.4059 11.3758 10.9093L13.9655 9.40996L14.0187 9.42494L14.0341 9.37023C15.6711 8.42256 17.264 7.50065 18.6432 6.70281C19.531 6.18922 20.3729 6.32202 21.2457 6.58813C21.5618 6.68449 21.8348 6.77287 22.0368 6.89065C22.1319 6.94611 22.1783 6.99007 22.1979 7.01448C22.2026 7.02032 22.2052 7.02433 22.2064 7.02653L22.2062 7.02878C22.2047 7.04265 22.1986 7.10102 22.1612 7.2087C22.1174 7.3347 22.0457 7.48482 21.9503 7.63705C21.7444 7.9655 21.5087 8.17913 21.3544 8.24587C19.339 9.11715 17.1121 10.1364 14.9507 11.152L14.5514 12.3834L14.4999 12.4998L14.3543 12.991L14.3154 13.111L14.3192 13.1092L14.1133 13.8036L13.2267 16.2396L11.4535 21.1117L11.3955 21.131L12.0001 12.3676H10.4352L10.3632 13.3441L10.1039 13.47C8.41696 14.2893 6.95459 15.0115 5.91384 15.529C5.58471 15.6927 5.29771 15.8358 5.05908 15.9551L4.72344 14.8017C4.66912 14.6033 4.53387 14.428 4.33541 14.3287L2.67705 13.4996L3.11727 13.2794L5.8767 13.7393ZM11.9512 8.84286L5.74652 7.096L9.91606 9.87572L10.0281 9.95043C10.2293 9.83775 10.4283 9.72463 10.6242 9.6112L11.9512 8.84286Z" fill="#151516" fill-rule="evenodd"/>
</svg>
