<?xml version="1.0" encoding="UTF-8"?>
<!DOCTYPE svg
PUBLIC "-//W3C//DTD SVG 1.1//EN"
       "http://www.w3.org/Graphics/SVG/1.1/DTD/svg11.dtd">
<svg version="1.1" xmlns="http://www.w3.org/2000/svg" xmlns:xlink="http://www.w3.org/1999/xlink" viewBox="0 0 24 24">
 <path clip-rule="evenodd" d="M18.0919 5.84213L19.5181 5.37732C18.3745 1.86857 13.8809 0.186575 9.48119 1.62051C5.08152 3.05445 2.44194 7.06129 3.58551 10.57L5.01169 10.1053C4.9151 9.80889 4.85684 9.49912 4.83611 9.18135L10.4365 7.46017L13.4999 15.5001H14.9999L11.8653 7.00217L17.7247 5.04901C17.8787 5.30112 18.0021 5.56655 18.0919 5.84213ZM16.6176 3.83691L10.6806 5.81592L5.04169 7.54892C5.60896 5.71725 7.29116 3.91195 9.946 3.04668C12.6334 2.17079 15.0832 2.66045 16.6176 3.83691ZM3.41857 13.4425L7.27742 16.7501H19C19.3 16.7501 19.5712 16.9289 19.6894 17.2047L20.9945 20.2501H23H23.75V21.7501H23H20.5H5.5H1H0.25V20.2501H1H5.00545L6.09362 17.711L2.44238 14.5814L3.41857 13.4425ZM6.6374 20.2501H19.3626L18.5055 18.2501H7.49455L6.6374 20.2501Z" fill="#151516" fill-rule="evenodd"/>
</svg>
