<?xml version="1.0" encoding="UTF-8"?>
<!DOCTYPE svg
PUBLIC "-//W3C//DTD SVG 1.1//EN"
       "http://www.w3.org/Graphics/SVG/1.1/DTD/svg11.dtd">
<svg version="1.1" xmlns="http://www.w3.org/2000/svg" xmlns:xlink="http://www.w3.org/1999/xlink" viewBox="0 0 24 24">
 <path d="M16.4565 12C15.6281 12 14.9565 11.3284 14.9565 10.5V9.31635C13.0738 8.48793 10.9262 8.48793 9.04348 9.31635V10.5C9.04348 11.3284 8.37191 12 7.54348 12H5C4.17157 12 3.5 11.3284 3.5 10.5V8.17949L3.56416 7.966C3.56416 7.966 3.56346 7.9683 5 8.4V10.5H7.54348V8.4C10.2973 6.79338 13.7027 6.79338 16.4565 8.4V10.5H19V8.4C19.0055 8.39836 19.0358 8.3894 19.0841 8.37513C19.3932 8.28387 20.4386 7.97517 20.4365 7.9683L20.5 8.17949V10.5C20.5 11.3284 19.8284 12 19 12H16.4565Z" fill="#151516"/>
 <path d="M20.4365 7.9683L19 8.4C19 8.4 17.9783 5 12 5C6.02174 5 5 8.4 5 8.4L3.56416 7.966L3.56642 7.95859C3.65991 7.65799 3.80288 7.37316 3.96317 7.10312C4.22655 6.6594 4.64484 6.10118 5.28821 5.55579C6.59888 4.44474 8.7073 3.5 12 3.5C15.2927 3.5 17.4011 4.44474 18.7118 5.55579C19.3552 6.10118 19.7735 6.6594 20.0368 7.10312C20.1978 7.37426 20.344 7.66596 20.4365 7.9683Z" fill="#151516"/>
 <path d="M5.5 16.2878L6.76 13.4442H5.04115L4 15.7122V18.5C4 19.4665 4.7835 20.25 5.75 20.25H18.25C19.2165 20.25 20 19.4665 20 18.5V15.7122L18.9588 13.4442H17.25L18.5 16.2878V18.75H5.5V16.2878Z" fill="#151516"/>
</svg>
