<?xml version="1.0" encoding="UTF-8"?>
<!DOCTYPE svg
PUBLIC "-//W3C//DTD SVG 1.1//EN"
       "http://www.w3.org/Graphics/SVG/1.1/DTD/svg11.dtd">
<svg version="1.1" xmlns="http://www.w3.org/2000/svg" xmlns:xlink="http://www.w3.org/1999/xlink" viewBox="0 0 24 24">
 <path d="M10.25 3.015H10.265V3C10.265 2.31793 10.8179 1.765 11.5 1.765C12.1821 1.765 12.735 2.31793 12.735 3C12.735 3.68207 12.1821 4.235 11.5 4.235H11.485V4.25V5.75V5.765H11.5C13.0271 5.765 14.265 4.52707 14.265 3C14.265 1.47293 13.0271 0.235 11.5 0.235C9.97293 0.235 8.735 1.47293 8.735 3V3.015H8.75H10.25ZM16.117 7.91953C16.1195 7.91734 16.1231 7.91687 16.126 7.91834L19.235 9.47283V13.235H16.501C16.0778 13.235 15.735 13.5781 15.735 14.001V20.735H7.265V14.1C7.265 13.6223 6.87773 13.235 6.4 13.235H3.765V9.47283L6.87398 7.91834C6.87693 7.91687 6.88049 7.91734 6.88295 7.91953C9.51605 10.2601 13.484 10.2601 16.117 7.91953ZM16.8103 6.54987C16.2477 6.2686 15.5706 6.35816 15.1006 6.77599C13.0472 8.60124 9.95283 8.60124 7.89943 6.77599C7.42936 6.35816 6.75227 6.2686 6.18974 6.54987L2.82372 8.23288C2.46291 8.41328 2.235 8.78205 2.235 9.18545V13.7C2.235 14.2882 2.71182 14.765 3.3 14.765H5.735V21C5.735 21.6987 6.30136 22.265 7 22.265H16C16.6986 22.265 17.265 21.6987 17.265 21V14.765H19.5C20.1986 14.765 20.765 14.1987 20.765 13.5V9.18545C20.765 8.78205 20.5371 8.41328 20.1763 8.23288L16.8103 6.54987Z" fill="#151516" stroke="#151516" stroke-width="0.03"/>
</svg>
