<?xml version="1.0" encoding="UTF-8"?>
<!DOCTYPE svg
PUBLIC "-//W3C//DTD SVG 1.1//EN"
       "http://www.w3.org/Graphics/SVG/1.1/DTD/svg11.dtd">
<svg version="1.1" xmlns="http://www.w3.org/2000/svg" xmlns:xlink="http://www.w3.org/1999/xlink" viewBox="0 0 24 24">
 <path clip-rule="evenodd" d="M2.88477 4.98096L12.3054 11.1488C12.7245 11.4231 13.2668 11.4209 13.6835 11.1431L13.9317 10.9776C14.3413 10.7046 14.8505 10.8006 15.1535 11.1014C15.328 11.2745 15.829 11.7239 16.8854 12.3566C17.779 12.8918 18.4287 12.9669 19.1022 13.0449C19.2538 13.0624 19.4066 13.0801 19.5637 13.1032C20.0007 13.1675 20.4852 13.2821 20.9588 13.6201C21.4253 13.953 21.8123 14.4526 22.1699 15.1627C22.3934 15.6064 22.5344 16.0308 22.6197 16.3423C22.6627 16.4992 22.6924 16.6301 22.7116 16.7242C22.7213 16.7713 22.7283 16.8094 22.7332 16.837L22.739 16.8706L22.7407 16.8813L22.7413 16.885L22.7415 16.8865L22.7407 16.8813L22.7417 16.8877L22.8723 17.7501H13.4755L9.9887 14.5487L7.46919 12.2003C7.05267 11.8121 6.50446 11.5962 5.93508 11.5962H3.03249L4.54499 16.2501H5.34428L5.25044 13.0219L6.74981 12.9783L6.88852 17.7501H3.45526L1.26986 11.0258L1.26067 10.9716L1.2602 10.9687L1.2593 10.9633L1.25631 10.945C1.25382 10.9295 1.25036 10.9075 1.24617 10.8797C1.23779 10.8242 1.22642 10.7451 1.21389 10.6475C1.18888 10.4527 1.15886 10.1812 1.1388 9.87311C1.10029 9.28198 1.09096 8.46211 1.27817 7.79688C1.42719 7.26735 1.74057 6.69503 1.98444 6.29194C2.11144 6.08202 2.23008 5.90111 2.31712 5.77241C2.36077 5.70789 2.39678 5.65603 2.42231 5.6197L2.45249 5.5771L2.46108 5.56512L2.46363 5.56158L2.46446 5.56043L2.88477 4.98096ZM3.28685 7.0371C3.28054 7.04745 3.2742 7.05788 3.26784 7.0684C3.03573 7.45205 2.81312 7.87973 2.72208 8.20323C2.60819 8.60793 2.59885 9.21114 2.63562 9.77561C2.64299 9.88872 2.65192 9.99651 2.66143 10.0962H5.93508C6.88405 10.0962 7.79774 10.456 8.49193 11.103L11.0094 13.4495L14.0596 16.2501H21.0125C20.9613 16.1173 20.901 15.9779 20.8302 15.8374C20.537 15.255 20.2877 14.984 20.0874 14.841C19.8942 14.7032 19.6815 14.6366 19.3454 14.5872C19.2349 14.571 19.1133 14.5575 18.9814 14.5429C18.2881 14.4661 17.3068 14.3574 16.1147 13.6435C15.2955 13.1529 14.755 12.7463 14.414 12.4557C13.512 13.0019 12.372 12.9853 11.4838 12.4038L3.28685 7.0371Z" fill="#151516" fill-rule="evenodd"/>
</svg>
