<?xml version="1.0" encoding="UTF-8"?>
<!DOCTYPE svg
PUBLIC "-//W3C//DTD SVG 1.1//EN"
       "http://www.w3.org/Graphics/SVG/1.1/DTD/svg11.dtd">
<svg version="1.1" xmlns="http://www.w3.org/2000/svg" xmlns:xlink="http://www.w3.org/1999/xlink" viewBox="0 0 24 24">
 <path clip-rule="evenodd" d="M12 3.52075C8.03913 3.52075 5.02679 6.22659 5.02679 9.33862C5.02679 10.8345 5.468 11.7783 5.82879 12.5502C6.05943 13.0436 6.3187 13.5634 6.26689 14.1236C6.21204 14.7168 5.83461 15.1483 5.31087 15.4987L5.30723 15.5012C4.73031 15.8819 4.4375 16.4499 4.4375 17.2929C4.4375 18.5487 5.45117 19.5624 6.69643 19.5624C7.94168 19.5624 8.95536 18.5487 8.95536 17.2929C8.95536 15.0976 8.03669 12.929 7.27004 11.509C7.09617 11.1869 7.20507 10.7851 7.51778 10.595C8.31083 10.1127 9.07367 9.30274 9.60968 8.15965C9.70489 7.9566 9.89315 7.81275 10.1141 7.77423C10.335 7.73572 10.5609 7.80739 10.7191 7.96626C11.9342 9.18571 14.0765 10.4056 16.1547 10.4955C16.3913 10.5057 16.606 10.637 16.7229 10.843C16.8398 11.049 16.8425 11.3006 16.73 11.509C15.9633 12.929 15.0446 15.0976 15.0446 17.2929C15.0446 18.5487 16.0583 19.5624 17.3036 19.5624C18.5488 19.5624 19.5625 18.5487 19.5625 17.2929C19.5625 16.4499 19.2697 15.8818 18.6928 15.5011L18.6891 15.4987C18.1654 15.1483 17.788 14.7168 17.7331 14.1236C17.6813 13.5634 17.9406 13.0436 18.1712 12.5502C18.532 11.7783 18.9732 10.8345 18.9732 9.33862C18.9732 6.22659 15.9609 3.52075 12 3.52075ZM3.65179 9.33862C3.65179 5.26502 7.49908 2.14575 12 2.14575C16.5009 2.14575 20.3482 5.26502 20.3482 9.33862C20.3482 11.3045 19.6915 12.5336 19.3277 13.3242C19.1309 13.7517 19.0943 13.9105 19.1023 13.997V13.997C19.1024 14.0074 19.1042 14.1217 19.4521 14.3548C20.4757 15.0313 20.9375 16.0689 20.9375 17.2929C20.9375 19.3034 19.3129 20.9374 17.3036 20.9374C15.2943 20.9374 13.6696 19.3034 13.6696 17.2929C13.6696 15.2171 14.3703 13.2251 15.066 11.753C13.296 11.4338 11.6245 10.5339 10.4205 9.54724C9.9515 10.3065 9.38404 10.9291 8.7648 11.4045C9.5111 12.9017 10.3304 15.0483 10.3304 17.2929C10.3304 19.3034 8.70571 20.9374 6.69643 20.9374C4.68715 20.9374 3.0625 19.3034 3.0625 17.2929C3.0625 16.0689 3.52426 15.0313 4.54789 14.3548C4.89585 14.1217 4.89756 14.0081 4.89771 13.9977V13.9977C4.90571 13.9112 4.86914 13.7517 4.67235 13.3242C4.30847 12.5336 3.65179 11.3045 3.65179 9.33862Z" fill="#151516" fill-rule="evenodd"/>
 <path d="M19.1023 13.997C19.0943 13.9105 19.1309 13.7517 19.3277 13.3242C19.6915 12.5336 20.3482 11.3045 20.3482 9.33862C20.3482 5.26502 16.5009 2.14575 12 2.14575C7.49908 2.14575 3.65179 5.26502 3.65179 9.33862C3.65179 11.3045 4.30847 12.5336 4.67235 13.3242C4.86914 13.7517 4.90571 13.9112 4.89771 13.9977M19.1023 13.997V13.997ZM19.1023 13.997C19.1024 14.0074 19.1042 14.1217 19.4521 14.3548C20.4757 15.0313 20.9375 16.0689 20.9375 17.2929C20.9375 19.3034 19.3129 20.9374 17.3036 20.9374C15.2943 20.9374 13.6696 19.3034 13.6696 17.2929C13.6696 15.2171 14.3703 13.2251 15.066 11.753C13.296 11.4338 11.6245 10.5339 10.4205 9.54724C9.9515 10.3065 9.38404 10.9291 8.7648 11.4045C9.5111 12.9017 10.3304 15.0483 10.3304 17.2929C10.3304 19.3034 8.70571 20.9374 6.69643 20.9374C4.68715 20.9374 3.0625 19.3034 3.0625 17.2929C3.0625 16.0689 3.52426 15.0313 4.54789 14.3548C4.89585 14.1217 4.89756 14.0081 4.89771 13.9977M4.89771 13.9977V13.9977ZM5.02679 9.33862C5.02679 6.22659 8.03913 3.52075 12 3.52075C15.9609 3.52075 18.9732 6.22659 18.9732 9.33862C18.9732 10.8345 18.532 11.7783 18.1712 12.5502C17.9406 13.0436 17.6813 13.5634 17.7331 14.1236C17.788 14.7168 18.1654 15.1483 18.6891 15.4987L18.6928 15.5011C19.2697 15.8818 19.5625 16.4499 19.5625 17.2929C19.5625 18.5487 18.5488 19.5624 17.3036 19.5624C16.0583 19.5624 15.0446 18.5487 15.0446 17.2929C15.0446 15.0976 15.9633 12.929 16.73 11.509C16.8425 11.3006 16.8398 11.049 16.7229 10.843C16.606 10.637 16.3913 10.5057 16.1547 10.4955C14.0765 10.4056 11.9342 9.18571 10.7191 7.96626C10.5609 7.80739 10.335 7.73572 10.1141 7.77423C9.89315 7.81275 9.70489 7.9566 9.60968 8.15965C9.07367 9.30274 8.31083 10.1127 7.51778 10.595C7.20507 10.7851 7.09617 11.1869 7.27004 11.509C8.03669 12.929 8.95536 15.0976 8.95536 17.2929C8.95536 18.5487 7.94168 19.5624 6.69643 19.5624C5.45117 19.5624 4.4375 18.5487 4.4375 17.2929C4.4375 16.4499 4.73031 15.8819 5.30723 15.5012L5.31087 15.4987C5.83461 15.1483 6.21204 14.7168 6.26689 14.1236C6.3187 13.5634 6.05943 13.0436 5.82879 12.5502C5.468 11.7783 5.02679 10.8345 5.02679 9.33862Z" stroke="#151516" stroke-width="0.1"/>
</svg>
