<?xml version="1.0" encoding="UTF-8"?>
<!DOCTYPE svg
PUBLIC "-//W3C//DTD SVG 1.1//EN"
       "http://www.w3.org/Graphics/SVG/1.1/DTD/svg11.dtd">
<svg version="1.1" xmlns="http://www.w3.org/2000/svg" xmlns:xlink="http://www.w3.org/1999/xlink" viewBox="0 0 24 24">
 <path clip-rule="evenodd" d="M4.36963 4.1237L3.83864 4.65337L3.83865 4.65339L3.28026 5.21039L2.74927 5.74006L3.81125 6.7994L4.34224 6.26973L4.90064 5.71273L6.27413 7.0828L5.71512 7.64042L5.18413 8.17009L6.24611 9.22942L6.7771 8.69975L7.33611 8.14214L8.70961 9.51221L8.14998 10.0704L7.61899 10.6001L8.68097 11.6594L9.21196 11.1298L9.77159 10.5715L10.203 11.0019L7.753 12.8605C7.48404 13.0645 7.38455 13.4231 7.50993 13.7366L8.4111 15.9895V17.8105C7.5153 18.2699 6.90379 19.1912 6.90379 20.2528C6.90379 21.7735 8.15837 23.0062 9.70596 23.0062C11.2536 23.0062 12.5081 21.7735 12.5081 20.2528C12.5081 18.8 11.3629 17.61 9.9111 17.5068V16.9528L11.2696 17.4962C11.583 17.6216 11.9416 17.5221 12.1457 17.2532L14.0084 14.7978L14.52 15.3081L13.9628 15.8639L13.4319 16.3936L14.4938 17.4529L15.0248 16.9233L15.582 16.3675L16.9555 17.7376L16.3977 18.2939L15.8667 18.8236L16.9287 19.8829L17.4597 19.3533L18.0175 18.7969L19.391 20.167L18.8326 20.724L18.3016 21.2536L19.3636 22.313L19.8945 21.7833L20.985 20.6956L21.516 20.1659L21.516 20.1659L22.6088 19.0758C23.293 18.3932 23.293 17.2866 22.6088 16.604L16.9331 10.9425L22.6486 3.40838C22.8751 3.10977 22.8464 2.68978 22.5814 2.42476C22.3164 2.15973 21.8964 2.13104 21.5978 2.35757L14.0596 8.07617L8.47244 2.50289C7.78817 1.82033 6.67875 1.82033 5.99448 2.50289L4.36963 4.1237ZM12.8532 8.9914L7.41046 3.56223C7.31271 3.46472 7.15422 3.46472 7.05647 3.56223L5.96365 4.65232L5.96367 4.65234L5.96262 4.65339L7.33611 6.02346L7.33654 6.02303L8.39853 7.08237L8.39809 7.0828L11.4094 10.0867L12.8532 8.9914ZM16.0182 12.1485L14.9233 13.5917L15.582 14.2488L15.5843 14.2465L16.6462 15.3059L16.644 15.3081L18.0175 16.6782L18.0191 16.6766L19.0811 17.7359L19.0794 17.7376L20.4529 19.1076L21.5468 18.0165C21.6445 17.919 21.6445 17.7609 21.5468 17.6634L16.0182 12.1485ZM9.73808 15.2681L9.1149 13.7101L18.151 6.85514L11.296 15.8913L9.73808 15.2681ZM4.80217 17.3762C5.54632 17.3762 6.10435 16.7903 6.10435 16.1229C6.10435 15.4555 5.54632 14.8696 4.80217 14.8696C4.05803 14.8696 3.5 15.4555 3.5 16.1229C3.5 16.7903 4.05803 17.3762 4.80217 17.3762ZM4.80217 18.8762C6.34977 18.8762 7.60435 17.6435 7.60435 16.1229C7.60435 14.6023 6.34977 13.3696 4.80217 13.3696C3.25458 13.3696 2 14.6023 2 16.1229C2 17.6435 3.25458 18.8762 4.80217 18.8762ZM9.70596 21.5062C10.4501 21.5062 11.0081 20.9203 11.0081 20.2528C11.0081 19.5854 10.4501 18.9995 9.70596 18.9995C8.96182 18.9995 8.40379 19.5854 8.40379 20.2528C8.40379 20.9203 8.96182 21.5062 9.70596 21.5062Z" fill="#151516" fill-rule="evenodd"/>
</svg>
