<?xml version="1.0" encoding="UTF-8"?>
<!DOCTYPE svg
PUBLIC "-//W3C//DTD SVG 1.1//EN"
       "http://www.w3.org/Graphics/SVG/1.1/DTD/svg11.dtd">
<svg version="1.1" xmlns="http://www.w3.org/2000/svg" xmlns:xlink="http://www.w3.org/1999/xlink" viewBox="0 0 24 24">
 <path clip-rule="evenodd" d="M20 2H21.5V3.5H20V2ZM20 5V3.5H18.5V5H17V6.5H18.5V8H20V9.5H21.5V8H20V6.5H21.5V5H20ZM20 5V6.5H18.5V5H20ZM8.75 4.25C8.75 3.83579 9.08579 3.5 9.5 3.5H14.5C14.9142 3.5 15.25 3.83579 15.25 4.25V8.96232C17.9068 10.1913 19.75 12.8804 19.75 16C19.75 18.82 18.2433 21.2874 15.9947 22.6424L15.8161 22.75H8.18392L8.00533 22.6424C5.75666 21.2874 4.25 18.82 4.25 16C4.25 12.8804 6.09322 10.1913 8.75 8.96232V4.25ZM13.75 5V8.4484C13.1876 8.3186 12.6018 8.25 12 8.25C11.3982 8.25 10.8124 8.3186 10.25 8.4484V5H13.75ZM12 9.75C8.54822 9.75 5.75 12.5482 5.75 16C5.75 18.2 6.8863 20.1354 8.60729 21.25H15.3927C17.1137 20.1354 18.25 18.2 18.25 16C18.25 12.5482 15.4518 9.75 12 9.75Z" fill="#151516" fill-rule="evenodd"/>
</svg>
