<?xml version="1.0" encoding="UTF-8"?>
<!DOCTYPE svg
PUBLIC "-//W3C//DTD SVG 1.1//EN"
       "http://www.w3.org/Graphics/SVG/1.1/DTD/svg11.dtd">
<svg version="1.1" xmlns="http://www.w3.org/2000/svg" xmlns:xlink="http://www.w3.org/1999/xlink" viewBox="0 0 24 24">
 <path clip-rule="evenodd" d="M10.4157 2.75C9.46242 2.75 8.68965 3.52277 8.68965 4.47603V6.94172H6.71697C6.35355 6.94172 6.04396 7.20572 5.98654 7.56458L4.37942 17.6091C4.11574 19.2571 5.38875 20.7499 7.05768 20.7499H16.7324C18.4014 20.7499 19.6744 19.2571 19.4107 17.6091L17.8036 7.56458C17.7462 7.20572 17.4366 6.94172 17.0731 6.94172H15.1006V4.47603C15.1006 3.52277 14.3278 2.75 13.3746 2.75H10.4157ZM13.6212 6.94172V4.47603C13.6212 4.33985 13.5108 4.22945 13.3746 4.22945H10.4157C10.2795 4.22945 10.1691 4.33985 10.1691 4.47603V6.94172H13.6212ZM5.84029 17.8428L7.34775 8.42118H16.4424L17.9498 17.8428C18.0697 18.5919 17.491 19.2705 16.7324 19.2705H7.05768C6.29908 19.2705 5.72043 18.5919 5.84029 17.8428Z" fill="#151516" fill-rule="evenodd"/>
</svg>
