<?xml version="1.0" encoding="UTF-8"?>
<!DOCTYPE svg
PUBLIC "-//W3C//DTD SVG 1.1//EN"
       "http://www.w3.org/Graphics/SVG/1.1/DTD/svg11.dtd">
<svg version="1.1" xmlns="http://www.w3.org/2000/svg" xmlns:xlink="http://www.w3.org/1999/xlink" viewBox="0 0 24 24">
 <path clip-rule="evenodd" d="M5.5 2.25H6.36476H17.5H18.3648L18.2425 3.10607L17.6608 7.17803L17.0791 11.25L16.8648 12.75L16.4362 15.75L16.2425 17.1061L16.1505 17.75H15.5H8.36476H7.71429L7.6223 17.1061L5.6223 3.10607L5.5 2.25ZM7.22951 3.75L9.01523 16.25H14.8496L16.6353 3.75H7.22951ZM8.5 18.687H7.75V19.437V20.9999C7.75 21.9664 8.5335 22.7499 9.5 22.7499H14.5C15.4665 22.7499 16.25 21.9664 16.25 20.9999V19.437V18.687H15.5H8.5ZM9.25 20.9999V20.187H14.75V20.9999C14.75 21.138 14.6381 21.2499 14.5 21.2499H9.5C9.36193 21.2499 9.25 21.138 9.25 20.9999Z" fill="#151516" fill-rule="evenodd"/>
</svg>
