<?xml version="1.0" encoding="UTF-8"?>
<!DOCTYPE svg
PUBLIC "-//W3C//DTD SVG 1.1//EN"
       "http://www.w3.org/Graphics/SVG/1.1/DTD/svg11.dtd">
<svg version="1.1" xmlns="http://www.w3.org/2000/svg" xmlns:xlink="http://www.w3.org/1999/xlink" viewBox="0 0 24 24">
 <path clip-rule="evenodd" d="M5.32917 3.66451C5.51441 3.29403 5.96492 3.14386 6.3354 3.3291L8.3354 4.3291L9.00622 4.66451L8.3354 6.00615L7.66458 5.67074L6.3354 5.00615L2.71345 12.25H10C10.2097 12.25 10.4099 12.3379 10.5519 12.4922C10.6939 12.6466 10.7648 12.8533 10.7474 13.0623L10.7318 13.25H12.7682L12.7526 13.0623C12.7352 12.8533 12.8061 12.6466 12.9481 12.4922C13.0901 12.3379 13.2903 12.25 13.5 12.25H20.7865L17.1646 5.00623L15.8354 5.67082L15.1646 6.00623L14.4938 4.66459L15.1646 4.32918L17.1646 3.32918C17.5351 3.14394 17.9856 3.29411 18.1708 3.66459L22.4635 12.25H22.5C22.7205 12.25 22.9298 12.347 23.0723 12.5153C23.2148 12.6835 23.276 12.9059 23.2398 13.1233L22.5183 17.4521C22.2973 18.7782 21.1501 19.75 19.8058 19.75H15.8403C14.41 19.75 13.2185 18.6537 13.0998 17.2284L12.8932 14.75H10.6068L10.4002 17.2284C10.2815 18.6537 9.08998 19.75 7.65974 19.75H3.69426C2.34995 19.75 1.20268 18.7782 0.981677 17.4521L0.26021 13.1233C0.223966 12.9059 0.285238 12.6835 0.427741 12.5153C0.570243 12.347 0.779541 12.25 1.00001 12.25H1.0364L5.32917 3.66451ZM1.90488 13.8672L2.46127 17.2055C2.56172 17.8083 3.08321 18.25 3.69426 18.25H7.65974C8.30985 18.25 8.85143 17.7517 8.90542 17.1039L9.18491 13.75H1.96345L1.90488 13.8672ZM21.5365 13.75L21.5951 13.8673L21.0387 17.2055C20.9383 17.8083 20.4168 18.25 19.8058 18.25H15.8403C15.1902 18.25 14.6486 17.7517 14.5946 17.1039L14.3151 13.75H21.5365Z" fill="#151516" fill-rule="evenodd"/>
</svg>
