<?xml version="1.0" encoding="UTF-8"?>
<!DOCTYPE svg
PUBLIC "-//W3C//DTD SVG 1.1//EN"
       "http://www.w3.org/Graphics/SVG/1.1/DTD/svg11.dtd">
<svg version="1.1" xmlns="http://www.w3.org/2000/svg" xmlns:xlink="http://www.w3.org/1999/xlink" viewBox="0 0 24 24">
 <path clip-rule="evenodd" d="M6.7078 5.13455L6.40798 5.75624L5.28508 5.23263L4.66928 6.55321L3.34869 5.93741L2.85013 7.00658L2.27562 6.74773C1.86661 6.56346 1.88845 5.97545 2.30999 5.82202L6.08643 4.44751C6.50797 4.29408 6.90266 4.73049 6.7078 5.13455ZM4.69002 6.61022L5.75634 7.10745L5.48916 7.66145C5.37141 7.90561 5.08055 8.01148 4.83341 7.90013L4.21785 7.62279L4.69002 6.61022ZM7.07011 7.8364L8.05889 5.78614C8.83835 4.16988 7.25958 2.42425 5.57339 3.03797L1.79696 4.41248C0.11078 5.0262 0.0234358 7.37824 1.65946 8.11534L3.79388 9.07699C1.27571 10.853 0.150464 14.1558 1.25502 17.1905C2.57726 20.8233 6.59416 22.6965 10.227 21.3742C11.7114 20.8339 12.902 19.8437 13.7009 18.6137C14.421 18.864 15.1946 19 16 19C19.866 19 23 15.866 23 12C23 8.13401 19.866 5 16 5C13.5417 5 11.3794 6.26719 10.1306 8.184C9.16406 7.84748 8.12004 7.72049 7.07011 7.8364ZM9.44533 9.53771C8.34103 9.19819 7.12107 9.20245 5.95175 9.62805C3.09737 10.667 1.62565 13.8231 2.66455 16.6775C3.70346 19.5318 6.8596 21.0036 9.71397 19.9647C10.8124 19.5649 11.7061 18.8515 12.3308 17.9624C10.3322 16.7299 9 14.5205 9 12C9 11.1334 9.15746 10.3037 9.44533 9.53771ZM14.4107 12.4022C14.8299 13.554 14.9279 14.7444 14.7505 15.8753L13.3221 15.1611C13.3718 14.4204 13.2714 13.6576 13.0012 12.9152C12.7663 12.27 12.4233 11.6954 12 11.2045V10.5L12.6373 9.70336C13.4074 10.4287 14.0242 11.3403 14.4107 12.4022ZM21.5 12C21.5 15.0376 19.0376 17.5 16 17.5C12.9624 17.5 10.5 15.0376 10.5 12C10.5 8.96243 12.9624 6.5 16 6.5C19.0376 6.5 21.5 8.96243 21.5 12Z" fill="#151516" fill-rule="evenodd"/>
</svg>
