<?xml version="1.0" encoding="UTF-8"?>
<!DOCTYPE svg
PUBLIC "-//W3C//DTD SVG 1.1//EN"
       "http://www.w3.org/Graphics/SVG/1.1/DTD/svg11.dtd">
<svg version="1.1" xmlns="http://www.w3.org/2000/svg" xmlns:xlink="http://www.w3.org/1999/xlink" viewBox="0 0 24 24">
 <path clip-rule="evenodd" d="M11.6507 0.846695C13.1449 0.970014 14.5968 1.51428 15.4028 2.53511C16.0959 3.41288 16.0674 4.42839 15.9211 5.12609C15.8464 5.48224 15.7355 5.78675 15.6443 6.00147C15.5983 6.10972 15.5563 6.19754 15.5246 6.26038C15.5087 6.29186 15.4954 6.31724 15.4853 6.33598L15.4726 6.35908L15.4683 6.36679L15.4667 6.36967L15.466 6.37087C15.466 6.37087 15.4654 6.37189 14.8142 5.99988L15.4654 6.37189L15.3554 6.5645L15.1583 6.66627L13.8149 7.36L19.1433 10.8628C19.1588 10.8162 19.1741 10.7684 19.1893 10.7195C19.3726 10.1307 19.489 9.52208 19.4265 9.11319C19.3816 8.81914 19.2127 8.45136 18.9199 8.03306C18.6335 7.6239 18.2648 7.21722 17.8891 6.85048C17.5154 6.48577 17.1479 6.17318 16.8729 5.95135C16.7359 5.8408 16.623 5.75369 16.5453 5.6949C16.5065 5.66552 16.4765 5.64327 16.4568 5.62876L16.4351 5.61289L16.4304 5.60946C16.4304 5.60946 16.4299 5.60911 16.8675 4.99998C17.305 4.39084 17.3053 4.39102 17.3053 4.39102L17.3064 4.39185L17.3089 4.39366L17.3172 4.39963L17.3461 4.42083C17.3708 4.439 17.406 4.46516 17.4503 4.4987C17.5389 4.56573 17.6643 4.66246 17.8148 4.78395C18.1151 5.0262 18.5203 5.3705 18.9368 5.77705C19.3512 6.18157 19.7901 6.66052 20.1488 7.17292C20.501 7.67617 20.8145 8.26586 20.9093 8.88677C21.0271 9.65775 20.8134 10.5491 20.6216 11.1653C20.5204 11.4903 20.4137 11.7741 20.3323 11.9767C20.2914 12.0784 20.2566 12.1606 20.2315 12.2183C20.2189 12.2472 20.2088 12.2701 20.2015 12.2863L20.1933 12.3046V13.9314C20.1933 18.3875 16.5808 22 12.1246 22C7.66846 22 4.05601 18.3875 4.05601 13.9314V12.9999H4.05444V10.6395L4.31406 10.5356L4.71914 10.3736C4.74104 10.3592 4.7639 10.3458 4.7877 10.3335L14.2498 5.44723L14.2637 5.41498C14.3279 5.26396 14.4034 5.0546 14.453 4.81817C14.5553 4.33069 14.5268 3.8462 14.2255 3.46466C13.7825 2.90349 12.8137 2.44778 11.5273 2.34161C10.2686 2.23773 8.84963 2.48519 7.64876 3.1549C6.61305 3.73252 5.8889 4.91 5.41679 6.06233C5.18705 6.6231 5.03027 7.14512 4.93113 7.527C4.88172 7.71733 4.84705 7.87126 4.82503 7.97583C4.81403 8.02807 4.80622 8.06787 4.80133 8.09359L4.79617 8.12138L4.79517 8.12694C4.79517 8.12694 4.79521 8.12675 4.05601 7.99988C3.31682 7.87302 3.3169 7.87258 3.3169 7.87258L3.31722 7.8707L3.31789 7.86688L3.32004 7.85483L3.3277 7.81358C3.33433 7.77868 3.34407 7.7292 3.35721 7.66681C3.38346 7.54211 3.42337 7.36537 3.47925 7.1501C3.5907 6.72078 3.7673 6.13186 4.02877 5.49366C4.53909 4.24806 5.42866 2.67555 6.91816 1.84486C8.40683 1.01463 10.1287 0.721086 11.6507 0.846695ZM18.6933 12.362L12.2856 8.14975L5.55601 11.625V13.9314C5.55601 17.5591 8.49688 20.5 12.1246 20.5C15.7524 20.5 18.6933 17.5591 18.6933 13.9314V12.362ZM6.99976 13C6.99976 14.1046 7.89519 15 8.99976 15C10.1043 15 10.9998 14.1046 10.9998 13H9.49976C9.49976 13.2761 9.2759 13.5 8.99976 13.5C8.72361 13.5 8.49976 13.2761 8.49976 13H6.99976ZM12.9998 13C12.9998 14.1046 13.8952 15 14.9998 15C16.1043 15 16.9998 14.1046 16.9998 13H15.4998C15.4998 13.2761 15.2759 13.5 14.9998 13.5C14.7236 13.5 14.4998 13.2761 14.4998 13H12.9998Z" fill="#151516" fill-rule="evenodd"/>
</svg>
