<?xml version="1.0" encoding="UTF-8"?>
<!DOCTYPE svg
PUBLIC "-//W3C//DTD SVG 1.1//EN"
       "http://www.w3.org/Graphics/SVG/1.1/DTD/svg11.dtd">
<svg version="1.1" xmlns="http://www.w3.org/2000/svg" xmlns:xlink="http://www.w3.org/1999/xlink" viewBox="0 0 24 24">
 <path clip-rule="evenodd" d="M19.0366 13.6491H19.8845C22.1537 13.6491 23.9999 15.4953 23.9999 17.7646V19.8347H2.83897V18.4219H13.434L3.00346 11.5616C2.05546 10.9381 1.81548 9.65164 2.47491 8.72826L7.16167 2.16553L10.1969 4.15141C10.2023 4.16808 10.2094 4.19177 10.2182 4.22171C10.3429 4.64175 10.8323 6.29051 12.3933 7.00917C13.3766 7.42927 14.4364 7.20159 15.5384 6.69958C16.1168 6.43611 16.8153 6.70115 17.0088 7.30654L19.0366 13.6491ZM8.80669 11.0043C7.07733 9.972 5.86566 8.91283 5.01954 7.5961L3.87391 9.20031C3.54421 9.662 3.6642 10.3052 4.13819 10.617L11.6002 15.5248C11.7179 14.5041 11.499 12.5921 8.80669 11.0043ZM16.005 18.4219H22.5871L22.5872 17.7646C22.5872 16.2743 21.3748 15.0619 19.8846 15.0619H18.0051L17.6373 13.9114L15.988 14.4423L15.5551 13.0974L17.207 12.5657L16.7217 11.0478L14.918 11.6282L14.4853 10.2832L16.2915 9.70202L15.7909 8.1364C12.3594 9.63877 9.88899 7.56629 8.99779 5.05518L7.52316 4.09037L5.93357 6.31624C6.21363 6.94164 7.07314 8.34177 9.52434 9.7874C11.6531 10.9708 13.645 13.4426 12.8742 16.3627L16.005 18.4219ZM5.56629 15.0127H0V16.4255H5.56629V15.0127Z" fill="#151516" fill-rule="evenodd"/>
</svg>
