<?xml version="1.0" encoding="UTF-8"?>
<!DOCTYPE svg
PUBLIC "-//W3C//DTD SVG 1.1//EN"
       "http://www.w3.org/Graphics/SVG/1.1/DTD/svg11.dtd">
<svg version="1.1" xmlns="http://www.w3.org/2000/svg" xmlns:xlink="http://www.w3.org/1999/xlink" viewBox="0 0 24 24">
 <path clip-rule="evenodd" d="M11.8477 8.25H8.00002H7.75C7.33579 8.25 7 8.58579 7 9C7 9.32014 7.12722 9.62715 7.35364 9.85346L10.9529 13.4508C10.8465 13.5714 10.7467 13.6963 10.6539 13.8201C10.3923 14.1696 10.1566 14.5523 9.96121 14.8998C9.89491 15.0177 9.83256 15.1328 9.77473 15.2425L7.08045 14.37C6.83437 13.8659 6.11361 12.4204 5.50001 11.5C4.70554 10.3084 2.96438 9.43226 2.28214 9.12242C2.20006 9.06421 2.10487 9.02165 2 9.00001C1.59435 8.91632 1.19761 9.17731 1.11391 9.58297L0.25 14.7696V17.75H6.11628V16.25H1.75V15.5962H5.99787L12.649 17.75H23.9746L23.9027 16.9333L23.9025 16.9318L23.9021 16.9275L23.9008 16.9129L23.8956 16.8616C23.8911 16.8181 23.8843 16.7563 23.8749 16.6804C23.8562 16.5289 23.8269 16.3185 23.7844 16.0813C23.7031 15.6276 23.5605 14.9987 23.3139 14.5088C22.9046 13.6962 22.3139 13.1984 21.6214 12.9088C20.9615 12.6328 20.2352 12.5577 19.5695 12.5195C19.3542 12.5071 19.1438 12.4978 18.9382 12.4886C17.7852 12.4375 16.7808 12.3929 15.8854 11.8566C15.2089 11.4515 14.3287 10.6397 13.5817 9.87975C13.217 9.50867 12.8984 9.16502 12.6711 8.91412C12.5576 8.78882 12.4672 8.68704 12.4055 8.617C12.3746 8.58199 12.351 8.55494 12.3353 8.53688L12.3177 8.51667L12.3126 8.51074L12.3116 8.51209C12.0586 8.25 12.0586 8.25 11.8477 8.25ZM11.407 9.75173H9.49082L12.1647 12.5563C12.6515 12.3371 13.2093 12.1775 13.6957 12.0627C13.2728 11.6882 12.8645 11.2899 12.512 10.9312C12.1295 10.5422 11.7967 10.1831 11.5595 9.92127C11.5031 9.85905 11.4521 9.80224 11.407 9.75173ZM15.352 13.2763C15.3098 13.2824 15.2627 13.2894 15.2113 13.2973C14.9739 13.3337 14.648 13.3892 14.293 13.4657C13.5425 13.6274 12.8046 13.8543 12.4279 14.116C12.2669 14.2278 12.07 14.4315 11.8546 14.7192C11.6451 14.9991 11.4449 15.3217 11.2686 15.6351C11.2541 15.661 11.2397 15.6868 11.2256 15.7124L12.8859 16.25H22.2901C22.2139 15.8508 22.107 15.4473 21.9741 15.1835C21.7325 14.7037 21.419 14.45 21.0426 14.2926C20.6338 14.1216 20.1268 14.054 19.4834 14.017C19.3137 14.0072 19.1336 14.0003 18.9452 13.993C17.8776 13.9516 16.5454 13.8999 15.352 13.2763ZM2.44641 10.754L1.92056 14.0962H5.45846C5.17564 13.5473 4.83598 12.948 4.50001 12.5C3.75396 11.5053 3.00791 11.0053 2.44641 10.754Z" fill="#151516" fill-rule="evenodd"/>
</svg>
