<?xml version="1.0" encoding="UTF-8"?>
<!DOCTYPE svg
PUBLIC "-//W3C//DTD SVG 1.1//EN"
       "http://www.w3.org/Graphics/SVG/1.1/DTD/svg11.dtd">
<svg version="1.1" xmlns="http://www.w3.org/2000/svg" xmlns:xlink="http://www.w3.org/1999/xlink" viewBox="0 0 24 24">
 <path clip-rule="evenodd" d="M7 0.75H6.25V1.5V3.76657C6.17996 3.87019 6.08661 4.01097 5.97718 4.18241C5.73467 4.56234 5.41091 5.09644 5.0863 5.71319C4.45547 6.91176 3.74999 8.55269 3.75 10C3.75003 13.0539 4.13099 16.3457 4.50832 18.8613C4.69741 20.1219 4.88651 21.1935 5.02848 21.9507C5.09948 22.3294 5.15874 22.6297 5.20039 22.8359C5.22121 22.9391 5.23763 23.0187 5.24892 23.0729L5.26191 23.1348L5.26534 23.151L5.26627 23.1554L5.26652 23.1566L5.39368 23.75H6H16H16.4635L16.6708 23.3354L21.9472 12.7826C22.529 11.619 21.6829 10.25 20.382 10.25H16.75V4V1.5V0.75H16H7ZM15.25 3.25H7.75V2.25H15.25V3.25ZM7.39696 4.75H15.25V11V22.25H6.61319C6.58132 22.0877 6.54412 21.8947 6.50279 21.6743C6.36352 20.9315 6.17763 19.8781 5.99172 18.6387C5.61906 16.1543 5.25003 12.9461 5.25 9.99999C5.24999 8.94731 5.7945 7.58824 6.41368 6.41181C6.71407 5.84106 7.01532 5.34391 7.24156 4.98947C7.29871 4.89993 7.35093 4.81973 7.39696 4.75ZM20.6056 12.1118L16.75 19.823V11.75H20.382C20.5678 11.75 20.6887 11.9456 20.6056 12.1118ZM7.5 7.25H6.75V8V12V12.5406L7.26283 12.7115L9.9466 13.6061C10.3058 13.7258 10.6942 13.7258 11.0534 13.6061L13.7372 12.7115L14.25 12.5406V12V8V7.25H13.5H7.5ZM8.25 11.4594V8.75H12.75V11.4594L10.5791 12.1831C10.5277 12.2002 10.4723 12.2002 10.4209 12.1831L8.25 11.4594Z" fill="#151516" fill-rule="evenodd"/>
</svg>
