<?xml version="1.0" encoding="UTF-8"?>
<!DOCTYPE svg
PUBLIC "-//W3C//DTD SVG 1.1//EN"
       "http://www.w3.org/Graphics/SVG/1.1/DTD/svg11.dtd">
<svg version="1.1" xmlns="http://www.w3.org/2000/svg" xmlns:xlink="http://www.w3.org/1999/xlink" viewBox="0 0 24 24">
 <path clip-rule="evenodd" d="M11.7126 0.848516C11.8069 0.910599 11.8953 0.972809 11.9761 1.03231C12.0569 0.972809 12.1453 0.910599 12.2396 0.848516C12.4621 0.702045 12.7325 0.546337 13.025 0.430658C13.3116 0.317311 13.6661 0.223604 14.0404 0.252293C14.4864 0.286486 14.9307 0.490281 15.2924 0.697814C15.6716 0.915397 16.0459 1.18811 16.3686 1.44553C16.6937 1.70484 16.9802 1.95968 17.1848 2.14892C17.2875 2.24388 17.3704 2.32315 17.4283 2.37929C17.4573 2.40738 17.48 2.42973 17.4959 2.44542L17.5144 2.46386L17.5197 2.46913L17.5213 2.47073L17.522 2.47148L17.8695 2.82146L17.6862 3.27906L15.6827 8.27906L15.5994 8.48703L16.5372 9.48693L16.538 9.48777L16.5394 9.48926L16.5439 9.49413L16.5598 9.51125C16.5733 9.52588 16.5925 9.54687 16.6168 9.57367C16.6654 9.62724 16.7342 9.70418 16.8176 9.8001C16.9839 9.99147 17.21 10.2607 17.4491 10.5721C17.9069 11.1683 18.4875 12.014 18.7163 12.7873C19.2197 14.4896 18.8548 16.537 18.3521 18.2152C18.011 19.3537 17.5864 20.3864 17.2487 21.1319C17.0794 21.5056 16.9309 21.8095 16.8241 22.0213C16.7707 22.1272 16.7276 22.2101 16.6975 22.2674C16.692 22.2778 16.687 22.2873 16.6824 22.2959C16.6743 22.3112 16.6676 22.3238 16.6623 22.3337L16.6525 22.3518L16.6497 22.3569L16.6489 22.3585L16.6484 22.3594L16.4351 22.75H15.9901H7.96231H7.51775L7.30436 22.36L7.30323 22.3579L7.30102 22.3539L7.29343 22.3398L7.26609 22.2886C7.24268 22.2444 7.20917 22.1804 7.16729 22.0984C7.08356 21.9345 6.96618 21.6984 6.82901 21.4047C6.55514 20.8184 6.2 19.9978 5.87617 19.0613C5.24439 17.2344 4.66729 14.7899 5.23392 12.7951C5.35074 12.3838 5.62627 11.8433 5.92422 11.3174C6.23359 10.7713 6.60762 10.1717 6.96542 9.61954C7.32406 9.06604 7.67076 8.55337 7.9275 8.17947C7.99857 8.07598 8.06282 7.983 8.11863 7.90259L6.266 3.27906L6.08264 2.82146L6.42999 2.47164L6.4309 2.47073L6.4325 2.46913L6.43776 2.46386L6.45632 2.44542C6.47218 2.42973 6.49492 2.40738 6.52387 2.37929C6.58175 2.32315 6.66469 2.24388 6.76736 2.14892C6.97196 1.95968 7.25847 1.70484 7.58357 1.44553C7.90631 1.18811 8.28061 0.915397 8.65982 0.697814C9.02152 0.490281 9.46576 0.286486 9.91182 0.252293C10.2861 0.223604 10.6406 0.317311 10.9271 0.430658C11.2196 0.546337 11.4901 0.702045 11.7126 0.848516ZM9.3563 8.7501C9.30059 8.83034 9.23591 8.92391 9.16405 9.02856C8.91227 9.39523 8.57348 9.89625 8.22426 10.4352C7.8742 10.9755 7.518 11.5472 7.22935 12.0567C6.92928 12.5864 6.73901 12.986 6.67684 13.2049C6.24651 14.72 6.67288 16.7755 7.2938 18.5711C7.59633 19.4459 7.92985 20.2171 8.18805 20.7699C8.27548 20.9571 8.35399 21.1186 8.41938 21.25H15.5328C15.6265 21.0616 15.7471 20.8115 15.8823 20.513C16.1014 20.0293 16.3567 19.423 16.5974 18.75H13.9832H13.0218L13.2557 17.8175L13.5235 16.7501H11.4744H10.513L10.7469 15.8176L12.2521 9.81763L13.707 10.1826L12.4357 15.2501H13.8998L15.2627 9.8175L15.5916 8.50647L15.494 8.7501H14.9865H9.3563ZM15.4333 2.6182C15.6912 2.8239 15.9247 3.02893 16.1046 3.19336L14.4791 7.2501H9.47311L7.8476 3.19336C8.02748 3.02893 8.26102 2.8239 8.51891 2.6182C8.80976 2.38621 9.11813 2.16422 9.40633 1.99886C9.71204 1.82345 9.91995 1.75607 10.0265 1.7479C10.0891 1.74311 10.2039 1.75766 10.3755 1.82553C10.5412 1.89107 10.7179 1.98955 10.8879 2.10145C11.0557 2.21193 11.2026 2.32588 11.3079 2.4128C11.3601 2.45587 11.4008 2.49132 11.4276 2.51508C11.4409 2.52694 11.4507 2.53581 11.4566 2.54118L11.4622 2.54635L11.4629 2.54704L11.9761 3.03021L12.4892 2.54707L12.49 2.54635L12.4956 2.54118C12.5015 2.53581 12.5113 2.52694 12.5246 2.51508C12.5513 2.49132 12.5921 2.45587 12.6443 2.4128C12.7496 2.32588 12.8964 2.21193 13.0643 2.10145C13.2343 1.98955 13.411 1.89107 13.5767 1.82553C13.7483 1.75766 13.8631 1.74311 13.9257 1.7479C14.0322 1.75607 14.2401 1.82345 14.5459 1.99886C14.8341 2.16422 15.1424 2.38621 15.4333 2.6182ZM16.358 11.6158L14.9446 17.25H17.0659C17.4481 15.7989 17.6103 14.3369 17.2779 13.2127C17.1454 12.7649 16.7724 12.17 16.358 11.6158Z" fill="#151516" fill-rule="evenodd"/>
</svg>
