<?xml version="1.0" encoding="UTF-8"?>
<!DOCTYPE svg
PUBLIC "-//W3C//DTD SVG 1.1//EN"
       "http://www.w3.org/Graphics/SVG/1.1/DTD/svg11.dtd">
<svg version="1.1" xmlns="http://www.w3.org/2000/svg" xmlns:xlink="http://www.w3.org/1999/xlink" viewBox="0 0 24 24">
 <path clip-rule="evenodd" d="M6.75 3.61601V8.99996H5.25V2.2394C5.25 1.48788 6.14411 1.11423 6.68332 1.61478C7.03767 1.94373 7.7593 2.5679 8.30913 2.81663C8.81789 3.04678 9.71269 3.19933 10.024 3.24575C10.4363 3.30724 10.75 3.6612 10.75 4.08756V8.99996H9.25V4.63429C8.78927 4.54476 8.16221 4.39651 7.69087 4.18329C7.37748 4.04152 7.05133 3.83447 6.75 3.61601ZM20.5 14V19.5H15.5V14C15.5 12.6192 16.6193 11.5 18 11.5C19.3807 11.5 20.5 12.6192 20.5 14ZM14 14C14 11.7908 15.7909 9.99996 18 9.99996C20.2091 9.99996 22 11.7908 22 14V19.5V21H20.5H15.5H14V19.5V14ZM5.5 13.5H10.5V19C10.5 19.2761 10.2761 19.5 10 19.5H6C5.72386 19.5 5.5 19.2761 5.5 19V13.5ZM4 12H5.5H10.5H12V13.5V19C12 20.1045 11.1046 21 10 21H6C4.89543 21 4 20.1045 4 19V13.5V12ZM4 11.25H12V9.74996H4V11.25Z" fill="#151516" fill-rule="evenodd"/>
</svg>
