<?xml version="1.0" encoding="UTF-8"?>
<!DOCTYPE svg
PUBLIC "-//W3C//DTD SVG 1.1//EN"
       "http://www.w3.org/Graphics/SVG/1.1/DTD/svg11.dtd">
<svg version="1.1" xmlns="http://www.w3.org/2000/svg" xmlns:xlink="http://www.w3.org/1999/xlink" viewBox="0 0 24 24">
 <path clip-rule="evenodd" d="M16.25 1V5.93793L15.2602 11.8767L15.201 12.232L15.4413 12.5003L15.4426 12.5018L15.4443 12.5037L15.4488 12.5086L15.4617 12.5227C15.4721 12.5338 15.4861 12.5486 15.5035 12.5664C15.5381 12.6019 15.5866 12.65 15.6475 12.7065C15.7686 12.8187 15.9429 12.9675 16.1595 13.1171C16.5785 13.4065 17.2294 13.75 18 13.75C18.7706 13.75 19.4215 13.4065 19.8405 13.1171C20.0571 12.9675 20.2314 12.8187 20.3525 12.7065C20.4134 12.65 20.4619 12.6019 20.4965 12.5664C20.5139 12.5486 20.5279 12.5338 20.5383 12.5227L20.5512 12.5086L20.5557 12.5037L20.5574 12.5018L20.5581 12.501L20.799 12.232L20.7398 11.8767L19.75 5.93793V1H18.25V5.25H17.75V1H16.25ZM16.8058 11.7272L17.6353 6.75H18.3647L19.1942 11.7272C19.1339 11.7767 19.0647 11.8299 18.988 11.8829C18.683 12.0935 18.334 12.25 18 12.25C17.666 12.25 17.317 12.0935 17.012 11.8829C16.9353 11.8299 16.8661 11.7767 16.8058 11.7272ZM8.5 3.75C7.5335 3.75 6.75 4.5335 6.75 5.5V12.0909C6.75 12.1788 6.82123 12.25 6.90909 12.25H10.0909C10.1788 12.25 10.25 12.1788 10.25 12.0909V5.5C10.25 4.5335 9.4665 3.75 8.5 3.75ZM5.25 5.5C5.25 3.70507 6.70507 2.25 8.5 2.25C10.2949 2.25 11.75 3.70507 11.75 5.5V6.06251C13.1143 7.06339 14 8.67828 14 10.5V20.5V22H12.5H4.5H3V20.5V10.5C3 8.67828 3.88571 7.06339 5.25 6.06251V5.5ZM11.75 12.0909V8.16767C12.222 8.82423 12.5 9.62967 12.5 10.5V20.5H4.5V10.5C4.5 9.62967 4.77798 8.82423 5.25 8.16767V12.0909C5.25 13.0072 5.9928 13.75 6.90909 13.75H10.0909C11.0072 13.75 11.75 13.0072 11.75 12.0909Z" fill="#151516" fill-rule="evenodd"/>
</svg>
