<?xml version="1.0" encoding="UTF-8"?>
<!DOCTYPE svg
PUBLIC "-//W3C//DTD SVG 1.1//EN"
       "http://www.w3.org/Graphics/SVG/1.1/DTD/svg11.dtd">
<svg version="1.1" xmlns="http://www.w3.org/2000/svg" xmlns:xlink="http://www.w3.org/1999/xlink" viewBox="0 0 24 24">
 <path d="M10.4787 7.62157C10.0422 8.20359 9.75 9.04202 9.75 10H8.25C8.25 8.74884 8.62941 7.58727 9.27868 6.72157C9.92812 5.85565 10.8826 5.25 12 5.25V6.75C11.4606 6.75 10.915 7.03978 10.4787 7.62157Z" fill="#151516"/>
 <path clip-rule="evenodd" d="M12.75 17.9546C16.2633 17.5269 19 14.1287 19 10C19 8.067 18.4001 6.29413 17.4015 4.91126C17.2671 4.72504 17.1254 4.54589 16.9769 4.37438C15.7081 2.90832 13.9469 2 12 2C8.13401 2 5 5.58172 5 10C5 11.933 5.59987 13.7059 6.59846 15.0887C6.73293 15.275 6.87463 15.4541 7.02307 15.6256C8.12678 16.9009 9.60306 17.7541 11.25 17.9546V23H12.75V17.9546ZM17.5 10C17.5 13.7843 14.8557 16.5 12 16.5C9.14431 16.5 6.5 13.7843 6.5 10C6.5 6.21574 9.14431 3.5 12 3.5C14.8557 3.5 17.5 6.21574 17.5 10Z" fill="#151516" fill-rule="evenodd"/>
</svg>
