<?xml version="1.0" encoding="UTF-8"?>
<!DOCTYPE svg
PUBLIC "-//W3C//DTD SVG 1.1//EN"
       "http://www.w3.org/Graphics/SVG/1.1/DTD/svg11.dtd">
<svg version="1.1" xmlns="http://www.w3.org/2000/svg" xmlns:xlink="http://www.w3.org/1999/xlink" viewBox="0 0 24 24">
 <path clip-rule="evenodd" d="M12.2818 2.30495C12.1011 2.23168 11.8989 2.23168 11.7182 2.30495L1.71822 6.359C1.43519 6.47374 1.25 6.74865 1.25 7.05405V9.5V10.25H2.75V9.5V7.55929L12 3.80929L21.25 7.55929V9.5V10.25H22.75V9.5V7.05405C22.75 6.74865 22.5648 6.47374 22.2818 6.359L12.2818 2.30495ZM9.60023 8.25C8.1176 8.25 6.82291 9.25341 6.45301 10.6892L5.96216 12.5943L5.92388 12.7429H17.5787L17.541 12.605L17.0047 10.643C16.6184 9.22999 15.3346 8.25 13.8697 8.25H9.60023ZM4.5096 12.2201L4.3749 12.7429H4.06445C3.09796 12.7429 2.31445 13.5264 2.31445 14.4929V18.1715V18.9215V19.6715V20.0929C2.31445 21.0594 3.09796 21.8429 4.06445 21.8429H4.23588C5.20238 21.8429 5.98588 21.0594 5.98588 20.0929V19.6715H17.5145V20.0929C17.5145 21.0594 18.298 21.8429 19.2645 21.8429H19.4359C20.4024 21.8429 21.1859 21.0594 21.1859 20.0929V19.6715V18.9215V18.1715V14.4929C21.1859 13.5264 20.4024 12.7429 19.4359 12.7429H19.1337L18.9879 12.2094L18.4516 10.2475C17.887 8.18229 16.0107 6.75 13.8697 6.75H9.60023C7.43331 6.75 5.54107 8.21652 5.00044 10.3149L4.5096 12.2201ZM17.5145 18.1715H18.2645L19.6859 18.1715V14.4929C19.6859 14.3548 19.574 14.2429 19.4359 14.2429H4.06445C3.92638 14.2429 3.81445 14.3548 3.81445 14.4929V18.1715L5.23588 18.1715H5.98588H17.5145ZM19.0145 19.6715V20.0929C19.0145 20.231 19.1264 20.3429 19.2645 20.3429H19.4359C19.574 20.3429 19.6859 20.231 19.6859 20.0929V19.6715H19.0145ZM3.81445 19.6715H4.48588V20.0929C4.48588 20.231 4.37395 20.3429 4.23588 20.3429H4.06445C3.92638 20.3429 3.81445 20.231 3.81445 20.0929V19.6715Z" fill="#151516" fill-rule="evenodd"/>
</svg>
