<?xml version="1.0" encoding="UTF-8"?>
<!DOCTYPE svg
PUBLIC "-//W3C//DTD SVG 1.1//EN"
       "http://www.w3.org/Graphics/SVG/1.1/DTD/svg11.dtd">
<svg version="1.1" xmlns="http://www.w3.org/2000/svg" xmlns:xlink="http://www.w3.org/1999/xlink" viewBox="0 0 24 24">
 <path clip-rule="evenodd" d="M12.4514 2.42133C12.1849 2.19289 11.7917 2.19289 11.5251 2.42133L2.48828 10.1672V12.0418L4.87175 9.99884V19.3297C4.87175 19.7227 5.19037 20.0413 5.58341 20.0413H9.14167H14.8349H18.3932C18.7862 20.0413 19.1048 19.7227 19.1048 19.3297V9.99884L21.4883 12.0418V10.1672L12.4514 2.42133ZM14.8349 18.618H17.6815V8.77886L11.9883 3.89895L6.29506 8.77886V18.618H9.14167V14.3481C9.14167 13.824 9.56649 13.3992 10.0905 13.3992H13.886C14.4101 13.3992 14.8349 13.824 14.8349 14.3481V18.618ZM10.565 18.618H13.4116V14.8225H10.565V18.618Z" fill="#151516" fill-rule="evenodd"/>
</svg>
