<?xml version="1.0" encoding="UTF-8"?>
<!DOCTYPE svg
PUBLIC "-//W3C//DTD SVG 1.1//EN"
       "http://www.w3.org/Graphics/SVG/1.1/DTD/svg11.dtd">
<svg version="1.1" xmlns="http://www.w3.org/2000/svg" xmlns:xlink="http://www.w3.org/1999/xlink" viewBox="0 0 24 24">
 <path clip-rule="evenodd" d="M14.3317 3.33178C14.6302 2.13592 15.7116 1.25 16.9999 1.25H17.7499C19.6829 1.25 21.2499 2.817 21.2499 4.75V11.7954C22.1082 11.9856 22.75 12.7512 22.75 13.6667C22.75 16.6365 20.7836 19.147 18.0817 19.9671L18.8926 22H17.196L16.5524 20.2389C16.4248 20.2463 16.2962 20.25 16.1667 20.25H8.63936L7.99978 22H6.30322L7.02106 20.2004C3.76842 19.8002 1.25 17.0275 1.25 13.6667C1.25 12.6081 2.10812 11.75 3.16667 11.75H19.7499V4.75C19.7499 3.64543 18.8545 2.75 17.7499 2.75H16.9999C16.5264 2.75 16.1144 3.01328 15.9023 3.40144C16.9779 3.77486 17.75 4.79726 17.75 6V6.8C17.75 7.32467 17.3247 7.75 16.8 7.75H13.2C12.6753 7.75 12.25 7.32467 12.25 6.8V6C12.25 4.71172 13.1359 3.63034 14.3317 3.33178ZM3.16667 13.25H12.2499V16.25H18.7499V13.25H20.8333C21.0635 13.25 21.25 13.4365 21.25 13.6667C21.25 16.4741 18.9741 18.75 16.1667 18.75H7.83333C5.02589 18.75 2.75 16.4741 2.75 13.6667C2.75 13.4365 2.93655 13.25 3.16667 13.25ZM13.7499 13.25H17.2499V14.75H13.7499V13.25ZM13.75 6C13.75 5.30964 14.3096 4.75 15 4.75C15.6904 4.75 16.25 5.30964 16.25 6V6.25H13.75V6Z" fill="#151516" fill-rule="evenodd"/>
</svg>
