<?xml version="1.0" encoding="UTF-8"?>
<!DOCTYPE svg
PUBLIC "-//W3C//DTD SVG 1.1//EN"
       "http://www.w3.org/Graphics/SVG/1.1/DTD/svg11.dtd">
<svg version="1.1" xmlns="http://www.w3.org/2000/svg" xmlns:xlink="http://www.w3.org/1999/xlink" viewBox="0 0 24 24">
 <path clip-rule="evenodd" d="M3.64318 1.33496C3.41156 1.33496 3.19293 1.44198 3.05085 1.62491C2.90878 1.80784 2.85919 2.04616 2.91652 2.27058L3.5412 4.71613C3.57792 4.8599 3.65646 4.98954 3.76689 5.08866L6.24253 7.31069V18.0817H3.08496C2.67075 18.0817 2.33496 18.4175 2.33496 18.8317V20.2272C2.33496 21.7205 3.54549 22.931 5.03874 22.931C6.532 22.931 7.74253 21.7205 7.74253 20.2272V19.5817H10.9266C11.1225 21.0491 12.3791 22.181 13.9001 22.181H16.2184C15.8438 21.7623 15.5729 21.2489 15.4462 20.681H13.9001C13.0717 20.681 12.4001 20.0095 12.4001 19.181V12.75H13.436C14.6786 12.75 15.8146 12.0479 16.3703 10.9365C16.5089 10.6593 16.7174 10.4231 16.9752 10.2513L18.3317 9.34693V16.6205C16.6625 16.8108 15.3659 18.228 15.3659 19.9481C15.3659 21.7979 16.8655 23.2974 18.7153 23.2974C20.565 23.2974 22.0646 21.7979 22.0646 19.9481C22.0646 18.4898 21.1326 17.2491 19.8317 16.7893V8.55076C19.8317 8.35347 19.8031 8.16284 19.7499 7.9828C19.7469 7.84526 19.706 7.70692 19.624 7.58397C19.5853 7.52583 19.5398 7.47485 19.4893 7.43137C19.1298 6.90002 18.5215 6.55076 17.8317 6.55076H16.9001C13.5864 6.55076 10.9001 9.23705 10.9001 12.5508V18.0817H7.74253V7.31069L10.2182 5.08866C10.3286 4.98954 10.4071 4.8599 10.4439 4.71613L11.0685 2.27058C11.1259 2.04616 11.0763 1.80784 10.9342 1.62491C10.7921 1.44198 10.5735 1.33496 10.3419 1.33496H3.64318ZM9.04685 4.12439L6.99253 5.96827L4.93821 4.12439L4.60884 2.83496H9.37621L9.04685 4.12439ZM3.83496 19.5817H6.24253V20.2272C6.24253 20.8921 5.70358 21.431 5.03874 21.431C4.37391 21.431 3.83496 20.8921 3.83496 20.2272V19.5817ZM17.5718 8.05076H16.9001C14.8671 8.05076 13.149 9.39892 12.591 11.25H13.436C14.1104 11.25 14.727 10.8689 15.0286 10.2657C15.284 9.75504 15.6681 9.31987 16.1432 9.00318L17.5718 8.05076ZM18.7153 21.7974C19.7366 21.7974 20.5646 20.9695 20.5646 19.9481C20.5646 18.9267 19.7366 18.0987 18.7153 18.0987C17.6939 18.0987 16.8659 18.9267 16.8659 19.9481C16.8659 20.9695 17.6939 21.7974 18.7153 21.7974Z" fill="#151516" fill-rule="evenodd"/>
</svg>
