<?xml version="1.0" encoding="UTF-8"?>
<!DOCTYPE svg
PUBLIC "-//W3C//DTD SVG 1.1//EN"
       "http://www.w3.org/Graphics/SVG/1.1/DTD/svg11.dtd">
<svg version="1.1" xmlns="http://www.w3.org/2000/svg" xmlns:xlink="http://www.w3.org/1999/xlink" viewBox="0 0 24 24">
 <path clip-rule="evenodd" d="M17 3.5H5C4.72386 3.5 4.5 3.72386 4.5 4V7C4.5 7.27614 4.72386 7.5 5 7.5H17C17.2761 7.5 17.5 7.27614 17.5 7V4C17.5 3.72386 17.2761 3.5 17 3.5ZM5 2C3.89543 2 3 2.89543 3 4V7C3 8.10457 3.89543 9 5 9H17C18.1046 9 19 8.10457 19 7V6.25H19.25V10.25H12H11.25V11V13H12.75V11.75H19.5C20.1904 11.75 20.75 11.1904 20.75 10.5V6C20.75 5.30964 20.1904 4.75 19.5 4.75H19V4C19 2.89543 18.1046 2 17 2H5ZM11.5 20V15.5H12.5V20C12.5 20.2761 12.2761 20.5 12 20.5C11.7239 20.5 11.5 20.2761 11.5 20ZM10 14H11.5H12.5H14V15.5V20C14 21.1046 13.1046 22 12 22C10.8954 22 10 21.1046 10 20V15.5V14Z" fill="#151516" fill-rule="evenodd"/>
</svg>
