<?xml version="1.0" encoding="UTF-8"?>
<!DOCTYPE svg
PUBLIC "-//W3C//DTD SVG 1.1//EN"
       "http://www.w3.org/Graphics/SVG/1.1/DTD/svg11.dtd">
<svg version="1.1" xmlns="http://www.w3.org/2000/svg" xmlns:xlink="http://www.w3.org/1999/xlink" viewBox="0 0 24 24">
 <path clip-rule="evenodd" d="M1.55727 7.6113L0.99707 8.1715L1.58709 8.70019L8.50066 14.8952L4.51198 18.8839C3.59209 19.8038 3.96186 21.3701 5.19602 21.7815C5.82485 21.9911 6.51815 21.8274 6.98685 21.3587L7.25694 21.0887L11.1112 17.2344L15.1937 20.8926L15.7225 21.3664L16.2245 20.8644L20.1136 16.9753L20.6157 16.4732L20.1419 15.9444L16.4837 11.8619L21.0455 7.30007C21.7289 6.61665 21.7289 5.50861 21.0455 4.8252L19.6313 3.41098C18.5574 2.33704 16.8162 2.33704 15.7422 3.41098L15.3887 3.76454L13.2674 5.88586L12.5602 6.59296C12.4148 6.73836 12.2891 6.89599 12.1831 7.06253L7.94946 2.33782L7.42077 1.7478L6.86057 2.308L1.55727 7.6113ZM11.7728 8.8523L7.36103 3.92886L3.17812 8.11176L9.56291 13.8329L12.737 10.6588L12.5602 10.4821C12.1035 10.0253 11.841 9.44781 11.7728 8.8523ZM15.4214 12.9242L12.1734 16.1721L15.6659 19.3016L18.5509 16.4167L15.4214 12.9242ZM19.053 22.2786L21.5278 19.8037L20.4672 18.743L17.9923 21.2179L19.053 22.2786ZM18.5707 5.88586L16.9973 4.31255C17.4827 3.991 18.143 4.04403 18.5707 4.47164L19.9849 5.88586C20.0825 5.98349 20.0825 6.14178 19.9849 6.23941L6.19628 20.028L5.92619 20.2981C5.85923 20.365 5.76019 20.3884 5.67036 20.3585C5.49405 20.2997 5.44123 20.0759 5.57264 19.9445L14.328 11.1892L14.8583 10.6588L14.328 10.1285L13.6209 9.42139C13.1327 8.93324 13.1327 8.14178 13.6209 7.65362L14.328 6.94652L15.919 5.35553L17.51 6.94652L18.5707 5.88586Z" fill="#151516" fill-rule="evenodd"/>
</svg>
