<?xml version="1.0" encoding="UTF-8"?>
<!DOCTYPE svg
PUBLIC "-//W3C//DTD SVG 1.1//EN"
       "http://www.w3.org/Graphics/SVG/1.1/DTD/svg11.dtd">
<svg version="1.1" xmlns="http://www.w3.org/2000/svg" xmlns:xlink="http://www.w3.org/1999/xlink" viewBox="0 0 24 24">
 <path clip-rule="evenodd" d="M7.21229 2.75C7.19916 3.15269 6.86858 3.4751 6.4627 3.4751H5.5V4.25H6.5C6.91421 4.25 7.25 4.58579 7.25 5V5.9862C7.25045 6.01211 7.24955 6.03826 7.24726 6.06458C7.24564 6.08361 7.2433 6.10244 7.24028 6.12104L6.97887 7.8928L8.91284 5.53332C8.93182 5.50948 8.95221 5.48682 8.9739 5.46547C9.02178 5.41824 9.07479 5.37861 9.13128 5.34674C9.24017 5.28515 9.36598 5.25 9.5 5.25H10.5C10.9142 5.25 11.25 5.58579 11.25 6V8.2206C11.25 8.58226 10.994 8.88413 10.6533 8.95491C8.77778 10.0372 7.54999 12.0602 7.54999 14.3288V15.2001H17.2V14.3288C17.2 11.9217 15.8177 9.79119 13.7461 8.76741V7.1323L13.75 7.13379V4C13.75 3.30964 13.1904 2.75 12.5 2.75H7.21229ZM15.25 7.90539C17.3499 9.29701 18.7 11.6778 18.7 14.3288V21.0001C18.7 22.1047 17.8046 23.0001 16.7 23.0001H8.04999C6.94542 23.0001 6.04999 22.1047 6.04999 21.0001V14.3288C6.04999 11.5741 7.5078 9.11102 9.75 7.74655V6.87819L7.58006 9.52556C7.43761 9.69936 7.22473 9.80012 7.00001 9.80012H6.05C5.83198 9.80012 5.62475 9.70525 5.48228 9.54022C5.33982 9.37519 5.27621 9.15633 5.30803 8.94065L5.75 5.94513V5.75H4.75C4.33579 5.75 4 5.41421 4 5V2.7251C4 2.31088 4.33579 1.9751 4.75 1.9751H5.75041C5.76354 1.57241 6.09412 1.25 6.5 1.25H12.5C14.0188 1.25 15.25 2.48122 15.25 4V7.90539ZM7.54999 16.7001V21.0001C7.54999 21.2763 7.77385 21.5001 8.04999 21.5001H16.7C16.9761 21.5001 17.2 21.2763 17.2 21.0001V16.7001H7.54999Z" fill="#151516" fill-rule="evenodd"/>
</svg>
