<?xml version="1.0" encoding="UTF-8"?>
<!DOCTYPE svg
PUBLIC "-//W3C//DTD SVG 1.1//EN"
       "http://www.w3.org/Graphics/SVG/1.1/DTD/svg11.dtd">
<svg version="1.1" xmlns="http://www.w3.org/2000/svg" xmlns:xlink="http://www.w3.org/1999/xlink" viewBox="0 0 24 24">
 <path clip-rule="evenodd" d="M9.57324 20.6923C9.22506 19.8111 9 18.6735 9 17.2727C9 14.7778 10.2494 12.0577 11.1356 10.4421C11.6227 9.55428 12 9 12 9C12 9 12.3773 9.55428 12.8644 10.4421C13.7506 12.0577 15 14.7778 15 17.2727C15 18.6735 14.7749 19.8111 14.4268 20.6923C16.024 19.6416 17.5 17.5129 17.5 14C17.5 11.4548 15.9931 8.53271 14.2727 6.08419C13.4509 4.91469 12.6264 3.91684 12 3.20458C11.3736 3.91684 10.5491 4.91469 9.72732 6.08419C8.0069 8.53271 6.5 11.4548 6.5 14C6.5 17.5129 7.97598 19.6416 9.57324 20.6923ZM12 23C9 23 5 20.0751 5 14C5 9.38894 9.03264 4.28835 10.9763 2.09773C11.4116 1.60719 11.7421 1.26256 11.8991 1.10203C11.9647 1.03494 12 1 12 1C12 1 12.0353 1.03494 12.1009 1.10203C12.2579 1.26256 12.5884 1.60719 13.0237 2.09773C14.9674 4.28835 19 9.38894 19 14C19 20.0751 15 23 12 23ZM13.5 17.2727C13.5 18.9947 13.1172 20.1359 12.708 20.7946C12.3505 21.3701 12.0574 21.4761 12 21.4956C11.9426 21.4761 11.6495 21.3701 11.292 20.7946C10.8828 20.1359 10.5 18.9947 10.5 17.2727C10.5 15.6754 11.1357 13.8501 11.8559 12.3282C11.904 12.2266 11.9521 12.127 12 12.0297C12.0479 12.127 12.096 12.2266 12.1441 12.3282C12.8643 13.8501 13.5 15.6754 13.5 17.2727Z" fill="#151516" fill-rule="evenodd"/>
</svg>
