<?xml version="1.0" encoding="UTF-8"?>
<!DOCTYPE svg
PUBLIC "-//W3C//DTD SVG 1.1//EN"
       "http://www.w3.org/Graphics/SVG/1.1/DTD/svg11.dtd">
<svg version="1.1" xmlns="http://www.w3.org/2000/svg" xmlns:xlink="http://www.w3.org/1999/xlink" viewBox="0 0 24 24">
 <path clip-rule="evenodd" d="M3.5 5.3501H5C5.27614 5.3501 5.5 5.57396 5.5 5.8501V17.2501C5.5 17.9405 4.94036 18.5001 4.25 18.5001C3.55964 18.5001 3 17.9405 3 17.2501V5.8501C3 5.57396 3.22386 5.3501 3.5 5.3501ZM1.5 5.8501C1.5 4.74553 2.39543 3.8501 3.5 3.8501H5C6.10457 3.8501 7 4.74553 7 5.8501V17.2501C7 18.7689 5.76878 20.0001 4.25 20.0001C2.73122 20.0001 1.5 18.7689 1.5 17.2501V5.8501ZM9.5 5.3501H11C11.2761 5.3501 11.5 5.57396 11.5 5.8501V17.2501C11.5 17.9405 10.9404 18.5001 10.25 18.5001C9.55964 18.5001 9 17.9405 9 17.2501V5.8501C9 5.57396 9.22386 5.3501 9.5 5.3501ZM7.5 5.8501C7.5 4.74553 8.39543 3.8501 9.5 3.8501H11C12.1046 3.8501 13 4.74553 13 5.8501V17.2501C13 18.7689 11.7688 20.0001 10.25 20.0001C8.73122 20.0001 7.5 18.7689 7.5 17.2501V5.8501ZM17 5.3501H15.5C15.2239 5.3501 15 5.57396 15 5.8501V17.2501C15 17.9405 15.5596 18.5001 16.25 18.5001C16.9404 18.5001 17.5 17.9405 17.5 17.2501V5.8501C17.5 5.57396 17.2761 5.3501 17 5.3501ZM15.5 3.8501C14.3954 3.8501 13.5 4.74553 13.5 5.8501V17.2501C13.5 18.7689 14.7312 20.0001 16.25 20.0001C17.7688 20.0001 19 18.7689 19 17.2501V16.75H22H22.75V15.25H22H19V8.75H22H22.75V7.25H22H19V5.8501C19 4.74553 18.1046 3.8501 17 3.8501H15.5Z" fill="#151516" fill-rule="evenodd"/>
</svg>
