<?xml version="1.0" encoding="UTF-8"?>
<!DOCTYPE svg
PUBLIC "-//W3C//DTD SVG 1.1//EN"
       "http://www.w3.org/Graphics/SVG/1.1/DTD/svg11.dtd">
<svg version="1.1" xmlns="http://www.w3.org/2000/svg" xmlns:xlink="http://www.w3.org/1999/xlink" viewBox="0 0 24 24">
 <path clip-rule="evenodd" d="M2 2.25H1.25V3.75H2H12.35C13.0404 3.75 13.6 4.30964 13.6 5V5.85V6.6L13.6001 7.0001H10.3501V6.8001V6.6H10.361V5.1H9.61103H2H1.25V6.6H2H8.8501V6.8001V7.7501C8.8501 8.09648 9.08492 8.38802 9.40405 8.47422V11.3481V12.0981H10.9041V11.3481V8.5001H13.125V13.7579C13.0423 13.7526 12.959 13.75 12.875 13.75C11.1192 13.75 9.63474 14.9046 9.13667 16.4954C8.79 16.3379 8.40487 16.25 8 16.25C6.48122 16.25 5.25 17.4812 5.25 19C5.25 20.5188 6.48122 21.75 8 21.75C8.32434 21.75 8.63625 21.6936 8.92593 21.59C9.6822 22.3155 10.7588 22.75 11.925 22.75C13.0293 22.75 14.0503 22.361 14.7969 21.7064C15.0261 21.7351 15.261 21.75 15.5 21.75C16.6048 21.75 17.6363 21.4313 18.4108 20.8781C19.1839 20.3259 19.75 19.4954 19.75 18.5C19.75 17.5165 19.1971 16.6936 18.4384 16.1418C17.7713 15.6566 16.9091 15.3478 15.9726 15.2696C15.6141 14.807 15.1537 14.4264 14.625 14.1619V14V8.44813C14.9032 8.33848 15.1001 8.06728 15.1001 7.7501V5.8501V5.1001L15.1 5C15.1 3.48122 13.8688 2.25 12.35 2.25H2ZM3.3833 11.9458C3.3833 11.7042 3.57918 11.5083 3.8208 11.5083C4.06243 11.5083 4.2583 11.7042 4.2583 11.9458C4.2583 12.1874 4.06243 12.3833 3.8208 12.3833C3.57918 12.3833 3.3833 12.1874 3.3833 11.9458ZM3.8208 10.0083C2.75075 10.0083 1.8833 10.8757 1.8833 11.9458C1.8833 13.0159 2.75075 13.8833 3.8208 13.8833C4.89085 13.8833 5.7583 13.0159 5.7583 11.9458C5.7583 10.8757 4.89085 10.0083 3.8208 10.0083ZM19.1791 9.41683C19.4438 9.41683 19.6583 9.2023 19.6583 8.93766C19.6583 8.67303 19.4438 8.4585 19.1791 8.4585C18.9145 8.4585 18.7 8.67303 18.7 8.93766C18.7 9.2023 18.9145 9.41683 19.1791 9.41683ZM19.1791 10.9168C20.2722 10.9168 21.1583 10.0307 21.1583 8.93766C21.1583 7.8446 20.2722 6.9585 19.1791 6.9585C18.0861 6.9585 17.2 7.8446 17.2 8.93766C17.2 10.0307 18.0861 10.9168 19.1791 10.9168ZM10.5173 17.1329C10.76 16.0548 11.7244 15.25 12.875 15.25C13.7423 15.25 14.5036 15.7064 14.9309 16.3956L15.1474 16.7448L15.5581 16.7504C16.3723 16.7615 17.0753 17.0052 17.5561 17.3549C18.0378 17.7052 18.25 18.1191 18.25 18.5C18.25 18.8853 18.0326 19.3048 17.539 19.6575C17.0467 20.0091 16.3282 20.25 15.5 20.25C15.2182 20.25 14.9474 20.222 14.693 20.1706L14.2769 20.0864L13.9906 20.3998C13.5327 20.9011 12.7911 21.25 11.925 21.25C10.9564 21.25 10.1482 20.8148 9.71293 20.2215L9.28872 19.6433L8.69211 20.0412C8.49428 20.1731 8.25726 20.25 8 20.25C7.30964 20.25 6.75 19.6904 6.75 19C6.75 18.3096 7.30964 17.75 8 17.75C8.299 17.75 8.57167 17.854 8.78674 18.0286L9.34902 18.4848L9.82475 17.9389C9.9392 17.8076 10.073 17.6856 10.2243 17.5765L10.4549 17.4102L10.5173 17.1329Z" fill="#151516" fill-rule="evenodd"/>
</svg>
