<?xml version="1.0" encoding="UTF-8"?>
<!DOCTYPE svg
PUBLIC "-//W3C//DTD SVG 1.1//EN"
       "http://www.w3.org/Graphics/SVG/1.1/DTD/svg11.dtd">
<svg version="1.1" xmlns="http://www.w3.org/2000/svg" xmlns:xlink="http://www.w3.org/1999/xlink" viewBox="0 0 24 24">
 <path clip-rule="evenodd" d="M4.7502 8.00001C4.7502 7.16486 5.0045 6.55428 5.40124 6.08466C5.80962 5.60126 6.40559 5.22525 7.14346 4.94263C8.63354 4.37189 10.5177 4.25 12.0002 4.25C13.4986 4.25 15.3778 4.33128 16.8651 4.88127C17.5993 5.15279 18.1904 5.52199 18.596 6.00849C18.9908 6.48199 19.2502 7.11382 19.2502 8.00001C19.2502 9.14676 19.0215 9.91783 18.8148 10.3829C18.782 10.4568 18.7495 10.5234 18.7184 10.5829C18.2594 10.3705 17.7425 10.25 17.1848 10.25C16.3875 10.25 15.6954 10.7996 15.5148 11.5762L14.9379 14.0566C14.9116 14.1699 14.8107 14.25 14.6944 14.25H9.24333C9.12759 14.25 9.02698 14.1706 9.00014 14.058L8.41286 11.5942C8.2248 10.8053 7.51899 10.25 6.70963 10.25C6.188 10.25 5.69956 10.3531 5.25861 10.5373C5.23473 10.4899 5.21025 10.4385 5.18556 10.3829C4.97884 9.9178 4.7502 9.14673 4.7502 8.00001ZM4.0135 11.3901C3.94858 11.2741 3.88132 11.1417 3.81484 10.9921C3.52155 10.3322 3.2502 9.35329 3.2502 8.00001C3.2502 6.8248 3.62089 5.86771 4.2554 5.11664C4.87827 4.37935 5.71981 3.88165 6.60693 3.54186C8.36685 2.86777 10.4827 2.75 12.0002 2.75C13.5018 2.75 15.6226 2.82249 17.3853 3.47439C18.2761 3.80382 19.1225 4.29759 19.7481 5.04789C20.3845 5.81118 20.7502 6.78997 20.7502 8.00001C20.7502 9.35332 20.4788 10.3322 20.1856 10.9921C20.0985 11.188 20.0101 11.3545 19.9273 11.4931C20.8638 12.5693 21.1626 14.1736 20.4023 15.604L18.9415 18.352L18.73 18.75H18.2793H18.2502V20.5H16.7502V18.75H6.7502V20.5H5.2502V18.75H4.77769L4.57597 18.3163L3.30397 15.5815C2.60528 14.0793 2.99331 12.4474 4.0135 11.3901ZM6.70963 11.75C5.06253 11.75 3.97127 13.4594 4.66405 14.9489L5.73433 17.25H17.8286L19.0777 14.9C19.8367 13.4721 18.8019 11.75 17.1848 11.75C17.085 11.75 16.9984 11.8188 16.9758 11.916L16.399 14.3964C16.2146 15.189 15.5082 15.75 14.6944 15.75H9.24333C8.43315 15.75 7.72889 15.1939 7.54103 14.4058L6.95374 11.942C6.92709 11.8302 6.8262 11.75 6.70963 11.75Z" fill="#151516" fill-rule="evenodd"/>
</svg>
