<?xml version="1.0" encoding="UTF-8"?>
<!DOCTYPE svg
PUBLIC "-//W3C//DTD SVG 1.1//EN"
       "http://www.w3.org/Graphics/SVG/1.1/DTD/svg11.dtd">
<svg version="1.1" xmlns="http://www.w3.org/2000/svg" xmlns:xlink="http://www.w3.org/1999/xlink" viewBox="0 0 24 24">
 <path clip-rule="evenodd" d="M4.62404 1.084L4.20801 0.459961L2.95994 1.29201L3.37596 1.91605L6.09867 6.0001H4C2.34315 6.0001 1 7.34325 1 9.0001V18.0001C1 19.657 2.34315 21.0001 4 21.0001H20C21.6569 21.0001 23 19.657 23 18.0001V9.0001C23 7.34325 21.6569 6.0001 20 6.0001H7.90133L10.624 1.91605L11.0401 1.29201L9.79199 0.459961L9.37596 1.084L7 4.64794L4.62404 1.084ZM20 7.5001H4C3.17157 7.5001 2.5 8.17168 2.5 9.0001V18.0001C2.5 18.8285 3.17157 19.5001 4 19.5001H20C20.8284 19.5001 21.5 18.8285 21.5 18.0001V9.0001C21.5 8.17168 20.8284 7.5001 20 7.5001ZM13.2462 13.5001L11.5 14.6343V12.3659L13.2462 13.5001ZM11.5 10.5773L15.3544 13.0808C15.658 13.2779 15.658 13.7223 15.3544 13.9194L11.5 16.4229L11.4987 16.4238L11.4179 16.4762L10.7724 16.8956C10.4397 17.1116 10 16.8729 10 16.4762V15.7064V15.6101V15.6086V11.3916V11.3901V11.2938V10.524C10 10.1273 10.4397 9.8886 10.7724 10.1046L11.4179 10.524L11.4987 10.5764L11.5 10.5773Z" fill="#151516" fill-rule="evenodd"/>
</svg>
