<?xml version="1.0" encoding="UTF-8"?>
<!DOCTYPE svg
PUBLIC "-//W3C//DTD SVG 1.1//EN"
       "http://www.w3.org/Graphics/SVG/1.1/DTD/svg11.dtd">
<svg version="1.1" xmlns="http://www.w3.org/2000/svg" xmlns:xlink="http://www.w3.org/1999/xlink" viewBox="0 0 24 24">
 <path clip-rule="evenodd" d="M5.12173 4.75C5.56184 5.52271 6.00982 6.39571 6.33444 7.0468C6.71907 7.81824 6.90534 8.66388 6.90534 9.51263V18.2203C6.90534 18.3584 7.01727 18.4703 7.15534 18.4703H16.2588C16.3969 18.4703 16.5088 18.3584 16.5088 18.2203V4.75H5.12173ZM18.0088 4.75H18.0347C18.725 4.75 19.2846 5.30964 19.2846 6V10.4407H20.7847V6C20.7847 4.48122 19.5534 3.25 18.0347 3.25H4.73785C3.71338 3.25 3.1643 4.37803 3.64465 5.19252C4.11368 5.98779 4.62564 6.98121 4.99204 7.71609C5.26718 8.26795 5.40534 8.88273 5.40534 9.51263V18.2203C5.40534 19.1868 6.18884 19.9703 7.15534 19.9703H16.2588C17.2253 19.9703 18.0088 19.1868 18.0088 18.2203V4.75ZM14.6467 10.4576V17.1695H13.1467V10.4576H14.6467ZM20.0002 22.75H4.00017V21.25H20.0002V22.75Z" fill="#151516" fill-rule="evenodd"/>
</svg>
