<?xml version="1.0" encoding="UTF-8"?>
<!DOCTYPE svg
PUBLIC "-//W3C//DTD SVG 1.1//EN"
       "http://www.w3.org/Graphics/SVG/1.1/DTD/svg11.dtd">
<svg version="1.1" xmlns="http://www.w3.org/2000/svg" xmlns:xlink="http://www.w3.org/1999/xlink" viewBox="0 0 24 24">
 <path clip-rule="evenodd" d="M12.7502 3.25V0H11.2502V3.25H9.00022V4.75H15.0002V3.25H12.7502ZM12.0002 5.25C7.99585 5.25 5.30251 6.48477 3.51502 8.06821C1.74198 9.63886 0.917873 11.5008 0.547714 12.678C0.190479 13.8141 1.11102 14.75 2.133 14.75H7.00781C7.15194 17.119 9.33201 19 12.0002 19C14.6684 19 16.8485 17.119 16.9926 14.75H21.8674C22.8894 14.75 23.81 13.8141 23.4527 12.678C23.0826 11.5008 22.2585 9.63886 20.4854 8.06821C18.6979 6.48477 16.0046 5.25 12.0002 5.25ZM8.51303 14.75C8.65846 16.1719 10.0298 17.5 12.0002 17.5C13.9706 17.5 15.342 16.1719 15.4874 14.75H8.51303ZM1.97865 13.1279C2.2976 12.1135 3.00497 10.5239 4.50965 9.19102C5.99989 7.8709 8.33051 6.75 12.0002 6.75C15.6699 6.75 18.0006 7.8709 19.4908 9.19102C20.9955 10.5239 21.7028 12.1135 22.0218 13.1279C22.0296 13.1528 22.0275 13.1649 22.0268 13.1686C22.0257 13.1737 22.0229 13.1822 22.0139 13.1933C21.9954 13.2159 21.9489 13.25 21.8674 13.25H2.133C2.05154 13.25 2.00502 13.2159 1.98659 13.1933C1.97758 13.1822 1.9747 13.1737 1.97366 13.1685C1.97292 13.1649 1.97082 13.1528 1.97865 13.1279ZM4.49343 20.4471L6.67525 18.4471L7.68883 19.5529L5.50701 21.5529L4.49343 20.4471ZM18.4934 21.5529L16.3116 19.5529L17.3252 18.4471L19.507 20.4471L18.4934 21.5529ZM11.2502 24V21H12.7502V24H11.2502Z" fill="#151516" fill-rule="evenodd"/>
</svg>
