<?xml version="1.0" encoding="UTF-8"?>
<!DOCTYPE svg
PUBLIC "-//W3C//DTD SVG 1.1//EN"
       "http://www.w3.org/Graphics/SVG/1.1/DTD/svg11.dtd">
<svg version="1.1" xmlns="http://www.w3.org/2000/svg" xmlns:xlink="http://www.w3.org/1999/xlink" viewBox="0 0 24 24">
 <path clip-rule="evenodd" d="M21.7711 5.5C21.9198 5.97352 22 6.4774 22 7H20.5H10.7498V18.25H20.9998H21.7498V19V19.5C21.7498 21.0188 20.5186 22.25 18.9998 22.25H9.99985H3.75342C2.23464 22.25 1.00342 21.0188 1.00342 19.5V7H1V5.5V3.90909C1 2.85473 1.85473 2 2.90909 2H17C19.2388 2 21.134 3.47145 21.7711 5.5ZM2.50342 7H9.24985V19V20.75H3.75342C3.06306 20.75 2.50342 20.1904 2.50342 19.5V7ZM20.1632 5.5C19.6015 4.31753 18.3962 3.5 17 3.5H2.90909C2.68316 3.5 2.5 3.68316 2.5 3.90909V5.5H20.1632ZM10.7498 20.75V19.75H20.2248C20.109 20.3206 19.6046 20.75 18.9998 20.75H10.7498ZM4.25 10V19H5.75V10H4.25ZM11.9195 9.98459C12.0491 9.83578 12.2366 9.75 12.4342 9.75H19.9605C20.1581 9.75 20.3456 9.83578 20.4753 9.98459C20.6049 10.1333 20.6643 10.3307 20.639 10.5262L20.5885 10.9167H21.4079C22.427 10.9167 23.25 11.7486 23.25 12.7708C23.25 13.7669 22.5257 14.396 21.6901 14.6127L21.5069 14.6602L20.8166 13.4788L21.0965 13.3756C21.1456 13.3576 21.195 13.3403 21.2422 13.3237C21.4536 13.2496 21.6143 13.1907 21.7274 13.1037C21.8208 13.0318 21.8816 12.9414 21.8816 12.7708C21.8816 12.5044 21.6677 12.2917 21.4079 12.2917H20.4105L20.145 14.3423C20.0145 15.3506 19.518 16.0872 18.7974 16.5656C18.0843 17.0389 17.1673 17.25 16.1974 17.25C15.2274 17.25 14.3105 17.0389 13.5974 16.5656C12.8768 16.0872 12.3803 15.3506 12.2497 14.3423L11.7557 10.5262C11.7304 10.3307 11.7898 10.1333 11.9195 9.98459ZM13.2132 11.125L13.6067 14.165C13.6899 14.8076 13.9962 15.2221 14.4368 15.4851C14.8894 15.7553 15.5016 15.875 16.1974 15.875C16.8931 15.875 17.5053 15.7553 17.958 15.4851C18.3986 15.2221 18.7048 14.8076 18.788 14.165L19.1816 11.125H13.2132Z" fill="#151516" fill-rule="evenodd"/>
</svg>
