<?xml version="1.0" encoding="UTF-8"?>
<!DOCTYPE svg
PUBLIC "-//W3C//DTD SVG 1.1//EN"
       "http://www.w3.org/Graphics/SVG/1.1/DTD/svg11.dtd">
<svg version="1.1" xmlns="http://www.w3.org/2000/svg" xmlns:xlink="http://www.w3.org/1999/xlink" viewBox="0 0 24 24">
 <path clip-rule="evenodd" d="M11.6141 2.25C10.8571 2.25 10.1859 2.7368 9.95071 3.4564L9.23384 5.65H4C2.48122 5.65 1.25 6.88122 1.25 8.4V18C1.25 19.5188 2.48122 20.75 4 20.75H20C21.5188 20.75 22.75 19.5188 22.75 18V8.4C22.75 6.88122 21.5188 5.65 20 5.65H19.2106L18.4937 3.4564C18.2586 2.73679 17.5874 2.25 16.8303 2.25H11.6141ZM11.3765 3.92234C11.4101 3.81954 11.506 3.75 11.6141 3.75H16.8303C16.9385 3.75 17.0343 3.81954 17.0679 3.92234L17.9538 6.63297L18.1227 7.15H18.6667H20C20.6904 7.15 21.25 7.70964 21.25 8.4V18C21.25 18.6904 20.6904 19.25 20 19.25H4C3.93994 19.25 3.88088 19.2458 3.82308 19.2376L5.23744 17.8232C5.56563 17.495 5.75 17.0499 5.75 16.5858V9.48063C5.75 8.949 5.50834 8.44621 5.09322 8.1141L3.89366 7.15446C3.92872 7.15151 3.96418 7.15 4 7.15H9.77778H10.3217L10.4907 6.63297L11.3765 3.92234ZM2.76994 8.17642C2.75684 8.24896 2.75 8.32368 2.75 8.4V18C2.75 18.0601 2.75424 18.1191 2.76242 18.1769L4.17678 16.7626C4.22366 16.7157 4.25 16.6521 4.25 16.5858V9.48063C4.25 9.40468 4.21548 9.33285 4.15617 9.28541L2.76994 8.17642ZM4 4.75H8V3.25H4V4.75ZM14 16.5C15.933 16.5 17.5 14.933 17.5 13C17.5 11.067 15.933 9.5 14 9.5C12.067 9.5 10.5 11.067 10.5 13C10.5 14.933 12.067 16.5 14 16.5ZM14 18C16.7614 18 19 15.7614 19 13C19 10.2386 16.7614 8 14 8C11.2386 8 9 10.2386 9 13C9 15.7614 11.2386 18 14 18Z" fill="#151516" fill-rule="evenodd"/>
</svg>
