<?xml version="1.0" encoding="UTF-8"?>
<!DOCTYPE svg
PUBLIC "-//W3C//DTD SVG 1.1//EN"
       "http://www.w3.org/Graphics/SVG/1.1/DTD/svg11.dtd">
<svg version="1.1" xmlns="http://www.w3.org/2000/svg" xmlns:xlink="http://www.w3.org/1999/xlink" viewBox="0 0 24 24">
 <path clip-rule="evenodd" d="M8.69158 4.43492L7.90163 3.25H16.0989L15.3089 4.43492C14.9446 4.98134 14.7502 5.62336 14.7502 6.28007C14.7502 7.57946 15.2538 8.81031 16.0875 9.76832C16.9407 10.7487 18.0727 12.131 18.8642 13.3975C19.7275 14.7787 19.3744 16.559 18.4706 18.3409C17.5865 20.0841 16.2945 21.5827 15.7314 22.1939C15.7036 22.2241 15.6567 22.25 15.586 22.25H8.41446C8.34377 22.25 8.29687 22.2241 8.26908 22.1939C7.706 21.5827 6.41401 20.0841 5.52989 18.3409C4.62612 16.559 4.27301 14.7787 5.13625 13.3975C5.92779 12.131 7.05982 10.7487 7.91295 9.76832C8.74665 8.81031 9.25024 7.57946 9.25024 6.28007C9.25024 5.62336 9.05585 4.98134 8.69158 4.43492ZM7.4345 1.75C6.43613 1.75 5.84064 2.86268 6.39444 3.69337L7.4435 5.26697C7.64351 5.56699 7.75024 5.91949 7.75024 6.28007C7.75024 7.18865 7.39719 8.07604 6.78142 8.78362C5.91471 9.77957 4.71992 11.2334 3.86424 12.6025C2.55909 14.6908 3.23498 17.1323 4.19212 19.0194C5.1689 20.9453 6.5697 22.5631 7.16583 23.2102C7.49742 23.5702 7.95471 23.75 8.41446 23.75H15.586C16.0458 23.75 16.5031 23.5702 16.8347 23.2102C17.4308 22.5631 18.8316 20.9453 19.8084 19.0194C20.7655 17.1323 21.4414 14.6908 20.1362 12.6025C19.2806 11.2334 18.0858 9.77957 17.2191 8.78362C16.6033 8.07604 16.2502 7.18865 16.2502 6.28007C16.2502 5.91949 16.357 5.56698 16.557 5.26697L17.606 3.69338C18.1598 2.86268 17.5644 1.75 16.566 1.75H7.4345ZM12.75 14.75H14.25V16.25H12.75V14.75ZM15.75 15.75H17.25V17.25H15.75V15.75ZM13.75 18.75H15.25V20.25H13.75V18.75Z" fill="#151516" fill-rule="evenodd"/>
</svg>
