<?xml version="1.0" encoding="UTF-8"?>
<!DOCTYPE svg
PUBLIC "-//W3C//DTD SVG 1.1//EN"
       "http://www.w3.org/Graphics/SVG/1.1/DTD/svg11.dtd">
<svg version="1.1" xmlns="http://www.w3.org/2000/svg" xmlns:xlink="http://www.w3.org/1999/xlink" viewBox="0 0 24 24">
 <path clip-rule="evenodd" d="M19 2.5H5C4.72386 2.5 4.5 2.72386 4.5 3V5.25H19.5V3C19.5 2.72386 19.2761 2.5 19 2.5ZM4.5 21V6.75H19.5V21C19.5 21.2761 19.2761 21.5 19 21.5H5C4.72386 21.5 4.5 21.2761 4.5 21ZM5 1C3.89543 1 3 1.89543 3 3V21C3 22.1046 3.89543 23 5 23H19C20.1046 23 21 22.1046 21 21V3C21 1.89543 20.1046 1 19 1H5ZM12 18.5C14.4853 18.5 16.5 16.4853 16.5 14C16.5 11.5147 14.4853 9.5 12 9.5C10.7089 9.5 9.54478 10.0437 8.72416 10.9147L8.97073 11.0791C9.45757 11.4037 9.75 11.9501 9.75 12.5352V15.4648C9.75 16.0499 9.45757 16.5963 8.97073 16.9209L8.72416 17.0853C9.54478 17.9563 10.7089 18.5 12 18.5ZM7.89118 15.8378L8.13868 15.6728C8.20822 15.6265 8.25 15.5484 8.25 15.4648V12.5352C8.25 12.4516 8.20822 12.3735 8.13868 12.3272L7.89118 12.1622C7.6398 12.7233 7.5 13.3453 7.5 14C7.5 14.6547 7.6398 15.2767 7.89118 15.8378ZM12 20C15.3137 20 18 17.3137 18 14C18 10.6863 15.3137 8 12 8C8.68629 8 6 10.6863 6 14C6 17.3137 8.68629 20 12 20ZM7 4.75H5.5V3.25H7V4.75ZM9.5 4.75H8V3.25H9.5V4.75ZM18.5 3.25H15V4.75H18.5V3.25Z" fill="#151516" fill-rule="evenodd"/>
</svg>
