<?xml version="1.0" encoding="UTF-8"?>
<!DOCTYPE svg
PUBLIC "-//W3C//DTD SVG 1.1//EN"
       "http://www.w3.org/Graphics/SVG/1.1/DTD/svg11.dtd">
<svg version="1.1" xmlns="http://www.w3.org/2000/svg" xmlns:xlink="http://www.w3.org/1999/xlink" viewBox="0 0 24 24">
 <path clip-rule="evenodd" d="M8.42792 2.2194C9.35326 2.46734 10.0875 2.96655 10.5367 3.53883C10.7357 3.79237 10.8738 4.0518 10.9537 4.30744C7.43319 4.69711 4.51565 7.0289 3.53012 10.1755C2.48156 10.6714 1.75 11.7315 1.75 12.9686C1.75 14.3728 2.69138 15.5484 3.97191 15.931C5.37313 18.7936 8.45759 20.7499 12 20.7499C15.5424 20.7499 18.6269 18.7936 20.0281 15.931C21.3086 15.5484 22.25 14.3728 22.25 12.9686C22.25 11.7315 21.5184 10.6714 20.4699 10.1755C19.4324 6.86313 16.2541 4.45369 12.4851 4.2622C12.3755 3.66599 12.1006 3.10182 11.7166 2.61266C11.0485 1.76145 10.0247 1.09433 8.81615 0.770508L8.42792 2.2194ZM4.87548 10.9246C5.63719 7.98923 8.50942 5.7499 12 5.7499C15.4906 5.7499 18.3628 7.98923 19.1245 10.9246L19.2287 11.3263L19.6243 11.4514C20.2837 11.6599 20.75 12.2659 20.75 12.9686C20.75 13.7546 20.1657 14.4198 19.3845 14.5423L18.9755 14.6064L18.8118 14.9867C17.746 17.4621 15.1162 19.2499 12 19.2499C8.88381 19.2499 6.25399 17.4621 5.1882 14.9867L5.0245 14.6064L4.61553 14.5423C3.83425 14.4198 3.25 13.7546 3.25 12.9686C3.25 12.2659 3.71628 11.6599 4.37565 11.4514L4.77126 11.3263L4.87548 10.9246ZM10.5 10.9999C10.5 11.5522 10.0523 11.9999 9.5 11.9999C8.94772 11.9999 8.5 11.5522 8.5 10.9999C8.5 10.4476 8.94772 9.99988 9.5 9.99988C10.0523 9.99988 10.5 10.4476 10.5 10.9999ZM15.5 10.9999C15.5 11.5522 15.0523 11.9999 14.5 11.9999C13.9477 11.9999 13.5 11.5522 13.5 10.9999C13.5 10.4476 13.9477 9.99988 14.5 9.99988C15.0523 9.99988 15.5 10.4476 15.5 10.9999ZM12 15.25C11.5191 15.25 11.0596 15.067 10.726 14.7943C10.3818 14.513 10.25 14.2078 10.25 14H8.75C8.75 14.7922 9.2033 15.487 9.77664 15.9557C10.3606 16.433 11.151 16.75 12 16.75C12.849 16.75 13.6394 16.433 14.2234 15.9557C14.7967 15.487 15.25 14.7922 15.25 14H13.75C13.75 14.2078 13.6182 14.513 13.274 14.7943C12.9404 15.067 12.4809 15.25 12 15.25Z" fill="#151516" fill-rule="evenodd"/>
</svg>
