<?xml version="1.0" encoding="UTF-8"?>
<!DOCTYPE svg
PUBLIC "-//W3C//DTD SVG 1.1//EN"
       "http://www.w3.org/Graphics/SVG/1.1/DTD/svg11.dtd">
<svg version="1.1" xmlns="http://www.w3.org/2000/svg" xmlns:xlink="http://www.w3.org/1999/xlink" viewBox="0 0 24 24">
 <path clip-rule="evenodd" d="M15 1V2.5V11H4.75V8C4.75 6.48122 3.51878 5.25 2 5.25H1V6.75H2C2.69036 6.75 3.25 7.30964 3.25 8V11H3.24609V12.5V14C3.24609 15.0933 3.53852 16.1183 4.04941 17.0011C3.40178 17.6363 3 18.5212 3 19.5C3 21.433 4.567 23 6.5 23C8.26324 23 9.72194 21.6961 9.96456 20H14.0354C14.2781 21.6961 15.7368 23 17.5 23C19.433 23 21 21.433 21 19.5C21 19.1812 20.9574 18.8724 20.8775 18.5789C22.1759 17.4783 23 15.8354 23 14V12.5V11L22.9999 8.99999C22.9999 5.09441 20.2012 1.84251 16.5 1.1404C16.0141 1.04823 15.5126 1 15 1ZM21.4999 11H16.5V2.67393C19.3666 3.3511 21.4999 5.92641 21.4999 8.99999V11ZM21.4999 12.5L21.5 14C21.5 15.2588 20.9831 16.3969 20.15 17.2136C19.5082 16.4704 18.559 16 17.5 16C15.9145 16 14.5752 17.0543 14.1449 18.5H9.85506C9.42479 17.0543 8.08551 16 6.5 16C6.0865 16 5.68975 16.0717 5.32151 16.2034C4.9551 15.5521 4.74609 14.8005 4.74609 14V12.5H15H16.5H21.4999ZM6.5 21.5C7.60457 21.5 8.5 20.6046 8.5 19.5C8.5 18.3954 7.60457 17.5 6.5 17.5C5.39543 17.5 4.5 18.3954 4.5 19.5C4.5 20.6046 5.39543 21.5 6.5 21.5ZM19.5 19.5C19.5 20.6046 18.6046 21.5 17.5 21.5C16.3954 21.5 15.5 20.6046 15.5 19.5C15.5 18.3954 16.3954 17.5 17.5 17.5C18.6046 17.5 19.5 18.3954 19.5 19.5Z" fill="#151516" fill-rule="evenodd"/>
</svg>
