<?xml version="1.0" encoding="UTF-8"?>
<!DOCTYPE svg
PUBLIC "-//W3C//DTD SVG 1.1//EN"
       "http://www.w3.org/Graphics/SVG/1.1/DTD/svg11.dtd">
<svg version="1.1" xmlns="http://www.w3.org/2000/svg" xmlns:xlink="http://www.w3.org/1999/xlink" viewBox="0 0 24 24">
 <path clip-rule="evenodd" d="M12 2.25C10.2051 2.25 8.75 3.70507 8.75 5.5V6.5C8.75 8.29493 10.2051 9.75 12 9.75C13.7949 9.75 15.25 8.29493 15.25 6.5V5.5C15.25 3.70507 13.7949 2.25 12 2.25ZM10.25 5.5C10.25 4.5335 11.0335 3.75 12 3.75C12.9665 3.75 13.75 4.5335 13.75 5.5V6.5C13.75 7.4665 12.9665 8.25 12 8.25C11.0335 8.25 10.25 7.4665 10.25 6.5V5.5ZM5.38553 15.2654C5.63404 12.8424 7.67504 11 10.1107 11H13.8893C16.325 11 18.366 12.8424 18.6145 15.2654L19.2027 21H17.6948L17.1223 15.4184C16.9523 13.7606 15.5558 12.5 13.8893 12.5H10.1107C8.44421 12.5 7.04774 13.7606 6.8777 15.4184L6.30523 21H4.79736L5.38553 15.2654ZM11.25 18.5V14H12.75V18.5L12 19L11.25 18.5Z" fill="#151516" fill-rule="evenodd"/>
</svg>
