<?xml version="1.0" encoding="UTF-8"?>
<!DOCTYPE svg
PUBLIC "-//W3C//DTD SVG 1.1//EN"
       "http://www.w3.org/Graphics/SVG/1.1/DTD/svg11.dtd">
<svg version="1.1" xmlns="http://www.w3.org/2000/svg" xmlns:xlink="http://www.w3.org/1999/xlink" viewBox="0 0 24 24">
 <path clip-rule="evenodd" d="M13.5001 3.5C14.0524 3.5 14.5001 3.05228 14.5001 2.5C14.5001 1.94772 14.0524 1.5 13.5001 1.5C12.9478 1.5 12.5001 1.94772 12.5001 2.5C12.5001 3.05228 12.9478 3.5 13.5001 3.5ZM16.0001 2.5C16.0001 3.61941 15.2644 4.56698 14.2501 4.88555V8.74998H16.0001C16.9077 8.74998 17.74 9.0724 18.3887 9.60895L18.7446 9.50725C20.5014 9.00532 22.2501 10.3244 22.2501 12.1514V14.5H20.7501V12.1514C20.7501 11.4039 20.1062 10.8435 19.3952 10.9054C19.6229 11.3893 19.7501 11.9298 19.7501 12.5V15.2922L20.7973 17.0375C21.1634 17.6477 21.1236 18.4187 20.6967 18.9879L20.2192 19.6246C19.6264 20.4149 18.4974 20.5583 17.726 19.9411L16.2622 18.7701C15.9988 18.5594 15.8019 18.277 15.6952 17.957L14.9596 15.75H14.2501V21.25H19.5001V22.75H7.50012V21.25H12.7501V15.75H10.3751L9.1975 17.3202C9.18138 17.3417 9.16882 17.3656 9.16033 17.3911L8.43957 19.5534C8.20137 20.268 7.53263 20.75 6.77937 20.75H6.00013C5.03363 20.75 4.25013 19.9665 4.25013 19V17.2052C4.25013 16.9682 4.29827 16.7337 4.39163 16.5159L5.75013 13.346V9.46056L2.83768 10.1887C2.40571 10.2967 1.95669 10.0901 1.75756 9.69189L0.893777 7.96432C0.710908 7.59858 0.782588 7.15686 1.07173 6.86772L4.25013 3.68932V1.70804C4.25013 0.995312 5.07457 0.599063 5.63112 1.0443L7.6804 2.68373C7.73401 2.72661 7.80062 2.74998 7.86927 2.74998C9.73647 2.74998 11.2501 4.26364 11.2501 6.13084V8.49998C11.2501 8.63805 11.3621 8.74998 11.5001 8.74998H12.7501V4.88555C11.7358 4.56698 11.0001 3.61941 11.0001 2.5C11.0001 1.11929 12.1194 0 13.5001 0C14.8808 0 16.0001 1.11929 16.0001 2.5ZM7.25013 8.72706V13.5V13.6539L7.18949 13.7954L5.77034 17.1068C5.75701 17.1379 5.75013 17.1714 5.75013 17.2052V19C5.75013 19.1381 5.86206 19.25 6.00013 19.25H6.77937C6.88698 19.25 6.98251 19.1811 7.01654 19.079L7.7373 16.9168C7.79678 16.7383 7.88464 16.5706 7.9975 16.4202L9.40013 14.55L9.62513 14.25H10.0001H15.5001H16.0407L16.2116 14.7628L17.1183 17.4826C17.1335 17.5284 17.1616 17.5687 17.1993 17.5988L18.663 18.7698C18.7732 18.858 18.9345 18.8375 19.0192 18.7246L19.4967 18.0879C19.5577 18.0066 19.5634 17.8964 19.5111 17.8093L18.357 15.8859L18.2501 15.7077V15.5V12.5C18.2501 11.2994 17.3098 10.3184 16.1254 10.2534L16.009 10.8938C15.5014 13.6856 11.4989 13.6856 10.9913 10.8938L10.8516 10.1259C10.2062 9.86823 9.75013 9.23736 9.75013 8.49998V6.13084C9.75013 5.09207 8.90804 4.24998 7.86927 4.24998C7.46001 4.24998 7.06294 4.11069 6.74336 3.85503L5.75013 3.06045V3.99998V4.31064L5.53046 4.53031L2.4127 7.64807L2.9019 8.62646L6.03693 7.8427L6.87609 6.58395L8.12417 7.416L7.25013 8.72706ZM12.3988 10.25H14.6015L14.5332 10.6255C14.3242 11.7751 12.6761 11.7751 12.4671 10.6255L12.3988 10.25Z" fill="#151516" fill-rule="evenodd"/>
</svg>
