<?xml version="1.0" encoding="UTF-8"?>
<!DOCTYPE svg
PUBLIC "-//W3C//DTD SVG 1.1//EN"
       "http://www.w3.org/Graphics/SVG/1.1/DTD/svg11.dtd">
<svg version="1.1" xmlns="http://www.w3.org/2000/svg" xmlns:xlink="http://www.w3.org/1999/xlink" viewBox="0 0 24 24">
 <path clip-rule="evenodd" d="M5.90796 4.25C5.90796 3.42157 6.57953 2.75 7.40796 2.75C8.23639 2.75 8.90796 3.42157 8.90796 4.25C8.90796 5.07843 8.23639 5.75 7.40796 5.75C6.57953 5.75 5.90796 5.07843 5.90796 4.25ZM7.40796 1.25C5.7511 1.25 4.40796 2.59315 4.40796 4.25C4.40796 5.90685 5.7511 7.25 7.40796 7.25C9.06481 7.25 10.408 5.90685 10.408 4.25C10.408 2.59315 9.06481 1.25 7.40796 1.25ZM15.3816 6.15479C15.3816 5.32636 16.0532 4.65479 16.8816 4.65479C17.71 4.65479 18.3816 5.32636 18.3816 6.15479C18.3816 6.98321 17.71 7.65479 16.8816 7.65479C16.0532 7.65479 15.3816 6.98321 15.3816 6.15479ZM16.8816 3.15479C15.2247 3.15479 13.8816 4.49793 13.8816 6.15479C13.8816 7.81164 15.2247 9.15479 16.8816 9.15479C18.5384 9.15479 19.8816 7.81164 19.8816 6.15479C19.8816 4.49793 18.5384 3.15479 16.8816 3.15479ZM12.9736 10.2739C12.5594 10.2739 12.2236 10.6097 12.2236 11.0239C12.2236 11.4381 12.5594 11.7739 12.9736 11.7739C13.3878 11.7739 13.7236 11.4381 13.7236 11.0239C13.7236 10.6097 13.3878 10.2739 12.9736 10.2739ZM10.7236 11.0239C10.7236 9.78129 11.731 8.77393 12.9736 8.77393C14.2163 8.77393 15.2236 9.78129 15.2236 11.0239C15.2236 12.2666 14.2163 13.2739 12.9736 13.2739C11.731 13.2739 10.7236 12.2666 10.7236 11.0239ZM6.04182 20.4998H9.67114V16.9172C9.67114 15.0496 11.1851 13.5356 13.0527 13.5356C14.9203 13.5356 16.4343 15.0496 16.4343 16.9172V20.4998H20C20.2761 20.4998 20.5 20.276 20.5 19.9998V13.6189C20.5 12.2382 19.3807 11.1189 18 11.1189H17V9.6189H18C20.2091 9.6189 22 11.4098 22 13.6189V19.9998C22 21.1044 21.1046 21.9998 20 21.9998H14.0263L12.5263 21.9998H12.0789H4C2.89543 21.9998 2 21.1044 2 19.9998V11.6665C2 10.0096 3.34315 8.6665 5 8.6665H9.36842V10.1665H5C4.17157 10.1665 3.5 10.8381 3.5 11.6665V19.9998C3.5 20.276 3.72386 20.4998 4 20.4998H4.45528L5.56629 13.7749L7.10365 13.7749L6.04182 20.4998ZM13.0527 15.0356C12.0136 15.0356 11.1711 15.8781 11.1711 16.9172V20.2976H14.9343V16.9172C14.9343 15.8781 14.0919 15.0356 13.0527 15.0356Z" fill="#151516" fill-rule="evenodd"/>
</svg>
