<?xml version="1.0" encoding="UTF-8"?>
<!DOCTYPE svg
PUBLIC "-//W3C//DTD SVG 1.1//EN"
       "http://www.w3.org/Graphics/SVG/1.1/DTD/svg11.dtd">
<svg version="1.1" xmlns="http://www.w3.org/2000/svg" xmlns:xlink="http://www.w3.org/1999/xlink" viewBox="0 0 24 24">
 <path d="M12 0.25C8.13401 0.25 5 3.38401 5 7.25V10.5L6.5 10V7.25C6.5 4.21243 8.96243 1.75 12 1.75C15.0376 1.75 17.5 4.21243 17.5 7.25V10L19 10.5V7.25C19 3.38401 15.866 0.25 12 0.25Z" fill="#151516"/>
 <path d="M10.25 6V7.5C10.25 8.4665 11.0335 9.25 12 9.25C12.9665 9.25 13.75 8.4665 13.75 7.5V6H15.25V7.5C15.25 9.29493 13.7949 10.75 12 10.75C10.2051 10.75 8.75 9.29493 8.75 7.5V6H10.25Z" fill="#151516"/>
 <path d="M5.38551 16.2654C5.63402 13.8424 7.67501 12 10.1107 12H13.8893C16.325 12 18.366 13.8424 18.6145 16.2654L19.1001 21H17.5922L17.1223 16.4184C16.9523 14.7606 15.5558 13.5 13.8893 13.5H10.1107C8.44418 13.5 7.04771 14.7606 6.87768 16.4184L6.40777 21H4.8999L5.38551 16.2654Z" fill="#151516"/>
</svg>
