<?xml version="1.0" encoding="UTF-8"?>
<!DOCTYPE svg
PUBLIC "-//W3C//DTD SVG 1.1//EN"
       "http://www.w3.org/Graphics/SVG/1.1/DTD/svg11.dtd">
<svg version="1.1" xmlns="http://www.w3.org/2000/svg" xmlns:xlink="http://www.w3.org/1999/xlink" viewBox="0 0 24 24">
 <path clip-rule="evenodd" d="M20.0435 13.1282L17.7077 12.173C17.5065 12.0906 17.2963 12.0426 17.0814 12.0288C17.8312 11.2809 18.2354 10.3789 18.2354 9.42305C18.2354 8.63839 18.0622 7.85702 17.7421 7.14741C19.2213 6.19754 19.4601 4.11858 18.2094 2.83705C17.6826 2.29727 16.9843 2 16.2429 2C14.9975 2 13.9195 2.86475 13.5803 4.03309C12.6875 3.87467 11.6738 3.8744 10.7794 4.03309C10.4402 2.86475 9.36214 2 8.11667 2C7.37534 2 6.67695 2.29727 6.15018 2.83705C4.89928 4.11877 5.13827 6.19758 6.61752 7.14741C6.29743 7.85702 6.12416 8.63839 6.12416 9.42305C6.12416 10.3789 6.52837 11.2809 7.27821 12.0288C7.06334 12.0426 6.85319 12.0906 6.65206 12.1729L4.31611 13.1282C3.29872 13.5443 2.8095 14.7103 3.22543 15.7273C3.59099 16.6219 4.52247 17.1043 5.43765 16.9325C5.00789 17.6971 4.96316 18.6547 5.17741 19.5022C5.75071 21.7698 7.89929 22.7141 9.18898 21.4034C9.95293 21.5721 10.9171 21.6515 12.1798 21.6515C13.4425 21.6515 14.4067 21.5721 15.1706 21.4034C15.9786 22.2245 17.15 22.1678 18.0385 21.4149C19.263 20.3775 19.6935 18.305 18.922 16.9325C19.8364 17.1042 20.7684 16.6224 21.1341 15.7275C21.5501 14.7103 21.0609 13.5443 20.0435 13.1282ZM16.2429 3.17206C17.1112 3.17206 17.8448 3.92351 17.8448 4.81294C17.8448 5.35123 17.5765 5.84209 17.1476 6.13557C16.5235 5.299 15.6825 4.69871 14.7119 4.33748C14.9143 3.66647 15.5312 3.17206 16.2429 3.17206ZM13.8557 5.28978C13.8847 5.30036 13.9148 5.30837 13.9458 5.31431C15.1619 5.66058 15.9436 6.36221 16.42 7.14351C16.4222 7.14784 16.428 7.15766 16.437 7.17273C16.5409 7.34719 17.0634 8.22463 17.0634 9.42309C17.0634 10.4295 16.3686 11.2461 15.5065 11.7852C14.4498 12.4209 13.2023 12.6942 12.0002 12.665C10.8382 12.6368 9.71867 12.3258 8.85499 11.7863C8.00571 11.2699 7.29622 10.4269 7.29622 9.42305C7.29622 8.78564 7.45758 7.97368 7.89112 7.22504C7.90929 7.19949 7.92546 7.17226 7.93957 7.14347C8.41605 6.36217 9.1977 5.66054 10.4138 5.31431C10.4448 5.30837 10.4749 5.30036 10.5039 5.28978C11.522 5.0193 12.826 5.01622 13.8557 5.28978ZM6.51485 4.81294C6.51485 3.92351 7.2484 3.17206 8.11667 3.17206C8.82842 3.17206 9.44527 3.66647 9.64769 4.33748C8.67734 4.69863 7.83619 5.29884 7.21203 6.13557C6.7831 5.84209 6.51485 5.35123 6.51485 4.81294ZM4.31032 15.2838C4.13897 14.8648 4.3406 14.3845 4.75977 14.213C5.33376 13.9783 5.77006 13.7993 6.10321 13.6627C7.10063 13.2536 7.17357 13.2237 7.24935 13.2116C7.25533 13.2106 7.26132 13.2097 7.26779 13.2088C7.27305 13.2081 7.27864 13.2073 7.28478 13.2064C6.93984 13.8685 6.67433 14.5693 6.50169 15.2754L5.38088 15.7335C4.96754 15.9031 4.48477 15.7107 4.31032 15.2838ZM7.07873 20.5207C6.35014 19.9034 6.00993 18.6142 6.36627 17.7026C6.44941 17.4898 6.6455 17.1186 7.02435 17.0228C7.66863 16.86 8.43219 17.5886 8.69141 18.6139C8.86194 19.2885 8.77935 19.9537 8.51943 20.3764C8.49931 20.4011 8.48153 20.4281 8.46547 20.4564C8.10186 20.9571 7.55556 20.9248 7.07873 20.5207ZM9.80787 20.3278C10.3583 18.5122 9.28478 16.1885 7.57107 15.8652C7.75411 14.9372 8.15816 13.9291 8.7275 13.0577C9.70846 13.5521 10.8502 13.8118 12.0002 13.8363C13.2692 13.8633 14.5481 13.604 15.6321 13.0577C16.1858 13.9052 16.6003 14.9098 16.7885 15.8652C15.0746 16.1885 14.0013 18.5123 14.5517 20.3278C13.3042 20.5307 11.0678 20.5328 9.80787 20.3278ZM18.0459 19.215C17.7138 20.5284 16.5395 21.345 15.8941 20.4563C15.878 20.4281 15.8603 20.4011 15.8402 20.3763C15.5803 19.9537 15.4977 19.2885 15.6682 18.6139C15.9139 17.642 16.6595 16.8521 17.3353 17.0228C17.7141 17.1186 17.9102 17.4898 17.9933 17.7025C18.2765 18.427 18.0459 19.2189 18.0459 19.215ZM20.0492 15.284C19.8756 15.7088 19.3943 15.904 18.9779 15.7332L17.8579 15.2754C17.6854 14.5695 17.4198 13.8686 17.0746 13.2061C17.0798 13.2068 17.0846 13.2075 17.0892 13.2082C17.096 13.2091 17.1023 13.21 17.1086 13.211C17.1854 13.2233 17.2594 13.2536 18.2383 13.6552C18.5737 13.7928 19.0154 13.974 19.5998 14.213C20.019 14.3845 20.2206 14.8648 20.0492 15.284ZM13.7502 8.75H10.7502V10.25H13.7502V8.75Z" fill="#151516" fill-rule="evenodd" stroke="#151516" stroke-width="0.2"/>
</svg>
