<?xml version="1.0" encoding="UTF-8"?>
<!DOCTYPE svg
PUBLIC "-//W3C//DTD SVG 1.1//EN"
       "http://www.w3.org/Graphics/SVG/1.1/DTD/svg11.dtd">
<svg version="1.1" xmlns="http://www.w3.org/2000/svg" xmlns:xlink="http://www.w3.org/1999/xlink" viewBox="0 0 24 24">
 <path clip-rule="evenodd" d="M9.74998 6C9.74998 5.30964 10.3096 4.75 11 4.75H13C13.6903 4.75 14.25 5.30964 14.25 6V6.49998H9.74998V6ZM8.24998 6.49998V6C8.24998 4.48122 9.4812 3.25 11 3.25H13C14.5188 3.25 15.75 4.48122 15.75 6V6.49998H19.5C20.3284 6.49998 21 7.17155 21 7.99998V18.5C21 19.3284 20.3284 20 19.5 20H4.5C3.67157 20 3 19.3284 3 18.5V7.99998C3 7.60215 3.15804 7.22062 3.43934 6.93932C3.72064 6.65801 4.10218 6.49998 4.5 6.49998H8.24998ZM4.5 7.99998V18.5H19.5V7.99998H4.5ZM11.25 14V15.75H12.75V14H14.5V12.5H12.75V10.75H11.25V12.5H9.50001V14H11.25Z" fill="#151516" fill-rule="evenodd"/>
</svg>
