<?xml version="1.0" encoding="UTF-8"?>
<!DOCTYPE svg
PUBLIC "-//W3C//DTD SVG 1.1//EN"
       "http://www.w3.org/Graphics/SVG/1.1/DTD/svg11.dtd">
<svg version="1.1" xmlns="http://www.w3.org/2000/svg" xmlns:xlink="http://www.w3.org/1999/xlink" viewBox="0 0 24 24">
 <path clip-rule="evenodd" d="M21.6945 9.67392C23.7291 7.63767 23.7291 4.33869 21.6892 2.30246C19.6496 0.271912 16.3398 0.271411 14.305 2.30781C12.2705 4.34407 12.2705 7.64304 14.3104 9.67927L14.3578 9.72662C16.3978 11.736 19.6813 11.7151 21.6898 9.67869L21.6921 9.6763L21.6945 9.67392ZM20.6517 3.35003C21.9258 4.61715 22.1073 6.59793 21.1198 8.06878L15.9238 2.88218C17.3977 1.90141 19.3825 2.08309 20.6517 3.35003ZM15.7651 2.7238C17.329 1.65771 19.4523 1.84198 20.8068 3.19404C19.3994 1.78919 17.162 1.64505 15.5845 2.85435C15.6438 2.80891 15.704 2.76542 15.7651 2.7238ZM18.0024 9.73583C15.9325 9.73583 14.2528 8.0586 14.2528 5.99344C14.2528 5.25628 14.4725 4.53427 14.8807 3.91919L20.0759 9.10976C19.4639 9.51653 18.7409 9.73583 18.0024 9.73583ZM14.0328 5.99339C14.0328 5.12372 14.3214 4.27464 14.8524 3.57994C14.8072 3.63909 14.7638 3.69942 14.7221 3.76074C14.2744 4.41945 14.0328 5.19778 14.0328 5.99339ZM10.8578 11.0602L7.08532 7.28774C5.84313 6.04555 3.82912 6.04555 2.58692 7.28775C1.34472 8.52994 1.34472 10.5439 2.58692 11.7861L6.3594 15.5586L10.8578 11.0602ZM11.9185 12.1209L16.022 16.2244C17.2642 17.4666 17.2642 19.4806 16.022 20.7228C14.7798 21.965 12.7657 21.965 11.5236 20.7228L7.42006 16.6193L11.9185 12.1209ZM10.4629 21.7834C12.2909 23.6114 15.2546 23.6114 17.0826 21.7834C18.9106 19.9555 18.9106 16.9917 17.0826 15.1637L8.14598 6.22708C6.318 4.3991 3.35425 4.3991 1.52626 6.22709C-0.301722 8.05507-0.301723 11.0188 1.52626 12.8468L10.4629 21.7834Z" fill="#151516" fill-rule="evenodd"/>
</svg>
