<?xml version="1.0" encoding="UTF-8"?>
<!DOCTYPE svg
PUBLIC "-//W3C//DTD SVG 1.1//EN"
       "http://www.w3.org/Graphics/SVG/1.1/DTD/svg11.dtd">
<svg version="1.1" xmlns="http://www.w3.org/2000/svg" xmlns:xlink="http://www.w3.org/1999/xlink" viewBox="0 0 24 24">
 <path clip-rule="evenodd" d="M3.25 3.25V2.5H4.75V4V5.5H3.25V4.75H3C2.86193 4.75 2.75 4.86193 2.75 5V8C2.75 9.38208 3.40971 10.6101 4.43142 11.3863C4.44438 11.3954 4.45708 11.4049 4.4695 11.4149C5.17644 11.9396 6.05197 12.25 7 12.25C7.94803 12.25 8.82356 11.9396 9.5305 11.4149C9.54292 11.4049 9.55562 11.3954 9.56858 11.3863C10.5903 10.6101 11.25 9.38208 11.25 8V5C11.25 4.86193 11.1381 4.75 11 4.75H10.75V5.5H9.25V4V2.5H10.75V3.25H11C11.9665 3.25 12.75 4.0335 12.75 5V8C12.75 9.82678 11.8981 11.4546 10.5699 12.5078L7.75462 17.2C7.85907 19.4544 9.71984 21.25 12 21.25H12.5C15.1234 21.25 17.25 19.1234 17.25 16.5V15.1359C17.25 14.303 17.3843 13.4754 17.6477 12.6852L18.0343 11.5255C17.4076 11.0712 17 10.3332 17 9.5C17 8.11929 18.1193 7 19.5 7C20.8807 7 22 8.11929 22 9.5C22 10.8807 20.8807 12 19.5 12C19.4858 12 19.4715 11.9999 19.4574 11.9996L19.0707 13.1595C18.8583 13.7968 18.75 14.4642 18.75 15.1359V16.5C18.75 19.9518 15.9518 22.75 12.5 22.75H12C8.8961 22.75 6.36662 20.2906 6.25392 17.2143L3.43007 12.5078C2.10189 11.4546 1.25 9.82678 1.25 8V5C1.25 4.0335 2.0335 3.25 3 3.25H3.25ZM7 15.5423L5.85641 13.6363C6.226 13.7109 6.60843 13.75 7 13.75C7.39157 13.75 7.774 13.7109 8.14359 13.6363L7 15.5423ZM20.5 9.5C20.5 10.0523 20.0523 10.5 19.5 10.5C18.9477 10.5 18.5 10.0523 18.5 9.5C18.5 8.94772 18.9477 8.5 19.5 8.5C20.0523 8.5 20.5 8.94772 20.5 9.5Z" fill="#151516" fill-rule="evenodd"/>
</svg>
