<?xml version="1.0" encoding="UTF-8"?>
<!DOCTYPE svg
PUBLIC "-//W3C//DTD SVG 1.1//EN"
       "http://www.w3.org/Graphics/SVG/1.1/DTD/svg11.dtd">
<svg version="1.1" xmlns="http://www.w3.org/2000/svg" xmlns:xlink="http://www.w3.org/1999/xlink" viewBox="0 0 24 24">
 <path clip-rule="evenodd" d="M12.1904 6.3261C15.349 3.11613 18.8405 3.56143 20.8781 5.51259C23.2517 7.78317 23.2935 11.5816 21.0051 13.9073L12.1904 22.8653L3.37578 13.9057C1.08735 11.5801 1.12915 7.7816 3.50274 5.51102C5.54035 3.56143 9.03648 3.11927 12.1904 6.3261ZM18.9692 13.75L19.9104 12.7932C21.5903 11.086 21.5501 8.31502 19.8175 6.65654C19.0759 5.94688 18.0849 5.55665 17.0259 5.55665C15.0598 5.55665 14.0368 6.62628 12.7508 7.97081C12.5703 8.15954 12.3846 8.35369 12.1904 8.55105C11.9995 8.35704 11.8173 8.1672 11.6407 7.98324C10.3176 6.60503 9.3111 5.55665 7.35499 5.55665C6.29593 5.55665 5.305 5.94688 4.5649 6.65811C2.82767 8.31974 2.79516 11.0907 4.47045 12.7948L5.41035 13.75H5.49976H10.4998C10.7838 13.75 11.0435 13.9105 11.1706 14.1646L11.3334 14.4903L12.7829 9.77944C12.8749 9.48052 13.1427 9.27005 13.4549 9.25134C13.7671 9.23263 14.0581 9.40961 14.1851 9.6954L15.9872 13.75H18.6907H18.9692ZM17.4935 15.25H15.4998C15.2034 15.25 14.9348 15.0754 14.8144 14.8046L13.6277 12.1345L12.2166 16.7206C12.1264 17.0135 11.8671 17.2222 11.5616 17.2474C11.2561 17.2727 10.966 17.1096 10.8289 16.8354L10.0362 15.25H6.88634L12.1904 20.6404L17.4935 15.25Z" fill="#151516" fill-rule="evenodd"/>
</svg>
