<?xml version="1.0" encoding="UTF-8"?>
<!DOCTYPE svg
PUBLIC "-//W3C//DTD SVG 1.1//EN"
       "http://www.w3.org/Graphics/SVG/1.1/DTD/svg11.dtd">
<svg version="1.1" xmlns="http://www.w3.org/2000/svg" xmlns:xlink="http://www.w3.org/1999/xlink" viewBox="0 0 24 24">
 <path clip-rule="evenodd" d="M2.06888 8.45693L1.34104 8.27597L0.979106 9.73165L1.70695 9.91261L2.30354 10.0609C3.35648 10.3227 3.63004 11.6916 2.75859 12.338C1.39969 13.3459 1.4276 15.389 2.81352 16.3594L3.7449 17.0115L4.35926 17.4417L5.21963 16.213L4.60526 15.7828L3.67388 15.1307C3.12664 14.7475 3.11562 13.9408 3.6522 13.5428C5.54182 12.1412 4.94863 9.17293 2.66547 8.60526L2.06888 8.45693ZM19.6289 6.9455C19.9928 6.75133 20.4451 6.88738 20.6415 7.25006L21.9406 9.64916C22.0357 9.82477 22.0568 10.0311 21.9993 10.2223C21.9418 10.4135 21.8104 10.5739 21.6342 10.668L18.263 12.467L14.8918 14.266L8.14947 17.864C7.7856 18.0581 7.33323 17.9221 7.13685 17.5594L5.83777 15.1603C5.74268 14.9847 5.72155 14.7784 5.77907 14.5872C5.83659 14.3959 5.968 14.2355 6.14419 14.1415L12.8865 10.5435L16.2577 8.7445L19.6289 6.9455ZM17.6296 9.71261L18.2145 10.7926L20.2622 9.69986L19.6774 8.61982L17.6296 9.71261ZM16.8911 11.4989L16.3062 10.4188L13.5927 11.8669L7.51611 15.1096L8.10093 16.1897L14.1856 12.9426L16.8911 11.4989Z" fill="#151516" fill-rule="evenodd"/>
</svg>
