<?xml version="1.0" encoding="UTF-8"?>
<!DOCTYPE svg
PUBLIC "-//W3C//DTD SVG 1.1//EN"
       "http://www.w3.org/Graphics/SVG/1.1/DTD/svg11.dtd">
<svg version="1.1" xmlns="http://www.w3.org/2000/svg" xmlns:xlink="http://www.w3.org/1999/xlink" viewBox="0 0 24 24">
 <path clip-rule="evenodd" d="M5.19882 3.51605C4.71132 3.8071 4.27606 4.34583 3.64074 5.3899C3.39334 5.79646 3.24695 6.34691 3.19053 6.99548C3.13466 7.63769 3.17106 8.32701 3.2497 8.97252C3.32802 9.6154 3.44596 10.1969 3.54469 10.6183C3.59392 10.8283 3.63802 10.9971 3.66941 11.1121C3.6851 11.1695 3.69759 11.2134 3.70593 11.2422L3.70788 11.2489L7.75036 20.9508C7.83683 21.1584 8.1302 21.1552 8.21305 20.948L9.30367 18.2215C9.47524 17.7926 9.61998 17.374 9.75995 16.9693L9.77535 16.9247C9.91678 16.5159 10.0588 16.107 10.2136 15.7533C10.3655 15.4059 10.5572 15.0448 10.8273 14.765C11.1197 14.462 11.5105 14.2501 12.0001 14.2501C12.9332 14.2501 13.4602 14.9078 13.7879 15.5183C14.0138 15.939 14.2236 16.4904 14.4367 17.0503C14.5223 17.2753 14.6085 17.5017 14.6964 17.7215C15.0749 18.6678 15.4523 19.6819 15.7757 20.5785C15.8167 20.6921 15.9103 20.7559 16.0363 20.7575C16.161 20.7591 16.2491 20.6999 16.2896 20.5919L19.8028 11.2233L19.8081 11.2106L19.8086 11.2094L19.8114 11.2026L19.8242 11.1711C19.8358 11.1424 19.8531 11.0986 19.8751 11.0412C19.9191 10.9265 19.9815 10.7581 20.0528 10.5485C20.1958 10.1278 20.3723 9.54819 20.5091 8.90791C20.6466 8.26442 20.7393 7.58113 20.7262 6.94755C20.7129 6.30758 20.5929 5.77628 20.3582 5.38811C19.72 4.33265 19.2263 3.88919 18.6738 3.64909C18.0683 3.38593 17.3036 3.32001 15.9605 3.24903C15.1621 3.20684 14.4692 3.58023 13.9354 4.03092C13.8637 4.09148 13.7961 4.15239 13.7329 4.21243L16.2956 5.31068L15.7047 6.6894L12.1804 5.17903L12.1571 5.16702L12.148 5.16235L12.1189 5.14752C12.0931 5.13438 12.0547 5.11489 12.005 5.08992C11.9058 5.03996 11.7619 4.96813 11.5846 4.88135C11.2296 4.70758 10.743 4.4749 10.2149 4.23834C9.68532 4.00113 9.1219 3.76358 8.61154 3.57793C8.08444 3.38619 7.67221 3.27183 7.42308 3.24612C6.26969 3.12708 5.65643 3.24284 5.19882 3.51605ZM12.2872 3.55522C12.273 3.54828 12.2587 3.54124 12.2441 3.53411C11.8788 3.35531 11.3762 3.1149 10.8281 2.8694C10.2815 2.62456 9.68181 2.37109 9.12432 2.1683C8.58357 1.97159 8.02318 1.80008 7.57707 1.75404C6.29676 1.62191 5.29591 1.71108 4.42989 2.22812C3.59376 2.72732 2.99584 3.56414 2.35933 4.61015C1.94696 5.28783 1.76346 6.092 1.69617 6.86548C1.62833 7.64531 1.6744 8.44547 1.76071 9.15391C1.84733 9.86497 1.97681 10.5019 2.08425 10.9605C2.13811 11.1903 2.1868 11.3769 2.22241 11.5073C2.24022 11.5725 2.2548 11.6238 2.26515 11.6595L2.27739 11.7013L2.28091 11.7131L2.28199 11.7166L2.28235 11.7178C2.28235 11.7178 2.28258 11.7186 3.00003 11.5L2.28235 11.7178L2.29342 11.7542L6.36575 21.5278C6.96834 22.974 9.02324 22.9614 9.60577 21.5051L10.6964 18.7786C10.8815 18.3157 11.0367 17.8671 11.1745 17.4684L11.1929 17.4151C11.3387 16.9937 11.4613 16.6436 11.5878 16.3544C11.7171 16.0588 11.8232 15.8931 11.9065 15.8067C11.9625 15.7487 11.9826 15.7495 11.9965 15.75L12.0001 15.7501C12.0745 15.7501 12.2132 15.7562 12.4663 16.2278C12.6444 16.5596 12.7984 16.9645 12.9907 17.4707C13.0837 17.7153 13.1857 17.9836 13.3037 18.2786C13.6735 19.2032 14.0445 20.1999 14.3647 21.0875C14.9149 22.6128 17.1117 22.6715 17.6941 21.1186L21.1979 11.7751L21.1989 11.7725L21.2159 11.7308C21.2303 11.695 21.2506 11.6437 21.2756 11.5784C21.3257 11.448 21.3947 11.2614 21.4729 11.0313C21.6289 10.5726 21.8236 9.93451 21.976 9.22132C22.1277 8.51134 22.2421 7.70538 22.2258 6.91657C22.2097 6.13415 22.0638 5.3099 21.6418 4.61198C20.9245 3.42566 20.2263 2.68826 19.2717 2.27339C18.3701 1.88156 17.3126 1.81839 16.0397 1.75112C14.7087 1.68079 13.6516 2.30738 12.9677 2.8848C12.6894 3.1198 12.4611 3.35623 12.2872 3.55522Z" fill="#151516" fill-rule="evenodd"/>
</svg>
