<?xml version="1.0" encoding="UTF-8"?>
<!DOCTYPE svg
PUBLIC "-//W3C//DTD SVG 1.1//EN"
       "http://www.w3.org/Graphics/SVG/1.1/DTD/svg11.dtd">
<svg version="1.1" xmlns="http://www.w3.org/2000/svg" xmlns:xlink="http://www.w3.org/1999/xlink" viewBox="0 0 24 24">
 <path clip-rule="evenodd" d="M21.1034 4.05433C20.0229 2.59085 18.7281 1.68328 17.2419 1.18737C15.7731 0.697275 14.1569 0.622356 12.4434 0.751923C8.64775 1.03894 4.92548 2.74095 3.78627 6.26935C3.45127 7.30691 3.61817 8.60154 3.81354 9.53116C3.91552 10.0165 4.03494 10.4445 4.12872 10.7512C4.14535 10.8055 4.16122 10.8562 4.17609 10.9029L1.98056 14.4158C1.68363 14.8909 1.8602 15.5184 2.3613 15.769L3.8005 16.4886C3.81412 16.6012 3.83072 16.7332 3.85032 16.8802C3.91404 17.3581 4.01025 18.0004 4.13955 18.6469C4.26709 19.2846 4.43393 19.9634 4.64738 20.4971C4.75256 20.76 4.8866 21.0332 5.06277 21.2535C5.22919 21.4615 5.53882 21.7498 5.99999 21.7498C6.98451 21.7498 8.0297 21.6178 8.81506 21.4901C9.0491 21.452 9.26232 21.4139 9.44674 21.3791L9.77238 22.6817L9.92227 23.2812L10.5394 23.2488L20.0394 22.7488L20.9484 22.7009L20.7276 21.8179L19.3328 16.2388C19.3483 16.2235 19.3643 16.2076 19.3806 16.1913C19.3898 16.1822 19.3991 16.1729 19.4085 16.1635C19.648 15.9233 19.9745 15.5832 20.3228 15.1823C21.001 14.4018 21.8329 13.3119 22.2074 12.249C22.7262 10.7766 22.9419 9.37654 22.7706 8.00331C22.5988 6.62591 22.0442 5.3287 21.1034 4.05433ZM5.70397 10.7411L5.7024 10.7368L5.69535 10.7171C5.6889 10.6989 5.67907 10.6708 5.66648 10.6337C5.64129 10.5596 5.60518 10.45 5.56314 10.3125C5.47881 10.0367 5.37198 9.65333 5.28147 9.22267C5.09185 8.32038 5.00875 7.36502 5.21371 6.73023C6.07449 4.06419 9.0048 2.51623 12.5565 2.24765C14.1702 2.12563 15.5632 2.20854 16.7671 2.61025C17.9536 3.00615 18.9953 3.72437 19.8966 4.94525C20.7108 6.04808 21.1472 7.10741 21.2821 8.18898C21.4176 9.27472 21.2558 10.4361 20.7926 11.7506C20.5182 12.5293 19.8501 13.4394 19.1905 14.1985C18.87 14.5674 18.5681 14.882 18.3465 15.1041C18.2359 15.2149 18.1459 15.3022 18.0843 15.3611C18.0534 15.3905 18.0298 15.4128 18.0142 15.4274L17.997 15.4434L17.9932 15.4469L17.6642 15.7489L17.7724 16.1817L19.0516 21.2987L11.0777 21.7183L10.7276 20.3179L10.5486 19.602L9.8301 19.7693L9.82592 19.7702L9.80987 19.7739L9.74343 19.7887C9.68446 19.8016 9.59703 19.8204 9.48589 19.843C9.26339 19.8883 8.94694 19.9489 8.57423 20.0095C7.87644 20.123 7.00342 20.2329 6.18742 20.248C6.14755 20.1822 6.09698 20.0822 6.04009 19.94C5.87855 19.5361 5.73288 18.965 5.61042 18.3527C5.48972 17.7492 5.39843 17.1415 5.33716 16.6819C5.30662 16.4529 5.28375 16.2623 5.26857 16.1295C5.26099 16.0631 5.25534 16.0113 5.25162 15.9764L5.24749 15.9371L5.24651 15.9276L5.2463 15.9255L5.20513 15.5138L4.8354 15.329L3.57314 14.6978L5.63599 11.3973L5.83071 11.0857L5.70397 10.7411ZM6.24922 20.3339C6.24981 20.3344 6.2501 20.3347 6.2501 20.3346C6.25011 20.3344 6.24854 20.3327 6.24539 20.3298C6.24717 20.3318 6.24845 20.3331 6.24922 20.3339ZM11.9983 12.5606L17.6233 7.56058L16.6267 6.43947L11.5303 10.9696L9.53032 8.96969L8.46966 10.0304L10.9697 12.5304L11.4697 13.0304L11.9983 12.5606Z" fill="#151516" fill-rule="evenodd"/>
</svg>
