<?xml version="1.0" encoding="UTF-8"?>
<!DOCTYPE svg
PUBLIC "-//W3C//DTD SVG 1.1//EN"
       "http://www.w3.org/Graphics/SVG/1.1/DTD/svg11.dtd">
<svg version="1.1" xmlns="http://www.w3.org/2000/svg" xmlns:xlink="http://www.w3.org/1999/xlink" viewBox="0 0 24 24">
 <path d="M11.25 11V12.75H9.5V14.25H11.25V16H12.75V14.25H14.5V12.75H12.75V11H11.25Z" fill="#151516"/>
 <path clip-rule="evenodd" d="M8 6.91465C7.4174 6.70873 7 6.15311 7 5.5V4C7 3.17157 7.67157 2.5 8.5 2.5H15.5C16.3284 2.5 17 3.17157 17 4V5.5C17 6.15311 16.5826 6.70873 16 6.91465V7.5L16.4932 7.5822C17.9398 7.82329 19 9.07486 19 10.5414V17.5C19 19.1569 17.6569 20.5 16 20.5H8C6.34315 20.5 5 19.1569 5 17.5V10.5414C5 9.07486 6.06024 7.82329 7.5068 7.5822L8 7.5V6.91465ZM8.5 4H15.5V5.5H8.5L8.5 4ZM9.5 7V7.5C9.5 8.23326 8.96988 8.85904 8.2466 8.97959L7.7534 9.06179C7.03012 9.18234 6.5 9.80812 6.5 10.5414V17.5C6.5 18.3284 7.17157 19 8 19H16C16.8284 19 17.5 18.3284 17.5 17.5V10.5414C17.5 9.80812 16.9699 9.18234 16.2466 9.06179L15.7534 8.97959C15.0301 8.85904 14.5 8.23326 14.5 7.5V7H9.5Z" fill="#151516" fill-rule="evenodd"/>
</svg>
