<?xml version="1.0" encoding="UTF-8"?>
<!DOCTYPE svg
PUBLIC "-//W3C//DTD SVG 1.1//EN"
       "http://www.w3.org/Graphics/SVG/1.1/DTD/svg11.dtd">
<svg version="1.1" xmlns="http://www.w3.org/2000/svg" xmlns:xlink="http://www.w3.org/1999/xlink" viewBox="0 0 24 24">
 <path clip-rule="evenodd" d="M6.25 6.23597C6.25 4.19167 8.40136 2.86206 10.2298 3.7763L11.8882 4.60547C11.9586 4.64067 12.0414 4.64067 12.1118 4.60547L13.7702 3.7763C15.5986 2.86206 17.75 4.19167 17.75 6.23597V6.99988H16.25V6.23597C16.25 5.30674 15.2721 4.70237 14.441 5.11794L12.7826 5.94711C12.29 6.19345 11.71 6.19345 11.2174 5.94711L9.55902 5.11794C8.72789 4.70237 7.75 5.30674 7.75 6.23597V6.99988H6.25V6.23597ZM3 8.5C3 7.67157 3.67157 7 4.5 7H19.5C20.3284 7 21 7.67157 21 8.5V18.5C21 19.3284 20.3284 20 19.5 20H4.5C3.67157 20 3 19.3284 3 18.5V8.5ZM4.5 8.5V18.5H9.25V8.5H4.5ZM10.75 8.5V18.5H13.25V8.5H10.75ZM14.75 8.5V18.5H19.5V8.5H14.75Z" fill="#151516" fill-rule="evenodd"/>
</svg>
