<?xml version="1.0" encoding="UTF-8"?>
<!DOCTYPE svg
PUBLIC "-//W3C//DTD SVG 1.1//EN"
       "http://www.w3.org/Graphics/SVG/1.1/DTD/svg11.dtd">
<svg version="1.1" xmlns="http://www.w3.org/2000/svg" xmlns:xlink="http://www.w3.org/1999/xlink" viewBox="0 0 24 24">
 <path clip-rule="evenodd" d="M15.444 2.40519C14.4549 1.75584 13.0117 1.75573 11.6907 3.09819C11.7301 3.05814 11.7695 3.01924 11.8091 2.98157C13.0973 1.75624 14.4844 1.77518 15.444 2.40519ZM11.6906 2.68221C12.4267 2.01464 13.2083 1.70539 13.9502 1.68296C14.7618 1.65842 15.4964 1.9783 16.035 2.49398C17.2867 3.69138 17.3085 5.69244 16.1019 6.91865L11.6906 11.4017L7.27933 6.9179C6.07276 5.69169 6.09452 3.69063 7.34624 2.49323C7.88498 1.97776 8.62024 1.65859 9.43195 1.68343C10.1739 1.70614 10.9555 2.01527 11.6906 2.68221ZM15.153 5.96732C15.8356 5.2736 15.8193 4.14632 15.1152 3.47225C14.8198 3.18964 14.423 3.03174 13.9932 3.03174C13.1921 3.03174 12.7975 3.4419 12.1781 4.08583C12.0918 4.17553 12.0012 4.26977 11.9045 4.36806L11.6906 4.58537L11.4768 4.36806C11.383 4.27277 11.2951 4.18164 11.2114 4.09498C10.5723 3.43289 10.1851 3.03174 9.38802 3.03174C8.95817 3.03174 8.56168 3.18964 8.26728 3.47255C7.56139 4.14773 7.54744 5.27553 8.22837 5.96817L11.6906 9.48671L15.153 5.96732ZM11.4582 3.91779C11.5331 3.99581 11.6102 4.07595 11.6906 4.15764C11.6186 4.08446 11.5492 4.01255 11.4817 3.94227L11.4582 3.91779ZM9.98619 12.5487C10.5913 12.4528 11.1527 12.8854 11.2141 13.495L11.6136 17.4609C11.7479 18.7937 11.2141 20.1067 10.1879 20.9678L10.0347 21.0963L9.10002 19.9825L9.25323 19.8539C9.91084 19.3021 10.2529 18.4607 10.1669 17.6066L9.80849 14.0491L9.50811 14.0967L8.74629 16.9596C8.67426 17.2303 8.4531 17.4356 8.17777 17.4872C7.90244 17.5389 7.62193 17.4277 7.45667 17.2016L3.13739 11.2895L2.85268 11.5284L4.21514 17.6382L7.75782 21.8602L6.64394 22.7949L2.98722 18.4369C2.91229 18.3476 2.85993 18.2416 2.83456 18.1278L1.3838 11.6221C1.29617 11.2291 1.43474 10.8201 1.74315 10.5613L2.51053 9.91739C2.98859 9.51625 3.7063 9.60341 4.07445 10.1073L7.73263 15.1145L8.1658 13.4866C8.27548 13.0744 8.6178 12.7656 9.03906 12.6989L9.98619 12.5487ZM13.7991 12.5487C13.1939 12.4528 12.6326 12.8854 12.5712 13.495L12.1717 17.4609C12.0374 18.7937 12.5712 20.1067 13.5974 20.9678L13.7506 21.0963L14.6853 19.9825L14.5321 19.8539C13.8744 19.3021 13.5324 18.4607 13.6184 17.6066L13.9768 14.0491L14.2772 14.0967L15.039 16.9596C15.111 17.2303 15.3322 17.4356 15.6075 17.4872C15.8828 17.5389 16.1634 17.4277 16.3286 17.2016L20.6479 11.2895L20.9326 11.5284L19.5701 17.6382L16.0275 21.8602L17.1413 22.7949L20.7981 18.4369C20.873 18.3476 20.9254 18.2416 20.9507 18.1278L22.4015 11.6221C22.4891 11.2291 22.3505 10.8201 22.0421 10.5613L21.2748 9.91739C20.7967 9.51625 20.079 9.60341 19.7108 10.1073L16.0527 15.1145L15.6195 13.4866C15.5098 13.0744 15.1675 12.7656 14.7462 12.6989L13.7991 12.5487Z" fill="#151516" fill-rule="evenodd"/>
</svg>
