<?xml version="1.0" encoding="UTF-8"?>
<!DOCTYPE svg
PUBLIC "-//W3C//DTD SVG 1.1//EN"
       "http://www.w3.org/Graphics/SVG/1.1/DTD/svg11.dtd">
<svg version="1.1" xmlns="http://www.w3.org/2000/svg" xmlns:xlink="http://www.w3.org/1999/xlink" viewBox="0 0 24 24">
 <path clip-rule="evenodd" d="M20.477 4.60852L20.4988 4.06175C20.4996 4.04133 20.5 4.02075 20.5 4C20.5 3.17157 19.8284 2.5 19 2.5C18.5442 2.5 18.1371 2.70146 17.8596 3.02544L17.4844 3.46371L16.9122 3.53753C16.1104 3.64098 15.3957 3.95215 14.8317 4.39532L14.0789 4.98696L13.2253 4.55315C13.1593 4.5196 13.0841 4.5 13 4.5C12.7239 4.5 12.5 4.72386 12.5 5C12.5 5.02927 12.5024 5.05689 12.5066 5.08296L12.6897 6.2053L11.6586 6.6847C10.9714 7.00416 10.5 7.69858 10.5 8.5C10.5 9.53917 11.2937 10.3947 12.3069 10.4909L13.2662 10.5819L13.5822 11.4923C13.7866 12.0809 14.3463 12.5 15 12.5C15.6524 12.5 16.2113 12.0826 16.4166 11.4957L16.7483 10.5476L17.7513 10.4932C17.9081 10.4847 18.0622 10.4683 18.2128 10.4446L19.141 10.2982L19.6777 11.0695C19.8609 11.3328 20.1611 11.5 20.5 11.5C21.0523 11.5 21.5 11.0523 21.5 10.5C21.5 10.2792 21.4302 10.0791 21.3111 9.91473L20.7815 9.18402L21.1789 8.37383C21.3868 7.9502 21.5 7.48698 21.5 7C21.5 6.28398 21.2543 5.6103 20.8125 5.04086L20.477 4.60852ZM11.0262 5.32451C11.009 5.21889 11 5.11049 11 5C11 3.89543 11.8954 3 13 3C13.3257 3 13.6332 3.07784 13.9049 3.21593C14.6833 2.60421 15.6524 2.18764 16.7202 2.04986C17.2705 1.40724 18.0877 1 19 1C20.6569 1 22 2.34315 22 4C22 4.04065 21.9992 4.08111 21.9976 4.12136C22.6291 4.93529 23 5.92826 23 7C23 7.72447 22.8305 8.41295 22.5256 9.03447C22.824 9.44624 23 9.95257 23 10.5C23 11.8807 21.8807 13 20.5 13C20.2525 13 20.0134 12.964 19.7876 12.897L16.75 17.2364V20.25H21H21.75V21.75H21H3H2.25V20.25H3H4.25V18C4.25 17.5857 4.58579 17.25 5 17.25H13.5C13.9142 17.25 14.25 17.5857 14.25 18V20.25H15.25V17.0092C15.2499 17.0026 15.2499 16.9961 15.25 16.9895V13.9897C15.1676 13.9965 15.0842 14 15 14C13.6879 14 12.5725 13.1576 12.1652 11.9842C10.3892 11.8156 9 10.3201 9 8.5C9 7.09352 9.82962 5.8808 11.0262 5.32451ZM16.75 14.6207L18.5443 12.0575C18.5103 12.0148 18.4777 11.9711 18.4465 11.9262C18.2453 11.958 18.0405 11.9797 17.8324 11.991C17.7667 12.179 17.6827 12.3585 17.5826 12.5273C17.502 12.6635 17.4108 12.7927 17.3103 12.9139C17.1467 13.1111 16.9584 13.2871 16.75 13.437V14.6207ZM4.5 7.5C5.05228 7.5 5.5 7.05228 5.5 6.5C5.5 5.94772 5.05228 5.5 4.5 5.5C3.94772 5.5 3.5 5.94772 3.5 6.5C3.5 7.05228 3.94772 7.5 4.5 7.5ZM4.5 9C5.88071 9 7 7.88071 7 6.5C7 5.11929 5.88071 4 4.5 4C3.11929 4 2 5.11929 2 6.5C2 7.88071 3.11929 9 4.5 9ZM12.75 20.25V18.75H5.75V20.25H12.75Z" fill="#151516" fill-rule="evenodd"/>
</svg>
