<?xml version="1.0" encoding="UTF-8"?>
<!DOCTYPE svg
PUBLIC "-//W3C//DTD SVG 1.1//EN"
       "http://www.w3.org/Graphics/SVG/1.1/DTD/svg11.dtd">
<svg version="1.1" xmlns="http://www.w3.org/2000/svg" xmlns:xlink="http://www.w3.org/1999/xlink" viewBox="0 0 24 24">
 <path clip-rule="evenodd" d="M11.151 1.12795L10.6638 0.275391L9.96945 0.969725L9.96863 0.970553L9.96748 0.971705L9.96423 0.974976L9.95399 0.985379C9.94552 0.994024 9.93379 1.00608 9.91899 1.02151C9.8894 1.05236 9.8475 1.0967 9.79478 1.15417C9.68937 1.26907 9.54055 1.43659 9.36022 1.6538C8.99978 2.08797 8.51213 2.72226 7.99308 3.53327C6.95674 5.15255 5.78406 7.49394 5.2619 10.3659C4.819 12.8019 5.19471 15.6726 7.61023 17.1409C8.57718 17.7287 9.47042 17.8751 10.3042 17.8751C10.7004 17.8751 11.087 17.8418 11.4397 17.8115L11.4594 17.8098C11.8275 17.7782 12.162 17.7501 12.4998 17.7501C12.6656 17.7501 12.8638 17.7567 13.0847 17.7641C13.7263 17.7856 14.5602 17.8135 15.3537 17.704C16.4718 17.5498 17.6808 17.1149 18.5885 15.9647C20.1728 13.9572 19.729 11.316 19.2113 9.7629C18.667 8.13004 17.6253 6.31619 16.7465 4.94022C16.3028 4.24543 15.892 3.64918 15.592 3.22626C15.4418 3.01465 15.3191 2.84604 15.2335 2.72974C15.1907 2.67158 15.1571 2.62647 15.134 2.59558L15.1074 2.56004L15.1002 2.55054L15.0982 2.5479L15.0974 2.54685L14.5775 1.86172L13.9695 2.46972L12.6638 3.7754L11.151 1.12795ZM9.25649 4.34185C9.67069 3.69465 10.0618 3.17134 10.3713 2.78691L11.8486 5.37216L12.3358 6.22471L13.0301 5.53039L14.4091 4.15141C14.6944 4.55511 15.0742 5.10849 15.4824 5.7476C16.3466 7.10087 17.3049 8.78702 17.7883 10.2372C18.2705 11.6841 18.499 13.6568 17.411 15.0354C16.8225 15.7812 16.0315 16.0963 15.1487 16.2181C14.9589 16.2443 14.7721 16.2611 14.5878 16.2714C14.6511 16.1498 14.7065 16.0292 14.7547 15.9135C15.1099 15.0611 15.2499 14.0864 15.2499 13.5001C15.2499 12.2746 14.6488 11.1214 14.1239 10.334C13.8534 9.92815 13.5839 9.59141 13.3818 9.35571C13.2805 9.23747 13.1952 9.14364 13.1341 9.07816C13.1036 9.0454 13.0789 9.01966 13.0613 9.00144L13.0402 8.97978L13.0338 8.97328L13.0316 8.97113L13.0308 8.97034L12.4937 8.43315L11.9634 8.97597L11.9621 8.97735L11.96 8.97949L11.9537 8.98601L11.9328 9.00789C11.9154 9.02634 11.8909 9.05244 11.8605 9.08568C11.7998 9.15212 11.7149 9.24733 11.6139 9.36711C11.4127 9.60586 11.1441 9.94626 10.8744 10.3541C10.3527 11.1428 9.7499 12.2968 9.7499 13.5001C9.7499 14.0864 9.88993 15.0611 10.2451 15.9135C10.3067 16.0613 10.3801 16.2171 10.4666 16.3729C10.4123 16.3743 10.3583 16.3751 10.3042 16.3751C9.67425 16.3751 9.06748 16.2714 8.38939 15.8592C6.77274 14.8764 6.33651 12.8408 6.73771 10.6342C7.21552 8.00617 8.29283 5.84756 9.25649 4.34185ZM12.5045 10.652C12.3847 10.8074 12.2549 10.9858 12.1254 11.1816C11.6471 11.9047 11.2499 12.7507 11.2499 13.5001C11.2499 13.9137 11.3599 14.689 11.6297 15.3366C11.9209 16.0354 12.2404 16.2501 12.4999 16.2501C12.7594 16.2501 13.0789 16.0354 13.3701 15.3366C13.6399 14.689 13.7499 13.9137 13.7499 13.5001C13.7499 12.7255 13.351 11.8787 12.8759 11.1661C12.7491 10.9759 12.622 10.8029 12.5045 10.652ZM11.9999 20.6529L3.17168 22.7301L2.82812 21.27L8.72536 19.8824L3.82812 18.7301L4.17168 17.27L11.9999 19.1119L19.8281 17.27L20.1717 18.7301L15.2745 19.8824L21.1717 21.27L20.8281 22.7301L11.9999 20.6529Z" fill="#151516" fill-rule="evenodd"/>
</svg>
