<?xml version="1.0" encoding="UTF-8"?>
<!DOCTYPE svg
PUBLIC "-//W3C//DTD SVG 1.1//EN"
       "http://www.w3.org/Graphics/SVG/1.1/DTD/svg11.dtd">
<svg version="1.1" xmlns="http://www.w3.org/2000/svg" xmlns:xlink="http://www.w3.org/1999/xlink" viewBox="0 0 24 24">
 <path clip-rule="evenodd" d="M4.04312 6.90273L6.36121 7.04583L5.27565 4.99263C4.80998 4.11189 3.56844 4.05804 3.02826 4.89516C2.48809 5.73229 3.04874 6.84135 4.04312 6.90273ZM7.15807 8.59787C7.93727 8.64597 8.46862 7.82252 8.10372 7.13236L6.60171 4.29152C5.60012 2.39715 2.92972 2.28134 1.76788 4.08188C0.606042 5.88242 1.81192 8.26786 3.9507 8.39988L7.15807 8.59787ZM12.8426 12.5734L11.7696 10.5354L14.0687 10.6733C15.0599 10.7328 15.6198 11.8381 15.0814 12.6725C14.543 13.5068 13.3052 13.4521 12.8426 12.5734ZM10.0289 10.449C9.66591 9.75963 10.1959 8.93831 10.9736 8.98497L14.1585 9.17603C16.2954 9.30422 17.5025 11.687 16.3418 13.4858C15.1811 15.2845 12.5126 15.1665 11.5153 13.2722L10.0289 10.449ZM8.89652 11.9808L9.93268 14.0638C10.3767 14.9564 9.69594 15.997 8.70021 15.9477C7.70448 15.8984 7.12979 14.7957 7.65976 13.9513L8.89652 11.9808ZM8.10005 10.4281C8.51523 9.76657 9.49455 9.81504 9.84239 10.5143L11.2757 13.3957C12.2303 15.3147 10.7667 17.5518 8.62607 17.4459C6.4854 17.3399 5.2499 14.9693 6.38926 13.1539L8.10005 10.4281ZM9.21487 5.55086L10.4417 3.60701C10.9712 2.76791 10.4004 1.66923 9.40938 1.62019C8.41837 1.57115 7.74184 2.6081 8.18598 3.49538L9.21487 5.55086ZM8.27034 7.015C8.61893 7.7114 9.59459 7.75968 10.0102 7.1011L11.7102 4.40758C12.8525 2.59766 11.6211 0.227805 9.48352 0.122022C7.3459 0.0162402 5.88664 2.25295 6.84464 4.16681L8.27034 7.015ZM6.22816 10.2345L4.92939 12.1861C4.37541 13.0186 3.13056 12.9481 2.67401 12.0585C2.21747 11.1689 2.88607 10.1165 3.88536 10.1518L6.22816 10.2345ZM7.17557 8.76706C7.95751 8.79468 8.40626 9.66909 7.97278 10.3205L6.17814 13.0172C4.98965 14.8031 2.31896 14.652 1.33949 12.7434C0.360025 10.8349 1.79443 8.57702 3.9383 8.65273L7.17557 8.76706ZM11.9908 7.27677L14.2387 7.37533C15.2217 7.41843 15.8849 6.38417 15.4357 5.50883C14.9865 4.63349 13.7595 4.56931 13.2214 5.39301L11.9908 7.27677ZM10.2551 7.19095C9.83136 7.83961 10.2744 8.70296 11.0485 8.7369L14.173 8.87389C16.3058 8.9674 17.7449 6.72327 16.7702 4.82395C15.7955 2.92463 13.1332 2.78537 11.9656 4.57263L10.2551 7.19095ZM17.1326 15.7904C17.3105 15.6719 17.6153 15.5656 18.0619 15.5011C18.4967 15.4384 19.0052 15.4235 19.5409 15.442C20.12 15.4621 20.7082 15.5203 21.2349 15.589L17.9267 17.7945L18.7587 19.0425L23.0519 16.1804C23.8017 15.6805 23.628 14.4663 22.6656 14.2935C21.9492 14.1648 20.7672 13.9836 19.5928 13.9429C19.0058 13.9226 18.4013 13.9366 17.8477 14.0165C17.3058 14.0947 16.7469 14.2448 16.3006 14.5423C15.2703 15.2292 14.7117 15.8457 14.1035 16.5805L13.0236 14.7806L11.7373 15.5523L13.0957 17.8163C12.564 18.5219 12.266 19.1256 11.9003 19.8668C11.8391 19.9907 11.776 20.1185 11.7096 20.2512L10.9644 21.7418L10.7188 22.233L10.65 22.3706L10.6318 22.4069L10.6272 22.4162L10.626 22.4185L11.2964 22.7547L11.9672 23.0901L11.9688 23.087L11.9735 23.0777L11.9916 23.0414L12.0604 22.9038L12.306 22.4126L13.0513 20.9221C13.1212 20.7823 13.1861 20.651 13.2476 20.5267C13.6825 19.6476 13.9465 19.1141 14.5808 18.3589C14.7527 18.1543 14.9062 17.9676 15.0482 17.7948C15.7445 16.9476 16.1657 16.435 17.1326 15.7904Z" fill="#151516" fill-rule="evenodd"/>
</svg>
