<?xml version="1.0" encoding="UTF-8"?>
<!DOCTYPE svg
PUBLIC "-//W3C//DTD SVG 1.1//EN"
       "http://www.w3.org/Graphics/SVG/1.1/DTD/svg11.dtd">
<svg version="1.1" xmlns="http://www.w3.org/2000/svg" xmlns:xlink="http://www.w3.org/1999/xlink" viewBox="0 0 24 24">
 <path clip-rule="evenodd" d="M13.7992 4.41384C13.7992 4.91854 13.3901 5.32768 12.8854 5.32768C12.3807 5.32768 11.9715 4.91854 11.9715 4.41384C11.9715 3.90914 12.3807 3.5 12.8854 3.5C13.3901 3.5 13.7992 3.90914 13.7992 4.41384ZM15.2992 4.41384C15.2992 5.74696 14.2185 6.82768 12.8854 6.82768C11.5523 6.82768 10.4715 5.74696 10.4715 4.41384C10.4715 3.08071 11.5523 2 12.8854 2C14.2185 2 15.2992 3.08071 15.2992 4.41384ZM11.3298 7.16457L10.8298 8.16457L10.8122 8.19976L10.7984 8.2366L9.29812 12.2366L9.25316 12.3565L9.25052 12.4845L9.12782 18.4286L4.70523 20.6399L5.37605 21.9815L9.93367 19.7027C10.3489 19.4951 10.6148 19.0746 10.6244 18.6105L10.7108 14.4228L13.4186 17.4577L14.5783 21.5167L14.7337 22.0607H15.2994H17.0972C17.4608 22.0673 17.7849 21.8081 17.8489 21.4386L20.2395 7.6279L18.7615 7.37206L18.151 10.8989L14.3623 10.7625L12.3908 8.39666L12.6714 7.83539L11.3298 7.16457ZM17.8928 12.3906L16.4785 20.5607H15.8652L14.8451 16.9905C14.7934 16.8094 14.7014 16.6423 14.5759 16.5017L10.8618 12.3389L11.75 9.97077L13.2815 11.8086C13.5089 12.0815 13.8417 12.2447 14.1968 12.2575L17.8928 12.3906ZM4.39106 7.8881H4.92286H9.11265H10.0591L9.84281 8.80946L8.89904 12.8308C8.5438 14.3445 7.00533 15.2628 5.50438 14.8572L4.07339 14.4705C3.09162 14.2052 2.542 13.1618 2.87849 12.2021L4.21511 8.38995L4.39106 7.8881ZM5.45466 9.3881L4.294 12.6984C4.24593 12.8355 4.32445 12.9846 4.4647 13.0225L5.89569 13.4092C6.57794 13.5935 7.27725 13.1761 7.43872 12.4881L8.16626 9.3881H5.45466ZM4.50031 6.75H10.0003V5.25H4.50031V6.75ZM3.00024 4.75H8.50024V3.25H3.00024V4.75Z" fill="#151516" fill-rule="evenodd"/>
</svg>
