<?xml version="1.0" encoding="UTF-8"?>
<!DOCTYPE svg
PUBLIC "-//W3C//DTD SVG 1.1//EN"
       "http://www.w3.org/Graphics/SVG/1.1/DTD/svg11.dtd">
<svg version="1.1" xmlns="http://www.w3.org/2000/svg" xmlns:xlink="http://www.w3.org/1999/xlink" viewBox="0 0 24 24">
 <path clip-rule="evenodd" d="M20.5 4.5C20.5 5.05228 20.0523 5.5 19.5 5.5C18.9477 5.5 18.5 5.05228 18.5 4.5C18.5 3.94772 18.9477 3.5 19.5 3.5C20.0523 3.5 20.5 3.94772 20.5 4.5ZM22 4.5C22 5.88071 20.8807 7 19.5 7C18.1193 7 17 5.88071 17 4.5C17 3.11929 18.1193 2 19.5 2C20.8807 2 22 3.11929 22 4.5ZM16.6069 5.36126L10.5469 9.09052L4.20602 7.27886L3.79394 8.72114L9.83018 10.4458L10.0684 10.6134L14.1756 13.5031C14.3317 13.6129 14.3122 13.85 14.1403 13.9328L9.37997 16.2254L0.703577 13.7782L0.296387 15.2218L19.787 20.7192L19.8036 20.7243C19.8232 20.7301 19.8487 20.7373 19.8795 20.7452C19.9409 20.7609 20.0246 20.7796 20.1252 20.7955C20.3228 20.8267 20.6046 20.8498 20.9185 20.805C21.2358 20.7596 21.601 20.6424 21.937 20.3811C22.2774 20.1163 22.545 19.7367 22.7115 19.2372C22.878 18.7377 22.8917 18.2734 22.7782 17.8573C22.6663 17.4467 22.4444 17.1338 22.2178 16.9072C21.9935 16.6829 21.7543 16.5323 21.5775 16.4387C21.4875 16.3911 21.4092 16.3559 21.3507 16.3316C21.3213 16.3194 21.2966 16.3099 21.2774 16.3028L21.2529 16.2939L21.2439 16.2908L21.2402 16.2895L21.2386 16.289C21.2383 16.2889 21.2372 16.2885 21 17C20.7628 17.7115 20.7625 17.7114 20.7621 17.7113L20.7603 17.7107L20.7583 17.71L20.756 17.7092C20.7585 17.7101 20.7655 17.7128 20.7762 17.7172C20.7978 17.7262 20.8328 17.7417 20.8756 17.7644C20.9644 17.8114 21.0689 17.8796 21.1572 17.9678C21.2431 18.0537 21.3025 18.147 21.3311 18.252C21.3582 18.3516 21.372 18.5123 21.2885 18.7628C21.205 19.0133 21.0975 19.1337 21.0161 19.197C20.9302 19.2639 20.8267 19.3029 20.7064 19.32C20.5829 19.3377 20.4584 19.3295 20.3591 19.3139C20.3113 19.3063 20.2739 19.2977 20.2513 19.292C20.2411 19.2894 20.2343 19.2874 20.2311 19.2865L20.2205 19.2829L20.2036 19.2782L11.5601 16.8403L14.7911 15.2842C15.9945 14.7046 16.1312 13.0449 15.0388 12.2763L14.2195 11.6999L17.7939 12.7211L18.206 11.2789L12.5014 9.64897L14.3489 8.51208L14.2724 8.8181L14.0987 9.51265L14.7845 9.71837L19.7845 11.2184L20.2155 9.78163L15.9012 8.48735L16.1762 7.3876L17.3931 6.63874L16.6069 5.36126Z" fill="#151516" fill-rule="evenodd"/>
</svg>
