<?xml version="1.0" encoding="UTF-8"?>
<!DOCTYPE svg
PUBLIC "-//W3C//DTD SVG 1.1//EN"
       "http://www.w3.org/Graphics/SVG/1.1/DTD/svg11.dtd">
<svg version="1.1" xmlns="http://www.w3.org/2000/svg" xmlns:xlink="http://www.w3.org/1999/xlink" viewBox="0 0 24 24">
 <path clip-rule="evenodd" d="M18.779 1.36883C18.5192 1.2021 18.1838 1.21154 17.9339 1.39262L15.2871 3.30995C15.2621 3.32807 15.2382 3.34772 15.2156 3.36878L14.4365 4.09525C14.0142 4.489 13.6891 4.97542 13.4868 5.5162C13.18 6.3364 13.1715 7.23841 13.463 8.06419L13.5992 8.45004C13.6062 8.47 13.604 8.49207 13.5931 8.51022L13.1331 9.27688C12.7592 9.9 12.2522 10.4327 11.6482 10.8368L9.55884 12.235C7.86176 13.3706 6.64068 15.0898 6.12736 17.0662C5.97296 17.6607 5.9432 18.2523 6.01939 18.8167C4.75448 18.2181 4.20546 16.5675 5.03087 15.2835C5.93925 13.8705 5.82829 12.0072 4.72849 10.7241L4.68766 10.6765C4.06305 9.94777 3.64875 9.29523 3.49289 8.3482L2.07558 8.34815C2.27417 9.55479 2.80001 10.6838 3.59585 11.6123L3.63668 11.66C4.31643 12.453 4.39154 13.6188 3.82126 14.5059C2.30398 16.8661 3.71341 20.0635 6.52228 20.4476H6.57148C7.3428 21.804 8.79822 22.75 10.5235 22.75H16.9998C17.4024 22.75 17.7332 22.4321 17.7492 22.0298L18.2194 10.1901H18.3586C19.408 10.1901 20.4143 9.77323 21.1563 9.03123C21.5952 8.59233 21.7303 7.93409 21.4998 7.35779L20.8208 5.66032C20.7727 5.53999 20.6942 5.43418 20.593 5.35321L18.7612 3.88775L19.1093 2.14709C19.1698 1.84441 19.0388 1.53556 18.779 1.36883ZM17.2628 3.73096L17.2008 4.04117C17.1458 4.31611 17.2487 4.59876 17.4677 4.77391L19.5015 6.401L20.1071 7.91488C20.1148 7.93406 20.1103 7.95596 20.0957 7.97057C19.635 8.43126 19.0101 8.69008 18.3586 8.69008H17.4986C17.0959 8.69008 16.7651 9.008 16.7492 9.41032L16.279 21.25H14.8535L13.8098 15.9006H12.3718L13.3611 21.25H10.5235C8.53299 21.25 7.07881 19.3699 7.57919 17.4433C8.00012 15.8226 9.00142 14.4129 10.393 13.4816L12.4824 12.0835C13.2702 11.5563 13.9316 10.8614 14.4193 10.0486L14.8793 9.28197C15.1202 8.88044 15.1695 8.39237 15.0136 7.95081L14.8775 7.56496C14.7032 7.07131 14.7083 6.53209 14.8917 6.04179C15.0126 5.71851 15.207 5.42773 15.4594 5.19235L16.2047 4.4975L17.2628 3.73096Z" fill="#151516" fill-rule="evenodd"/>
</svg>
