<?xml version="1.0" encoding="UTF-8"?>
<!DOCTYPE svg
PUBLIC "-//W3C//DTD SVG 1.1//EN"
       "http://www.w3.org/Graphics/SVG/1.1/DTD/svg11.dtd">
<svg version="1.1" xmlns="http://www.w3.org/2000/svg" xmlns:xlink="http://www.w3.org/1999/xlink" viewBox="0 0 24 24">
 <path clip-rule="evenodd" d="M17.4911 0.671884C17.4573 0.598687 17.4116 0.530512 17.3548 0.470437C17.1875 0.293615 16.9448 0.208964 16.7039 0.243386L13.6511 0.6795C13.4443 0.709044 13.2592 0.823506 13.1403 0.995319C13.0215 1.16713 12.9797 1.38073 13.025 1.58466L13.5551 3.97014L13.0628 7.90838L7.29181 10.7939C8.36174 8.97505 8.62044 6.75363 7.93435 4.69536C7.56572 3.58947 5.99326 3.6133 5.6583 4.72983L5.55722 5.06676C5.06486 6.70795 4.1729 8.20129 2.96131 9.41288L2.70991 9.66428C1.75463 10.6196 1.27858 11.9532 1.413 13.2974L1.70545 16.2219C1.52684 17.0284 1.50504 17.8699 1.65064 18.6998L2.11572 21.3504C2.17867 21.7091 2.49023 21.9707 2.85444 21.9707H17.6823C18.0965 21.9707 18.4323 21.6349 18.4323 21.2207V6.84506L22.6137 6.08481C22.9163 6.02979 23.1547 5.79559 23.215 5.49399L23.6511 3.31342C23.692 3.10905 23.6459 2.89688 23.5241 2.7278C23.4022 2.55872 23.2155 2.44798 23.0087 2.42213L19.8604 2.02859L19.1786 1.00586C19.0395 0.79721 18.8053 0.671884 18.5545 0.671884H17.4911ZM17.3376 2.17188L16.6732 5.49407C16.6031 5.84464 16.2952 6.09698 15.9377 6.09698H14.8009L14.5015 8.49272C14.4704 8.74155 14.317 8.95837 14.0927 9.07052L5.74658 13.2436C5.0975 13.5681 4.52995 14.0332 4.08468 14.6041L3.20923 16.3823C3.0374 17.0483 3.00686 17.7497 3.12807 18.4405L3.4843 20.4707H14.8495L14.4072 18.7266L7.75768 18.2151L7.75766 16.686L14.0338 17.2538L12.9246 12.8799H14.3519L16.3206 20.4707H16.9323V6.21913C16.9323 5.85667 17.1915 5.54607 17.5481 5.48123L21.844 4.70015L22.022 3.81046L19.3337 3.47443C19.1174 3.4474 18.9236 3.32761 18.8027 3.14625L18.1531 2.17188H17.3376ZM15.231 4.59698L14.665 2.04989L15.8666 1.87822L15.3229 4.59698H15.231ZM6.75611 6.20822C6.1638 7.80765 5.23215 9.26336 4.02197 10.4735L3.77057 10.7249C3.13342 11.3621 2.8159 12.2516 2.90556 13.1482L2.94337 13.5263L3.05384 13.3019C3.09013 13.2282 3.13828 13.1609 3.19638 13.1028L5.08422 11.215C6.4116 9.88761 7.01423 8.02665 6.75611 6.20822Z" fill="#151516" fill-rule="evenodd"/>
</svg>
