<?xml version="1.0" encoding="UTF-8"?>
<!DOCTYPE svg
PUBLIC "-//W3C//DTD SVG 1.1//EN"
       "http://www.w3.org/Graphics/SVG/1.1/DTD/svg11.dtd">
<svg version="1.1" xmlns="http://www.w3.org/2000/svg" xmlns:xlink="http://www.w3.org/1999/xlink" viewBox="0 0 24 24">
 <path clip-rule="evenodd" d="M12.36 2.34215C11.4151 1.82512 10.279 1.78713 9.39094 1.86391C8.48202 1.94249 7.70809 2.15335 7.4061 2.24379C6.68558 2.45957 6.65452 3.41484 7.27953 3.72631C7.60745 3.88973 8.45152 4.35863 8.90237 4.95324C8.95987 5.02907 9.00819 5.0989 9.04876 5.16231C9.01395 5.18197 8.9778 5.2025 8.94035 5.2239C8.48963 5.48146 7.84983 5.86545 7.08396 6.376C4.30823 8.22634 3.07973 10.3735 2.56272 12.097C2.30625 12.952 2.22805 13.6914 2.21499 14.2238C2.20845 14.4902 2.2182 14.7056 2.23031 14.8589C2.23637 14.9356 2.24303 14.9969 2.24858 15.0414C2.25135 15.0637 2.25385 15.0817 2.25585 15.0954L2.25846 15.1127L2.25944 15.1189L2.25984 15.1214L2.26002 15.1224L2.27877 15.2349L2.32941 15.336L2.33001 15.3372L2.33178 15.3407L2.33877 15.3547L2.36592 15.4089L2.468 15.6127L2.824 16.3239C3.11387 16.9032 3.48874 17.6529 3.82893 18.3348C3.94704 18.5716 4.04333 18.9203 4.11385 19.3067C4.18232 19.6819 4.218 20.0435 4.23559 20.2781C4.28081 20.8812 4.92963 21.3809 5.58424 21.0601C5.86317 20.9234 6.31227 20.6725 6.73095 20.2958C7.14737 19.9212 7.58161 19.3782 7.73397 18.6546L7.73446 18.6524C7.7389 18.6475 7.75277 18.6339 7.78504 18.6136C7.88308 18.5518 8.01323 18.5061 8.24643 18.4242C8.34629 18.3892 8.47577 18.3431 8.59803 18.2859C8.7168 18.2303 8.88143 18.1408 9.02439 17.994C9.18325 17.8308 9.30683 17.6045 9.32367 17.3235C9.33916 17.0652 9.25957 16.8366 9.16654 16.6563C8.35785 15.0886 6.67576 14.531 5.40065 14.3298C5.93718 14.0639 6.53031 13.8388 7.1233 13.74C8.47688 13.5144 10.1116 13.7378 11.4588 14.044C12.1222 14.1948 12.6958 14.3608 13.1029 14.489C13.3062 14.553 13.4671 14.6073 13.5761 14.6451C13.6306 14.6641 13.672 14.6789 13.6992 14.6887L13.7291 14.6996L13.7357 14.7021L13.7369 14.7025L13.7934 14.7237L13.8529 14.7356L13.8554 14.7361L13.8615 14.7373L13.8841 14.7418L13.9691 14.7582C14.0425 14.7723 14.1484 14.7923 14.2799 14.8162C14.5427 14.864 14.909 14.9277 15.3235 14.9914C16.1401 15.1171 17.1885 15.2502 18 15.2502C18.8481 15.2502 19.8262 14.9607 20.5362 14.7062C20.9032 14.5746 21.2225 14.4433 21.4504 14.3449C21.5646 14.2956 21.6565 14.2543 21.7206 14.2248C21.7527 14.2101 21.7779 14.1983 21.7956 14.19L21.8163 14.1803L21.8222 14.1774L21.8241 14.1765L22.2926 13.9511L22.2471 13.4343L22.247 13.4326L22.2467 13.43L22.246 13.4218L22.2433 13.3945C22.2409 13.3715 22.2374 13.339 22.2326 13.2979C22.223 13.2156 22.208 13.0985 22.186 12.953C22.1421 12.6626 22.0698 12.2566 21.9555 11.7878C21.7295 10.8605 21.3284 9.64063 20.624 8.58402C19.6934 7.18807 18.575 6.14872 17.416 5.37601C16.5708 4.81255 15.729 4.53267 15.1001 4.39295C14.8432 4.33586 14.6195 4.30165 14.4423 4.28113C14.3539 4.14724 14.2386 3.98538 14.0957 3.80877C13.7249 3.35084 13.1533 2.7762 12.36 2.34215ZM10.1732 6.25556C10.2234 6.22879 10.2625 6.20835 10.2898 6.19424C10.3218 6.18382 10.3677 6.16902 10.425 6.15103C10.5447 6.1134 10.7125 6.06219 10.9039 6.00818C11.2973 5.89719 11.751 5.7857 12.0902 5.7446C12.4193 5.70472 12.8726 5.70297 13.2689 5.71454C13.4617 5.72018 13.6316 5.72863 13.7532 5.73567C13.8138 5.73918 13.8621 5.74232 13.8948 5.74456L13.9317 5.74715L13.9405 5.7478L13.9424 5.74794L13.9713 5.75016L13.9971 5.75016L13.9996 5.75016L13.9984 5.75015L13.9971 5.75016L14.0011 5.75023C14.0069 5.75035 14.0181 5.75065 14.0341 5.75137C14.0663 5.75279 14.1181 5.75586 14.1867 5.76239C14.3243 5.77548 14.5277 5.80235 14.7748 5.85725C14.9368 5.89323 15.116 5.94091 15.3067 6.00401C14.845 6.29951 14.3852 6.65993 13.9691 7.07188C13.1036 7.92896 12.3487 9.08924 12.2519 10.4468C12.1922 11.2839 12.3916 12.122 12.623 12.7874C12.3665 12.7187 12.0873 12.6486 11.7912 12.5813C10.3884 12.2625 8.52312 11.986 6.8767 12.2604C5.69679 12.457 4.60052 13.0132 3.82476 13.4921L3.7785 13.5208C3.82174 13.224 3.89105 12.8895 3.99947 12.528C4.41988 11.1265 5.44138 9.2737 7.91597 7.6241C8.6501 7.13471 9.26031 6.7687 9.68458 6.52625C9.89667 6.40505 10.0621 6.31482 10.1732 6.25556ZM11.9097 4.2555C12.0712 4.23593 12.2457 4.22368 12.4222 4.21658C12.2009 4.01728 11.9404 3.82243 11.64 3.65805C11.0844 3.35405 10.3079 3.29023 9.52015 3.35834C9.49526 3.36049 9.47047 3.36276 9.44581 3.36515C9.68026 3.56691 9.90669 3.79513 10.0976 4.04696C10.2438 4.23979 10.3577 4.41796 10.4462 4.57886L10.4966 4.56455C10.9034 4.44976 11.4497 4.31125 11.9097 4.2555ZM15.0246 8.13775C15.6213 7.54683 16.3183 7.09837 16.8993 6.8429C17.7955 7.48971 18.6501 8.32726 19.3759 9.41607C19.9431 10.2669 20.292 11.2971 20.4982 12.143C20.5831 12.4914 20.6419 12.8006 20.6815 13.0417C20.4985 13.1178 20.2756 13.2061 20.03 13.2942C19.3453 13.5396 18.5734 13.7502 18 13.7502C17.3115 13.7502 16.3599 13.6332 15.5515 13.5089C15.1535 13.4476 14.8011 13.3863 14.5482 13.3404L14.4861 13.329C14.3929 13.1489 14.271 12.8956 14.1526 12.5974C13.9035 11.97 13.7006 11.2194 13.7481 10.5534C13.8096 9.69026 14.3047 8.85052 15.0246 8.13775ZM5.17118 17.6652C4.84342 17.0082 4.48363 16.2886 4.19855 15.7189C4.48951 15.7302 4.81589 15.7567 5.15378 15.8094C6.1723 15.9682 7.11645 16.3336 7.64645 17.0448C7.46662 17.1077 7.21103 17.2023 6.98525 17.3446C6.68247 17.5354 6.37092 17.8478 6.26615 18.3455C6.2025 18.6479 6.00808 18.9285 5.72769 19.1807C5.69498 19.2102 5.66174 19.2386 5.62822 19.2661C5.61646 19.1911 5.60357 19.1147 5.58947 19.0374C5.51027 18.6034 5.38358 18.091 5.17118 17.6652ZM16 11C16.5523 11 17 10.5523 17 10C17 9.44776 16.5523 9.00005 16 9.00005C15.4477 9.00005 15 9.44776 15 10C15 10.5523 15.4477 11 16 11Z" fill="#151516" fill-rule="evenodd"/>
</svg>
