<?xml version="1.0" encoding="UTF-8"?>
<!DOCTYPE svg
PUBLIC "-//W3C//DTD SVG 1.1//EN"
       "http://www.w3.org/Graphics/SVG/1.1/DTD/svg11.dtd">
<svg version="1.1" xmlns="http://www.w3.org/2000/svg" xmlns:xlink="http://www.w3.org/1999/xlink" viewBox="0 0 24 24">
 <path clip-rule="evenodd" d="M14.5 2.716L14.17 2.70852C9.96238 2.61314 6.5 5.99791 6.5 10.2066V16.9588C6.67859 16.7815 6.89172 16.5648 7.11919 16.3228C7.75078 15.6507 8.44902 14.8292 8.84836 14.1285C9.28124 13.3689 9.64088 12.532 9.89433 11.876C10.0203 11.55 10.1184 11.273 10.1847 11.0785C10.2178 10.9813 10.2429 10.9049 10.2595 10.8536L10.278 10.7958L10.2823 10.7821L10.2833 10.7788C10.2833 10.7788 10.2833 10.7789 11 10.9999C11.7167 11.2208 11.7166 11.221 11.7166 11.221L11.7159 11.2233L11.7143 11.2286L11.7085 11.2471L11.6868 11.3149C11.6679 11.3732 11.6403 11.4571 11.6045 11.5623C11.5328 11.7726 11.4279 12.0688 11.2935 12.4166C11.0263 13.1083 10.6359 14.0214 10.1516 14.8712C9.65958 15.7346 8.85782 16.6631 8.21225 17.35C8.16425 17.4011 8.11686 17.4511 8.07027 17.4999C11.6277 17.4622 14.5 14.5667 14.5 11.0003V2.716ZM16 1.24962L14.204 1.2089C11.6235 1.15041 9.27664 2.1827 7.59858 3.8803L7.58373 3.87586C7.57517 3.8812 7.5607 3.8901 7.54085 3.90188C7.50107 3.92551 7.44018 3.96042 7.36227 4.00138C7.20504 4.08405 6.9859 4.18745 6.73635 4.27311C6.20293 4.45619 5.69438 4.50298 5.3275 4.32504C5.10345 4.21637 4.82364 3.89173 4.56571 3.45723C4.44891 3.26047 4.35517 3.0734 4.29063 2.93516C4.25858 2.86651 4.23429 2.81111 4.21849 2.77406C4.2106 2.75557 4.20487 2.74174 4.20138 2.73322L4.19767 2.72412C4.19767 2.72412 4.19777 2.72437 3.5002 2.99985C2.80262 3.27533 2.80274 3.27561 2.80274 3.27561L2.80316 3.27669L2.80393 3.27863L2.80617 3.28421L2.81341 3.30204C2.81945 3.31678 2.82793 3.33718 2.83875 3.36256C2.86038 3.41326 2.89151 3.48414 2.93146 3.56971C3.01091 3.7399 3.12746 3.97294 3.27586 4.22292C3.54832 4.68191 4.01851 5.35727 4.67289 5.67466C5.13957 5.90101 5.627 5.95837 6.07841 5.93067C5.39083 7.20167 5 8.65763 5 10.2066V18.25H1V19.75H5.25V22.1908C5.25 23.3447 6.34721 24.1827 7.46046 23.8791L9.64968 23.2821C11.0775 22.8926 11.4073 21.0168 10.198 20.1637L9.61149 19.75H23V18.25H15.9352L14.4766 15.6974C15.4348 14.3784 16 12.7553 16 11.0003V7.75001H20.8874L20.7395 6.87479L20.7393 6.87368L20.7389 6.87135L20.7376 6.86384L20.733 6.83768C20.729 6.81543 20.7232 6.78367 20.7155 6.74339C20.7002 6.66285 20.6773 6.54799 20.6467 6.4066C20.5855 6.12442 20.4925 5.73353 20.3646 5.29717C20.1161 4.44914 19.7097 3.33426 19.0922 2.53971C18.4747 1.74522 17.4858 1.45379 16.796 1.33674C16.4968 1.28597 16.2209 1.2626 16 1.25253V1.24962ZM19.0695 6.25001H16V2.75453C16.1593 2.76385 16.3469 2.78198 16.5451 2.8156C17.1356 2.9158 17.6467 3.12424 17.9078 3.4602C18.3433 4.02049 18.6868 4.90565 18.9251 5.71893C18.9802 5.90705 19.0283 6.08624 19.0695 6.25001ZM13.4248 16.8801C12.8235 17.4351 12.137 17.899 11.387 18.25H14.2076L13.4248 16.8801ZM6.75 19.75H7.00929L9.33333 21.3894C9.5061 21.5113 9.45897 21.7793 9.255 21.8349L7.06578 22.432C6.90674 22.4753 6.75 22.3556 6.75 22.1908V19.75ZM13 6C13 6.55228 12.5523 7 12 7C11.4477 7 11 6.55228 11 6C11 5.44772 11.4477 5 12 5C12.5523 5 13 5.44772 13 6Z" fill="#151516" fill-rule="evenodd"/>
</svg>
