<?xml version="1.0" encoding="UTF-8"?>
<!DOCTYPE svg
PUBLIC "-//W3C//DTD SVG 1.1//EN"
       "http://www.w3.org/Graphics/SVG/1.1/DTD/svg11.dtd">
<svg version="1.1" xmlns="http://www.w3.org/2000/svg" xmlns:xlink="http://www.w3.org/1999/xlink" viewBox="0 0 24 24">
 <path clip-rule="evenodd" d="M11.1669 1.25575L10.1152 1.38761L10.5891 2.33539L11.0515 3.26028C10.5152 3.28388 9.8443 3.33642 9.12264 3.44748C7.92615 3.6316 6.52998 3.98523 5.37379 4.67955C3.03415 6.08458 1.84889 8.15424 1.05882 10.2336C0.268887 12.3126-0.307226 15.0428 1.08909 17.8354C1.86744 19.3921 3.65773 21.302 6.78866 22.2197C8.68536 22.7756 11.4494 22.6282 13.6368 22.3765C14.7514 22.2482 15.7542 22.0879 16.4781 21.9597C16.8404 21.8955 17.1337 21.8392 17.3371 21.7989C17.4389 21.7787 17.5183 21.7624 17.5726 21.7511L17.6351 21.738L17.6517 21.7345L17.6562 21.7335L17.6575 21.7333C17.6575 21.7333 17.8267 21.684 17.9187 21.6221C18.0099 21.5607 18.0564 21.5145 18.1185 21.4238C18.1711 21.3471 18.1945 21.2979 18.2204 21.2086C18.2455 21.1221 18.2497 20.9797 18.2497 20.9797C18.2497 20.9797 18.2353 20.8207 18.1986 20.7268C18.1607 20.63 18.1283 20.5775 18.059 20.5C17.9875 20.4201 17.9371 20.381 17.8416 20.3322C17.7599 20.2904 17.6183 20.2594 17.6183 20.2594L17.614 20.2587L17.6009 20.2566L17.5489 20.2482L17.3494 20.2158C17.1767 20.1877 16.9284 20.1468 16.6264 20.0962C16.0223 19.995 15.2047 19.855 14.3491 19.6996C13.4925 19.5439 12.6028 19.3737 11.853 19.2121C11.0795 19.0454 10.5204 18.9012 10.2805 18.8044C9.69575 18.5687 9.027 18.229 8.51748 17.8008C8.00169 17.3674 7.75 16.9327 7.75 16.5C7.75 16.062 7.80305 15.7082 7.9944 15.3665C8.18811 15.0206 8.56917 14.6074 9.37052 14.1521C9.98031 13.8056 10.7811 13.625 12.0135 13.7369L12.0469 15.7063L9.88075 16.2665L10.2563 17.7187L12.8043 17.0598L15.3074 17.7247L15.6925 16.275L13.5471 15.7051L13.5178 13.976C13.7843 14.0333 14.0656 14.1002 14.363 14.1775C16.3272 14.6877 19.0325 13.8502 21.2297 12.0846C22.2263 11.2838 22.7438 10.5716 23.0054 10.0066C23.1361 9.72439 23.2005 9.48415 23.2296 9.29599C23.2441 9.20231 23.2497 9.12278 23.2508 9.05873C23.2513 9.02675 23.2507 8.99874 23.2495 8.97487C23.2489 8.96294 23.2482 8.95205 23.2474 8.94222L23.2462 8.92829L23.2455 8.92193L23.2452 8.9189L23.2451 8.91742L23.2453 8.91597L23.2216 8.79681L23.2212 8.79546L23.2202 8.79216L23.2169 8.78053L23.2046 8.73775C23.1939 8.70082 23.1782 8.64734 23.1578 8.57933C23.1169 8.44334 23.057 8.24895 22.98 8.01217C22.8263 7.53943 22.603 6.89359 22.3253 6.20409C22.0485 5.51693 21.7121 4.77255 21.3301 4.10836C20.9563 3.4585 20.5025 2.82041 19.9694 2.40718C19.271 1.86579 18.341 1.5547 17.4149 1.36954C16.4757 1.18174 15.4665 1.10944 14.5509 1.09344C13.6324 1.07738 12.7896 1.11777 12.1774 1.16193C11.8707 1.18404 11.6205 1.20721 11.4458 1.22498C11.3585 1.23387 11.29 1.24141 11.2427 1.24681L11.1879 1.25321L11.1729 1.25502L11.1687 1.25555L11.1669 1.25575ZM23.2453 8.91597L23.2381 8.85557L23.2216 8.79681L23.2453 8.91597ZM17.6575 21.7333C18.0103 21.6571 18.2595 21.3404 18.2497 20.9797C18.24 20.619 17.9746 20.3163 17.6183 20.2594C17.6183 20.2594 17.7599 20.2904 17.8416 20.3322C17.9371 20.381 17.9875 20.4201 18.059 20.5C18.1283 20.5775 18.1607 20.63 18.1986 20.7268C18.2353 20.8207 18.2497 20.9797 18.2497 20.9797C18.2497 20.9797 18.2455 21.1221 18.2204 21.2086C18.1945 21.2979 18.1711 21.3471 18.1185 21.4238C18.0564 21.5145 18.0099 21.5607 17.9187 21.6221C17.8267 21.684 17.6575 21.7333 17.6575 21.7333ZM21.5331 8.41343C21.3876 7.96969 21.1834 7.38398 20.9339 6.76451C20.6715 6.1131 20.3646 5.43819 20.0298 4.85628C19.6869 4.26005 19.3504 3.82524 19.0504 3.5927C18.6194 3.25857 17.9534 3.00691 17.1208 2.84042C16.3013 2.67656 15.3893 2.60832 14.5247 2.59321C13.7291 2.5793 12.9894 2.61059 12.4227 2.64849L12.7781 3.3594C13.0991 4.00143 12.6231 4.74724 11.9163 4.7429C11.4322 4.73993 10.4526 4.76048 9.35078 4.93003C8.23862 5.10117 7.06193 5.41547 6.14604 5.96549C4.21113 7.12746 3.19077 8.84577 2.46101 10.7664C1.73112 12.6874 1.31042 14.924 2.43073 17.1646C3.02531 18.3537 4.4854 19.9815 7.21056 20.7803C8.64421 21.2005 10.8356 21.1527 12.8743 20.9498C12.408 20.8598 11.953 20.7681 11.537 20.6785C10.7881 20.5171 10.0996 20.3488 9.71954 20.1956C9.06416 19.9313 8.23291 19.521 7.55245 18.9492C6.87826 18.3826 6.25 17.5673 6.25 16.5C6.25 15.938 6.317 15.2918 6.68566 14.6335C7.05198 13.9794 7.67091 13.3926 8.62948 12.8479C10.083 12.022 11.9485 12.0005 14.7401 12.7257C16.0768 13.0729 18.3015 12.5133 20.2901 10.9154C20.7267 10.5645 21.0324 10.2529 21.2463 9.99017L17.1338 10.7379L16.8654 9.2621L21.5331 8.41343ZM17.259 6.49324C16.9746 6.4942 16.7541 6.26703 16.7532 5.9992C16.7523 5.73137 16.9712 5.50271 17.2557 5.50175C17.5401 5.50079 17.7606 5.72796 17.7615 5.9958C17.7624 6.26363 17.5434 6.49228 17.259 6.49324ZM17.2641 7.99323C16.1572 7.99697 15.2569 7.10648 15.2532 6.00426C15.2495 4.90205 16.1437 4.0055 17.2506 4.00176C18.3575 3.99802 19.2578 4.88852 19.2615 5.99073C19.2652 7.09295 18.371 7.9895 17.2641 7.99323Z" fill="#151516" fill-rule="evenodd"/>
</svg>
