<?xml version="1.0" encoding="UTF-8"?>
<!DOCTYPE svg
PUBLIC "-//W3C//DTD SVG 1.1//EN"
       "http://www.w3.org/Graphics/SVG/1.1/DTD/svg11.dtd">
<svg version="1.1" xmlns="http://www.w3.org/2000/svg" xmlns:xlink="http://www.w3.org/1999/xlink" viewBox="0 0 24 24">
 <path d="M3 16.5807C3.00013 14.6506 4.33335 13.3638 4.33335 13.3638C4.33335 13.3638 4.90572 8.75537 6.85789 6.93011C8.45548 5.43638 9.78045 5 12.0049 5C14.2293 5 15.4849 5.50868 17.1518 6.93011C19.2531 8.72193 19.6666 13.3638 19.6666 13.3638C19.6666 13.3638 21.012 14.6506 20.9999 16.5807C20.9876 18.5439 19.0859 19.8626 17.1518 20.4409C15 21.0843 14.1517 21.0843 12.0049 21.0843C9.85798 21.0843 8.5 21 6.85789 20.4409C4.94695 19.7903 2.99986 18.5432 3 16.5807Z" stroke="#151516" stroke-width="1.5"/>
 <path d="M13.2425 12.2124C13.117 11.5852 13.5968 11 14.2364 11V11C14.7962 11 15.25 11.4538 15.25 12.0136V12.7533C15.25 13.3781 14.652 13.8291 14.0513 13.6575V13.6575C13.7128 13.5608 13.4566 13.283 13.3876 12.9378L13.2425 12.2124Z" fill="#151516"/>
 <path d="M10.7575 12.2124C10.883 11.5852 10.4032 11 9.7636 11V11C9.20381 11 8.75 11.4538 8.75 12.0136V12.7533C8.75 13.3781 9.34798 13.8291 9.94869 13.6575V13.6575C10.2872 13.5608 10.5434 13.283 10.6124 12.9378L10.7575 12.2124Z" fill="#151516"/>
 <path d="M11.25 16C10.8358 16 10.5 15.6642 10.5 15.25V15.25C10.5 14.8358 10.8358 14.5 11.25 14.5H12.75C13.1642 14.5 13.5 14.8358 13.5 15.25V15.25C13.5 15.6642 13.1642 16 12.75 16H11.25Z" fill="#151516"/>
 <path d="M12 16V17M12 17L10 18M12 17L14 18" stroke="#151516" stroke-width="1.5"/>
 <path d="M8.15123 4.35373C7.89819 3.86601 6.86057 3.33349 5.50661 4.03596C4.15265 4.73844 3.99054 5.89341 4.24358 6.38113C4.43772 6.75531 5.09368 7.15587 6 7.00484L5.77676 8.52526C4.54594 8.5825 3.42702 8.06437 2.91212 7.07192C2.14908 5.60123 3.00139 3.64587 4.81581 2.7045C6.63022 1.76313 8.71966 2.19224 9.4827 3.66293C9.74194 4.16261 9.81472 4.71823 9.72666 5.27103L8.18356 5.27103C8.29249 4.9008 8.26073 4.56479 8.15123 4.35373Z" fill="#151516"/>
 <path d="M16.0636 4.35373C16.3167 3.86601 17.3543 3.33349 18.7082 4.03596C20.0622 4.73844 20.2243 5.89341 19.9713 6.38113C19.7771 6.75531 19.1212 7.15587 18.2148 7.00484L18.4381 8.52526C19.6689 8.5825 20.7878 8.06437 21.3027 7.07192C22.0658 5.60123 21.2135 3.64587 19.399 2.7045C17.5846 1.76313 15.4952 2.19224 14.7321 3.66293C14.4729 4.16261 14.4001 4.71823 14.4882 5.27103L16.0313 5.27103C15.9224 4.9008 15.9541 4.56479 16.0636 4.35373Z" fill="#151516"/>
</svg>
