<?xml version="1.0" encoding="UTF-8"?>
<!DOCTYPE svg
PUBLIC "-//W3C//DTD SVG 1.1//EN"
       "http://www.w3.org/Graphics/SVG/1.1/DTD/svg11.dtd">
<svg version="1.1" xmlns="http://www.w3.org/2000/svg" xmlns:xlink="http://www.w3.org/1999/xlink" viewBox="0 0 24 24">
 <path d="M11.8389 9C11.5626 9 11.3079 9.12356 11.126 9.33476L10.6364 9.90297L9.5 8.92393L9.98952 8.35572C10.437 7.83626 11.0971 7.5 11.8389 7.5C13.2291 7.5 14.3077 8.66252 14.3077 10.0357C14.3077 10.6911 14.0645 11.2936 13.6613 11.7466C13.5414 11.8812 13.4328 11.9962 13.3317 12.1031C13.1624 12.2822 13.0143 12.4389 12.8699 12.6284C12.6598 12.9044 12.5889 13.0965 12.5889 13.25H11.0889C11.0889 12.6145 11.3868 12.1002 11.6766 11.7197C11.8658 11.4712 12.1151 11.2059 12.3173 10.9908C12.4029 10.8996 12.4803 10.8173 12.5409 10.7492C12.7045 10.5654 12.8077 10.3161 12.8077 10.0357C12.8077 9.43646 12.3472 9 11.8389 9Z" fill="#151516"/>
 <path d="M12.8076 15.25C12.8076 15.8023 12.3599 16.25 11.8076 16.25C11.2553 16.25 10.8076 15.8023 10.8076 15.25C10.8076 14.6977 11.2553 14.25 11.8076 14.25C12.3599 14.25 12.8076 14.6977 12.8076 15.25Z" fill="#151516"/>
 <path clip-rule="evenodd" d="M12 22C17.5228 22 22 17.5228 22 12C22 6.47715 17.5228 2 12 2C6.47715 2 2 6.47715 2 12C2 17.5228 6.47715 22 12 22ZM20.5 12C20.5 16.6944 16.6944 20.5 12 20.5C7.30558 20.5 3.5 16.6944 3.5 12C3.5 7.30558 7.30558 3.5 12 3.5C16.6944 3.5 20.5 7.30558 20.5 12Z" fill="#151516" fill-rule="evenodd"/>
</svg>
