<?xml version="1.0" encoding="UTF-8"?>
<!DOCTYPE svg
PUBLIC "-//W3C//DTD SVG 1.1//EN"
       "http://www.w3.org/Graphics/SVG/1.1/DTD/svg11.dtd">
<svg version="1.1" xmlns="http://www.w3.org/2000/svg" xmlns:xlink="http://www.w3.org/1999/xlink" viewBox="0 0 24 24">
 <path clip-rule="evenodd" d="M12 1C5.92697 1 1 5.9677 1 12C1 18.0568 5.94351 23 12 23C18.0569 23 23 18.0565 23 12C23 5.94312 18.0565 1 12 1ZM12 2.28906C13.0728 2.28906 14.1055 2.46433 15.0711 2.78707C14.8902 3.05438 14.777 3.40775 14.777 3.8637C14.777 4.55983 15.0881 5.18208 15.389 5.78387L15.3891 5.7841C15.6339 6.27368 15.8651 6.73611 15.8651 7.12803C15.8651 7.35465 15.8112 7.40686 15.6257 7.46869C15.3003 7.57718 14.7184 7.57411 14.2771 7.57177L14.1786 7.5713L14.3935 8.86102C14.9509 8.86232 15.5512 8.85223 16.0334 8.69145C16.7561 8.45052 17.1542 7.89524 17.1542 7.1279C17.1542 6.43177 16.8431 5.80952 16.5422 5.20773L16.5421 5.2075C16.2973 4.71791 16.0661 4.25548 16.0661 3.86357C16.0661 3.56115 16.1318 3.39194 16.4654 3.37836C19.5791 4.99777 21.7109 8.25446 21.7109 12C21.7109 16.328 18.8647 20.0032 14.946 21.2536C14.9607 21.1604 14.9633 21.0683 14.9609 20.9794C14.9601 20.8986 14.961 20.0539 14.9611 19.9231L14.9611 19.9062C14.9611 19.9062 14.9708 19.8123 15.1663 19.5757C15.3481 19.3558 15.6205 19.0994 15.9089 18.8279L15.9097 18.8272L15.9097 18.8272C16.8941 17.9006 18.2423 16.6317 18.2423 14.7447C18.2423 14.0986 17.9164 13.7548 17.643 13.5803C17.3572 13.3978 17.0253 13.3251 16.6738 13.2481L16.6737 13.2481C15.6297 13.0194 15.2092 12.7956 14.6626 11.8818C14.3985 11.4404 14.0369 10.8358 13.2453 10.8358C12.5264 10.8358 12.1075 11.1387 11.771 11.3821L11.7709 11.3822C11.3856 11.6608 11.0216 11.9239 9.98103 11.9239C8.94741 11.9239 8.33257 11.325 8.12014 10.8122C8.03983 10.6183 7.89275 10.1277 8.26056 9.75991C8.43806 9.58245 8.5341 9.57334 9.14872 9.88065C9.71105 10.1618 10.6523 10.6325 11.5249 9.75991C11.7152 9.56952 11.8994 9.41927 12.0804 9.30074L11.4166 8.1944C11.1528 8.36298 10.8849 8.57695 10.6133 8.8485C10.4359 9.026 10.3398 9.03507 9.72519 8.72776C9.16286 8.44657 8.22154 7.97598 7.34906 8.8485C6.83872 9.35884 6.63716 10.0775 6.77827 10.8064C6.55804 10.7209 6.30838 10.6515 6.07216 10.5857L6.07215 10.5857C5.6319 10.4632 5.23831 10.3537 5.16887 10.1776C5.1195 10.0524 5.04241 9.5076 6.12308 7.75318C6.52385 7.10251 7.00531 6.14916 6.5611 5.38548C6.34566 5.01509 5.98472 4.81795 5.58618 4.71521C7.2981 3.20614 9.54382 2.28906 12 2.28906ZM12 21.7109C6.64536 21.7109 2.28906 17.3546 2.28906 12C2.28906 9.69223 3.09877 7.57031 4.44829 5.90226C5.19113 5.8959 5.39175 5.98627 5.44542 6.0343C5.45229 6.07654 5.47193 6.3524 5.02548 7.07716C3.97206 8.78736 3.65633 9.85603 3.96966 10.6506C4.27595 11.4273 5.0564 11.6427 5.7377 11.8308C5.99783 11.9026 6.2435 11.9704 6.44281 12.064L6.52881 12.1042C7.11243 12.377 9.09571 13.3039 9.33645 13.6615V14.5H10.6213V13.6567C10.6213 13.4832 10.5932 13.3282 10.5376 13.1889C11.6087 13.0904 12.1305 12.7131 12.5263 12.4269C12.8042 12.2259 12.9436 12.1251 13.2453 12.1251L13.2544 12.1253L13.2583 12.1256C13.3261 12.1588 13.4702 12.3996 13.5563 12.5436C14.2872 13.7649 15.0001 14.2012 16.3979 14.5074C16.5853 14.5484 16.864 14.6095 16.9467 14.6645C16.9495 14.6777 16.9532 14.703 16.9532 14.7448C16.9532 16.0749 15.9294 17.0384 15.0262 17.8886L15.0261 17.8886C14.3019 18.5703 13.6763 19.159 13.6763 19.906L13.6762 20.019V20.0193C13.6759 20.2996 13.6752 20.9666 13.6766 21.014C13.6807 21.1437 13.5452 21.4078 13.4284 21.5259C13.264 21.2979 12.8018 20.3513 12.8018 16.921C12.8018 16.214 12.2726 15.7779 11.7279 15.4412L10.4365 16.1792C10.5295 16.2349 10.6221 16.2879 10.7116 16.3391L10.7117 16.3391C10.9599 16.4811 11.4764 16.7766 11.5126 16.9211C11.5126 19.4922 11.7601 20.9077 12.0792 21.71L12.0445 21.7104C12.0297 21.7107 12.0149 21.7109 12 21.7109Z" fill="#151516" fill-rule="evenodd"/>
 <path d="M15.0711 2.78707L15.154 2.84313L15.2278 2.734L15.1028 2.69223L15.0711 2.78707ZM15.389 5.78387L15.4785 5.73938L15.4784 5.73915L15.389 5.78387ZM15.3891 5.7841L15.2995 5.82859L15.2996 5.82882L15.3891 5.7841ZM15.6257 7.46869L15.6574 7.56356L15.6574 7.56355L15.6257 7.46869ZM14.2771 7.57177L14.2776 7.47178L14.2775 7.47178L14.2771 7.57177ZM14.1786 7.5713L14.179 7.4713L14.0604 7.47074L14.0799 7.58774L14.1786 7.5713ZM14.3935 8.86102L14.2949 8.87746L14.3088 8.96083L14.3933 8.96102L14.3935 8.86102ZM16.0334 8.69145L16.0018 8.59658L16.0018 8.59658L16.0334 8.69145ZM16.5422 5.20773L16.4527 5.25223L16.4528 5.25245L16.5422 5.20773ZM16.5421 5.2075L16.6317 5.163L16.6315 5.16278L16.5421 5.2075ZM16.4654 3.37836L16.5115 3.28964L16.4879 3.27736L16.4613 3.27845L16.4654 3.37836ZM14.946 21.2536L14.8472 21.238L14.8219 21.3982L14.9764 21.3489L14.946 21.2536ZM14.9609 20.9794L14.8609 20.9804L14.861 20.9821L14.9609 20.9794ZM14.9611 19.9231L15.0611 19.9232L15.0611 19.9232L14.9611 19.9231ZM14.9611 19.9062L14.8611 19.8959L14.8611 19.9061L14.9611 19.9062ZM15.1663 19.5757L15.2434 19.6394L15.2434 19.6394L15.1663 19.5757ZM15.9089 18.8279L15.9775 18.9007L15.9775 18.9007L15.9089 18.8279ZM15.9097 18.8272L15.847 18.7488L15.8411 18.7544L15.9097 18.8272ZM15.9097 18.8272L15.9724 18.9055L15.9782 18.9L15.9097 18.8272ZM17.643 13.5803L17.6968 13.496L17.6968 13.496L17.643 13.5803ZM16.6738 13.2481L16.6952 13.1504L16.6944 13.1502L16.6738 13.2481ZM16.6737 13.2481L16.6523 13.3458L16.6531 13.3459L16.6737 13.2481ZM14.6626 11.8818L14.5767 11.9331L14.5767 11.9331L14.6626 11.8818ZM11.771 11.3821L11.8287 11.4638L11.8296 11.4632L11.771 11.3821ZM11.7709 11.3822L11.7133 11.3005L11.7123 11.3011L11.7709 11.3822ZM8.12014 10.8122L8.02775 10.8505L8.02775 10.8505L8.12014 10.8122ZM8.26056 9.75991L8.18986 9.68919L8.18985 9.6892L8.26056 9.75991ZM9.14872 9.88065L9.19345 9.79121L9.19344 9.79121L9.14872 9.88065ZM11.5249 9.75991L11.4541 9.6892L11.4541 9.6892L11.5249 9.75991ZM12.0804 9.30074L12.1352 9.38441L12.2157 9.33174L12.1662 9.24929L12.0804 9.30074ZM11.4166 8.1944L11.5024 8.14295L11.4495 8.05475L11.3628 8.11014L11.4166 8.1944ZM10.6133 8.8485L10.5426 8.77779L10.5426 8.77781L10.6133 8.8485ZM9.72519 8.72776L9.68047 8.8172L9.68047 8.8172L9.72519 8.72776ZM7.34906 8.8485L7.41977 8.91921L7.41977 8.91921L7.34906 8.8485ZM6.77827 10.8064L6.74207 10.8996L6.91086 10.9652L6.87644 10.7874L6.77827 10.8064ZM6.07216 10.5857L6.099 10.4893L6.09385 10.4881L6.07216 10.5857ZM6.07215 10.5857L6.0453 10.6822L6.05045 10.6833L6.07215 10.5857ZM5.16887 10.1776L5.2619 10.1409L5.2619 10.1409L5.16887 10.1776ZM6.12308 7.75318L6.20822 7.80563L6.20822 7.80563L6.12308 7.75318ZM6.5611 5.38548L6.64754 5.3352L6.64754 5.3352L6.5611 5.38548ZM5.58618 4.71521L5.52006 4.64019L5.37853 4.76495L5.56122 4.81204L5.58618 4.71521ZM4.44829 5.90226L4.44743 5.80227L4.40023 5.80267L4.37054 5.83936L4.44829 5.90226ZM5.44542 6.0343L5.54412 6.01824L5.53844 5.98336L5.51211 5.95979L5.44542 6.0343ZM5.02548 7.07716L4.94034 7.02471L4.94034 7.02471L5.02548 7.07716ZM3.96966 10.6506L4.06268 10.6139L4.06268 10.6139L3.96966 10.6506ZM5.7377 11.8308L5.71109 11.9272L5.71109 11.9272L5.7377 11.8308ZM6.44281 12.064L6.40032 12.1545L6.40043 12.1546L6.44281 12.064ZM6.52881 12.1042L6.48643 12.1948L6.48647 12.1948L6.52881 12.1042ZM9.33645 13.6615H9.43645V13.631L9.4194 13.6057L9.33645 13.6615ZM9.33645 14.5H9.23645V14.6H9.33645V14.5ZM10.6213 14.5V14.6H10.7213V14.5H10.6213ZM10.5376 13.1889L10.5284 13.0893L10.395 13.1015L10.4447 13.226L10.5376 13.1889ZM12.5263 12.4269L12.5849 12.5079L12.5849 12.5079L12.5263 12.4269ZM13.2453 12.1251L13.2477 12.0251H13.2453V12.1251ZM13.2544 12.1253L13.2619 12.0255L13.2568 12.0253L13.2544 12.1253ZM13.2583 12.1256L13.3023 12.0358L13.285 12.0273L13.2659 12.0259L13.2583 12.1256ZM13.5563 12.5436L13.4705 12.595L13.4705 12.595L13.5563 12.5436ZM16.3979 14.5074L16.3765 14.6051L16.3765 14.6051L16.3979 14.5074ZM16.9467 14.6645L17.0445 14.6438L17.036 14.6039L17.0021 14.5813L16.9467 14.6645ZM15.0262 17.8886L14.9576 17.8157L14.9554 17.8179L15.0262 17.8886ZM15.0261 17.8886L15.0947 17.9614L15.0969 17.9593L15.0261 17.8886ZM13.6763 19.906L13.7763 19.9061V19.906H13.6763ZM13.6762 20.019L13.5762 20.0189V20.019H13.6762ZM13.6762 20.0193L13.7762 20.0195V20.0193H13.6762ZM13.6766 21.014L13.5767 21.017L13.5767 21.0171L13.6766 21.014ZM13.4284 21.5259L13.3473 21.5844L13.4163 21.6802L13.4994 21.5962L13.4284 21.5259ZM11.7279 15.4412L11.7805 15.3561L11.73 15.3249L11.6783 15.3544L11.7279 15.4412ZM10.4365 16.1792L10.3868 16.0923L10.2385 16.1771L10.3851 16.2649L10.4365 16.1792ZM10.7116 16.3391L10.6619 16.4259L10.662 16.4259L10.7116 16.3391ZM10.7117 16.3391L10.7613 16.2523L10.7613 16.2523L10.7117 16.3391ZM11.5126 16.9211H11.6126V16.9087L11.6096 16.8968L11.5126 16.9211ZM12.0792 21.71L12.0805 21.81L12.2258 21.8081L12.1721 21.673L12.0792 21.71ZM12.0445 21.7104L12.0432 21.6105L12.0429 21.6105L12.0445 21.7104ZM1.1 12C1.1 6.02269 5.98244 1.1 12 1.1V0.9C5.8715 0.9 0.9 5.91272 0.9 12H1.1ZM12 22.9C5.99874 22.9 1.1 18.0016 1.1 12H0.9C0.9 18.1121 5.88829 23.1 12 23.1V22.9ZM22.9 12C22.9 18.0013 18.0016 22.9 12 22.9V23.1C18.1121 23.1 23.1 18.1117 23.1 12H22.9ZM12 1.1C18.0013 1.1 22.9 5.99836 22.9 12H23.1C23.1 5.88789 18.1117 0.9 12 0.9V1.1ZM15.1028 2.69223C14.1271 2.36613 13.0838 2.18906 12 2.18906V2.38906C13.0619 2.38906 14.0838 2.56253 15.0395 2.88191L15.1028 2.69223ZM14.877 3.8637C14.877 3.42485 14.9857 3.09165 15.154 2.84313L14.9883 2.73101C14.7946 3.01711 14.677 3.39066 14.677 3.8637H14.877ZM15.4784 5.73915C15.1756 5.13349 14.877 4.53232 14.877 3.8637H14.677C14.677 4.58734 15.0006 5.23067 15.2995 5.82859L15.4784 5.73915ZM15.4786 5.7396L15.4785 5.73938L15.2994 5.82837L15.2995 5.82859L15.4786 5.7396ZM15.9651 7.12803C15.9651 6.91379 15.9022 6.68661 15.812 6.45623C15.7216 6.22542 15.6004 5.98318 15.4785 5.73938L15.2996 5.82882C15.4225 6.0746 15.5393 6.30837 15.6258 6.52915C15.7124 6.75036 15.7651 6.95036 15.7651 7.12803H15.9651ZM15.6574 7.56355C15.7501 7.53265 15.838 7.49646 15.8951 7.41997C15.9525 7.34306 15.9651 7.24438 15.9651 7.12803H15.7651C15.7651 7.2383 15.7507 7.27903 15.7348 7.30034C15.7186 7.32207 15.6868 7.3429 15.5941 7.37382L15.6574 7.56355ZM14.2765 7.67177C14.4967 7.67294 14.7554 7.67433 15 7.66166C15.2427 7.64909 15.481 7.62235 15.6574 7.56356L15.5941 7.37382C15.445 7.42353 15.2297 7.44949 14.9897 7.46193C14.7517 7.47426 14.4988 7.47295 14.2776 7.47178L14.2765 7.67177ZM14.1781 7.6713L14.2766 7.67177L14.2775 7.47178L14.179 7.4713L14.1781 7.6713ZM14.4921 8.84458L14.2772 7.55486L14.0799 7.58774L14.2949 8.87746L14.4921 8.84458ZM16.0018 8.59658C15.5376 8.75137 14.9537 8.76232 14.3937 8.76102L14.3933 8.96102C14.9481 8.96231 15.5648 8.9531 16.065 8.78632L16.0018 8.59658ZM17.0542 7.1279C17.0542 7.49391 16.9595 7.80341 16.7835 8.04882C16.6077 8.29419 16.3461 8.4818 16.0018 8.59658L16.065 8.78632C16.4434 8.66017 16.7423 8.44968 16.9461 8.16534C17.1499 7.88104 17.2542 7.52923 17.2542 7.1279H17.0542ZM16.4528 5.25245C16.7556 5.85811 17.0542 6.45928 17.0542 7.1279H17.2542C17.2542 6.40426 16.9306 5.76093 16.6317 5.16301L16.4528 5.25245ZM16.4525 5.252L16.4527 5.25223L16.6318 5.16323L16.6317 5.163L16.4525 5.252ZM15.9661 3.86357C15.9661 4.07781 16.029 4.30499 16.1192 4.53536C16.2095 4.76618 16.3308 5.00841 16.4527 5.25222L16.6315 5.16278C16.5087 4.917 16.3919 4.68323 16.3054 4.46245C16.2188 4.24124 16.1661 4.04124 16.1661 3.86357H15.9661ZM16.4613 3.27845C16.2792 3.28586 16.1426 3.33724 16.0591 3.45473C15.9812 3.56434 15.9661 3.71098 15.9661 3.86357H16.1661C16.1661 3.71374 16.1838 3.62457 16.2222 3.57057C16.2549 3.52446 16.318 3.48445 16.4695 3.47828L16.4613 3.27845ZM21.8109 12C21.8109 8.21558 19.6569 4.92553 16.5115 3.28964L16.4193 3.46708C19.5013 5.07001 21.6109 8.29333 21.6109 12H21.8109ZM14.9764 21.3489C18.9353 20.0857 21.8109 16.3729 21.8109 12H21.6109C21.6109 16.2831 18.7942 19.9208 14.9156 21.1584L14.9764 21.3489ZM14.861 20.9821C14.8633 21.0674 14.8607 21.1529 14.8472 21.238L15.0448 21.2692C15.0608 21.1679 15.0634 21.0693 15.0609 20.9766L14.861 20.9821ZM14.8611 19.923C14.861 20.0531 14.8601 20.8989 14.8609 20.9804L15.0609 20.9783C15.0601 20.8983 15.061 20.0547 15.0611 19.9232L14.8611 19.923ZM14.8611 19.9061L14.8611 19.923L15.0611 19.9232L15.0611 19.9063L14.8611 19.9061ZM15.0892 19.512C14.9881 19.6345 14.9322 19.7233 14.9012 19.7845C14.8856 19.8152 14.8762 19.8393 14.8704 19.8576C14.8675 19.8667 14.8655 19.8745 14.8641 19.8808C14.8634 19.884 14.8629 19.8868 14.8625 19.8894C14.8623 19.8906 14.8621 19.8918 14.862 19.8929C14.8619 19.8934 14.8619 19.894 14.8618 19.8945C14.8618 19.8947 14.8617 19.895 14.8617 19.8952C14.8617 19.8953 14.8617 19.8954 14.8617 19.8956C14.8617 19.8956 14.8617 19.8957 14.8617 19.8957C14.8616 19.8958 14.8616 19.8959 14.9611 19.9062C15.0606 19.9165 15.0606 19.9166 15.0606 19.9167C15.0606 19.9167 15.0605 19.9168 15.0605 19.9168C15.0605 19.9169 15.0605 19.9171 15.0605 19.9172C15.0605 19.9174 15.0605 19.9176 15.0604 19.9178C15.0604 19.9182 15.0603 19.9186 15.0603 19.919C15.0602 19.9197 15.0601 19.9203 15.06 19.9208C15.0599 19.9219 15.0597 19.9225 15.0597 19.9226C15.0596 19.9229 15.0599 19.9214 15.061 19.9181C15.0631 19.9113 15.0683 19.8972 15.0796 19.8749C15.1023 19.83 15.1491 19.7536 15.2434 19.6394L15.0892 19.512ZM15.8404 18.755C15.5537 19.025 15.2759 19.2862 15.0892 19.512L15.2434 19.6394C15.4202 19.4254 15.6873 19.1738 15.9775 18.9007L15.8404 18.755ZM15.8411 18.7544L15.8404 18.7551L15.9775 18.9007L15.9782 18.9L15.8411 18.7544ZM15.8472 18.7491L15.8472 18.7491L15.9722 18.9053L15.9722 18.9053L15.8472 18.7491ZM18.1423 14.7447C18.1423 16.5824 16.8306 17.8231 15.8412 18.7543L15.9782 18.9C16.9576 17.9782 18.3423 16.681 18.3423 14.7447H18.1423ZM17.5891 13.6645C17.8403 13.8249 18.1423 14.1398 18.1423 14.7447H18.3423C18.3423 14.0573 17.9924 13.6847 17.6968 13.496L17.5891 13.6645ZM16.6524 13.3458C17.0073 13.4235 17.321 13.4933 17.5891 13.6645L17.6968 13.496C17.3934 13.3023 17.0432 13.2266 16.6952 13.1504L16.6524 13.3458ZM16.6531 13.3459L16.6532 13.3459L16.6944 13.1502L16.6943 13.1502L16.6531 13.3459ZM14.5767 11.9331C14.8539 12.3963 15.1051 12.6951 15.4269 12.9055C15.7471 13.1149 16.1284 13.231 16.6523 13.3458L16.6951 13.1504C16.175 13.0365 15.8242 12.9263 15.5364 12.7381C15.2503 12.5511 15.018 12.2811 14.7484 11.8305L14.5767 11.9331ZM13.2453 10.9358C13.9737 10.9358 14.3089 11.4854 14.5767 11.9331L14.7484 11.8305C14.4881 11.3953 14.1001 10.7358 13.2453 10.7358V10.9358ZM11.8296 11.4632C12.1635 11.2217 12.5601 10.9358 13.2453 10.9358V10.7358C12.4928 10.7358 12.0516 11.0558 11.7124 11.3011L11.8296 11.4632ZM11.8286 11.4638L11.8287 11.4638L11.7133 11.3004L11.7133 11.3005L11.8286 11.4638ZM9.98103 12.0239C10.5098 12.0239 10.8734 11.9571 11.1567 11.8512C11.44 11.7454 11.637 11.6024 11.8295 11.4632L11.7123 11.3011C11.5195 11.4406 11.3419 11.5685 11.0867 11.6639C10.8316 11.7592 10.4929 11.8239 9.98103 11.8239V12.0239ZM8.02775 10.8505C8.2547 11.3983 8.9045 12.0239 9.98103 12.0239V11.8239C8.99033 11.8239 8.41045 11.2517 8.21252 10.7739L8.02775 10.8505ZM8.18985 9.6892C7.77424 10.1048 7.94604 10.6532 8.02775 10.8505L8.21252 10.7739C8.13362 10.5835 8.01125 10.1506 8.33127 9.83062L8.18985 9.6892ZM9.19344 9.79121C8.8902 9.63959 8.69599 9.55546 8.55199 9.53913C8.4743 9.53032 8.4071 9.54036 8.34435 9.57062C8.28491 9.59928 8.23582 9.64324 8.18986 9.68919L8.33126 9.83063C8.37405 9.78785 8.40353 9.76412 8.43122 9.75077C8.45561 9.73901 8.48412 9.73271 8.52945 9.73785C8.6315 9.74943 8.79262 9.8144 9.104 9.9701L9.19344 9.79121ZM11.4541 9.6892C11.0407 10.1026 10.6178 10.1943 10.231 10.1535C9.83695 10.1119 9.47657 9.93279 9.19345 9.79121L9.104 9.97009C9.3832 10.1097 9.77463 10.3065 10.21 10.3524C10.6525 10.3991 11.1365 10.2897 11.5956 9.83062L11.4541 9.6892ZM12.0257 9.21707C11.8381 9.33984 11.6487 9.4946 11.4541 9.6892L11.5956 9.83062C11.7817 9.64444 11.9606 9.49871 12.1352 9.38441L12.0257 9.21707ZM11.3309 8.24585L11.9947 9.35219L12.1662 9.24929L11.5024 8.14295L11.3309 8.24585ZM10.684 8.91921C10.9508 8.6524 11.2132 8.44307 11.4705 8.27867L11.3628 8.11014C11.0925 8.28289 10.8189 8.50151 10.5426 8.77779L10.684 8.91921ZM9.68047 8.8172C9.98371 8.96882 10.1779 9.05296 10.3219 9.0693C10.3996 9.07811 10.4668 9.06807 10.5296 9.03781C10.589 9.00913 10.6381 8.96516 10.684 8.91919L10.5426 8.77781C10.4998 8.82059 10.4704 8.84432 10.4427 8.85766C10.4183 8.86942 10.3898 8.87572 10.3445 8.87057C10.2424 8.85899 10.0813 8.79401 9.76991 8.63831L9.68047 8.8172ZM7.41977 8.91921C7.83317 8.50579 8.25611 8.41414 8.64295 8.45494C9.03696 8.49649 9.39734 8.67563 9.68047 8.8172L9.76992 8.63832C9.49071 8.4987 9.09927 8.30195 8.66392 8.25604C8.22139 8.20937 7.73743 8.31869 7.27835 8.77779L7.41977 8.91921ZM6.87644 10.7874C6.74118 10.0887 6.93462 9.40436 7.41977 8.91921L7.27835 8.77779C6.74283 9.31332 6.53314 10.0664 6.68009 10.8254L6.87644 10.7874ZM6.04535 10.6821C6.28264 10.7481 6.52732 10.8163 6.74207 10.8996L6.81446 10.7132C6.58877 10.6256 6.33412 10.5548 6.09896 10.4894L6.04535 10.6821ZM6.05045 10.6833L6.05047 10.6833L6.09385 10.4881L6.09384 10.4881L6.05045 10.6833ZM5.07584 10.2143C5.10352 10.2845 5.15921 10.3384 5.2206 10.3808C5.28288 10.4237 5.36007 10.461 5.44438 10.4947C5.61262 10.5618 5.82698 10.6213 6.04534 10.6821L6.09895 10.4894C5.87706 10.4276 5.6745 10.3712 5.51852 10.3089C5.44072 10.2779 5.37899 10.2471 5.33419 10.2161C5.28849 10.1846 5.26894 10.1588 5.2619 10.1409L5.07584 10.2143ZM6.03793 7.70074C5.49516 8.58191 5.23941 9.16515 5.12631 9.54803C5.01355 9.92976 5.03962 10.1225 5.07585 10.2143L5.2619 10.1409C5.24875 10.1076 5.21159 9.96529 5.31811 9.60469C5.42429 9.24526 5.67033 8.67887 6.20822 7.80563L6.03793 7.70074ZM6.47466 5.43576C6.67827 5.7858 6.67348 6.18447 6.56258 6.58503C6.45152 6.98618 6.23705 7.37746 6.03793 7.70074L6.20822 7.80563C6.40988 7.47823 6.63653 7.0675 6.75533 6.63839C6.8743 6.20868 6.88814 5.74884 6.64754 5.3352L6.47466 5.43576ZM5.56122 4.81204C5.94483 4.91093 6.27745 5.09671 6.47466 5.43576L6.64754 5.3352C6.41386 4.93346 6.0246 4.72496 5.61115 4.61837L5.56122 4.81204ZM12 2.18906C9.51846 2.18906 7.24946 3.11571 5.52006 4.64019L5.65231 4.79022C7.34674 3.29658 9.56918 2.38906 12 2.38906V2.18906ZM2.18906 12C2.18906 17.4099 6.59013 21.8109 12 21.8109V21.6109C6.70059 21.6109 2.38906 17.2994 2.38906 12H2.18906ZM4.37054 5.83936C3.00721 7.52449 2.18906 9.66843 2.18906 12H2.38906C2.38906 9.71604 3.19033 7.61613 4.52603 5.96516L4.37054 5.83936ZM5.51211 5.95979C5.46473 5.91738 5.37927 5.87848 5.22355 5.84956C5.06511 5.82014 4.82222 5.79906 4.44743 5.80227L4.44914 6.00226C4.81719 5.99911 5.04603 6.02002 5.18704 6.0462C5.33076 6.07289 5.37244 6.10319 5.37872 6.10881L5.51211 5.95979ZM5.11063 7.1296C5.56129 6.398 5.55682 6.09627 5.54412 6.01824L5.34672 6.05037C5.34777 6.05681 5.38257 6.3068 4.94034 7.02471L5.11063 7.1296ZM4.06268 10.6139C3.91671 10.2437 3.91356 9.80209 4.08094 9.23557C4.24871 8.66776 4.58571 7.98179 5.11063 7.1296L4.94034 7.02471C4.41183 7.88273 4.06426 8.58619 3.88914 9.1789C3.71363 9.7729 3.70927 10.2629 3.87663 10.6873L4.06268 10.6139ZM5.76431 11.7344C5.07273 11.5435 4.34784 11.337 4.06268 10.6139L3.87663 10.6873C4.20407 11.5176 5.04008 11.742 5.71109 11.9272L5.76431 11.7344ZM6.4853 11.9735C6.27673 11.8756 6.02205 11.8056 5.76431 11.7344L5.71109 11.9272C5.97361 11.9997 6.21027 12.0653 6.40032 12.1545L6.4853 11.9735ZM6.57119 12.0136L6.48519 11.9734L6.40043 12.1546L6.48643 12.1948L6.57119 12.0136ZM9.4194 13.6057C9.37974 13.5468 9.31139 13.485 9.23146 13.4238C9.14937 13.3608 9.04678 13.2923 8.93083 13.2206C8.69881 13.0772 8.40755 12.918 8.10724 12.7623C7.50632 12.4507 6.86287 12.15 6.57115 12.0136L6.48647 12.1948C6.77838 12.3312 7.41837 12.6304 8.01518 12.9398C8.31374 13.0947 8.59992 13.2512 8.8257 13.3908C8.93866 13.4606 9.03507 13.5252 9.1098 13.5825C9.18669 13.6414 9.23298 13.6869 9.2535 13.7174L9.4194 13.6057ZM9.43645 14.5V13.6615H9.23645V14.5H9.43645ZM10.6213 14.4H9.33645V14.6H10.6213V14.4ZM10.5213 13.6567V14.5H10.7213V13.6567H10.5213ZM10.4447 13.226C10.4951 13.352 10.5213 13.4941 10.5213 13.6567H10.7213C10.7213 13.4722 10.6914 13.3044 10.6304 13.1517L10.4447 13.226ZM12.4677 12.3459C12.078 12.6276 11.5736 12.9932 10.5284 13.0893L10.5467 13.2884C11.6438 13.1876 12.1831 12.7985 12.5849 12.5079L12.4677 12.3459ZM13.2453 12.0251C13.0815 12.0251 12.9564 12.0529 12.8344 12.1101C12.7168 12.1652 12.6043 12.2471 12.4677 12.3459L12.5849 12.5079C12.7262 12.4057 12.8223 12.3367 12.9193 12.2912C13.0119 12.2477 13.1075 12.2251 13.2453 12.2251V12.0251ZM13.2568 12.0253L13.2477 12.0251L13.2429 12.2251L13.252 12.2253L13.2568 12.0253ZM13.2659 12.0259L13.2619 12.0256L13.2469 12.225L13.2508 12.2253L13.2659 12.0259ZM13.6421 12.4923C13.5993 12.4207 13.5404 12.3222 13.4835 12.2373C13.4551 12.195 13.4259 12.1541 13.3984 12.1209C13.3746 12.0921 13.3408 12.0546 13.3023 12.0358L13.2144 12.2154C13.2098 12.2132 13.2194 12.2183 13.2443 12.2484C13.2656 12.2742 13.2906 12.3088 13.3174 12.3488C13.371 12.4286 13.4272 12.5225 13.4705 12.595L13.6421 12.4923ZM16.4193 14.4097C15.7259 14.2578 15.2123 14.0757 14.783 13.7858C14.3546 13.4965 14.0028 13.0949 13.6421 12.4923L13.4705 12.595C13.8407 13.2136 14.2108 13.6408 14.6711 13.9515C15.1304 14.2617 15.6721 14.4508 16.3765 14.6051L16.4193 14.4097ZM17.0021 14.5813C16.9703 14.5601 16.9272 14.5426 16.8852 14.528C16.8411 14.5128 16.79 14.498 16.7371 14.484C16.6312 14.4561 16.5126 14.4301 16.4193 14.4097L16.3765 14.6051C16.4706 14.6257 16.5851 14.6508 16.6861 14.6774C16.7366 14.6907 16.7823 14.7041 16.8197 14.717C16.859 14.7307 16.8818 14.7415 16.8913 14.7478L17.0021 14.5813ZM17.0532 14.7448C17.0532 14.6971 17.049 14.6647 17.0445 14.6438L16.8489 14.6853C16.85 14.6907 16.8532 14.7089 16.8532 14.7448H17.0532ZM15.0947 17.9614C15.545 17.5376 16.0342 17.0776 16.4096 16.555C16.7863 16.0308 17.0532 15.4373 17.0532 14.7448H16.8532C16.8532 15.3824 16.6083 15.9357 16.2472 16.4383C15.885 16.9425 15.4106 17.3894 14.9576 17.8157L15.0947 17.9614ZM15.0969 17.9593L15.0969 17.9593L14.9554 17.8179L14.9554 17.8179L15.0969 17.9593ZM13.7763 19.906C13.7763 19.5625 13.9196 19.2495 14.1593 18.9332C14.4002 18.6155 14.7308 18.3039 15.0947 17.9614L14.9576 17.8158C14.5972 18.155 14.2529 18.4786 13.9999 18.8124C13.7458 19.1477 13.5763 19.5025 13.5763 19.906H13.7763ZM13.7762 20.0191L13.7763 19.9061L13.5763 19.9059L13.5762 20.0189L13.7762 20.0191ZM13.7762 20.0193V20.019H13.5762V20.0193H13.7762ZM13.7766 21.011C13.7752 20.9657 13.7759 20.3016 13.7762 20.0195L13.5762 20.0192C13.5759 20.2977 13.5752 20.9675 13.5767 21.017L13.7766 21.011ZM13.4994 21.5962C13.568 21.527 13.6367 21.4214 13.6875 21.3186C13.7133 21.2665 13.7356 21.2127 13.7515 21.1618C13.7669 21.1124 13.7781 21.0594 13.7766 21.0109L13.5767 21.0171C13.5772 21.0336 13.573 21.0622 13.5605 21.1024C13.5484 21.1412 13.5304 21.1851 13.5082 21.23C13.4631 21.3212 13.4056 21.4067 13.3573 21.4555L13.4994 21.5962ZM12.7018 16.921C12.7018 18.6401 12.8175 19.7412 12.9553 20.4436C13.0929 21.145 13.2534 21.4542 13.3473 21.5844L13.5095 21.4674C13.4389 21.3696 13.2862 21.0915 13.1515 20.4051C13.0171 19.7195 12.9018 18.6322 12.9018 16.921H12.7018ZM11.6754 15.5262C12.219 15.8623 12.7018 16.2724 12.7018 16.921H12.9018C12.9018 16.1556 12.3263 15.6935 11.7805 15.3561L11.6754 15.5262ZM10.4861 16.266L11.7776 15.528L11.6783 15.3544L10.3868 16.0923L10.4861 16.266ZM10.7612 16.2523C10.6717 16.201 10.5799 16.1485 10.4879 16.0934L10.3851 16.2649C10.4791 16.3213 10.5726 16.3748 10.6619 16.4259L10.7612 16.2523ZM10.7613 16.2523L10.7612 16.2522L10.662 16.4259L10.6621 16.4259L10.7613 16.2523ZM11.6096 16.8968C11.5999 16.8578 11.5773 16.8239 11.5555 16.7972C11.5327 16.7692 11.5041 16.7411 11.473 16.7139C11.4108 16.6594 11.3309 16.6017 11.2471 16.5459C11.0791 16.434 10.885 16.323 10.7613 16.2523L10.662 16.4259C10.7866 16.4972 10.9748 16.6049 11.1362 16.7124C11.2171 16.7663 11.2887 16.8184 11.3413 16.8644C11.3676 16.8874 11.3872 16.9073 11.4005 16.9236C11.4149 16.9413 11.4164 16.9482 11.4156 16.9454L11.6096 16.8968ZM12.1721 21.673C11.8602 20.8888 11.6126 19.4888 11.6126 16.9211H11.4126C11.4126 19.4957 11.6601 20.9266 11.9863 21.7469L12.1721 21.673ZM12.0459 21.8104L12.0805 21.81L12.0779 21.61L12.0432 21.6105L12.0459 21.8104ZM12 21.8109C12.0158 21.8109 12.0315 21.8107 12.0462 21.8104L12.0429 21.6105C12.0279 21.6107 12.0139 21.6109 12 21.6109V21.8109Z" fill="#151516"/>
</svg>
