<?xml version="1.0" encoding="UTF-8"?>
<!DOCTYPE svg
PUBLIC "-//W3C//DTD SVG 1.1//EN"
       "http://www.w3.org/Graphics/SVG/1.1/DTD/svg11.dtd">
<svg version="1.1" xmlns="http://www.w3.org/2000/svg" xmlns:xlink="http://www.w3.org/1999/xlink" viewBox="0 0 24 24">
 <path clip-rule="evenodd" d="M21.7354 4.14704L21.8825 3.41161L20.4116 3.11743L20.2646 3.85287L18.2646 13.8529L18.2351 14H5.76484L5.73542 13.8529L3.73543 3.85287L3.58834 3.11743L2.11747 3.41161L2.26455 4.14704L4.23514 14H2.28077C1.6302 14 1.15284 14.6113 1.31062 15.2425L2.62126 20.485C2.84384 21.3754 3.64381 22 4.56154 22H19.4384C20.3562 22 21.1561 21.3754 21.3787 20.485L22.6894 15.2425C22.8471 14.6113 22.3698 14 21.7192 14H19.7648L21.7354 4.14704ZM4.07647 20.1212L2.92115 15.5H21.0788L19.9235 20.1212C19.8679 20.3438 19.6679 20.5 19.4384 20.5H4.56154C4.33211 20.5 4.13212 20.3438 4.07647 20.1212ZM15 18.25H14.25V19.75H15H17H17.75V18.25H17H15ZM16.8993 6.53562C14.1657 3.80199 9.73362 3.80199 6.99999 6.5356L8.06065 7.59626C10.2085 5.44843 13.6908 5.44844 15.8387 7.59628L16.8993 6.53562ZM14.6995 8.73545C13.1808 7.21677 10.7185 7.21677 9.19985 8.73545L10.2605 9.79612C11.1934 8.86322 12.7059 8.86321 13.6388 9.79611L14.6995 8.73545ZM12 10.5C11.5634 10.5 11 11 11 11L11.5 12H12H12.5L13 11C13 11 12.4366 10.5 12 10.5Z" fill="#151516" fill-rule="evenodd"/>
</svg>
