<?xml version="1.0" encoding="UTF-8"?>
<!DOCTYPE svg
PUBLIC "-//W3C//DTD SVG 1.1//EN"
       "http://www.w3.org/Graphics/SVG/1.1/DTD/svg11.dtd">
<svg version="1.1" xmlns="http://www.w3.org/2000/svg" xmlns:xlink="http://www.w3.org/1999/xlink" viewBox="0 0 24 24">
 <path clip-rule="evenodd" d="M18.5 4.69826C18.5 4.54228 18.5 4.5 18.5 4.5L9 6.23324C9 6.35406 9 8.5 9 8.5L18.5 6.87411V4.69826ZM20 15.5C20 17.433 18.433 19 16.5 19C14.567 19 13 17.433 13 15.5C13 13.567 14.567 12 16.5 12C17.1375 12 17.9852 12.1705 18.5 12.4683V8.39871L9 10V17.0725C9 17.5 9 18.0401 9 18.5C9 20.433 7.433 22 5.5 22C3.567 22 2 20.433 2 18.5C2 16.567 3.567 15 5.5 15C6.1375 15 6.9852 15.1704 7.5 15.4682V9.5V6.33458C7.5 5.48882 7.85484 4.76414 8.68695 4.61285L17.687 2.97649C18.7612 2.78117 20 3.60643 20 4.69826V7.50005V15.5ZM5.5 20.5C6.60457 20.5 7.5 19.6046 7.5 18.5C7.5 17.3955 6.60457 16.5 5.5 16.5C4.39543 16.5 3.5 17.3955 3.5 18.5C3.5 19.6046 4.39543 20.5 5.5 20.5ZM18.5 15.5C18.5 16.6046 17.6046 17.5 16.5 17.5C15.3954 17.5 14.5 16.6046 14.5 15.5C14.5 14.3955 15.3954 13.5 16.5 13.5C17.6046 13.5 18.5 14.3955 18.5 15.5Z" fill="#151516" fill-rule="evenodd"/>
</svg>
