<?xml version="1.0" encoding="UTF-8"?>
<!DOCTYPE svg
PUBLIC "-//W3C//DTD SVG 1.1//EN"
       "http://www.w3.org/Graphics/SVG/1.1/DTD/svg11.dtd">
<svg version="1.1" xmlns="http://www.w3.org/2000/svg" xmlns:xlink="http://www.w3.org/1999/xlink" viewBox="0 0 24 24">
 <path clip-rule="evenodd" d="M14.2064 3.75C13.3417 3.75 12.6406 4.45103 12.6406 5.31579C12.6406 6.18055 13.3417 6.88158 14.2064 6.88158C15.0712 6.88158 15.7722 6.18055 15.7722 5.31579C15.7722 4.45103 15.0712 3.75 14.2064 3.75ZM11.1406 5.31579C11.1406 3.6226 12.5132 2.25 14.2064 2.25C15.8996 2.25 17.2722 3.6226 17.2722 5.31579C17.2722 7.00898 15.8996 8.38158 14.2064 8.38158C12.5132 8.38158 11.1406 7.00898 11.1406 5.31579ZM5.00371 7.27417C5.2457 7.62442 5.4234 8.1308 5.45238 8.72368H2.9607C2.98969 8.1308 3.16739 7.62442 3.40938 7.27417C3.67643 6.88764 3.97063 6.75 4.20654 6.75C4.44245 6.75 4.73665 6.88764 5.00371 7.27417ZM4.20654 5.25C3.33788 5.25 2.63208 5.76036 2.17528 6.42153C1.71637 7.08573 1.45654 7.96245 1.45654 8.89474C1.45654 9.12769 1.47272 9.35611 1.50382 9.57785L1.5944 10.2237H2.24655H4.63954L3.49293 13.7692L3.41829 14H3C2.44772 14 2 14.4477 2 15V16.5V18H2.00903V21.2485V21.9985H3.50903V21.2485V18H21.25V21.2457V21.9957H22.75V21.2457V18H22.7578V16.5V15C22.7578 14.4477 22.3101 14 21.7578 14H19.8906V12C19.8906 10.3431 18.5475 9 16.8906 9H10.8906C9.23377 9 7.89062 10.3431 7.89062 12V14H4.99478L6.21373 10.2308L6.21603 10.2237H6.81869L6.90927 9.57785C6.94037 9.35611 6.95654 9.12769 6.95654 8.89474C6.95654 7.96245 6.69671 7.08573 6.2378 6.42153C5.781 5.76036 5.0752 5.25 4.20654 5.25ZM9.39062 14H18.3906V12C18.3906 11.1716 17.7191 10.5 16.8906 10.5H10.8906C10.0622 10.5 9.39062 11.1716 9.39062 12V14ZM7.89062 15.5H3.5V16.5H21.2578V15.5H19.8906H18.3906H9.39062H7.89062Z" fill="#151516" fill-rule="evenodd"/>
</svg>
