<?xml version="1.0" encoding="UTF-8"?>
<!DOCTYPE svg
PUBLIC "-//W3C//DTD SVG 1.1//EN"
       "http://www.w3.org/Graphics/SVG/1.1/DTD/svg11.dtd">
<svg version="1.1" xmlns="http://www.w3.org/2000/svg" xmlns:xlink="http://www.w3.org/1999/xlink" viewBox="0 0 24 24">
 <path clip-rule="evenodd" d="M11 2.5H21C21.2761 2.5 21.5 2.72386 21.5 3V11C21.5 11.2761 21.2761 11.5 21 11.5H11.3266L13.1479 8.37788L11.8522 7.62207L10.5 9.94012V3C10.5 2.72386 10.7239 2.5 11 2.5ZM11 13C10.8237 13 10.6528 12.9772 10.4899 12.9344L10.015 13.7485C9.57278 14.5066 8.50746 14.5849 7.9592 13.8995L7.62131 13.4772L7.25766 21.8413C7.23556 22.3494 6.81717 22.75 6.30855 22.75H5.78505C5.34072 22.75 4.95575 22.442 4.85822 22.0085L4.50005 20.4167L4.14187 22.0085C4.04434 22.442 3.65937 22.75 3.21505 22.75H2.69154C2.18292 22.75 1.76453 22.3494 1.74244 21.8413L1.29612 11.576C1.25284 10.5806 2.04814 9.75 3.04447 9.75H5.95562C6.79966 9.75 7.49942 10.3461 7.66732 11.1335L8.90291 12.678L9.28305 12.0263C9.10332 11.7263 9 11.3752 9 11V3C9 1.89543 9.89543 1 11 1H21C22.1046 1 23 1.89543 23 3V11C23 12.1046 22.1046 13 21 13H16.5L20.2115 21.7629H18.6322L15.5 14.5L12.3292 21.7046H10.8107L14.696 13H11ZM20.2845 3.51245L12 3.5V4.90625L20.2845 4.9187V3.51245ZM5.5 6.5C5.5 7.05228 5.05228 7.5 4.5 7.5C3.94772 7.5 3.5 7.05228 3.5 6.5C3.5 5.94772 3.94772 5.5 4.5 5.5C5.05228 5.5 5.5 5.94772 5.5 6.5ZM7 6.5C7 7.88071 5.88071 9 4.5 9C3.11929 9 2 7.88071 2 6.5C2 5.11929 3.11929 4 4.5 4C5.88071 4 7 5.11929 7 6.5ZM20.2845 6.14844H14.5V7.55469H20.2845V6.14844ZM2.7947 11.5109C2.78852 11.3687 2.90214 11.25 3.04447 11.25H5.95562C6.09795 11.25 6.21157 11.3687 6.20539 11.5109L5.8537 19.5996L5.42687 17.7026C5.20444 16.714 3.79566 16.714 3.57322 17.7026L3.14639 19.5996L2.7947 11.5109ZM16 8.78442H20.2844V10.1907H16V8.78442Z" fill="#151516" fill-rule="evenodd"/>
</svg>
