<?xml version="1.0" encoding="UTF-8"?>
<!DOCTYPE svg
PUBLIC "-//W3C//DTD SVG 1.1//EN"
       "http://www.w3.org/Graphics/SVG/1.1/DTD/svg11.dtd">
<svg version="1.1" xmlns="http://www.w3.org/2000/svg" xmlns:xlink="http://www.w3.org/1999/xlink" viewBox="0 0 24 24">
 <path d="M10.8308 7.7809L10.2997 7.27768C9.6031 6.61779 8.6801 6.25 7.72061 6.25H3.41603V7.75H7.72061C8.29631 7.75 8.8501 7.97067 9.26803 8.36661L9.8905 8.95631L7.83037 11.5315C7.59163 11.8299 7.61546 12.2601 7.88569 12.5303L9.38569 14.0303C9.62484 14.2695 9.99447 14.319 10.2881 14.1512L13.4605 12.3384L17.415 16.0847L16.541 17.25H14.1757L11.6034 19.0873C11.1808 19.3892 10.6156 19.3983 10.1835 19.1102L3.83205 14.876L3 16.124L9.35142 20.3583C10.3021 20.9921 11.5455 20.972 12.4752 20.3079L14.6564 18.75H16.916C17.1521 18.75 17.3744 18.6389 17.516 18.45L19.016 16.45C19.2446 16.1452 19.2084 15.7175 18.9318 15.4555L18.582 15.1241L20.832 13.624L20 12.376L17.465 14.0659L13.6551 10.4565L12.3198 11.2577L12.323 11.2608L10.0413 12.5646L9.42102 11.9443L12.1009 8.59444C12.5279 8.0607 13.1744 7.75 13.8579 7.75H20.416V6.25H13.8579C12.7187 6.25 11.6413 6.76784 10.9296 7.65739L10.8308 7.7809Z" fill="#151516"/>
</svg>
