<?xml version="1.0" encoding="UTF-8"?>
<!DOCTYPE svg
PUBLIC "-//W3C//DTD SVG 1.1//EN"
       "http://www.w3.org/Graphics/SVG/1.1/DTD/svg11.dtd">
<svg version="1.1" xmlns="http://www.w3.org/2000/svg" xmlns:xlink="http://www.w3.org/1999/xlink" viewBox="0 0 24 25">
 <path d="M14.7148 3.59396C14.4305 2.89139 13.7418 2.39575 12.9373 2.39575C11.8788 2.39575 11.0207 3.25387 11.0207 4.31242C11.0207 4.94702 11.3291 5.50959 11.8042 5.85842C11.5504 6.26914 11.3515 6.71732 11.2176 7.19275C10.2386 6.60697 9.58317 5.53623 9.58317 4.31242C9.58317 2.45996 11.0849 0.958252 12.9373 0.958252C14.4574 0.958252 15.7414 1.96945 16.1531 3.35587C15.6533 3.36875 15.1707 3.45122 14.7148 3.59396Z" fill="#151516"/>
 <path d="M9.42336 10.2231C9.98453 9.84105 10.7515 10.0094 11.101 10.5914L11.7745 11.7125C12.0184 12.1186 12.0001 12.6304 11.7276 13.0181L10.0783 15.3649L19.0861 14.759C19.7778 14.7124 20.3644 15.261 20.3644 15.9542V17.3203C20.3644 17.7676 20.1153 18.1776 19.7183 18.3836L11.6499 22.571C11.5476 22.6241 11.4341 22.6518 11.3188 22.6518L3.83318 22.6519L3.83317 21.2144L11.1434 21.2143L18.9269 17.1748V16.2104L8.67308 16.9002C8.39676 16.9188 8.13434 16.777 7.9985 16.5356C7.86265 16.2943 7.87755 15.9964 8.03679 15.7698L10.4619 12.319L10.0083 11.5639L5.73892 14.4706C4.69656 15.1802 4.07275 16.3596 4.07275 17.6206H2.63525C2.63525 15.8839 3.49437 14.2596 4.92994 13.2823L9.42336 10.2231Z" fill="#151516"/>
 <path clip-rule="evenodd" d="M16.2915 12.4583C18.4086 12.4583 20.1248 10.742 20.1248 8.62492C20.1248 6.50783 18.4086 4.79159 16.2915 4.79159C14.1744 4.79159 12.4582 6.50783 12.4582 8.62492C12.4582 10.742 14.1744 12.4583 16.2915 12.4583ZM18.6873 8.62492C18.6873 9.9481 17.6147 11.0208 16.2915 11.0208C14.9683 11.0208 13.8957 9.9481 13.8957 8.62492C13.8957 7.30174 14.9683 6.22909 16.2915 6.22909C17.6147 6.22909 18.6873 7.30174 18.6873 8.62492Z" fill="#151516" fill-rule="evenodd"/>
</svg>
