<?xml version="1.0" encoding="UTF-8"?>
<!DOCTYPE svg
PUBLIC "-//W3C//DTD SVG 1.1//EN"
       "http://www.w3.org/Graphics/SVG/1.1/DTD/svg11.dtd">
<svg version="1.1" xmlns="http://www.w3.org/2000/svg" xmlns:xlink="http://www.w3.org/1999/xlink" viewBox="0 0 24 24">
 <path clip-rule="evenodd" d="M14.482 3.85387C14.5666 3.66353 14.3949 3.45928 14.1929 3.5098L12.1819 4.01254C12.0625 4.0424 11.9375 4.0424 11.8181 4.01254L9.80714 3.5098C9.60507 3.45928 9.43346 3.66353 9.51805 3.85387L10.6854 6.48033L10.6154 6.51144C10.7433 6.50384 10.8715 6.5 11 6.5H13C13.1285 6.5 13.2568 6.50384 13.3847 6.51144L13.3147 6.48033L14.482 3.85387ZM8.14734 4.46307L9.16797 6.75951C6.33134 7.56901 4 10.1927 4 13.5V18.5C4 20.433 5.567 22 7.5 22H16.5C18.433 22 20 20.433 20 18.5V13.5C20 10.1927 17.6687 7.56902 14.832 6.75951L15.8527 4.46307C16.4448 3.13073 15.2436 1.70096 13.8291 2.05458L12 2.51185L10.1709 2.05458C8.75646 1.70096 7.55518 3.13073 8.14734 4.46307ZM11 8C8.23858 8 5.5 10.5 5.5 13.5V18.5C5.5 19.6046 6.39543 20.5 7.5 20.5H16.5C17.6046 20.5 18.5 19.6046 18.5 18.5V13.5C18.5 10.5 15.7614 8 13 8H11ZM15 14.5C15 16.1569 13.6569 17.5 12 17.5C10.3431 17.5 9 16.1569 9 14.5C9 12.8431 10.3431 11.5 12 11.5C13.6569 11.5 15 12.8431 15 14.5ZM12 16C12.8284 16 13.5 15.3284 13.5 14.5C13.5 13.6716 12.8284 13 12 13C11.1716 13 10.5 13.6716 10.5 14.5C10.5 15.3284 11.1716 16 12 16Z" fill="#151516" fill-rule="evenodd"/>
</svg>
