<?xml version="1.0" encoding="UTF-8"?>
<!DOCTYPE svg
PUBLIC "-//W3C//DTD SVG 1.1//EN"
       "http://www.w3.org/Graphics/SVG/1.1/DTD/svg11.dtd">
<svg version="1.1" xmlns="http://www.w3.org/2000/svg" xmlns:xlink="http://www.w3.org/1999/xlink" viewBox="0 0 24 24">
 <path clip-rule="evenodd" d="M21.7247 18.875V7.31665H20.1497V18.5458H3.64974V20.1208H20.4789C21.167 20.1208 21.7247 19.563 21.7247 18.875ZM2.60391 4.56665C2.16898 4.56665 1.81641 4.91923 1.81641 5.35415V15.8958C1.81641 16.3307 2.16898 16.6833 2.60391 16.6833H17.7289C18.1638 16.6833 18.5164 16.3307 18.5164 15.8958V5.35415C18.5164 4.91923 18.1638 4.56665 17.7289 4.56665H2.60391ZM3.39141 15.1083V6.14165H16.9414V15.1083H3.39141ZM10.1664 13.475C11.7404 13.475 13.0164 12.199 13.0164 10.625C13.0164 9.05097 11.7404 7.77498 10.1664 7.77498C8.59239 7.77498 7.31641 9.05097 7.31641 10.625C7.31641 12.199 8.5924 13.475 10.1664 13.475ZM11.4414 10.625C11.4414 11.3291 10.8706 11.9 10.1664 11.9C9.46224 11.9 8.89141 11.3291 8.89141 10.625C8.89141 9.92082 9.46224 9.34998 10.1664 9.34998C10.8706 9.34998 11.4414 9.92082 11.4414 10.625Z" fill="#151516" fill-rule="evenodd"/>
</svg>
