<?xml version="1.0" encoding="UTF-8"?>
<!DOCTYPE svg
PUBLIC "-//W3C//DTD SVG 1.1//EN"
       "http://www.w3.org/Graphics/SVG/1.1/DTD/svg11.dtd">
<svg version="1.1" xmlns="http://www.w3.org/2000/svg" xmlns:xlink="http://www.w3.org/1999/xlink" viewBox="0 0 24 24">
 <path clip-rule="evenodd" d="M16.0361 3.19464C15.9524 3.09381 15.8051 3.07472 15.6985 3.15089L13.6591 4.6076L16.0293 6.96873L16.1572 7.09608H19.2748L16.0361 3.19464ZM11.972 5.04425L14.0317 7.09608H5.54864L9.78994 3.20074C9.88859 3.11014 10.0411 3.11338 10.1358 3.20809L11.971 5.04323L11.972 5.04425ZM3.49268 6.9477L3.33112 7.09608H3.30762V6.61531C3.30762 5.92496 3.86726 5.36531 4.55762 5.36531H5.2156L3.49268 6.9477ZM8.77529 2.09598L6.84882 3.86531H4.55762C3.03883 3.86531 1.80762 5.09653 1.80762 6.61531V7.84608V19.8461C1.80762 21.3649 3.03883 22.5961 4.55762 22.5961H19.9422C21.461 22.5961 22.6922 21.3649 22.6922 19.8461V9.84608C22.6922 8.99597 22.3065 8.23595 21.7005 7.73151C21.6719 7.65701 21.6309 7.58584 21.5771 7.52103L17.1903 2.23655C16.6044 1.53078 15.573 1.39714 14.8266 1.93029L12.5824 3.53331L11.1965 2.14743C10.5335 1.48446 9.46583 1.46177 8.77529 2.09598ZM3.30762 19.8461V8.59608H19.9422C20.6326 8.59608 21.1922 9.15573 21.1922 9.84608V19.8461C21.1922 20.5364 20.6326 21.0961 19.9422 21.0961H4.55762C3.86726 21.0961 3.30762 20.5364 3.30762 19.8461ZM18 16.0001C18.5523 16.0001 19 15.5524 19 15.0001C19 14.4478 18.5523 14.0001 18 14.0001C17.4477 14.0001 17 14.4478 17 15.0001C17 15.5524 17.4477 16.0001 18 16.0001Z" fill="#151516" fill-rule="evenodd"/>
</svg>
