<?xml version="1.0" encoding="UTF-8"?>
<!DOCTYPE svg
PUBLIC "-//W3C//DTD SVG 1.1//EN"
       "http://www.w3.org/Graphics/SVG/1.1/DTD/svg11.dtd">
<svg version="1.1" xmlns="http://www.w3.org/2000/svg" xmlns:xlink="http://www.w3.org/1999/xlink" viewBox="0 0 24 24">
 <defs/>
 <g clip-path="url(#clip0_405_13563)">
  <path clip-rule="evenodd" d="M10.575 1.25C10.2652 1.25 9.98723 1.44052 9.87548 1.7295L8.30048 5.80246C8.21128 6.03315 8.24154 6.29299 8.38139 6.497C8.52123 6.70101 8.75266 6.82296 9 6.82296H15.3C15.5473 6.82296 15.7788 6.70101 15.9186 6.497C16.0585 6.29299 16.0887 6.03315 15.9995 5.80246L14.4245 1.7295C14.3128 1.44052 14.0348 1.25 13.725 1.25H10.575ZM10.0941 5.32296L11.0891 2.75H13.2109L14.2059 5.32296H10.0941ZM6.575 7.625C6.26517 7.625 5.98723 7.81552 5.87548 8.1045L4.30048 12.1775C4.21128 12.4082 4.24154 12.668 4.38139 12.872C4.52123 13.076 4.75266 13.198 5 13.198H11.3C11.5473 13.198 11.7788 13.076 11.9186 12.872C12.0585 12.668 12.0887 12.4082 11.9995 12.1775L10.4245 8.1045C10.3128 7.81552 10.0348 7.625 9.725 7.625H6.575ZM6.09415 11.698L7.0891 9.125H9.2109L10.2059 11.698H6.09415ZM2.575 14.3545C2.26933 14.3545 1.99425 14.54 1.87968 14.8234L0.304677 18.7192C0.211216 18.9504 0.238763 19.2129 0.378179 19.4196C0.517595 19.6264 0.750646 19.7503 1 19.7503H7.3C7.54936 19.7503 7.78241 19.6264 7.92183 19.4196C8.06124 19.2129 8.08879 18.9504 7.99533 18.7192L6.42033 14.8234C6.30576 14.54 6.03067 14.3545 5.725 14.3545H2.575ZM2.11219 18.2503L3.08076 15.8545H5.21924L6.18782 18.2503H2.11219ZM13.8755 8.1045C13.9872 7.81552 14.2652 7.625 14.575 7.625H17.725C18.0348 7.625 18.3128 7.81552 18.4245 8.1045L19.9995 12.1775C20.0887 12.4082 20.0585 12.668 19.9186 12.872C19.7788 13.076 19.5473 13.198 19.3 13.198H13C12.7527 13.198 12.5212 13.076 12.3814 12.872C12.2415 12.668 12.2113 12.4082 12.3005 12.1775L13.8755 8.1045ZM15.0891 9.125L14.0941 11.698H18.2059L17.2109 9.125H15.0891ZM9.87968 14.8234C9.99425 14.54 10.2693 14.3545 10.575 14.3545H13.725C14.0307 14.3545 14.3058 14.54 14.4203 14.8234L15.9953 18.7192C16.0888 18.9504 16.0612 19.2129 15.9218 19.4196C15.7824 19.6264 15.5494 19.7503 15.3 19.7503H9C8.75065 19.7503 8.5176 19.6264 8.37818 19.4196C8.23876 19.2129 8.21122 18.9504 8.30468 18.7192L9.87968 14.8234ZM11.0808 15.8545L10.1122 18.2503H14.1878L13.2192 15.8545H11.0808ZM18.575 14.3545C18.2693 14.3545 17.9942 14.54 17.8797 14.8234L16.3047 18.7192C16.2112 18.9504 16.2388 19.2129 16.3782 19.4196C16.5176 19.6264 16.7506 19.7503 17 19.7503H23.3C23.5494 19.7503 23.7824 19.6264 23.9218 19.4196C24.0612 19.2129 24.0888 18.9504 23.9953 18.7192L22.4203 14.8234C22.3058 14.54 22.0307 14.3545 21.725 14.3545H18.575ZM18.1122 18.2503L19.0808 15.8545H21.2192L22.1878 18.2503H18.1122Z" fill="#151516" fill-rule="evenodd"/>
 </g>
</svg>
