<?xml version="1.0" encoding="UTF-8"?>
<!DOCTYPE svg
PUBLIC "-//W3C//DTD SVG 1.1//EN"
       "http://www.w3.org/Graphics/SVG/1.1/DTD/svg11.dtd">
<svg version="1.1" xmlns="http://www.w3.org/2000/svg" xmlns:xlink="http://www.w3.org/1999/xlink" viewBox="0 0 24 24">
 <path clip-rule="evenodd" d="M1.11963 17.813H2.50917V18.8384L2.50924 18.8596C2.52068 20.6591 3.98821 22.1196 5.79042 22.1196L18.5873 22.1196C20.3966 22.1196 21.8685 20.6477 21.8685 18.8384V14.8763V12.563V4.40088C21.8685 2.5916 20.3966 1.11963 18.5873 1.11963H5.79042C4.43346 1.11963 3.26624 1.94761 2.76744 3.12489C2.60117 3.51732 2.50917 3.94856 2.50917 4.40088V5.42627H1.11963V6.24658V7.06689L1.11963 7.10791H2.50917V10.7583V10.8403V11.6196V12.3989V12.481V16.1313H1.11963L1.11963 16.1724V16.9927V17.813ZM20.2279 14.8763V12.563V4.40088C20.2279 3.49624 19.4919 2.76025 18.5873 2.76025L10.4662 2.76026L5.79042 2.76025C5.56426 2.76025 5.34864 2.80625 5.15243 2.88939C4.83378 3.02439 4.56631 3.25733 4.38799 3.55025C4.23689 3.79843 4.1498 4.08968 4.1498 4.40088V5.42627H5.59355V5.46729V7.06689V7.10791H4.1498V10.7583V10.8403L4.14415 10.9034V12.3359L4.1498 12.3989V12.481V16.1313H5.59355V16.1724V17.772V17.813H4.1498V18.8384C4.1498 19.743 4.88578 20.479 5.79042 20.479H10.4662L18.5873 20.479C19.4919 20.479 20.2279 19.743 20.2279 18.8384V14.8763ZM17.1795 12.5964C17.2865 12.2479 17.3441 11.8777 17.3441 11.494C17.3441 9.67981 16.0558 8.1665 14.3442 7.81904V9.91902V10.669H12.8442V9.91902V7.81903C11.1325 8.16647 9.84415 9.67979 9.84415 11.494C9.84415 11.9373 9.92106 12.3626 10.0623 12.7574L10.1427 12.7107L11.6237 11.8514L12.2724 11.475L13.0252 12.7724L12.3765 13.1488L10.8954 14.0082L10.8408 14.0399C11.5258 14.7804 12.5058 15.244 13.5941 15.244C14.7434 15.244 15.7718 14.7271 16.4597 13.913L15.1427 13.1488L14.4939 12.7724L15.2467 11.475L15.8954 11.8514L17.1795 12.5964ZM13.5941 16.744C16.4936 16.744 18.8441 14.3935 18.8441 11.494C18.8441 8.59452 16.4936 6.24402 13.5941 6.24402C10.6947 6.24402 8.34415 8.59452 8.34415 11.494C8.34415 14.3935 10.6947 16.744 13.5941 16.744Z" fill="#151516" fill-rule="evenodd"/>
</svg>
