<?xml version="1.0" encoding="UTF-8"?>
<!DOCTYPE svg
PUBLIC "-//W3C//DTD SVG 1.1//EN"
       "http://www.w3.org/Graphics/SVG/1.1/DTD/svg11.dtd">
<svg version="1.1" xmlns="http://www.w3.org/2000/svg" xmlns:xlink="http://www.w3.org/1999/xlink" viewBox="0 0 24 24">
 <path clip-rule="evenodd" d="M6.46484 4.10431C7.85618 3.40864 9.72582 3 11.75 3C13.7742 3 15.6438 3.40864 17.0352 4.10431C18.3816 4.77755 19.5 5.84638 19.5 7.25C19.5 8.02105 19.1625 8.69108 18.6351 9.25C19.1625 9.80892 19.5 10.4789 19.5 11.25C19.5 12.6536 18.3816 13.7225 17.0352 14.3957C15.6438 15.0914 13.7742 15.5 11.75 15.5C9.72582 15.5 7.85618 15.0914 6.46484 14.3957C6.3262 14.3264 6.18997 14.2529 6.05714 14.1752C5.66431 14.5537 5.5 14.9296 5.5 15.25C5.5 15.7794 5.94864 16.4605 7.13566 17.0541C8.27782 17.6251 9.90819 18 11.75 18C12.5471 18 13.3046 17.9298 14 17.8039V19.3253C13.2852 19.4395 12.529 19.5 11.75 19.5C9.72582 19.5 7.85618 19.0914 6.46484 18.3957C5.11836 17.7225 4 16.6536 4 15.25C4 14.4789 4.33748 13.8089 4.86488 13.25C4.33748 12.6911 4 12.0211 4 11.25C4 10.4789 4.33748 9.80892 4.86488 9.25C4.33748 8.69108 4 8.02105 4 7.25C4 5.84638 5.11836 4.77755 6.46484 4.10431ZM6.05714 10.1752C5.66431 10.5537 5.5 10.9296 5.5 11.25C5.5 11.7794 5.94864 12.4605 7.13566 13.0541C8.27782 13.6251 9.90819 14 11.75 14C13.5918 14 15.2222 13.6251 16.3643 13.0541C17.5514 12.4605 18 11.7794 18 11.25C18 10.9296 17.8357 10.5537 17.4429 10.1752C17.31 10.2529 17.1738 10.3264 17.0352 10.3957C15.6438 11.0914 13.7742 11.5 11.75 11.5C9.72582 11.5 7.85618 11.0914 6.46484 10.3957C6.3262 10.3264 6.18997 10.2529 6.05714 10.1752ZM7.13566 5.44595C5.94864 6.03946 5.5 6.72062 5.5 7.25C5.5 7.77938 5.94864 8.46054 7.13566 9.05405C8.27782 9.62513 9.90819 10 11.75 10C13.5918 10 15.2222 9.62513 16.3643 9.05405C17.5514 8.46054 18 7.77938 18 7.25C18 6.72062 17.5514 6.03946 16.3643 5.44595C15.2222 4.87487 13.5918 4.5 11.75 4.5C9.90819 4.5 8.27782 4.87487 7.13566 5.44595ZM18 18C18 18.5523 17.5523 19 17 19C16.4477 19 16 18.5523 16 18C16 17.4477 16.4477 17 17 17C17.5523 17 18 17.4477 18 18ZM17 20.8787L21 17V19.1213L17 23V20.8787ZM22 22C22 22.5523 21.5523 23 21 23C20.4477 23 20 22.5523 20 22C20 21.4477 20.4477 21 21 21C21.5523 21 22 21.4477 22 22Z" fill="#151516" fill-rule="evenodd"/>
</svg>
