<?xml version="1.0" encoding="UTF-8"?>
<!DOCTYPE svg
PUBLIC "-//W3C//DTD SVG 1.1//EN"
       "http://www.w3.org/Graphics/SVG/1.1/DTD/svg11.dtd">
<svg version="1.1" xmlns="http://www.w3.org/2000/svg" xmlns:xlink="http://www.w3.org/1999/xlink" viewBox="0 0 24 24">
 <path clip-rule="evenodd" d="M2.75 6.25C2.75 3.35051 5.1005 1 8 1C10.8995 1 13.25 3.35051 13.25 6.25C13.25 9.1495 10.8995 11.5 8 11.5C5.1005 11.5 2.75 9.1495 2.75 6.25ZM8 2.5C5.92893 2.5 4.25 4.17893 4.25 6.25C4.25 8.32107 5.92893 10 8 10C10.0711 10 11.75 8.32107 11.75 6.25C11.75 4.17893 10.0711 2.5 8 2.5ZM16.9168 10.6675C16.3312 10.2689 15.5309 10.4446 15.1661 11.0518L14.4634 12.2217C14.2089 12.6455 14.228 13.1795 14.5123 13.584L16.2333 16.0329L6.83389 15.4006C6.11215 15.3521 5.5 15.9244 5.5 16.6478V18.0734C5.5 18.5401 5.75997 18.9679 6.17419 19.1828L14.5934 23.5523C14.7001 23.6077 14.8186 23.6366 14.9389 23.6366L22.75 23.6367L22.75 22.1367L15.1219 22.1366L7 17.9215V16.9152L17.6997 17.6349C17.988 17.6543 18.2618 17.5064 18.4036 17.2545C18.5453 17.0027 18.5298 16.6918 18.3636 16.4554L15.833 12.8546L16.3064 12.0666L20.7614 15.0997C21.8491 15.8402 22.5 17.0708 22.5 18.3866H24C24 16.5744 23.1035 14.8796 21.6055 13.8597L16.9168 10.6675ZM6 5.5H10V7H6V5.5Z" fill="#151516" fill-rule="evenodd"/>
</svg>
