<?xml version="1.0" encoding="UTF-8"?>
<!DOCTYPE svg
PUBLIC "-//W3C//DTD SVG 1.1//EN"
       "http://www.w3.org/Graphics/SVG/1.1/DTD/svg11.dtd">
<svg version="1.1" xmlns="http://www.w3.org/2000/svg" xmlns:xlink="http://www.w3.org/1999/xlink" viewBox="0 0 24 24">
 <path clip-rule="evenodd" d="M19 4.5H5C3.067 4.5 1.5 6.067 1.5 8V16C1.5 17.933 3.067 19.5 5 19.5H19C20.933 19.5 22.5 17.933 22.5 16V8C22.5 6.067 20.933 4.5 19 4.5ZM3 8C3 6.89543 3.89543 6 5 6H19C20.1046 6 21 6.89543 21 8V16C21 17.1046 20.1046 18 19 18H5C3.89543 18 3 17.1046 3 16V8ZM5 14H7.94737V15.5H5V14ZM9.44739 14H12.3948V15.5H9.44739V14Z" fill="#151516" fill-rule="evenodd"/>
</svg>
