<?xml version="1.0" encoding="UTF-8"?>
<!DOCTYPE svg
PUBLIC "-//W3C//DTD SVG 1.1//EN"
       "http://www.w3.org/Graphics/SVG/1.1/DTD/svg11.dtd">
<svg version="1.1" xmlns="http://www.w3.org/2000/svg" xmlns:xlink="http://www.w3.org/1999/xlink" viewBox="0 0 24 24">
 <path clip-rule="evenodd" d="M13 4.5C13.8284 4.5 14.5 3.82843 14.5 3C14.5 2.17157 13.8284 1.5 13 1.5C12.1716 1.5 11.5 2.17157 11.5 3C11.5 3.82843 12.1716 4.5 13 4.5ZM13 6C14.6569 6 16 4.65685 16 3C16 1.34315 14.6569 0 13 0C11.3431 0 10 1.34315 10 3C10 4.65685 11.3431 6 13 6ZM5.54968 5.88984C5.28561 5.7534 4.96588 5.78579 4.73452 5.9724C4.50317 6.15902 4.40386 6.46466 4.48132 6.75162L5.27604 9.69559L5.29905 9.78084C4.88834 10.3416 4.56222 10.9683 4.33948 11.642H3.59347H3.05615C2.64194 11.642 2.30615 11.9778 2.30615 12.392V14.2726V16.6905C2.30615 17.1047 2.64194 17.4405 3.05615 17.4405H5.09305C6.11241 19.0013 7.7613 20.1137 9.67929 20.4171V21.5V22.25H11.1793V21.5V20.5002H15.127V21.5V22.25H16.627V21.5V20.3614C19.6941 19.7293 22.0002 17.0137 22.0002 13.7595C22.0002 10.0367 18.9823 7.01885 15.2595 7.01885H10.7408C9.94926 7.01885 9.18957 7.15529 8.48398 7.40593L8.34439 7.33381L5.54968 5.88984ZM3.80615 13.142H3.95599L3.95599 13.1369H5.53677C5.6705 12.0071 6.16359 10.9875 6.89856 10.1956L6.00009 7.5001L8.37381 9.08259C9.08481 8.72204 9.88909 8.51885 10.7408 8.51885H15.2595C18.1538 8.51885 20.5002 10.8652 20.5002 13.7595C20.5002 16.6538 18.1538 19.0002 15.2595 19.0002H10.7408C8.62517 19.0002 6.80233 17.7465 5.97463 15.9415H3.95604V15.9405H3.80615V14.2726V13.142ZM11 10.25H10.25V11.75H11H15H15.75V10.25H15H11Z" fill="#151516" fill-rule="evenodd"/>
</svg>
