<?xml version="1.0" encoding="UTF-8"?>
<!DOCTYPE svg
PUBLIC "-//W3C//DTD SVG 1.1//EN"
       "http://www.w3.org/Graphics/SVG/1.1/DTD/svg11.dtd">
<svg version="1.1" xmlns="http://www.w3.org/2000/svg" xmlns:xlink="http://www.w3.org/1999/xlink" viewBox="0 0 24 24">
 <path clip-rule="evenodd" d="M12.4514 1.42133C12.1849 1.19289 11.7917 1.19289 11.5251 1.42133L2.48828 9.16721V11.0418L4.87175 8.99884V18.3297C4.87175 18.7227 5.19037 19.0413 5.58341 19.0413H9.14167H12.0004L12.0002 19C12.0002 18.5269 12.0472 18.0648 12.1366 17.618H10.565V12.8225H13.4116V14.7843C13.8161 14.2489 14.2958 13.7734 14.8349 13.3736V12.3481C14.8349 11.824 14.4101 11.3992 13.886 11.3992H10.0905C9.56649 11.3992 9.14167 11.824 9.14167 12.3481V17.618H6.29506V7.77886L11.9883 2.89895L17.6815 7.77886V12.124C18.1086 12.0426 18.5494 12 19.0002 12C19.0352 12 19.07 12.0003 19.1048 12.0008V8.99884L21.4883 11.0418V9.16721L12.4514 1.42133ZM17.0002 17C17.0002 17.5523 16.5525 18 16.0002 18C15.448 18 15.0002 17.5523 15.0002 17C15.0002 16.4477 15.448 16 16.0002 16C16.5525 16 17.0002 16.4477 17.0002 17ZM16.0002 19.8787L20.0002 16V18.1213L16.0002 22V19.8787ZM21.0002 21C21.0002 21.5523 20.5525 22 20.0002 22C19.448 22 19.0002 21.5523 19.0002 21C19.0002 20.4477 19.448 20 20.0002 20C20.5525 20 21.0002 20.4477 21.0002 21Z" fill="#151516" fill-rule="evenodd"/>
</svg>
