<?xml version="1.0" encoding="UTF-8"?>
<!DOCTYPE svg
PUBLIC "-//W3C//DTD SVG 1.1//EN"
       "http://www.w3.org/Graphics/SVG/1.1/DTD/svg11.dtd">
<svg version="1.1" xmlns="http://www.w3.org/2000/svg" xmlns:xlink="http://www.w3.org/1999/xlink" viewBox="0 0 24 24">
 <path clip-rule="evenodd" d="M13.0467 1.28562C12.4114 0.93532 11.6409 0.935393 11.0057 1.28584L2.32764 6.09274V7.95267L11.8005 2.72629C11.9411 2.6487 12.1117 2.6487 12.2523 2.72629L21.7252 7.95269L21.7251 6.05953L13.0467 1.28562ZM9.26829 6.96848H10.9134V17.7102H9.26829V6.96848ZM5.39747 17.7102L5.39742 7.29105H7.04257L7.04262 17.7102H5.39747ZM4.10714 19.6456L12.6992 19.6457L12.8108 19.9925C12.8764 20.1967 12.9519 20.3965 13.0367 20.5913L13.3412 21.2908H4.10714L4.10714 19.6456ZM18.6553 7.29103L18.6552 11.4939L18.2149 11.5469C18.0122 11.5712 17.8124 11.6049 17.616 11.6475L17.01 11.7788L17.0101 7.29107L18.6553 7.29103ZM14.7843 6.96848V13.0473L14.6212 13.196C14.4079 13.3905 14.2077 13.599 14.0219 13.8201L13.1391 14.8701V6.96848H14.7843ZM17.9998 16C17.9998 16.5523 17.552 17 16.9998 17C16.4475 17 15.9998 16.5523 15.9998 16C15.9998 15.4477 16.4475 15 16.9998 15C17.552 15 17.9998 15.4477 17.9998 16ZM16.9998 18.8787L20.9998 15V17.1213L16.9998 21V18.8787ZM21.9998 20C21.9998 20.5523 21.552 21 20.9998 21C20.4475 21 19.9998 20.5523 19.9998 20C19.9998 19.4477 20.4475 19 20.9998 19C21.552 19 21.9998 19.4477 21.9998 20Z" fill="#151516" fill-rule="evenodd"/>
</svg>
