<?xml version="1.0" encoding="UTF-8"?>
<!DOCTYPE svg
PUBLIC "-//W3C//DTD SVG 1.1//EN"
       "http://www.w3.org/Graphics/SVG/1.1/DTD/svg11.dtd">
<svg version="1.1" xmlns="http://www.w3.org/2000/svg" xmlns:xlink="http://www.w3.org/1999/xlink" viewBox="0 0 24 24">
 <path clip-rule="evenodd" d="M10.2272 1.8999C8.59922 1.8999 7.26444 3.15469 7.1371 4.74993H3.4999C2.3401 4.74993 1.3999 5.69013 1.3999 6.84993V17.9999C1.3999 19.712 2.78782 21.0999 4.4999 21.0999H19.4999C21.212 21.0999 22.5999 19.712 22.5999 17.9999V6.84993C22.5999 5.69013 21.6597 4.74993 20.4999 4.74993H16.8627C16.7353 3.15469 15.4006 1.8999 13.7726 1.8999H10.2272ZM15.1347 4.6749H8.86505C9.01156 4.05845 9.56589 3.5999 10.2272 3.5999H13.7726C14.4339 3.5999 14.9882 4.05845 15.1347 4.6749ZM7.38934 13.0248L4.08615 6.44993H19.9137L16.6105 13.0249H18.2648L20.8999 8.01957V17.9999C20.8999 18.7731 20.2731 19.3999 19.4999 19.3999H4.4999C3.7267 19.3999 3.0999 18.7731 3.0999 17.9999V8.01953L5.73501 13.0248H7.38934ZM14.0526 13.3999H10.0216L10.8155 15.0249H13.4088L14.0526 13.3999Z" fill="#151516" fill-rule="evenodd"/>
</svg>
