<?xml version="1.0" encoding="UTF-8"?>
<!DOCTYPE svg
PUBLIC "-//W3C//DTD SVG 1.1//EN"
       "http://www.w3.org/Graphics/SVG/1.1/DTD/svg11.dtd">
<svg version="1.1" xmlns="http://www.w3.org/2000/svg" xmlns:xlink="http://www.w3.org/1999/xlink" viewBox="0 0 24 24">
 <path clip-rule="evenodd" d="M19.5595 2.41016L4.27118 17.6145L4.05368 20.725L19.3595 5.27079L19.5595 2.41016ZM6.18362 8.7316C7.39568 8.81636 8.44696 7.90249 8.53172 6.69043C8.61648 5.47836 7.70261 4.42708 6.49054 4.34232C5.27848 4.25757 4.22719 5.17143 4.14244 6.3835C4.05768 7.59557 4.97155 8.64685 6.18362 8.7316ZM6.05805 10.5272C8.26181 10.6813 10.1732 9.01975 10.3273 6.81599C10.4814 4.61223 8.81986 2.70081 6.61611 2.54671C4.41235 2.39261 2.50092 4.05418 2.34682 6.25794C2.19272 8.4617 3.8543 10.3731 6.05805 10.5272ZM18.9836 16.9277C18.8989 18.1398 17.8476 19.0537 16.6355 18.9689C15.4235 18.8842 14.5096 17.8329 14.5943 16.6208C14.6791 15.4087 15.7304 14.4949 16.9424 14.5796C18.1545 14.6644 19.0684 15.7157 18.9836 16.9277ZM20.7792 17.0533C20.6251 19.2571 18.7137 20.9186 16.51 20.7645C14.3062 20.6104 12.6446 18.699 12.7987 16.4952C12.9528 14.2915 14.8643 12.6299 17.068 12.784C19.2718 12.9381 20.9333 14.8495 20.7792 17.0533Z" fill="#151516" fill-rule="evenodd"/>
</svg>
