<?xml version="1.0" encoding="UTF-8"?>
<!DOCTYPE svg
PUBLIC "-//W3C//DTD SVG 1.1//EN"
       "http://www.w3.org/Graphics/SVG/1.1/DTD/svg11.dtd">
<svg version="1.1" xmlns="http://www.w3.org/2000/svg" xmlns:xlink="http://www.w3.org/1999/xlink" viewBox="0 0 24 24">
 <path clip-rule="evenodd" d="M12.2785 0.303643C12.0997 0.232119 11.9003 0.232119 11.7215 0.303643L6.72146 2.30364C6.52672 2.38154 6.3735 2.53742 6.29896 2.73346C6.22442 2.92951 6.23538 3.14781 6.32918 3.33541L7.32918 5.33541C7.36781 5.41267 7.4187 5.48127 7.47881 5.53934C7.33025 5.99952 7.25 6.49039 7.25 7.00001C7.25 9.62336 9.37665 11.75 12 11.75C14.6234 11.75 16.75 9.62336 16.75 7.00001C16.75 6.49039 16.6697 5.99952 16.5212 5.53934C16.5813 5.48127 16.6322 5.41267 16.6708 5.33541L17.6708 3.33541C17.7646 3.14781 17.7756 2.92951 17.701 2.73346C17.6265 2.53742 17.4733 2.38154 17.2785 2.30364L12.2785 0.303643ZM15.2475 7.12928L15.2115 7.23717C15.1094 7.54343 14.8228 7.75 14.5 7.75H9.5C9.17718 7.75 8.89057 7.54343 8.78849 7.23717L8.75252 7.12928C8.82039 8.86428 10.2484 10.25 12 10.25C13.7516 10.25 15.1796 8.86428 15.2475 7.12928ZM10.0406 6.25L9.8739 5.75H14.1261L13.9594 6.25H10.0406ZM8.46353 4.25L8.03534 3.39364L12 1.80777L15.9647 3.39364L15.5365 4.25H8.46353ZM17 14.5869H16.25V15.25H18.6958C18.2502 14.8384 17.6545 14.5869 17 14.5869ZM14.75 14.5869V16C14.75 16.4142 15.0858 16.75 15.5 16.75H19H19.4775C19.4923 16.8602 19.5 16.9727 19.5 17.0869V20.5H4.5V17.0869C4.5 16.9727 4.50766 16.8602 4.52251 16.75H5.00008H8.5C8.91421 16.75 9.25 16.4142 9.25 16V14.5869H14.75ZM7.75 14.5869H7C6.34554 14.5869 5.74981 14.8384 5.30418 15.25H7.75V14.5869ZM7 13.0869C4.79086 13.0869 3 14.8778 3 17.0869V21C3 21.5523 3.44772 22 4 22H20C20.5523 22 21 21.5523 21 21V17.0869C21 14.8778 19.2091 13.0869 17 13.0869H7Z" fill="#151516" fill-rule="evenodd"/>
</svg>
