<?xml version="1.0" encoding="UTF-8"?>
<!DOCTYPE svg
PUBLIC "-//W3C//DTD SVG 1.1//EN"
       "http://www.w3.org/Graphics/SVG/1.1/DTD/svg11.dtd">
<svg version="1.1" xmlns="http://www.w3.org/2000/svg" xmlns:xlink="http://www.w3.org/1999/xlink" viewBox="0 0 24 24">
 <path clip-rule="evenodd" d="M1 12C1 5.93447 5.93447 1 12 1C18.0655 1 23 5.93447 23 12C23 18.0651 18.0655 23 12 23C5.93447 23 1 18.0651 1 12ZM2.83333 12C2.83333 17.0544 6.94558 21.1667 12 21.1667C17.0544 21.1667 21.1667 17.0544 21.1667 12C21.1667 6.94558 17.0544 2.83333 12 2.83333C6.94558 2.83333 2.83333 6.94558 2.83333 12ZM12.9167 6.28005C13.04 6.31631 13.1624 6.35793 13.2828 6.4103C14.4526 6.9163 15.2084 8.03081 15.2084 9.25004V10.1667H13.375V9.25004C13.375 8.77023 13.0454 8.30496 12.5551 8.09235C12.2178 7.94644 11.8438 7.94106 11.5028 8.07579C11.1613 8.21096 10.8927 8.47124 10.747 8.80827C10.6013 9.14508 10.5953 9.51905 10.7305 9.86056C10.8656 10.2021 11.1259 10.4706 11.4629 10.6163L13.2457 11.3378C14.0525 11.687 14.6592 12.3131 14.9747 13.1096C15.2901 13.9063 15.2766 14.778 14.936 15.5644C14.5956 16.3511 13.9694 16.9582 13.173 17.2736C13.0886 17.3071 13.0029 17.3356 12.9172 17.3617V19.3334H11.0838V17.3671C10.9601 17.3304 10.8377 17.2883 10.7177 17.2364C9.54881 16.73 8.79305 15.575 8.79216 14.2931L8.79171 13.3764L10.625 13.3746L10.6255 14.2913C10.6259 14.8427 10.9482 15.3382 11.4459 15.5535C11.7827 15.6996 12.1558 15.7052 12.4978 15.57C12.8393 15.4349 13.1078 15.1744 13.2535 14.8375C13.3994 14.5007 13.4053 14.1268 13.2701 13.7853C13.1349 13.4437 12.8746 13.1752 12.5376 13.03L10.7548 12.308C9.94806 11.9593 9.34135 11.3331 9.02603 10.5362C8.7107 9.73949 8.7239 8.86735 9.06452 8.08094C9.45392 7.18016 10.2104 6.54995 11.0834 6.2861V4.66671H12.9167V6.28005Z" fill="#151516" fill-rule="evenodd"/>
</svg>
