<?xml version="1.0" encoding="UTF-8"?>
<!DOCTYPE svg
PUBLIC "-//W3C//DTD SVG 1.1//EN"
       "http://www.w3.org/Graphics/SVG/1.1/DTD/svg11.dtd">
<svg version="1.1" xmlns="http://www.w3.org/2000/svg" xmlns:xlink="http://www.w3.org/1999/xlink" viewBox="0 0 24 24">
 <path clip-rule="evenodd" d="M1 12C1 5.93447 5.93447 1 12 1C18.0655 1 23 5.93447 23 12C23 18.0651 18.0655 23 12 23C5.93447 23 1 18.0651 1 12ZM2.83333 12C2.83333 17.0544 6.94558 21.1667 12 21.1667C17.0544 21.1667 21.1667 17.0544 21.1667 12C21.1667 6.94558 17.0544 2.83333 12 2.83333C6.94558 2.83333 2.83333 6.94558 2.83333 12ZM9.33933 14.184C10.01 15.5953 11.2448 16.544 12.6543 16.544C14.0015 16.544 15.27 15.6421 15.9647 14.1895L17.7297 15.0347C16.7065 17.1728 14.762 18.5 12.6544 18.5C11.07 18.5 9.59117 17.7747 8.49027 16.4582C7.93655 15.7966 7.5135 15.0248 7.23537 14.1839H5.10791V12.228H6.86258C6.85316 12.0687 6.84829 11.9103 6.84829 11.7494C6.84829 11.5901 6.85316 11.4296 6.86258 11.2725H5.10791V9.31622H7.23537C7.5135 8.47525 7.93655 7.70256 8.49023 7.04036C9.59113 5.72398 11.0699 5 12.6543 5C14.7619 5 16.7065 6.32737 17.7297 8.46556L15.9647 9.30914C15.2701 7.85844 14.0015 6.9566 12.6544 6.9566C11.2448 6.9566 10.01 7.90497 9.33937 9.31622H13.775V11.2726H8.82383C8.81145 11.4286 8.80485 11.5891 8.80485 11.7494C8.80485 11.9113 8.81149 12.0698 8.82383 12.228H13.7749V14.184H9.33933Z" fill="#151516" fill-rule="evenodd"/>
</svg>
