<?xml version="1.0" encoding="UTF-8"?>
<!DOCTYPE svg
PUBLIC "-//W3C//DTD SVG 1.1//EN"
       "http://www.w3.org/Graphics/SVG/1.1/DTD/svg11.dtd">
<svg version="1.1" xmlns="http://www.w3.org/2000/svg" xmlns:xlink="http://www.w3.org/1999/xlink" viewBox="0 0 24 24">
 <path d="M19.7782 4.22182C17.7006 2.14421 14.9382 1 12 1C9.06184 1 6.29942 2.14421 4.22182 4.22182C2.14421 6.29942 1 9.06184 1 12C1 14.9382 2.14421 17.7006 4.22182 19.7782C6.29942 21.8558 9.06184 23 12 23C14.9382 23 17.7006 21.8558 19.7782 19.7782C21.8558 17.7006 23 14.9382 23 12C23 9.06184 21.8558 6.29942 19.7782 4.22182ZM12 21.2812C6.88235 21.2812 2.71875 17.1176 2.71875 12C2.71875 6.88235 6.88235 2.71875 12 2.71875C17.1176 2.71875 21.2812 6.88235 21.2812 12C21.2812 17.1176 17.1176 21.2812 12 21.2812ZM15.6923 11.1861C15.9699 10.7349 16.1305 10.2042 16.1305 9.63672C16.1305 8.22127 15.1334 7.0351 13.8047 6.74203V4.91016H12.0859V6.67188H10.7539V4.91016H9.03516V6.67188H7.32195V8.39062H9.03516V15.6953H7.31641V17.4141H9.03516V19.1328H10.7539V17.4141H12.0859V19.1328H13.8047V17.4141H14.3203C16.121 17.4141 17.5859 15.9491 17.5859 14.1484C17.5859 12.8376 16.8093 11.7054 15.6923 11.1861ZM13.1657 8.39062C13.8527 8.39062 14.4118 8.94955 14.4118 9.63672C14.4118 10.3239 13.8527 10.8828 13.1657 10.8828H10.7539V8.39062H13.1657ZM14.3203 15.6953H10.7539V12.6016H14.3203C15.1733 12.6016 15.8672 13.2954 15.8672 14.1484C15.8672 15.0014 15.1733 15.6953 14.3203 15.6953Z" fill="#151516"/>
</svg>
