<?xml version="1.0" encoding="UTF-8"?>
<svg version="1.1" xmlns="http://www.w3.org/2000/svg" viewBox="0 0 24 24">
  <path clip-rule="evenodd" d="M13.2 2.4C12.75 1.95 12.15 1.75 11.55 1.875L4.65 3.3C3.9 3.45 3.3 4.05 3.15 4.8L1.725 11.7C1.6 12.3 1.8 12.9 2.25 13.35L11.85 22.95C12.6 23.7 13.85 23.7 14.6 22.95L22.95 14.6C23.7 13.85 23.7 12.6 22.95 11.85L13.2 2.4ZM11.85 3.45C11.875 3.445 11.9 3.455 11.92 3.475L21.52 13.075C21.55 13.105 21.55 13.15 21.52 13.18L13.175 21.525C13.145 21.555 13.1 21.555 13.07 21.525L3.47 11.925C3.45 11.905 3.44 11.88 3.445 11.855L4.87 4.955C4.88 4.925 4.9 4.905 4.93 4.9L11.85 3.45ZM8.5 7.25C7.95 7.25 7.5 7.7 7.5 8.25C7.5 8.8 7.95 9.25 8.5 9.25C9.05 9.25 9.5 8.8 9.5 8.25C9.5 7.7 9.05 7.25 8.5 7.25ZM6 8.25C6 6.875 7.125 5.75 8.5 5.75C9.875 5.75 11 6.875 11 8.25C11 9.625 9.875 10.75 8.5 10.75C7.125 10.75 6 9.625 6 8.25Z" fill="#151516" fill-rule="evenodd"/>
</svg>
