<?xml version="1.0" encoding="UTF-8"?>
<svg xmlns="http://www.w3.org/2000/svg" viewBox="0 0 24 24" width="24" height="24">
  <defs/>
  <path d="M12,1C5.927,1 1,5.968 1,12c0,6.057 4.944,11 11,11 6.057,0 11,-4.943 11,-11S18.057,1 12,1m0,1.29a9.7,9.7 0,0 1,3.071 0.497c-0.18,0.267 -0.294,0.62 -0.294,1.077 0,0.696 0.311,1.318 0.612,1.92 0.245,0.49 0.476,0.952 0.476,1.344 0,0.227 -0.054,0.279 -0.24,0.34 -0.325,0.11 -0.907,0.106 -1.348,0.104h-0.098l0.214,1.289c0.558,0.001 1.158,-0.009 1.64,-0.17 0.723,-0.24 1.121,-0.796 1.121,-1.563 0,-0.696 -0.31,-1.319 -0.612,-1.92 -0.245,-0.49 -0.476,-0.953 -0.476,-1.344 0,-0.303 0.066,-0.472 0.4,-0.486C19.578,4.998 21.71,8.255 21.71,12c0,4.328 -2.846,8.003 -6.765,9.254 0.015,-0.094 0.017,-0.186 0.015,-0.275v-1.073s0.01,-0.094 0.205,-0.33c0.182,-0.22 0.454,-0.477 0.743,-0.748 0.985,-0.927 2.333,-2.196 2.333,-4.083 0,-0.646 -0.326,-0.99 -0.599,-1.165 -0.286,-0.182 -0.618,-0.255 -0.97,-0.332 -1.043,-0.229 -1.464,-0.452 -2.01,-1.366 -0.264,-0.442 -0.626,-1.046 -1.418,-1.046 -0.719,0 -1.137,0.303 -1.474,0.546 -0.385,0.279 -0.75,0.542 -1.79,0.542 -1.034,0 -1.648,-0.599 -1.86,-1.112 -0.081,-0.194 -0.228,-0.684 0.14,-1.052 0.177,-0.178 0.273,-0.187 0.888,0.12 0.562,0.282 1.503,0.752 2.376,-0.12 0.19,-0.19 0.374,-0.34 0.555,-0.46l-0.663,-1.106a4.8,4.8 0,0 0,-0.804 0.654c-0.177,0.178 -0.273,0.187 -0.888,-0.12 -0.562,-0.281 -1.503,-0.752 -2.376,0.12 -0.51,0.51 -0.712,1.23 -0.57,1.958 -0.221,-0.085 -0.47,-0.154 -0.707,-0.22 -0.44,-0.123 -0.834,-0.232 -0.903,-0.408 -0.05,-0.126 -0.127,-0.67 0.954,-2.425 0.4,-0.65 0.882,-1.604 0.438,-2.367 -0.215,-0.37 -0.576,-0.568 -0.975,-0.67A9.67,9.67 0,0 1,12 2.288m0,19.42c-5.355,0 -9.71,-4.355 -9.71,-9.71 0,-2.308 0.809,-4.43 2.158,-6.098 0.743,-0.006 0.944,0.084 0.997,0.132 0.007,0.043 0.027,0.318 -0.42,1.043 -1.053,1.71 -1.369,2.779 -1.055,3.574 0.306,0.776 1.086,0.992 1.768,1.18 0.26,0.072 0.505,0.14 0.705,0.233l0.086,0.04c0.583,0.273 2.567,1.2 2.807,1.558v0.838h1.285v-0.843q0,-0.26 -0.083,-0.468c1.07,-0.099 1.592,-0.476 1.988,-0.762 0.278,-0.201 0.418,-0.302 0.72,-0.302h0.012c0.068,0.034 0.212,0.275 0.298,0.419 0.731,1.22 1.444,1.657 2.842,1.963 0.187,0.041 0.466,0.103 0.549,0.158a0.4,0.4 0,0 1,0.006 0.08c0,1.33 -1.024,2.293 -1.927,3.144 -0.724,0.681 -1.35,1.27 -1.35,2.017v1.108c0.005,0.13 -0.13,0.394 -0.248,0.512 -0.164,-0.228 -0.626,-1.175 -0.626,-4.605 0,-0.707 -0.53,-1.143 -1.074,-1.48l-1.291,0.738q0.14,0.084 0.275,0.16c0.248,0.142 0.764,0.438 0.8,0.582 0,2.571 0.248,3.987 0.567,4.789z" fill="#151516" fill-rule="evenodd"/>
  <path d="m15.071,2.787 l0.083,0.056 0.074,-0.109 -0.125,-0.042zM15.389,5.784 L15.479,5.739zM15.389,5.784 L15.299,5.829zM15.626,7.469 L15.657,7.564zM14.277,7.572v-0.1zM14.179,7.572v-0.1l-0.119,-0.001 0.02,0.117zM14.393,8.861 L14.295,8.877 14.309,8.961h0.084zM16.033,8.691 L16.002,8.597zM16.543,5.208 L16.453,5.252zM16.543,5.208 L16.632,5.163zM16.465,3.378 L16.512,3.29 16.488,3.277 16.461,3.279zM14.946,21.254 L14.847,21.238 14.822,21.398 14.976,21.348zM14.961,20.979 L14.861,20.98v0.002zM14.961,19.923h0.1zM14.961,19.906 L14.861,19.896v0.01zM15.166,19.576 L15.243,19.639zM15.909,18.828 L15.977,18.901zM15.909,18.828 L15.847,18.748 15.841,18.754zM15.909,18.828 L15.972,18.906 15.978,18.9zM17.643,13.58 L17.697,13.496zM16.673,13.248 L16.695,13.15zM16.673,13.248 L16.653,13.346zM14.663,11.882 L14.577,11.933zM11.771,11.382 L11.829,11.464zM11.771,11.382 L11.713,11.3v0.001zM8.121,10.812 L8.028,10.851zM8.261,9.76 L8.19,9.69zM9.149,9.88 L9.193,9.791zM11.525,9.76 L11.455,9.69zM12.08,9.3 L12.135,9.384 12.215,9.332 12.166,9.249zM11.417,8.194 L11.502,8.143 11.449,8.055 11.363,8.11zM10.613,8.848 L10.543,8.778zM9.725,8.728 L9.681,8.818zM7.349,8.848 L7.419,8.919zM6.779,10.806 L6.742,10.9 6.911,10.965 6.876,10.787zM6.072,10.586 L6.099,10.489h-0.005zM6.072,10.586 L6.045,10.682 6.05,10.683zM5.169,10.178 L5.262,10.141zM6.123,7.753 L6.208,7.806zM6.561,5.386 L6.648,5.336zM5.586,4.716L5.52,4.64l-0.141,0.125 0.182,0.047zM4.448,5.901v-0.1L4.4,5.801l-0.03,0.037zM5.445,6.033 L5.545,6.017 5.538,5.982 5.512,5.959zM5.025,7.076 L4.94,7.024zM3.97,10.651l0.093,-0.037zM5.738,11.831 L5.711,11.927zM6.443,12.064 L6.4,12.154zM6.529,12.104 L6.486,12.194zM9.336,13.662h0.1v-0.031l-0.017,-0.025zM9.336,14.5h-0.1v0.1h0.1zM10.621,14.5v0.1h0.1v-0.1zM10.538,13.189 L10.528,13.089 10.395,13.101 10.445,13.226zM12.526,12.427 L12.585,12.507zM13.246,12.125 L13.248,12.025h-0.003zM13.254,12.125 L13.262,12.025h-0.005zM13.258,12.125 L13.302,12.035 13.285,12.027 13.265,12.026zM13.556,12.544 L13.471,12.595zM16.398,14.507 L16.377,14.605zM16.947,14.665 L17.045,14.644 17.036,14.604 17.002,14.581zM15.027,17.889 L14.957,17.816 14.955,17.818zM15.027,17.889 L15.095,17.961 15.097,17.959zM13.677,19.906h0.1zM13.677,20.019h-0.1zM13.677,20.019h0.1zM13.677,21.014 L13.577,21.017zM13.428,21.526 L13.348,21.584 13.416,21.68 13.499,21.596zM11.728,15.441 L11.781,15.356 11.73,15.325 11.678,15.355zM10.437,16.179 L10.387,16.092 10.238,16.177 10.385,16.265zM10.712,16.339 L10.662,16.426zM10.712,16.339 L10.762,16.252zM11.512,16.921h0.1v-0.012l-0.002,-0.012zM12.079,21.71 L12.081,21.81 12.226,21.808 12.172,21.673zM12.044,21.71v-0.1h-0.001zM1.1,12C1.1,6.023 5.982,1.1 12,1.1L12,0.9C5.872,0.9 0.9,5.913 0.9,12zM12,22.9C5.999,22.9 1.1,18.002 1.1,12L0.9,12c0,6.112 4.988,11.1 11.1,11.1zM22.9,12c0,6.001 -4.898,10.9 -10.9,10.9v0.2c6.112,0 11.1,-4.988 11.1,-11.1zM12,1.1c6.001,0 10.9,4.898 10.9,10.9h0.2C23.1,5.888 18.112,0.9 12,0.9zM15.103,2.692A9.8,9.8 0,0 0,12 2.19v0.2c1.062,0 2.084,0.174 3.04,0.493zM14.877,3.864c0,-0.44 0.109,-0.772 0.277,-1.02l-0.166,-0.113c-0.193,0.286 -0.311,0.66 -0.311,1.133zM15.478,5.739c-0.302,-0.606 -0.601,-1.207 -0.601,-1.875h-0.2c0,0.723 0.324,1.367 0.623,1.965zM15.478,5.739 L15.299,5.829zM15.965,7.128a1.9,1.9 0,0 0,-0.153 -0.672c-0.09,-0.23 -0.212,-0.473 -0.333,-0.717l-0.18,0.09c0.123,0.246 0.24,0.48 0.327,0.7 0.086,0.221 0.14,0.421 0.14,0.599zM15.657,7.564c0.093,-0.031 0.181,-0.067 0.238,-0.144 0.058,-0.077 0.07,-0.176 0.07,-0.292h-0.2c0,0.11 -0.014,0.151 -0.03,0.172 -0.016,0.022 -0.048,0.043 -0.14,0.074zM14.277,7.672c0.22,0 0.478,0.002 0.723,-0.01 0.243,-0.013 0.481,-0.04 0.657,-0.098l-0.063,-0.19a2.5,2.5 0,0 1,-0.604 0.088c-0.238,0.012 -0.491,0.01 -0.712,0.01zM14.178,7.672h0.099v-0.2h-0.098zM14.492,8.845 L14.277,7.555 14.08,7.588 14.295,8.878zM16.002,8.597c-0.464,0.154 -1.048,0.165 -1.608,0.164v0.2c0.554,0.001 1.17,-0.008 1.671,-0.175zM17.054,7.127c0,0.367 -0.095,0.676 -0.27,0.922 -0.176,0.245 -0.438,0.433 -0.782,0.548l0.063,0.19c0.378,-0.127 0.677,-0.337 0.881,-0.622 0.204,-0.284 0.308,-0.636 0.308,-1.037zM16.453,5.252c0.303,0.606 0.601,1.207 0.601,1.876h0.2c0,-0.724 -0.323,-1.367 -0.622,-1.965zM16.453,5.252 L16.632,5.163zM15.966,3.864c0,0.214 0.063,0.441 0.153,0.671s0.212,0.473 0.334,0.717l0.178,-0.09a9,9 0,0 1,-0.326 -0.7,1.7 1.7,0 0,1 -0.139,-0.598zM16.461,3.279c-0.182,0.007 -0.318,0.058 -0.402,0.176 -0.078,0.11 -0.093,0.256 -0.093,0.409h0.2c0,-0.15 0.018,-0.24 0.056,-0.293 0.033,-0.046 0.096,-0.087 0.247,-0.093zM21.811,12c0,-3.784 -2.154,-7.074 -5.3,-8.71l-0.092,0.177C19.501,5.07 21.611,8.293 21.611,12zM14.976,21.349c3.96,-1.263 6.835,-4.976 6.835,-9.349h-0.2c0,4.283 -2.817,7.92 -6.695,9.158zM14.861,20.982q0.005,0.127 -0.014,0.256l0.198,0.031c0.016,-0.101 0.018,-0.2 0.016,-0.292zM14.861,19.923v1.057l0.2,-0.002v-1.055zM14.861,19.906v0.017h0.2v-0.017zM15.089,19.512a1.5,1.5 0,0 0,-0.188 0.273,0.5 0.5,0 0,0 -0.039,0.108v0.002l0.1,0.011 0.099,0.01v0.003l-0.001,0.002v0.002l0.001,-0.005 0.019,-0.043c0.022,-0.045 0.07,-0.121 0.163,-0.236zM15.84,18.755c-0.286,0.27 -0.564,0.531 -0.75,0.757l0.153,0.127c0.177,-0.214 0.444,-0.465 0.734,-0.738zM15.841,18.755 L15.977,18.901 15.978,18.9zM15.847,18.749 L15.972,18.905zM18.142,14.745c0,1.837 -1.311,3.078 -2.3,4.01l0.136,0.145c0.98,-0.922 2.364,-2.219 2.364,-4.155zM17.589,13.665c0.251,0.16 0.553,0.475 0.553,1.08h0.2c0,-0.688 -0.35,-1.06 -0.645,-1.249zM16.652,13.345c0.355,0.079 0.669,0.148 0.937,0.32l0.108,-0.169c-0.304,-0.194 -0.654,-0.27 -1.002,-0.346zM16.653,13.345 L16.694,13.15zM14.577,11.933c0.277,0.463 0.528,0.762 0.85,0.973 0.32,0.209 0.701,0.325 1.225,0.44l0.043,-0.196c-0.52,-0.114 -0.87,-0.224 -1.159,-0.412 -0.286,-0.187 -0.518,-0.457 -0.788,-0.907zM13.245,10.936c0.729,0 1.064,0.55 1.332,0.997l0.171,-0.102c-0.26,-0.436 -0.648,-1.095 -1.503,-1.095zM11.83,11.463c0.334,-0.241 0.73,-0.527 1.415,-0.527v-0.2c-0.752,0 -1.193,0.32 -1.533,0.565zM11.829,11.463 L11.713,11.3zM9.981,12.023c0.529,0 0.892,-0.066 1.176,-0.172s0.48,-0.249 0.672,-0.388l-0.117,-0.162c-0.192,0.14 -0.37,0.268 -0.625,0.363s-0.594,0.16 -1.106,0.16zM8.028,10.851c0.227,0.547 0.877,1.173 1.953,1.173v-0.2c-0.99,0 -1.57,-0.572 -1.768,-1.05zM8.19,9.689c-0.416,0.416 -0.244,0.964 -0.162,1.162l0.184,-0.077c-0.078,-0.19 -0.2,-0.623 0.12,-0.943zM9.193,9.791c-0.303,-0.151 -0.497,-0.236 -0.641,-0.252a0.37,0.37 0,0 0,-0.208 0.032,0.6 0.6,0 0,0 -0.154,0.118l0.141,0.142a0.4,0.4 0,0 1,0.1 -0.08,0.17 0.17,0 0,1 0.099,-0.013c0.102,0.011 0.263,0.076 0.574,0.232zM11.454,9.689c-0.413,0.414 -0.836,0.505 -1.223,0.464 -0.394,-0.041 -0.754,-0.22 -1.038,-0.362l-0.089,0.18c0.28,0.139 0.67,0.335 1.106,0.381 0.442,0.047 0.926,-0.062 1.386,-0.521zM12.026,9.217a3.6,3.6 0,0 0,-0.572 0.472l0.142,0.142c0.186,-0.187 0.365,-0.332 0.54,-0.447zM11.331,8.246 L11.995,9.352 12.166,9.249 11.502,8.143zM10.684,8.919a4.7,4.7 0,0 1,0.787 -0.64l-0.108,-0.169c-0.27,0.173 -0.544,0.392 -0.82,0.668zM9.681,8.817c0.303,0.152 0.497,0.236 0.64,0.252a0.37,0.37 0,0 0,0.209 -0.031,0.6 0.6,0 0,0 0.154,-0.119l-0.141,-0.141a0.4,0.4 0,0 1,-0.1 0.08,0.17 0.17,0 0,1 -0.098,0.013c-0.103,-0.012 -0.264,-0.077 -0.575,-0.233zM7.42,8.92c0.413,-0.413 0.836,-0.505 1.223,-0.464 0.394,0.041 0.754,0.22 1.037,0.362l0.09,-0.179c-0.28,-0.14 -0.67,-0.336 -1.106,-0.382 -0.443,-0.047 -0.927,0.063 -1.386,0.522zM6.876,10.788c-0.135,-0.698 0.059,-1.383 0.544,-1.868l-0.142,-0.141c-0.535,0.535 -0.745,1.288 -0.598,2.047zM6.046,10.683c0.237,0.066 0.481,0.134 0.696,0.218l0.072,-0.187c-0.225,-0.087 -0.48,-0.158 -0.715,-0.224zM6.05,10.684 L6.094,10.489zM5.076,10.215a0.4,0.4 0,0 0,0.145 0.167c0.062,0.043 0.14,0.08 0.223,0.114 0.169,0.067 0.383,0.126 0.601,0.187l0.054,-0.193a6,6 0,0 1,-0.58 -0.18,1 1,0 0,1 -0.185,-0.093c-0.045,-0.031 -0.065,-0.057 -0.072,-0.075zM6.038,7.702c-0.543,0.88 -0.799,1.464 -0.912,1.847 -0.113,0.382 -0.086,0.575 -0.05,0.666l0.186,-0.073c-0.013,-0.033 -0.05,-0.176 0.056,-0.536s0.352,-0.926 0.89,-1.8zM6.475,5.437c0.203,0.35 0.199,0.749 0.088,1.149 -0.111,0.401 -0.326,0.793 -0.525,1.116l0.17,0.105c0.202,-0.328 0.428,-0.739 0.547,-1.168 0.12,-0.43 0.133,-0.89 -0.107,-1.303zM5.561,4.813c0.384,0.099 0.716,0.285 0.914,0.624l0.173,-0.1c-0.234,-0.402 -0.623,-0.611 -1.037,-0.718zM12,2.189A9.77,9.77 0,0 0,5.52 4.64l0.132,0.15A9.57,9.57 0,0 1,12 2.39zM2.19,12c0,5.41 4.4,9.81 9.81,9.81v-0.2c-5.3,0 -9.61,-4.31 -9.61,-9.61zM4.37,5.84A9.76,9.76 0,0 0,2.19 12h0.2c0,-2.284 0.8,-4.384 2.136,-6.035zM5.512,5.96c-0.047,-0.043 -0.133,-0.082 -0.288,-0.11a4,4 0,0 0,-0.777 -0.048l0.002,0.2a4,4 0,0 1,0.738 0.044c0.144,0.027 0.185,0.057 0.192,0.063zM5.111,7.13c0.45,-0.732 0.446,-1.034 0.433,-1.112l-0.197,0.032c0,0.007 0.036,0.257 -0.407,0.975zM4.063,10.614c-0.146,-0.37 -0.15,-0.812 0.018,-1.378 0.168,-0.568 0.505,-1.254 1.03,-2.106l-0.17,-0.105c-0.53,0.858 -0.877,1.561 -1.052,2.154 -0.175,0.594 -0.18,1.084 -0.012,1.508zM5.764,11.734c-0.691,-0.19 -1.416,-0.397 -1.701,-1.12l-0.186,0.073c0.327,0.83 1.163,1.055 1.834,1.24zM6.485,11.974c-0.208,-0.098 -0.463,-0.168 -0.72,-0.24l-0.054,0.193c0.263,0.073 0.5,0.138 0.69,0.228zM6.571,12.014 L6.485,11.974 6.4,12.154 6.486,12.194zM9.419,13.606a1,1 0,0 0,-0.187 -0.182,4 4,0 0,0 -0.301,-0.203 13,13 0,0 0,-0.824 -0.459,42 42,0 0,0 -1.536,-0.748l-0.084,0.18c0.291,0.137 0.931,0.436 1.528,0.746 0.299,0.155 0.585,0.311 0.81,0.45q0.172,0.106 0.285,0.192a0.7,0.7 0,0 1,0.144 0.135zM9.437,14.5v-0.838h-0.2v0.838zM10.621,14.4L9.336,14.4v0.2h1.285zM10.521,13.657v0.843h0.2v-0.843zM10.445,13.226q0.076,0.188 0.076,0.43h0.2q0,-0.276 -0.09,-0.504zM12.468,12.346c-0.39,0.282 -0.894,0.647 -1.94,0.743l0.019,0.2c1.097,-0.101 1.636,-0.49 2.038,-0.781zM13.245,12.026a0.9,0.9 0,0 0,-0.41 0.084c-0.118,0.055 -0.23,0.137 -0.367,0.236l0.117,0.162a2,2 0,0 1,0.334 -0.217,0.7 0.7,0 0,1 0.326,-0.066zM13.257,12.026h-0.01l-0.004,0.2h0.009zM13.266,12.026h-0.004l-0.015,0.199h0.004zM13.642,12.492a6,6 0,0 0,-0.159 -0.255,2 2,0 0,0 -0.085,-0.116 0.3,0.3 0,0 0,-0.096 -0.085l-0.088,0.18c-0.004,-0.003 0.005,0.002 0.03,0.032q0.034,0.04 0.073,0.1c0.054,0.08 0.11,0.175 0.153,0.247zM16.419,14.41c-0.693,-0.152 -1.207,-0.334 -1.636,-0.624s-0.78,-0.691 -1.14,-1.294l-0.173,0.103c0.37,0.619 0.74,1.046 1.201,1.356 0.46,0.31 1.001,0.5 1.706,0.654zM17.002,14.581a0.5,0.5 0,0 0,-0.117 -0.053,2 2,0 0,0 -0.148,-0.044 8,8 0,0 0,-0.318 -0.074l-0.043,0.195c0.095,0.02 0.21,0.046 0.31,0.072q0.076,0.02 0.134,0.04 0.058,0.021 0.071,0.03zM17.053,14.745a0.5,0.5 0,0 0,-0.009 -0.101l-0.195,0.041a0.3,0.3 0,0 1,0.004 0.06zM15.095,17.961c0.45,-0.423 0.94,-0.883 1.315,-1.406 0.376,-0.524 0.643,-1.118 0.643,-1.81h-0.2c0,0.637 -0.245,1.19 -0.606,1.693 -0.362,0.505 -0.836,0.951 -1.29,1.378zM15.097,17.959 L14.955,17.818zM13.777,19.906c0,-0.343 0.143,-0.656 0.382,-0.973 0.241,-0.317 0.572,-0.63 0.936,-0.972l-0.137,-0.145c-0.36,0.339 -0.705,0.663 -0.958,0.996 -0.254,0.336 -0.424,0.69 -0.424,1.094zM13.777,20.019v-0.113h-0.2v0.113zM13.777,20.019h-0.2zM13.777,21.011c-0.002,-0.045 -0.001,-0.71 0,-0.991h-0.2c-0.001,0.278 -0.002,0.948 0,0.997zM13.499,21.596a1.1,1.1 0,0 0,0.188 -0.277q0.04,-0.08 0.065,-0.157a0.5,0.5 0,0 0,0.025 -0.151l-0.2,0.006a0.3,0.3 0,0 1,-0.017 0.085,1 1,0 0,1 -0.052,0.128 1,1 0,0 1,-0.15 0.226zM12.702,16.921c0,1.72 0.116,2.82 0.253,3.523 0.138,0.701 0.298,1.01 0.392,1.14l0.162,-0.117c-0.07,-0.097 -0.223,-0.375 -0.357,-1.062 -0.135,-0.686 -0.25,-1.773 -0.25,-3.484zM11.675,15.526c0.544,0.336 1.027,0.746 1.027,1.395h0.2c0,-0.765 -0.576,-1.227 -1.121,-1.565zM10.486,16.266 L11.778,15.528 11.678,15.354 10.387,16.092zM10.761,16.252q-0.135,-0.076 -0.273,-0.159l-0.103,0.172q0.142,0.085 0.277,0.16zM10.761,16.252 L10.662,16.426zM11.61,16.897a0.3,0.3 0,0 0,-0.054 -0.1,1 1,0 0,0 -0.083,-0.083 2,2 0,0 0,-0.226 -0.168,9 9,0 0,0 -0.486,-0.294l-0.099,0.174c0.125,0.071 0.313,0.179 0.474,0.286 0.081,0.054 0.153,0.106 0.205,0.152l0.06,0.06c0.014,0.017 0.015,0.024 0.015,0.021zM12.172,21.673c-0.312,-0.784 -0.56,-2.184 -0.56,-4.752h-0.2c0,2.575 0.248,4.006 0.574,4.826zM12.046,21.81h0.035l-0.003,-0.2h-0.035zM12,21.81h0.046l-0.003,-0.2L12,21.61z" fill="#151516"/>
</svg>
